<?xml version="1.0" encoding="utf-8" ?><svg xmlns="http://www.w3.org/2000/svg" xmlns:xlink="http://www.w3.org/1999/xlink" width="1344" height="768" viewBox="0 0 1344 768"><path fill="white" d="M0 0L267.522 0L289.56 0L373.752 0L396.03 0L446.692 0L585.203 0L595.872 0L599.873 0L604.749 0L609.32 0L611.55 0L626.937 0L686.368 0L701.624 0L705.77 0L707.828 0L711.411 0L718.502 0L721.997 0L729.369 0L820.287 0L900.092 0L901.462 0L982.603 0L1286.6 0L1344 0L1344 96.225L1344 297.943L1344 298.456L1344 624.585L1344 641.637L1344 768L1120.84 768L1106.06 768L914.568 768L899.955 768L841.974 768L385.381 768L341.024 768L281.401 768L178.259 768L141.455 768L0 768L0 667.582L0 511.334L0 398.808L0 278.67L0 198.024L0 0Z"/><defs><linearGradient id="gradient_0" gradientUnits="userSpaceOnUse" x1="230.38353" y1="21.707378" x2="465.98602" y2="328.46097"><stop offset="0" stop-color="#E78F4D"/><stop offset="1" stop-color="#005EFF"/></linearGradient></defs><path fill="url(#gradient_0)" d="M0 0L267.522 0L289.56 0L373.752 0L396.03 0L446.692 0L585.203 0L595.872 0L599.873 0L604.749 0L609.32 0L611.55 0L626.937 0L686.368 0L701.624 0L705.77 0L707.828 0L711.411 0L718.502 0L721.997 0L729.369 0L820.287 0C815.316 9.54615 808.179 18.7267 801.364 27.0564C769.886 65.2623 727.908 93.4083 680.616 108.018C652.527 116.886 632.583 117.4 604.707 122.422C544.831 133.211 492.819 167.668 464.543 222.286C450.192 250.007 448.098 266.882 440.257 295.343C428.921 336.492 403.974 370.469 374.217 400.157C325.276 445.064 272.615 465.362 205.247 463.001C189.733 462.457 174.585 459.901 159.145 459.48C118.61 458.375 67.9617 471.136 32.1236 491.076C21.1801 497.412 10.1788 503.813 0 511.334L0 398.808L0 278.67L0 198.024L0 0Z"/><path fill="#FE5707" d="M32.1236 491.076C31.9737 464.749 36.6768 438.62 45.9973 413.999C62.4975 370.308 97.9082 333.472 140.434 314.357C183.75 295.104 232.933 293.827 277.189 310.806C317.744 326.375 356.472 360.16 374.217 400.157C325.276 445.064 272.615 465.362 205.247 463.001C189.733 462.457 174.585 459.901 159.145 459.48C118.61 458.375 67.9617 471.136 32.1236 491.076Z"/><path fill="#F97316" d="M0 0L267.522 0C266.323 2.23503 267.472 2.16024 266.443 3.93608C263.796 8.50137 260.39 12.7887 259.075 17.9665L259.121 18.4023C253.014 24.5232 254.725 49.8603 253.777 50.6067C240.352 61.1681 217.546 69.234 204.54 79.7905C189.808 91.7475 174.833 106.786 160.273 119.074C153.821 124.84 146.256 128.666 139.194 133.444C132.035 138.288 125.047 143.669 117.964 148.697C97.0681 163.531 77.1208 179.084 55.8519 193.359C38.4853 205.014 22.4181 217.482 1.92585 223.741C2.01692 219.539 2.89576 200.837 1.29887 198.214L0 198.024L0 0Z"/><defs><linearGradient id="gradient_1" gradientUnits="userSpaceOnUse" x1="341.35471" y1="19.441608" x2="379.36237" y2="77.236565"><stop offset="0" stop-color="#FFEBCF"/><stop offset="1" stop-color="white"/></linearGradient></defs><path fill="url(#gradient_1)" d="M267.522 0L289.56 0L373.752 0L396.03 0L446.692 0L441.742 5.73036C435.204 11.8528 426.36 21.9919 419.982 28.7615C406.754 42.7738 393.453 56.7165 380.078 70.5889C371.689 79.3369 361.643 91.1142 351.526 97.3437C341.416 103.65 329.662 106.815 317.753 106.438C298.529 105.854 283.852 98.994 271.08 84.6786C270.507 84.0366 269.677 83.0243 268.963 82.6294C267.826 80.7625 266.663 78.9117 265.475 77.0775C263.13 74.0353 262.207 71.7318 260.757 68.2016C254.162 60.2537 254.257 35.7031 257.166 26.1374C257.925 23.6409 258.558 20.9961 259.121 18.4023L259.075 17.9665C260.39 12.7887 263.796 8.50137 266.443 3.93608C267.472 2.16024 266.323 2.23503 267.522 0Z"/><defs><linearGradient id="gradient_2" gradientUnits="userSpaceOnUse" x1="295.9902" y1="-5.3240967" x2="321.47876" y2="38.347725"><stop offset="0" stop-color="#FF961F"/><stop offset="1" stop-color="#FFDFAE"/></linearGradient></defs><path fill="url(#gradient_2)" d="M267.522 0L289.56 0L373.752 0L373.905 1.67804C375.147 1.88562 376.23 2.03158 377.482 2.16672C349.753 26.7157 311.346 42.5887 279.351 61.1258C273.013 64.7978 269.221 66.4836 262.111 68.2648L261.7 67.705C261.341 67.8619 260.989 67.9533 260.757 68.2016C254.162 60.2537 254.257 35.7031 257.166 26.1374C257.925 23.6409 258.558 20.9961 259.121 18.4023L259.075 17.9665C260.39 12.7887 263.796 8.50137 266.443 3.93608C267.472 2.16024 266.323 2.23503 267.522 0Z"/><path fill="#E89A37" d="M267.522 0L289.56 0C286.682 2.6187 284.544 1.41104 282.938 3.11675C280.141 6.08646 276.22 6.67499 273.688 8.58592C268.958 12.1544 263.886 14.824 259.075 17.9665C260.39 12.7887 263.796 8.50137 266.443 3.93608C267.472 2.16024 266.323 2.23503 267.522 0Z"/><path fill="#F3D8BB" d="M373.752 0L396.03 0C392.34 3.48749 388.535 2.42388 382.975 2.2925C375.151 9.50997 358.245 18.3517 349.706 24.9809C339.834 32.6451 338.066 37.3279 326.073 43.5604C328.576 40.7036 331.146 37.9074 333.783 35.1741L333.583 34.5481L333.133 34.8347C330.674 36.3861 328.068 37.6658 325.487 38.9988C311.046 46.4582 297.169 54.9567 282.673 62.3171C280.753 63.2919 278.851 64.2753 277.146 65.6002L277.427 67.3533C272.695 71.8629 267.06 67.5578 263.526 71.3798C264.712 73.4815 265.806 74.7843 265.475 77.0775C263.13 74.0353 262.207 71.7318 260.757 68.2016C260.989 67.9533 261.341 67.8619 261.7 67.705L262.111 68.2648C269.221 66.4836 273.013 64.7978 279.351 61.1258C311.346 42.5887 349.753 26.7157 377.482 2.16672C376.23 2.03158 375.147 1.88562 373.905 1.67804L373.752 0Z"/><path fill="#8D9181" d="M599.873 0L604.749 0L609.32 0L611.55 0L626.937 0L686.368 0L701.624 0L705.77 0L707.828 0L711.411 0L718.502 0L721.997 0C721.829 3.87806 721.705 5.9216 720.802 9.67376C719.063 16.9405 709.647 33.0224 704.015 38.2028C697.165 46.2387 693.242 48.7761 682.934 51.4598C679.03 52.683 673.263 54.6598 669.368 55.5269C670.409 54.6629 671.454 53.7339 672.481 52.8466L672.37 51.7453C669.774 50.472 663.111 51.1262 659.597 50.581C629.011 53.1134 601.845 30.9133 599.873 0Z"/><defs><linearGradient id="gradient_3" gradientUnits="userSpaceOnUse" x1="659.85956" y1="32.047451" x2="659.48553" y2="1.5192823"><stop offset="0" stop-color="#5988A6"/><stop offset="1" stop-color="#2F7CC7"/></linearGradient></defs><path fill="url(#gradient_3)" d="M626.937 0L686.368 0C690.615 4.40255 693.732 0.871993 696.057 2.37282C697.528 10.8918 691.715 10.4406 688.632 13.321C687.519 14.3615 689.614 19.2213 684.811 22.668L682.587 22.6813L682.066 22.137L682.469 20.1736C679.964 21.9275 678.031 24.7882 675.767 26.322C664.295 34.0933 644.622 37.3185 634.671 25.5241C632.651 23.129 633.975 22.8314 630.304 21.1801C627.406 16.1622 621.335 9.21527 623.54 2.45281C625.252 1.7897 625.73 1.37934 626.937 0Z"/><path fill="#C79654" d="M705.77 0L707.828 0L711.411 0L718.502 0L721.997 0C721.829 3.87806 721.705 5.9216 720.802 9.67376C719.063 16.9405 709.647 33.0224 704.015 38.2028C697.165 46.2387 693.242 48.7761 682.934 51.4598C686.325 47.9942 688.819 47.9614 692.883 43.559C691.158 44.2492 690.811 44.4353 688.996 44.6821C688.511 41.6265 696.105 34.6207 698.587 29.8189C696.358 29.1518 694.115 33.6521 687.954 32.5444C689.483 30.5355 691.429 28.5173 693.091 26.4147C695.096 25.2583 697.907 21.1036 699.668 18.9654C700.93 16.7213 702.351 13.6179 704.579 12.4079C704.321 5.52402 705.252 5.92702 705.77 0Z"/><path fill="#D7994A" d="M692.883 43.559C693.036 43.3698 708.222 27.484 706.581 27.7799L706.633 27.8245C707.07 29.815 701.978 35.5851 701.791 36.412C702.163 36.7995 703.409 37.6726 704.015 38.2028C697.165 46.2387 693.242 48.7761 682.934 51.4598C686.325 47.9942 688.819 47.9614 692.883 43.559Z"/><path fill="#AE9658" d="M705.77 0L707.828 0L711.411 0C710.773 4.05909 709.248 10.1388 706.013 12.9278C703.656 14.96 703.307 18.361 699.668 18.9654C700.93 16.7213 702.351 13.6179 704.579 12.4079C704.321 5.52402 705.252 5.92702 705.77 0Z"/><path fill="#98947A" d="M705.77 0L707.828 0C707.284 5.48952 707.031 7.4865 704.579 12.4079C704.321 5.52402 705.252 5.92702 705.77 0Z"/><path fill="#D7994A" d="M718.502 0L721.997 0C721.829 3.87806 721.705 5.9216 720.802 9.67376C718.193 12.8462 716.068 16.2822 713.484 19.4814C713.086 19.974 711.246 22.9775 710.331 22.0504L710.406 21.8952L710.338 22.0065L714.619 13.8398C716.895 9.54358 717.684 4.70733 718.502 0Z"/><path fill="#788D90" d="M686.368 0L701.624 0C698.441 14.135 693.352 22.2427 680.805 30.1224C672.597 35.277 660.332 41.1647 650.647 38.1261C649.019 37.5716 647.446 36.1926 645.82 35.6063C642.981 34.4086 631.07 31.9876 629.84 29.9005L631.608 29.24C630.315 26.0987 629.554 24.5906 627.842 21.6468C629.024 21.1282 628.996 21.1983 630.304 21.1801C633.975 22.8314 632.651 23.129 634.671 25.5241C644.622 37.3185 664.295 34.0933 675.767 26.322C678.031 24.7882 679.964 21.9275 682.469 20.1736L682.066 22.137L682.587 22.6813L684.811 22.668C689.614 19.2213 687.519 14.3615 688.632 13.321C691.715 10.4406 697.528 10.8918 696.057 2.37282C693.732 0.871993 690.615 4.40255 686.368 0Z"/><path fill="#AE9658" d="M599.873 0L604.749 0L609.32 0L611.55 0C613.293 8.15454 610.906 14.9505 616.756 23.0491C617.662 24.3037 617.947 29.7543 622.193 30.8719C624.615 31.5169 627.791 37.9632 625.204 36.6986C623.089 36.5426 621.965 35.9046 620.129 34.9767L620.044 35.9076C623.158 38.949 622.072 37.5131 624.623 38.7763C632.028 42.4434 636.767 50.3451 647.54 46.6658C650.996 47.4604 657.533 48.1049 659.881 49.3716L659.597 50.581C629.011 53.1134 601.845 30.9133 599.873 0Z"/><path fill="#98947A" d="M604.749 0L609.32 0L611.55 0C613.293 8.15454 610.906 14.9505 616.756 23.0491C617.662 24.3037 617.947 29.7543 622.193 30.8719C624.615 31.5169 627.791 37.9632 625.204 36.6986C619.405 30.3492 617.221 30.35 613.892 21.7043C611.267 19.4247 605.554 6.63158 607.179 2.47139L607.181 2.5058C606.679 1.70559 605.621 1.08787 604.749 0Z"/><defs><linearGradient id="gradient_4" gradientUnits="userSpaceOnUse" x1="682.7793" y1="48.664192" x2="678.40668" y2="38.275238"><stop offset="0" stop-color="#CD9851"/><stop offset="1" stop-color="#A3906E"/></linearGradient></defs><path fill="url(#gradient_4)" d="M686.375 30.4907C688.568 27.4779 689.646 27.3209 693.091 26.4147C691.429 28.5173 689.483 30.5355 687.954 32.5444C694.115 33.6521 696.358 29.1518 698.587 29.8189C696.105 34.6207 688.511 41.6265 688.996 44.6821C690.811 44.4353 691.158 44.2492 692.883 43.559C688.819 47.9614 686.325 47.9942 682.934 51.4598C679.03 52.683 673.263 54.6598 669.368 55.5269C670.409 54.6629 671.454 53.7339 672.481 52.8466L672.37 51.7453C669.774 50.472 663.111 51.1262 659.597 50.581L659.881 49.3716C657.533 48.1049 650.996 47.4604 647.54 46.6658C649.407 46.2965 651.981 46.3146 653.936 46.2516L650.214 45.4138L650.725 45.067C652.008 45.0503 651.269 45.1073 652.178 44.7765C655.931 43.4114 661.312 46.9857 665.431 46.4058C669.649 45.812 670.059 43.5166 672.32 41.0427C676.655 40.6723 685.866 33.861 686.375 30.4907Z"/><path fill="#98947A" d="M686.375 30.4907C685.866 33.861 676.655 40.6723 672.32 41.0427L673.454 40.2961C674.179 39.8126 676.051 38.9838 675.99 38.1186C674.564 36.103 684.403 31.7051 686.375 30.4907Z"/><path fill="#E89A37" d="M585.203 0L595.872 0L599.873 0C601.845 30.9133 629.011 53.1134 659.597 50.581C663.111 51.1262 669.774 50.472 672.37 51.7453L672.481 52.8466C671.454 53.7339 670.409 54.6629 669.368 55.5269C673.263 54.6598 679.03 52.683 682.934 51.4598C693.242 48.7761 697.165 46.2387 704.015 38.2028C709.647 33.0224 719.063 16.9405 720.802 9.67376C721.705 5.9216 721.829 3.87806 721.997 0L729.369 0C725.425 16.8507 722.571 27.9334 710.855 41.4746C698.232 55.9333 680.337 64.723 661.181 65.8748C621.947 68.6222 587.615 39.5926 585.203 0Z"/><path fill="#C79654" d="M595.872 0L599.873 0C601.845 30.9133 629.011 53.1134 659.597 50.581C663.111 51.1262 669.774 50.472 672.37 51.7453L672.481 52.8466C671.454 53.7339 670.409 54.6629 669.368 55.5269C658.16 56.3352 655.482 54.9939 644.985 51.1481C639.63 49.1859 629.898 48.6256 625.258 45.3999C610.303 35.0032 598.986 18.0187 595.872 0Z"/><path fill="#11B26C" d="M316.856 639.468C317.538 638.679 323.922 634.113 325.05 633.308C396.034 582.629 488.037 552.648 575.441 567.371C597.292 570.4 617.914 576.462 638.492 584.226C705.355 609.533 763.589 653.436 806.328 710.757C814.731 721.897 821.561 732.646 828.94 744.462L830.309 746.853L841.974 768L385.381 768L341.024 768L281.401 768L178.259 768C199.288 749.181 219.832 727.674 240.693 708.55C259.197 690.968 277.476 673.08 296.474 656.035C302.895 650.274 309.715 644.295 316.856 639.468Z"/><defs><linearGradient id="gradient_5" gradientUnits="userSpaceOnUse" x1="543.70526" y1="651.24182" x2="716.43591" y2="864.46014"><stop offset="0" stop-color="#03BDA9"/><stop offset="1" stop-color="#0757FF"/></linearGradient></defs><path fill="url(#gradient_5)" d="M575.441 567.371C597.292 570.4 617.914 576.462 638.492 584.226C705.355 609.533 763.589 653.436 806.328 710.757C814.731 721.897 821.561 732.646 828.94 744.462L830.309 746.853L841.974 768L385.381 768C388.399 763.29 413.239 767.485 419.718 766.054C426.647 764.523 430.667 752.19 436.39 750.62C436.698 750.647 437.947 750.72 438.178 750.756C444.447 751.736 448.746 733.771 452.41 729.888C457.759 724.719 463.211 719.655 468.544 714.442C477.943 705.254 489.994 700.912 498.26 690.214C501.266 686.323 506.678 683.662 510.792 681.032C521.279 674.329 528.324 677.779 538.434 668.495C538.266 651.827 561.651 635.449 577.701 635.133C581.177 635.064 596.475 617.356 600.825 617.024C611.04 616.244 617.062 605.192 624.753 600.955C636.017 594.75 634.461 597.804 640.784 586.4C638.643 585.135 635.997 584.977 633.845 584.001C617.757 576.705 600.009 573.413 582.812 569.792C580.3 569.263 578.184 568.643 575.609 568.368L575.066 568.313L575.441 567.371Z"/><path fill="#A7A213" d="M178.259 768C199.288 749.181 219.832 727.674 240.693 708.55C251.522 708.102 272.75 725.089 280.797 731.548C284.71 739.922 291.284 756.552 290.877 765.88C286 767.45 285.178 763.489 281.401 768L178.259 768Z"/><path fill="#5CA928" d="M316.856 639.468C314.903 645.579 280.413 668.694 279.443 674.492C280.29 675.072 280.134 675.339 281.025 675.185C284.908 674.517 296.94 684.626 298.024 687.607C302.647 700.326 308.283 714.126 313.176 726.605C316.678 735.537 317.499 750.796 322.837 759.16C324.164 761.191 325.142 764.774 326.464 765.88C331.224 766.848 338.536 763.717 341.024 768L281.401 768C285.178 763.489 286 767.45 290.877 765.88C291.284 756.552 284.71 739.922 280.797 731.548C272.75 725.089 251.522 708.102 240.693 708.55C259.197 690.968 277.476 673.08 296.474 656.035C302.895 650.274 309.715 644.295 316.856 639.468Z"/><path fill="#76AB42" d="M280.797 731.548C294.465 736.451 296.672 759.216 322.837 759.16C324.164 761.191 325.142 764.774 326.464 765.88C331.224 766.848 338.536 763.717 341.024 768L281.401 768C285.178 763.489 286 767.45 290.877 765.88C291.284 756.552 284.71 739.922 280.797 731.548Z"/><path fill="white" d="M1344 297.943L1344 298.456L1344 624.585L1344 641.637L1344 768L1120.84 768L1106.06 768L914.568 768L899.955 768C898.066 761.581 896.206 754.717 894.413 748.241C898.294 748.596 905.083 748.386 908.932 747.891L908.432 746.224L908.508 745.809C913 746.261 924.895 744.327 929.851 743.586C970.655 737.58 1010.28 725.281 1047.32 707.125C1142.42 660.517 1217.44 578.562 1248.42 476.359C1257.98 444.824 1259.45 412.909 1269.73 381.407C1280.73 347.704 1312.3 313.359 1344 297.943Z"/><path fill="white" d="M1212.98 654.083C1258.7 632.711 1295.31 630.06 1344 641.637L1344 768L1120.84 768C1131.31 732.015 1147.24 709.267 1172.67 682.774C1175.57 681.095 1188.32 669.568 1192.83 666.534C1198.37 662.805 1208.55 657.516 1212.98 654.083Z"/><path fill="#F97316" d="M1193.37 646.933C1194.75 645.886 1196.66 644.775 1198.17 643.901C1246.62 615.945 1290.75 611.123 1344 624.585L1344 641.637C1295.31 630.06 1258.7 632.711 1212.98 654.083L1213.04 653.34C1214.17 652.037 1218.42 650.275 1220.23 649.423C1217.56 647.384 1209.08 642.778 1205.83 641.143C1202.11 643.083 1198.36 645.352 1194.6 647.365L1193.37 646.933Z"/><path fill="#AE9658" d="M1205.83 641.143C1209.08 642.778 1217.56 647.384 1220.23 649.423C1218.42 650.275 1214.17 652.037 1213.04 653.34L1212.98 654.083C1208.55 657.516 1198.37 662.805 1192.83 666.534C1188.32 669.568 1175.57 681.095 1172.67 682.774C1164.79 684.372 1151.21 707.225 1145.27 712.345C1143.96 712.656 1134.53 710.718 1131.75 710.443C1136.17 703.965 1140.86 697.68 1145.81 691.602C1148.3 688.597 1157.21 679.067 1157.45 676.332C1161.7 670.079 1186.22 650.608 1193.37 646.933L1194.6 647.365C1198.36 645.352 1202.11 643.083 1205.83 641.143Z"/><path fill="#F3D8BB" d="M1344 297.943L1344 298.456C1329.17 306.943 1314.81 319.22 1302.51 331.101C1260.45 371.753 1265.42 427.957 1249.4 479.608C1221.14 570.74 1156.12 647.438 1073.73 694.856C1035.95 716.6 994.959 732.216 952.289 741.121C945.189 742.63 911.5 747.094 909.311 748.124L908.932 747.891L908.432 746.224L908.508 745.809C913 746.261 924.895 744.327 929.851 743.586C970.655 737.58 1010.28 725.281 1047.32 707.125C1142.42 660.517 1217.44 578.562 1248.42 476.359C1257.98 444.824 1259.45 412.909 1269.73 381.407C1280.73 347.704 1312.3 313.359 1344 297.943Z"/><defs><linearGradient id="gradient_6" gradientUnits="userSpaceOnUse" x1="1136.4052" y1="710.11005" x2="1114.984" y2="768.05017"><stop offset="0" stop-color="#6D9C7D"/><stop offset="1" stop-color="#00B5AD"/></linearGradient></defs><path fill="url(#gradient_6)" d="M1157.45 676.332C1157.21 679.067 1148.3 688.597 1145.81 691.602C1140.86 697.68 1136.17 703.965 1131.75 710.443C1134.53 710.718 1143.96 712.656 1145.27 712.345C1151.21 707.225 1164.79 684.372 1172.67 682.774C1147.24 709.267 1131.31 732.015 1120.84 768L1106.06 768C1114.26 735.57 1133.32 699.734 1157.45 676.332Z"/><path fill="#839FC7" d="M908.932 747.891L909.311 748.124C910.39 754.23 913.193 761.65 914.568 768L899.955 768C898.066 761.581 896.206 754.717 894.413 748.241C898.294 748.596 905.083 748.386 908.932 747.891Z"/><defs><linearGradient id="gradient_7" gradientUnits="userSpaceOnUse" x1="990.43518" y1="97.477425" x2="1275.7444" y2="55.56805"><stop offset="0" stop-color="#04E9B6"/><stop offset="1" stop-color="#0584D0"/></linearGradient></defs><path fill="url(#gradient_7)" d="M982.603 0L1286.6 0L1344 0L1344 96.225C1324.48 104.352 1308.77 106.646 1288.57 111.234C1283.66 112.349 1273.76 116.695 1269.98 117.369C1261.26 121.841 1251.96 125.174 1243.03 130.625C1199.36 157.264 1162.94 179.01 1108.87 173.078C1070.91 168.67 1036.25 149.366 1012.51 119.409C984.126 83.9734 977.635 44.1157 982.603 0Z"/><path fill="#2563EB" d="M1286.6 0L1344 0L1344 96.225C1324.48 104.352 1308.77 106.646 1288.57 111.234C1283.66 112.349 1273.76 116.695 1269.98 117.369L1267.36 117.144C1264.59 111.938 1263.68 90.2034 1264.46 83.7836C1264.78 81.1857 1269.36 74.3745 1268.74 69.8103C1267.55 61.0325 1266.72 52.8052 1267.16 43.9586C1266.27 30.9109 1264.98 14.5353 1269.04 1.9592C1272.36 2.03127 1275.69 2.07761 1279.01 2.09821C1282.87 2.09628 1284.15 2.45144 1286.6 0Z"/><defs><linearGradient id="gradient_8" gradientUnits="userSpaceOnUse" x1="103.6515" y1="767.12225" x2="106.91559" y2="577.14374"><stop offset="0" stop-color="#FF4107"/><stop offset="1" stop-color="#FF9206"/></linearGradient></defs><path fill="url(#gradient_8)" d="M0 667.582C6.64778 661.352 12.7691 654.5 19.4293 648.418C53.5594 617.251 78.2697 574.607 129.819 576.352C151.767 577.185 172.479 586.733 187.371 602.882C203.123 619.608 211.523 641.946 210.693 664.91C208.828 712.228 168.75 735.142 141.455 768L0 768L0 667.582Z"/><defs><linearGradient id="gradient_9" gradientUnits="userSpaceOnUse" x1="789.00623" y1="539.5896" x2="573.65253" y2="682.0351"><stop offset="0" stop-color="#8B9CBD"/><stop offset="1" stop-color="#D3D9E7"/></linearGradient></defs><path fill="url(#gradient_9)" d="M452.939 478.012C529.556 464.01 595.854 467.625 669.296 494.949C699.878 506.139 728.92 521.159 755.727 539.652C830.672 591.507 880.113 659.752 908.508 745.809L908.432 746.224L908.932 747.891C905.083 748.386 898.294 748.596 894.413 748.241L893.972 748.334L893.575 746.413C871.804 674.321 822.609 607.609 762.404 562.628C754.026 556.369 745.297 550.297 736.54 544.577C671.221 502.81 594.751 481.893 517.273 484.599C492.523 485.614 470.606 489.13 446.505 494.201C448.782 488.739 450.912 483.569 452.939 478.012Z"/><path fill="#788CB1" d="M908.432 746.224L908.932 747.891C905.083 748.386 898.294 748.596 894.413 748.241C896.012 745.977 905.242 746.332 908.432 746.224Z"/><path fill="white" d="M830.309 746.853C832.264 746.033 833.654 746.456 835.721 746.71C855.243 749.106 874.347 749.169 893.972 748.334L894.413 748.241C896.206 754.717 898.066 761.581 899.955 768L841.974 768L830.309 746.853Z"/><path fill="#F3D8BB" d="M446.505 494.201C446.05 497.893 439.246 510.888 437.195 514.843C424.175 540.045 408.944 564.042 391.682 586.551C390.014 588.708 386.781 593.881 384.897 594.773L384.259 593.937C385.484 591.057 398.368 574.942 401.106 571.113C415.135 551.434 427.526 530.637 438.155 508.931C439.681 505.765 443.185 498.776 444.207 495.625L442.446 494.82C445.325 491.036 448.183 484.299 448.695 479.544C451.28 477.469 451.309 478.268 452.601 474.818C465.44 440.532 468.249 405.166 473.244 369.189C477.879 335.811 489.133 301.187 506.896 272.378C512.746 262.889 520.836 249.882 529.571 242.799C529.616 242.586 511.197 268.461 509.868 270.435C478.686 316.758 474.451 369.704 467.519 423.212C465.194 441.15 459.07 460.61 452.939 478.012C450.912 483.569 448.782 488.739 446.505 494.201Z"/><path fill="#F8FAFC" d="M900.092 0L901.462 0C897.138 12.4037 888.021 29.9375 881.43 40.7487C844.857 100.738 788.762 140.626 720.564 156.61C698.066 161.883 675.192 165.031 652.589 169.763C643.825 171.598 632.444 175.662 623.778 178.615C618.943 180.262 613.53 183.464 608.553 184.648L608.731 183.892C612.562 181.132 618.84 179.217 623.269 177.462C653.115 165.633 683.841 163.549 714.932 156.529C731.906 152.797 748.51 147.541 764.54 140.824C827.805 114.151 874.444 63.1259 900.092 0Z"/><path fill="#F3D8BB" d="M828.94 744.462C846.885 745.058 865.753 749.149 884.362 747.097C886.469 746.865 891.814 746.992 893.575 746.413L893.972 748.334C874.347 749.169 855.243 749.106 835.721 746.71C833.654 746.456 832.264 746.033 830.309 746.853L828.94 744.462Z"/><path fill="#FECC7E" d="M1202.73 318.352C1207.07 317.137 1211.73 318.356 1214.92 321.542C1218.12 324.728 1219.34 329.387 1218.14 333.733C1216.93 338.078 1213.48 341.437 1209.1 342.52C1202.47 344.161 1195.76 340.177 1194.02 333.574C1192.28 326.97 1196.16 320.193 1202.73 318.352Z"/><path fill="#F97316" d="M892.937 155.302C896.74 154.045 900.839 156.123 902.074 159.934C903.309 163.745 901.208 167.833 897.39 169.046C893.604 170.249 889.558 168.168 888.333 164.389C887.108 160.609 889.165 156.549 892.937 155.302Z"/><path fill="#F8FAFC" d="M549.317 221.858C549.593 222.077 549.714 222.104 549.804 222.365C549.629 222.968 533.178 239.094 531.503 240.837C530.984 240.24 530.958 240.188 531.523 239.597C537.33 233.521 543.325 227.726 549.317 221.858Z"/></svg>