<?xml version="1.0" encoding="utf-8" ?><svg xmlns="http://www.w3.org/2000/svg" xmlns:xlink="http://www.w3.org/1999/xlink" width="1344" height="768" viewBox="0 0 1344 768"><path fill="white" d="M0 0L10.2066 0L177.205 0L185.474 0L498.097 0L514.449 0L575.753 0L611.256 0L689.08 0L694.778 0L1344 0L1344 768L954.886 768L945.697 768L700.623 768L582.561 768L564.793 768L532.069 768L528.397 768L447.896 768L356.162 768L138.576 768L0 768L0 608.194L0 524.491L0 520.386L0 360.607L0 297.931L0 247.409L0 15.3931L0 0Z"/><path fill="white" d="M0 0L10.2066 0L177.205 0L185.474 0C190.033 3.98298 197.788 10.971 201.485 15.5918C204.753 18.7237 207.027 21.2439 210 24.6255C213.431 28.3462 231.613 47.8738 232.594 51.2305C232.466 53.4708 233.899 55.1753 235.082 56.9948C232.997 55.9667 232.418 55.5984 230.563 54.2491L229.946 55.2243C239.761 68.4998 248.486 81.5916 256.289 96.1763C257.172 97.8262 258.26 99.7519 259.267 101.318C250.715 109.34 245.605 114.648 238.593 124.219C236.637 126.887 227.726 139.582 226.065 141.236C243.251 147.939 263.151 155.029 281.284 158.816C277.256 143.566 272.319 129.272 266.613 114.525C265.145 110.73 261.824 106.378 260.248 102.462C259.597 100.844 259.968 100.916 260.891 99.2781L261.937 98.6326C268.888 103.036 283.81 150.552 285.115 159.587C285.445 160.778 286.266 164.046 286.688 165.016C289.575 177.114 291.884 199.706 292.495 211.921C295.562 273.263 284.044 334.459 258.886 390.486C254.108 401.177 248.824 411.71 243.508 422.141C237.321 434.278 229.328 445.634 222.817 457.507C227.154 467.035 231.965 476.338 237.232 485.384C204.436 480.461 169.371 478.545 136.351 482.051C124.48 483.21 109.534 485.973 97.7045 488.259C74.3977 492.962 51.5233 499.599 29.3186 508.102C19.9557 511.706 8.40909 517.369 0 520.386L0 360.607L0 297.931L0 247.409L0 15.3931L0 0Z"/><path fill="#1C85E6" d="M0 0L10.2066 0L177.205 0L185.474 0C190.033 3.98298 197.788 10.971 201.485 15.5918C204.753 18.7237 207.027 21.2439 210 24.6255C213.431 28.3462 231.613 47.8738 232.594 51.2305C232.466 53.4708 233.899 55.1753 235.082 56.9948C232.997 55.9667 232.418 55.5984 230.563 54.2491L229.946 55.2243C239.761 68.4998 248.486 81.5916 256.289 96.1763C257.172 97.8262 258.26 99.7519 259.267 101.318C250.715 109.34 245.605 114.648 238.593 124.219C236.637 126.887 227.726 139.582 226.065 141.236C224.782 142.764 224.531 142.919 223.944 144.771C171.168 217.279 96.2554 286.716 0 247.409L0 15.3931L0 0Z"/><path fill="#91DFFE" d="M177.205 0L185.474 0C190.033 3.98298 197.788 10.971 201.485 15.5918C204.753 18.7237 207.027 21.2439 210 24.6255C213.431 28.3462 231.613 47.8738 232.594 51.2305C232.466 53.4708 233.899 55.1753 235.082 56.9948C232.997 55.9667 232.418 55.5984 230.563 54.2491L229.946 55.2243C229.033 54.5827 224.172 48.3429 223.049 46.921C215.454 37.3087 206.84 28.8452 198.695 19.7287C192.05 14.2013 184.633 6.34673 177.205 0Z"/><path fill="#63D4FD" d="M177.205 0L185.474 0C190.033 3.98298 197.788 10.971 201.485 15.5918C197.372 13.3369 187.808 2.98282 185.735 3.41727C185.586 3.70113 185.146 4.26061 185.351 4.55166C189.481 10.4157 195.686 13.1223 198.695 19.7287C192.05 14.2013 184.633 6.34673 177.205 0Z"/><path fill="white" d="M0 0L10.2066 0C6.6091 5.26155 3.44954 10.2831 0 15.3931L0 0Z"/><path fill="white" d="M20.9343 146.693C22.4039 146.228 23.9724 147.042 24.4387 148.511C24.9049 149.981 24.0925 151.55 22.6236 152.018C21.1533 152.486 19.5823 151.672 19.1156 150.201C18.6489 148.73 19.4634 147.159 20.9343 146.693Z"/><path fill="white" d="M53.9788 181.591C55.3471 181.1 56.8602 181.764 57.4255 183.104C57.9908 184.443 57.4113 185.991 56.1054 186.63C55.1941 187.075 54.1111 186.981 53.291 186.383C52.4708 185.786 52.048 184.784 52.1922 183.78C52.3363 182.775 53.0238 181.933 53.9788 181.591Z"/><path fill="white" d="M69.974 199.832C70.9168 199.431 72.0043 199.592 72.7916 200.247C73.5789 200.903 73.9339 201.943 73.7113 202.943C73.4888 203.943 72.7261 204.735 71.7352 204.995C70.349 205.358 68.9176 204.589 68.4549 203.232C67.9921 201.876 68.655 200.392 69.974 199.832Z"/><path fill="white" d="M38.2252 163.268C39.5852 162.874 41.019 163.595 41.5143 164.922C42.0097 166.248 41.3992 167.733 40.114 168.327C39.1918 168.753 38.1087 168.627 37.309 168C36.5094 167.373 36.1279 166.352 36.3211 165.354C36.5142 164.356 37.2495 163.551 38.2252 163.268Z"/><path fill="white" d="M5.37876 161.681C6.24892 161.198 7.31451 161.233 8.15053 161.773C8.98655 162.314 9.45698 163.271 9.37421 164.263C9.29143 165.255 8.66891 166.121 7.75493 166.515C6.43565 167.084 4.90209 166.518 4.26817 165.228C3.63426 163.939 4.12272 162.378 5.37876 161.681Z"/><path fill="white" d="M22.5527 177.047C23.9449 176.769 25.3118 177.628 25.6653 179.003C26.0187 180.379 25.2352 181.791 23.8813 182.218C22.9378 182.516 21.9068 182.268 21.2017 181.574C20.4966 180.88 20.2326 179.852 20.5157 178.904C20.7987 177.956 21.5824 177.241 22.5527 177.047Z"/><path fill="white" d="M38.8301 195.377C40.1876 195.242 41.4157 196.187 41.6348 197.533C41.8539 198.88 40.9885 200.165 39.6585 200.468C38.7208 200.682 37.7422 200.357 37.1185 199.625C36.4947 198.893 36.3291 197.875 36.6886 196.982C37.0481 196.09 37.8732 195.472 38.8301 195.377Z"/><path fill="white" d="M54.3728 213.718C55.6125 213.054 57.1556 213.523 57.8166 214.765C58.4775 216.006 58.0051 217.549 56.7623 218.207C55.5236 218.863 53.9879 218.392 53.3291 217.155C52.6704 215.917 53.1373 214.38 54.3728 213.718Z"/><path fill="#2563EB" d="M-4.66294e-15 297.931C22.8451 292.446 46.598 291.906 69.6687 296.347C116.378 304.661 155.34 335.337 182.049 373.589C192.533 388.8 201.351 405.095 208.351 422.192C211.963 430.849 216.871 444.22 220.744 452.255L222.817 457.507C227.154 467.035 231.965 476.338 237.232 485.384C204.436 480.461 169.371 478.545 136.351 482.051C124.48 483.21 109.534 485.973 97.7045 488.259C74.3977 492.962 51.5233 499.599 29.3186 508.102C19.9557 511.706 8.40909 517.369 0 520.386L0 360.607L0 297.931L-4.66294e-15 297.931Z"/><path fill="#F97316" d="M0 360.607C22.9973 366.261 27.8573 370.614 48.488 379.614C53.3452 381.717 60.5904 385.859 64.2874 387.319C106.539 413.211 119.534 437.143 136.351 482.051C124.48 483.21 109.534 485.973 97.7045 488.259C74.3977 492.962 51.5233 499.599 29.3186 508.102C19.9557 511.706 8.40909 517.369 0 520.386L0 360.607Z"/><path fill="#FE8B0B" d="M48.488 379.614C53.3452 381.717 60.5904 385.859 64.2874 387.319C106.539 413.211 119.534 437.143 136.351 482.051C124.48 483.21 109.534 485.973 97.7045 488.259C97.1708 452.825 86.7635 417.85 60.749 393.104C56.7009 389.253 52.0388 385.196 48.3787 381.043L48.488 379.614Z"/><path fill="#4139DC" d="M-4.66294e-15 297.931C22.8451 292.446 46.598 291.906 69.6687 296.347C62.3807 297.67 50.5515 293.122 44.0313 295.056C42.3479 297.839 44.3638 303.399 43.3236 307.186C42.6686 309.571 38.1501 316.795 37.7211 318.619C35.5397 327.893 33.1823 339.474 32.3727 348.967C32.1564 351.503 33.2035 358.605 33.9367 360.42C36.3794 366.467 33.3622 371.226 39.2448 374.049C48.7593 378.616 55.5323 380.272 64.5748 386.051L64.2874 387.319C60.5904 385.859 53.3452 381.717 48.488 379.614C27.8573 370.614 22.9973 366.261 0 360.607L0 297.931L-4.66294e-15 297.931Z"/><path fill="#FE8B0B" d="M281.284 158.816C277.256 143.566 272.319 129.272 266.613 114.525C265.145 110.73 261.824 106.378 260.248 102.462C259.597 100.844 259.968 100.916 260.891 99.2781L261.937 98.6326C268.888 103.036 283.81 150.552 285.115 159.587C285.445 160.778 286.266 164.046 286.688 165.016C289.575 177.114 291.884 199.706 292.495 211.921C295.562 273.263 284.044 334.459 258.886 390.486C254.108 401.177 248.824 411.71 243.508 422.141C237.321 434.278 229.328 445.634 222.817 457.507L220.744 452.255L220.934 451.981C225.948 444.648 233.534 430.457 237.863 422.563C281.572 342.852 298.616 253.737 282.206 163.964L281.284 158.816Z"/><path fill="#0EA5E9" d="M226.065 141.236C243.251 147.939 263.151 155.029 281.284 158.816L282.206 163.964C260.609 158.226 244.626 153.928 223.944 144.771C224.531 142.919 224.782 142.764 226.065 141.236Z"/><defs><linearGradient id="gradient_0" gradientUnits="userSpaceOnUse" x1="298.39902" y1="529.17773" x2="244.71695" y2="736.44958"><stop offset="0" stop-color="#FF7505"/><stop offset="1" stop-color="#FFAC0F"/></linearGradient></defs><path fill="url(#gradient_0)" d="M96.5212 492.494C110.046 489.726 123.687 487.554 137.402 485.983C150.542 533.303 162.041 574.915 208.339 601.619C218.873 607.696 235.576 613.926 247.751 614.45C264.311 618.492 293.32 613.186 310.094 610.98C315.078 610.807 322.402 610.226 327.094 610.516C357.662 612.403 385.863 622.269 408.671 643.019C413.193 648.383 419.947 654.445 423.875 659.885C447.774 692.983 451.935 721.477 448.914 760.486C448.193 763.633 448.068 764.767 447.896 768L356.162 768L138.576 768L0 768L0 608.194L0 524.491C35.6645 509.199 58.7974 500.92 96.5212 492.494Z"/><defs><linearGradient id="gradient_1" gradientUnits="userSpaceOnUse" x1="213.26808" y1="610.48602" x2="28.190041" y2="795.54962"><stop offset="0" stop-color="#FF5003"/><stop offset="1" stop-color="#FFC20F"/></linearGradient></defs><path fill="url(#gradient_1)" d="M0 524.491C35.6645 509.199 58.7974 500.92 96.5212 492.494C96.5578 492.613 96.5945 492.732 96.6312 492.85C96.411 554.925 63.7015 641.386 130.82 681.888C169.011 704.934 207.885 697.145 249.088 692.444C295.038 687.201 340.365 727.498 356.162 768L138.576 768L0 768L0 608.194L0 524.491Z"/><path fill="white" d="M20.2112 688.246C21.1796 687.793 22.3207 687.927 23.1581 688.592C23.9955 689.256 24.3853 690.338 24.1647 691.384C23.9441 692.43 23.1511 693.262 22.1167 693.531C20.7056 693.899 19.2469 693.131 18.7522 691.759C18.2576 690.387 18.8901 688.864 20.2112 688.246Z"/><path fill="white" d="M5.31293 702.777C6.71043 702.275 8.25768 702.946 8.84634 704.309C9.43501 705.673 8.8622 707.26 7.53824 707.932C6.60502 708.407 5.48568 708.323 4.633 707.716C3.78031 707.109 3.33538 706.078 3.47818 705.041C3.62098 704.003 4.32788 703.131 5.31293 702.777Z"/><path fill="white" d="M73.7464 740.847C74.6601 740.346 75.7779 740.402 76.6374 740.991C77.4969 741.58 77.952 742.603 77.8143 743.636C77.6767 744.669 76.9697 745.537 75.986 745.881C74.6287 746.355 73.1348 745.709 72.5502 744.395C71.9657 743.081 72.4858 741.539 73.7464 740.847Z"/><path fill="white" d="M37.6666 705.969C38.4904 705.421 39.545 705.359 40.4273 705.806C41.3096 706.253 41.8831 707.141 41.9285 708.129C41.9739 709.117 41.4842 710.054 40.6466 710.58C39.3745 711.379 37.6964 711.008 36.8809 709.746C36.0654 708.484 36.4156 706.8 37.6666 705.969Z"/><path fill="white" d="M22.832 719.892C23.6975 719.337 24.8043 719.326 25.6804 719.864C26.5565 720.402 27.0474 721.395 26.9437 722.418C26.84 723.441 26.1601 724.315 25.1938 724.666C23.9109 725.133 22.4822 724.56 21.8768 723.336C21.2714 722.112 21.6828 720.629 22.832 719.892Z"/><path fill="white" d="M55.8758 723.158C57.1373 722.428 58.7512 722.848 59.4963 724.101C60.2414 725.354 59.8406 726.973 58.5971 727.733C57.7792 728.234 56.7558 728.255 55.9176 727.79C55.0795 727.325 54.5561 726.445 54.5475 725.486C54.5388 724.527 55.0462 723.638 55.8758 723.158Z"/><path fill="white" d="M58.0163 755.215C58.8212 754.709 59.8361 754.677 60.671 755.131C61.506 755.585 62.0311 756.455 62.0445 757.405C62.058 758.356 61.5577 759.239 60.7359 759.717C59.4952 760.438 57.9059 760.031 57.164 758.803C56.422 757.574 56.8013 755.978 58.0163 755.215Z"/><path fill="white" d="M41.6629 736.99C42.9968 736.725 44.3046 737.552 44.6373 738.871C44.9701 740.19 44.2111 741.538 42.911 741.937C42.0092 742.214 41.0282 741.972 40.3596 741.306C39.691 740.64 39.4437 739.66 39.7165 738.757C39.9893 737.854 40.7377 737.174 41.6629 736.99Z"/><path fill="white" d="M185.474 0L498.097 0L514.449 0L575.753 0L611.256 0L689.08 0L694.778 0C652.011 54.7987 586.988 111.17 523.94 140.422C516.185 144.02 500.198 151.383 492.256 153.668C429.276 179.168 352.31 180.685 286.688 165.016C286.266 164.046 285.445 160.778 285.115 159.587C283.81 150.552 268.888 103.036 261.937 98.6326L260.891 99.2781C259.968 100.916 259.597 100.844 260.248 102.462C261.824 106.378 265.145 110.73 266.613 114.525C272.319 129.272 277.256 143.566 281.284 158.816C263.151 155.029 243.251 147.939 226.065 141.236C227.726 139.582 236.637 126.887 238.593 124.219C245.605 114.648 250.715 109.34 259.267 101.318C258.26 99.7519 257.172 97.8262 256.289 96.1763C248.486 81.5916 239.761 68.4998 229.946 55.2243L230.563 54.2491C232.418 55.5984 232.997 55.9667 235.082 56.9948C233.899 55.1753 232.466 53.4708 232.594 51.2305C231.613 47.8738 213.431 28.3462 210 24.6255C207.027 21.2439 204.753 18.7237 201.485 15.5918C197.788 10.971 190.033 3.98298 185.474 0Z"/><path fill="#02CFDB" d="M185.474 0L498.097 0L514.449 0L575.753 0C575.271 0.327471 571.037 4.15825 572.679 3.38272C553.554 12.4196 535.343 22.5743 517.246 33.509C513.814 35.5825 508.858 36.8843 505.263 38.9677C481.16 52.4537 456.302 64.5828 432.721 79.0913C425.096 83.7825 404.584 93.5563 399.632 99.0701C392.302 96.3752 378.414 91.6474 371.884 88.3858C369.719 87.9045 361.19 84.4246 358.721 83.3908C348.536 79.1264 340.051 76.5758 329.049 75.3897C301.766 72.4487 282.64 81.0022 261.909 97.5572C252.393 79.226 245.616 67.4795 232.594 51.2305C231.613 47.8738 213.431 28.3462 210 24.6255C207.027 21.2439 204.753 18.7237 201.485 15.5918C197.788 10.971 190.033 3.98298 185.474 0Z"/><path fill="#0EA5E9" d="M498.097 0L514.449 0L575.753 0C575.271 0.327471 571.037 4.15825 572.679 3.38272C553.554 12.4196 535.343 22.5743 517.246 33.509C513.814 35.5825 508.858 36.8843 505.263 38.9677C481.16 52.4537 456.302 64.5828 432.721 79.0913C425.096 83.7825 404.584 93.5563 399.632 99.0701C392.302 96.3752 378.414 91.6474 371.884 88.3858C369.719 87.9045 361.19 84.4246 358.721 83.3908C348.536 79.1264 340.051 76.5758 329.049 75.3897C301.766 72.4487 282.64 81.0022 261.909 97.5572C252.393 79.226 245.616 67.4795 232.594 51.2305C231.613 47.8738 213.431 28.3462 210 24.6255C218.531 22.4598 230.835 24.0029 239.666 24.1671C281.987 24.954 310.709 40.1519 346.017 61.5501C405.874 97.8257 467.659 53.5875 498.097 0Z"/><path fill="#1C85E6" d="M514.449 0L575.753 0C575.271 0.327471 571.037 4.15825 572.679 3.38272C553.554 12.4196 535.343 22.5743 517.246 33.509C513.814 35.5825 508.858 36.8843 505.263 38.9677C481.16 52.4537 456.302 64.5828 432.721 79.0913C425.096 83.7825 404.584 93.5563 399.632 99.0701C392.302 96.3752 378.414 91.6474 371.884 88.3858C376.622 87.5344 389.924 95.5986 392.329 94.1137C415.454 78.9114 440.183 66.6878 463.459 51.7221C466.823 49.5585 471.174 47.9194 474.668 45.8629C500.084 30.9076 525.53 20.0119 548.989 1.97321C544.429 1.9976 518.014 2.4687 514.885 1.48047L514.449 0Z"/><defs><linearGradient id="gradient_2" gradientUnits="userSpaceOnUse" x1="500.05054" y1="40.574062" x2="527.80493" y2="92.963341"><stop offset="0" stop-color="#61A4E8"/><stop offset="1" stop-color="#C3DBF5"/></linearGradient></defs><path fill="url(#gradient_2)" d="M575.753 0L611.256 0C597.223 46.1124 576.285 68.27 533.813 91.4108C494.667 112.739 458.149 117.164 415.108 104.074C409.925 102.483 404.765 100.814 399.632 99.0701C404.584 93.5563 425.096 83.7825 432.721 79.0913C456.302 64.5828 481.16 52.4537 505.263 38.9677C508.858 36.8843 513.814 35.5825 517.246 33.509C535.343 22.5743 553.554 12.4196 572.679 3.38272C571.037 4.15825 575.271 0.327471 575.753 0Z"/><path fill="#2563EB" d="M689.08 0L694.778 0C652.011 54.7987 586.988 111.17 523.94 140.422C516.185 144.02 500.198 151.383 492.256 153.668L492.216 153.036C490.509 152.46 455.434 166.436 447.985 164.819L448.168 164.139C451.75 162.171 459.892 160.772 464.291 159.318C473.48 156.282 482.641 153.182 491.801 150.06L491.053 149.275C496.961 146.579 503.654 144.278 509.74 141.671C520.645 136.919 531.363 131.745 541.868 126.162C582.785 104.378 621.493 71.7337 653.929 38.9084C665.7 26.9965 677.884 12.6605 689.08 0Z"/><path fill="#0EA5E9" d="M285.115 159.587C339.992 174.059 397.612 174.615 452.758 161.205C465.038 158.17 478.839 153.266 491.053 149.275L491.801 150.06C482.641 153.182 473.48 156.282 464.291 159.318C459.892 160.772 451.75 162.171 448.168 164.139L447.985 164.819C455.434 166.436 490.509 152.46 492.216 153.036L492.256 153.668C429.276 179.168 352.31 180.685 286.688 165.016C286.266 164.046 285.445 160.778 285.115 159.587Z"/><path fill="#1DBA6F" d="M355.059 134.638C367.828 133.532 372.162 139.786 374.471 151.223C372.246 158.465 371.103 161.186 364.424 165.066C361.852 165.363 359.532 165.705 356.988 164.998C352.793 163.851 349.257 161.023 347.216 157.182C342.308 148.013 345.756 138.923 355.059 134.638Z"/><path fill="#1DBA6F" d="M387.943 543.933C437.956 519.15 471.91 481.662 531.542 477.582C615.154 471.862 675.346 534.99 697.219 610.721C697.741 612.573 698.705 615.577 698.812 617.445C698.699 619.056 698.956 621.887 697.405 622.781C689.325 627.434 679.874 630.099 670.737 631.741C665.361 632.875 658.71 632.597 653.497 633.928C647.112 635.559 639.059 636.945 632.93 639.228C621.961 643.452 611.854 646.368 600.376 648.926C595.527 650.007 588.495 654.586 583.639 655.723C576.089 657.493 565.172 652.82 558.615 649.299C556.581 648.206 554.001 643.071 552.216 643.059C552.437 647.883 555.656 649.961 556.92 655.021C554.943 652.278 548.917 640.693 546.594 636.551C534.03 614.143 501.65 586.299 476.465 580.122C474.642 580.865 468.848 578.206 466.06 577.436C462.007 581.275 453.81 584.906 448.735 588.084L446.242 587.611C442.765 585.58 430.592 573.868 426.759 570.502C416.072 562.372 399.617 549.888 387.943 543.933Z"/><path fill="#64BF36" d="M426.759 570.502C447.631 572.615 456.713 572.745 476.465 580.122C474.642 580.865 468.848 578.206 466.06 577.436C462.007 581.275 453.81 584.906 448.735 588.084L446.242 587.611C442.765 585.58 430.592 573.868 426.759 570.502Z"/><path fill="#64BF36" d="M698.812 617.445C702.345 628.392 705.432 646.8 707.039 658.38L707.796 663.57C708.549 673.407 710.415 699.5 708.808 708.394C709.109 723.297 705.589 753.889 700.623 768L582.561 768L564.793 768C566.644 761.389 568.333 751.52 569.345 744.862C572.536 723.353 568.724 673.692 556.92 655.021C555.656 649.961 552.437 647.883 552.216 643.059C554.001 643.071 556.581 648.206 558.615 649.299C565.172 652.82 576.089 657.493 583.639 655.723C588.495 654.586 595.527 650.007 600.376 648.926C611.854 646.368 621.961 643.452 632.93 639.228C639.059 636.945 647.112 635.559 653.497 633.928C658.71 632.597 665.361 632.875 670.737 631.741C679.874 630.099 689.325 627.434 697.405 622.781C698.956 621.887 698.699 619.056 698.812 617.445Z"/><path fill="#A6C619" d="M582.561 768C586.81 762.603 602.044 767.563 607.16 765.993C639.248 756.143 678.653 758.615 705.801 736.629C707.526 735.232 706.117 712.777 708.808 708.394C709.109 723.297 705.589 753.889 700.623 768L582.561 768Z"/><path fill="white" d="M707.796 663.57C780.721 674.837 850.253 702.098 911.408 743.399C923.776 751.646 934.11 758.559 945.697 768L700.623 768C705.589 753.889 709.109 723.297 708.808 708.394C710.415 699.5 708.549 673.407 707.796 663.57Z"/><path fill="#1C85E6" d="M137.402 485.983C168.364 483.926 197.657 483.667 228.471 488.31C232.321 488.891 236.601 489.549 240.451 489.944C252.326 509.361 264.756 525.107 283.931 537.954C289.727 541.836 295.59 544.165 300.111 547.084L300.103 548.154C303.778 550.345 310.154 551.239 313.176 553.345C312.913 556.748 312.42 561.815 312.778 565.105C313.996 576.288 321.393 597.43 305.294 600.743C287.044 608.587 267.577 613.223 247.751 614.45C235.576 613.926 218.873 607.696 208.339 601.619C162.041 574.915 150.542 533.303 137.402 485.983Z"/><path fill="#64BF36" d="M436.639 586.081C447.765 596.584 458.071 606.682 467.588 618.717C468.872 620.34 469.687 621.521 471.703 622.13C484.92 635.411 505.7 675.537 511.493 693.63C512.295 696.135 515.428 704.124 515.662 706.683C521.87 723.454 525.776 750.29 528.397 768L447.896 768C448.068 764.767 448.193 763.633 448.914 760.486C451.935 721.477 447.774 692.983 423.875 659.885C419.947 654.445 413.193 648.383 408.671 643.019C408.114 635.978 380.814 625.586 380.51 617.507C386.112 606.179 399.189 601.909 409.8 597.643C418.809 593.937 427.757 590.082 436.639 586.081Z"/><path fill="#A6C619" d="M515.662 706.683C521.87 723.454 525.776 750.29 528.397 768L447.896 768C448.068 764.767 448.193 763.633 448.914 760.486C449.692 762.769 449.975 763.409 449.297 765.876C469.159 765.587 490.747 766.416 510.269 765.709C514.453 762.949 523.509 758.431 524.456 753.203C526.335 742.833 514.581 714.891 515.662 706.683Z"/><defs><linearGradient id="gradient_3" gradientUnits="userSpaceOnUse" x1="522.1015" y1="752.44269" x2="499.73682" y2="573.33649"><stop offset="0" stop-color="#A0C818"/><stop offset="1" stop-color="#17C16C"/></linearGradient></defs><path fill="url(#gradient_3)" d="M466.06 577.436C468.848 578.206 474.642 580.865 476.465 580.122C501.65 586.299 534.03 614.143 546.594 636.551C548.917 640.693 554.943 652.278 556.92 655.021C568.724 673.692 572.536 723.353 569.345 744.862C568.333 751.52 566.644 761.389 564.793 768L532.069 768L530.492 755.236C527.664 742.509 526.652 731.492 523.003 717.942C508.35 663.521 485.056 627.154 446.242 587.611L448.735 588.084C453.81 584.906 462.007 581.275 466.06 577.436Z"/><path fill="#A6C619" d="M530.492 755.236L531.147 752.62C530.431 751.01 530.375 750.945 530.382 749.214L531.447 748.715L533.805 750.463C539.806 751.168 561.543 746.024 569.345 744.862C568.333 751.52 566.644 761.389 564.793 768L532.069 768L530.492 755.236Z"/><path fill="#1DBA6F" d="M384.118 545.49C387.476 547.841 405.157 558.873 406.322 560.685C423.823 570.987 460.716 605.056 471.703 622.13C469.687 621.521 468.872 620.34 467.588 618.717C458.071 606.682 447.765 596.584 436.639 586.081C427.757 590.082 418.809 593.937 409.8 597.643C399.189 601.909 386.112 606.179 380.51 617.507C380.814 625.586 408.114 635.978 408.671 643.019C385.863 622.269 357.662 612.403 327.094 610.516C322.402 610.226 315.078 610.807 310.094 610.98C293.32 613.186 264.311 618.492 247.751 614.45C267.577 613.223 287.044 608.587 305.294 600.743C321.393 597.43 313.996 576.288 312.778 565.105C312.42 561.815 312.913 556.748 313.176 553.345C310.154 551.239 303.778 550.345 300.103 548.154L300.111 547.084C330.067 558.094 354.427 559.051 384.118 545.49Z"/><path fill="#14B8A6" d="M384.118 545.49C387.476 547.841 405.157 558.873 406.322 560.685C407.513 563.757 412.927 566.964 415.761 568.569L416.302 569.679C415.424 570.114 395.977 570.936 390.935 572.502C361.617 581.607 332.178 590.031 304.41 603.582L305.294 600.743C321.393 597.43 313.996 576.288 312.778 565.105C312.42 561.815 312.913 556.748 313.176 553.345C310.154 551.239 303.778 550.345 300.103 548.154L300.111 547.084C330.067 558.094 354.427 559.051 384.118 545.49Z"/><path fill="#14B8A6" d="M247.751 614.45C267.577 613.223 287.044 608.587 305.294 600.743L304.41 603.582C297.123 606.681 289.938 609.121 282.241 611.01C280.296 611.488 279.014 611.941 277.294 612.954L277.129 613.638C284.931 614.677 304.507 608.549 310.094 610.98C293.32 613.186 264.311 618.492 247.751 614.45Z"/><path fill="#FE8B0B" d="M707.039 658.38C803.948 673.185 876.897 710.013 954.886 768L945.697 768C934.11 758.559 923.776 751.646 911.408 743.399C850.253 702.098 780.721 674.837 707.796 663.57L707.039 658.38Z"/><path fill="#1DBA6F" d="M313.632 175.365C329.07 174.823 335.66 192.485 322.314 199.53C305.769 200.994 301.89 183.036 311.981 176.443L313.632 175.365Z"/></svg>