<?xml version="1.0" encoding="utf-8" ?><svg xmlns="http://www.w3.org/2000/svg" xmlns:xlink="http://www.w3.org/1999/xlink" width="1344" height="768" viewBox="0 0 1344 768"><path fill="white" d="M0 0L436.404 0L541.942 0L638.994 0L744.627 0L851.71 0L947.857 0L1044.85 0L1140.71 0L1237.13 0L1344 0L1344 768L756.81 768L0 768L0 721.089L0 605.232L0 565.14L0 554.306L0 454.632L0 445.21L0 415.395L0 175.891L0 0Z"/><path fill="#2563EB" d="M0 0L436.404 0L541.942 0L638.994 0L744.627 0L851.71 0C847.032 10.2732 836.9 26.2811 830.332 35.8651C790.001 94.7218 737.177 139.934 670.24 165.088C659.237 169.223 647.926 172.482 636.411 174.837C627.968 176.625 609.3 178.106 603.479 181.359C604.8 182.151 605.635 182.095 606.697 183.084C572.743 178.16 541.468 177.595 507.391 182.469C503.365 183.045 492.88 184.48 489.483 185.463C487.732 188.161 488.528 188.147 485.113 188.898C473.781 192.06 464.824 196.158 454.386 201.246C415.525 220.189 386.676 248.271 365.469 285.805C352.793 308.405 343.563 332.772 338.084 358.099C334.43 374.401 331.672 390.26 327.211 406.435C308.29 475.046 268.904 534.298 207.91 572.315C170.761 595.47 128.927 608.83 84.5547 606.955C68.1565 606.262 51.7702 603.505 35.2916 603.405C22.6337 603.08 12.1118 604.798 0 605.232L0 565.14L0 554.306L0 454.632L0 445.21L0 415.395L0 175.891L0 0Z"/><defs><linearGradient id="gradient_0" gradientUnits="userSpaceOnUse" x1="283.53799" y1="151.83008" x2="196.33655" y2="638.11261"><stop offset="0" stop-color="#FF4603"/><stop offset="1" stop-color="#FFA100"/></linearGradient></defs><path fill="url(#gradient_0)" d="M357.745 246.068C365.005 240.787 371.577 235.567 379.083 230.531C410.308 209.157 445.509 194.279 482.595 186.778C483.424 187.497 484.264 188.203 485.113 188.898C473.781 192.06 464.824 196.158 454.386 201.246C415.525 220.189 386.676 248.271 365.469 285.805C352.793 308.405 343.563 332.772 338.084 358.099C334.43 374.401 331.672 390.26 327.211 406.435C308.29 475.046 268.904 534.298 207.91 572.315C170.761 595.47 128.927 608.83 84.5547 606.955C68.1565 606.262 51.7702 603.505 35.2916 603.405C22.6337 603.08 12.1118 604.798 0 605.232L0 565.14L0 554.306L0 454.632C4.53005 467.554 0.575266 480.291 2.35754 493.623L2.80494 493.952C70.4986 462.617 111.369 414.404 135.437 343.64C142.803 321.984 147.459 295.949 157.149 274.858C157.836 274.264 160.588 271.531 160.72 271.416C162.35 269.589 171.324 274.186 172.199 273.455C177.622 268.917 181.254 268.625 187.827 267.39C188.639 266.442 193.504 260.795 194.356 260.634C208.224 258.019 231.755 256.151 244.205 249.776C245.91 249.781 246.785 249.801 248.468 250.05C250.208 251.994 250.118 255.317 251.644 258.08C252.956 256.138 253.68 254.897 255.46 253.307C255.503 253.732 255.547 254.157 255.59 254.582C249.936 262.955 234.27 286.543 231.879 295.594C247.561 299.1 243.388 293.576 256.366 289.925C271.863 285.566 287.23 281.579 301.815 274.101C311.182 269.298 314.522 271.918 323.941 273.314C331.7 273.953 350.154 245.895 357.745 246.068Z"/><defs><linearGradient id="gradient_1" gradientUnits="userSpaceOnUse" x1="147.22044" y1="527.91406" x2="104.12119" y2="273.00815"><stop offset="0" stop-color="#03994E"/><stop offset="1" stop-color="#03C9D1"/></linearGradient></defs><path fill="url(#gradient_1)" d="M244.205 249.776C245.91 249.781 246.785 249.801 248.468 250.05C250.208 251.994 250.118 255.317 251.644 258.08C236.355 280.424 224.285 304.809 215.789 330.518C206.613 359.035 200.869 388.104 186.928 415.286L187.19 415.654C188.022 416.802 188.611 417.329 189.276 418.612C185.179 421.953 185.388 421.225 182.374 425.447C182.6 425.948 182.821 426.452 183.037 426.959C179.196 430.887 178.334 433.835 175.466 438.113C170.772 445.113 165.856 453.654 160.258 459.828C155.307 458.156 151.481 457.306 147.812 453.159C147.252 452.526 147.378 452.625 146.69 452.196C144.371 454.672 154.73 457.976 154.598 460.413C154.571 460.913 153.826 465.314 153.768 465.386C151.702 468 141.742 459.11 140.935 458.19L140.911 458.279L140.946 458.184L140.82 458.824L140.762 459.144C144.043 463.33 149.725 466.38 154.694 468.049C136.687 491.523 104.552 515.604 78.1895 528.952C62.8121 536.739 43.6537 543.111 27.0805 548.161C18.7269 550.706 8.64972 552.162 0 554.306L0 454.632C4.53005 467.554 0.575266 480.291 2.35754 493.623L2.80494 493.952C70.4986 462.617 111.369 414.404 135.437 343.64C142.803 321.984 147.459 295.949 157.149 274.858C157.836 274.264 160.588 271.531 160.72 271.416C162.35 269.589 171.324 274.186 172.199 273.455C177.622 268.917 181.254 268.625 187.827 267.39C188.639 266.442 193.504 260.795 194.356 260.634C208.224 258.019 231.755 256.151 244.205 249.776Z"/><path fill="#01AB74" d="M142.424 428.078C147.293 418.145 154.59 414.345 165.374 414.5C167.354 414.87 168.904 415.395 170.748 415.754C172.16 416.445 173.077 416.81 174.493 417.395L176.243 418.594C179.266 420.665 180.244 422.692 182.374 425.447C182.6 425.948 182.821 426.452 183.037 426.959C179.196 430.887 178.334 433.835 175.466 438.113C170.772 445.113 165.856 453.654 160.258 459.828C155.307 458.156 151.481 457.306 147.812 453.159C147.252 452.526 147.378 452.625 146.69 452.196C141.201 442.717 139.451 439.289 142.424 428.078Z"/><path fill="#14B8A6" d="M145.895 411.105C146.35 413.635 147.359 415.986 148.14 418.427C147.201 419.42 139.328 427.608 142.424 428.078C139.451 439.289 141.201 442.717 146.69 452.196C144.371 454.672 154.73 457.976 154.598 460.413C154.571 460.913 153.826 465.314 153.768 465.386C151.702 468 141.742 459.11 140.935 458.19L140.911 458.279L140.946 458.184L140.82 458.824L140.762 459.144C131.512 451.987 129.354 431.769 135.662 421.983C137.551 422.666 136.959 421.529 138.032 419.733C139.837 416.712 143.406 413.672 145.895 411.105Z"/><path fill="#02CED3" d="M135.662 421.983C137.446 418.121 139.767 414.921 143.002 412.122C149.364 406.623 157.647 403.872 166.035 404.472C164.169 407.3 164.134 411.374 165.374 414.5C154.59 414.345 147.293 418.145 142.424 428.078C139.328 427.608 147.201 419.42 148.14 418.427C147.359 415.986 146.35 413.635 145.895 411.105C143.406 413.672 139.837 416.712 138.032 419.733C136.959 421.529 137.551 422.666 135.662 421.983Z"/><path fill="#59E7D0" d="M178.2 408.48C181.916 410.643 183.887 412.246 186.928 415.286L187.19 415.654C188.022 416.802 188.611 417.329 189.276 418.612C185.179 421.953 185.388 421.225 182.374 425.447C180.244 422.692 179.266 420.665 176.243 418.594L174.493 417.395C175.476 413.347 176.883 414.676 175.585 409.901C176.292 409.143 177.268 408.88 178.2 408.48Z"/><path fill="#34E4D8" d="M166.035 404.472C168.778 404.96 170.446 405.457 173.086 406.064C174.834 406.94 176.4 407.527 178.2 408.48C177.268 408.88 176.292 409.143 175.585 409.901C176.883 414.676 175.476 413.347 174.493 417.395C173.077 416.81 172.16 416.445 170.748 415.754C168.904 415.395 167.354 414.87 165.374 414.5C164.134 411.374 164.169 407.3 166.035 404.472Z"/><defs><linearGradient id="gradient_2" gradientUnits="userSpaceOnUse" x1="200.90901" y1="504.45389" x2="130.66284" y2="338.40906"><stop offset="0" stop-color="#03854E"/><stop offset="1" stop-color="#029EBA"/></linearGradient></defs><path fill="url(#gradient_2)" d="M255.46 253.307C255.503 253.732 255.547 254.157 255.59 254.582C249.936 262.955 234.27 286.543 231.879 295.594C247.561 299.1 243.388 293.576 256.366 289.925C271.863 285.566 287.23 281.579 301.815 274.101C311.182 269.298 314.522 271.918 323.941 273.314C331.7 273.953 350.154 245.895 357.745 246.068C353.778 250.715 343.309 258.994 338.171 264.155C323.305 279.262 310.205 296.012 299.126 314.082C278.711 347.295 272.086 376.809 255.845 410.353C211.497 501.944 122.967 556.836 22.6091 564.035C15.1202 564.572 7.57391 564.849 0 565.14L0 554.306C8.64972 552.162 18.7269 550.706 27.0805 548.161C43.6537 543.111 62.8121 536.739 78.1895 528.952C104.552 515.604 136.687 491.523 154.694 468.049C149.725 466.38 144.043 463.33 140.762 459.144L140.82 458.824L140.946 458.184L140.911 458.279L140.935 458.19C141.742 459.11 151.702 468 153.768 465.386C153.826 465.314 154.571 460.913 154.598 460.413C154.73 457.976 144.371 454.672 146.69 452.196C147.378 452.625 147.252 452.526 147.812 453.159C151.481 457.306 155.307 458.156 160.258 459.828C165.856 453.654 170.772 445.113 175.466 438.113C178.334 433.835 179.196 430.887 183.037 426.959C182.821 426.452 182.6 425.948 182.374 425.447C185.388 421.225 185.179 421.953 189.276 418.612C188.611 417.329 188.022 416.802 187.19 415.654L186.928 415.286C200.869 388.104 206.613 359.035 215.789 330.518C224.285 304.809 236.355 280.424 251.644 258.08C252.956 256.138 253.68 254.897 255.46 253.307Z"/><path fill="#03876B" d="M183.037 426.959C186.602 436.527 186.429 439.859 182.038 449.075C179.273 451.636 178.98 452.658 175.168 455.858C173.891 456.469 172.569 457.305 171.234 457.988C166.346 459.243 165.618 459.744 160.258 459.828C165.856 453.654 170.772 445.113 175.466 438.113C178.334 433.835 179.196 430.887 183.037 426.959Z"/><defs><linearGradient id="gradient_3" gradientUnits="userSpaceOnUse" x1="189.19823" y1="447.05496" x2="189.73318" y2="426.61713"><stop offset="0" stop-color="#F2CB7C"/><stop offset="1" stop-color="#CAE4AC"/></linearGradient></defs><path fill="url(#gradient_3)" d="M182.374 425.447C185.388 421.225 185.179 421.953 189.276 418.612C195.885 430.246 196.871 440.444 191.067 452.737C188.775 451.811 183.208 450.539 182.038 449.075C186.429 439.859 186.602 436.527 183.037 426.959C182.821 426.452 182.6 425.948 182.374 425.447Z"/><defs><linearGradient id="gradient_4" gradientUnits="userSpaceOnUse" x1="173.20175" y1="463.36142" x2="157.43457" y2="464.41766"><stop offset="0" stop-color="#B29C6A"/><stop offset="1" stop-color="#859982"/></linearGradient></defs><path fill="url(#gradient_4)" d="M146.69 452.196C147.378 452.625 147.252 452.526 147.812 453.159C151.481 457.306 155.307 458.156 160.258 459.828C165.618 459.744 166.346 459.243 171.234 457.988C172.569 457.305 173.891 456.469 175.168 455.858C175.55 457.417 179.754 462.595 181.336 463.348C180.267 464.316 178.9 464.962 177.678 465.806C170.001 469.14 163.079 471.015 154.694 468.049C149.725 466.38 144.043 463.33 140.762 459.144L140.82 458.824L140.946 458.184L140.911 458.279L140.935 458.19C141.742 459.11 151.702 468 153.768 465.386C153.826 465.314 154.571 460.913 154.598 460.413C154.73 457.976 144.371 454.672 146.69 452.196Z"/><path fill="#C8A785" d="M171.234 457.988C172.569 457.305 173.891 456.469 175.168 455.858C175.55 457.417 179.754 462.595 181.336 463.348C180.267 464.316 178.9 464.962 177.678 465.806C176.79 465.501 175.886 465.254 175.002 464.943C173.998 463.061 171.825 459.357 171.234 457.988Z"/><path fill="#E6A428" d="M182.038 449.075C183.208 450.539 188.775 451.811 191.067 452.737C188.289 457.619 185.82 460.02 181.336 463.348C179.754 462.595 175.55 457.417 175.168 455.858C178.98 452.658 179.273 451.636 182.038 449.075Z"/><path fill="#0EA5E9" d="M638.994 0L744.627 0L851.71 0C847.032 10.2732 836.9 26.2811 830.332 35.8651C790.001 94.7218 737.177 139.934 670.24 165.088C659.237 169.223 647.926 172.482 636.411 174.837C627.968 176.625 609.3 178.106 603.479 181.359C604.8 182.151 605.635 182.095 606.697 183.084C572.743 178.16 541.468 177.595 507.391 182.469C503.365 183.045 492.88 184.48 489.483 185.463C487.732 188.161 488.528 188.147 485.113 188.898C484.264 188.203 483.424 187.497 482.595 186.778C445.509 194.279 410.308 209.157 379.083 230.531C371.577 235.567 365.005 240.787 357.745 246.068C350.154 245.895 331.7 273.953 323.941 273.314C314.522 271.918 311.182 269.298 301.815 274.101C287.23 281.579 271.863 285.566 256.366 289.925C243.388 293.576 247.561 299.1 231.879 295.594C234.27 286.543 249.936 262.955 255.59 254.582C255.547 254.157 255.503 253.732 255.46 253.307C253.68 254.897 252.956 256.138 251.644 258.08C250.118 255.317 250.208 251.994 248.468 250.05C246.785 249.801 245.91 249.781 244.205 249.776C231.755 256.151 208.224 258.019 194.356 260.634C193.504 260.795 188.639 266.442 187.827 267.39C181.254 268.625 177.622 268.917 172.199 273.455C171.324 274.186 162.35 269.589 160.72 271.416C160.588 271.531 157.836 274.264 157.149 274.858C159.442 266.732 168.231 251.894 171.66 243.227C202.596 191.859 240.705 154.409 296.814 132.724C302.569 130.499 313.781 127.095 318.364 124.04C340.278 123.999 357.238 127.349 378.575 131.184C381.91 130.506 408.686 131.332 413.66 131.366C439.323 131.542 463.108 128.979 487.99 122.289C539.459 108.955 584.805 78.378 616.467 35.6551C625.165 23.9731 631.772 12.5398 638.994 0Z"/><path fill="#2563EB" d="M638.994 0L744.627 0C731.36 24.6499 702.109 63.6786 679.652 80.9771C675.172 75.0367 670.045 71.8193 663.165 76.9198C668.602 82.1525 669.774 85.3462 667.439 92.5893C667.009 93.9249 666.916 94.1176 665.61 94.5403C657.074 98.1111 640.851 112.679 631.081 118.263C595.061 138.85 556.015 153.983 514.124 155.561C504.797 155.909 491.781 150.673 482.287 150.575C448.865 143.779 411.097 141.366 378.575 131.184C381.91 130.506 408.686 131.332 413.66 131.366C439.323 131.542 463.108 128.979 487.99 122.289C539.459 108.955 584.805 78.378 616.467 35.6551C625.165 23.9731 631.772 12.5398 638.994 0Z"/><path fill="#C8A785" d="M663.165 76.9198C668.602 82.1525 669.774 85.3462 667.439 92.5893C667.009 93.9249 666.916 94.1176 665.61 94.5403C656.794 90.2639 656.233 83.4708 663.165 76.9198Z"/><path fill="#02CED3" d="M318.364 124.04C340.278 123.999 357.238 127.349 378.575 131.184C411.097 141.366 448.865 143.779 482.287 150.575C480.104 151.567 432.814 153.222 421.244 155.612C391.02 161.856 365.657 168.375 337.484 183.427C310.55 197.818 271.341 226.279 255.46 253.307C253.68 254.897 252.956 256.138 251.644 258.08C250.118 255.317 250.208 251.994 248.468 250.05C246.785 249.801 245.91 249.781 244.205 249.776C231.755 256.151 208.224 258.019 194.356 260.634C193.504 260.795 188.639 266.442 187.827 267.39C181.254 268.625 177.622 268.917 172.199 273.455C171.324 274.186 162.35 269.589 160.72 271.416C160.588 271.531 157.836 274.264 157.149 274.858C159.442 266.732 168.231 251.894 171.66 243.227C202.596 191.859 240.705 154.409 296.814 132.724C302.569 130.499 313.781 127.095 318.364 124.04Z"/><path fill="#F97316" d="M482.595 186.778C485.207 186.261 486.782 185.812 489.483 185.463C487.732 188.161 488.528 188.147 485.113 188.898C484.264 188.203 483.424 187.497 482.595 186.778Z"/><path fill="#0256B7" d="M541.942 0L638.994 0C631.772 12.5398 625.165 23.9731 616.467 35.6551C584.805 78.378 539.459 108.955 487.99 122.289C463.108 128.979 439.323 131.542 413.66 131.366C408.686 131.332 381.91 130.506 378.575 131.184C357.238 127.349 340.278 123.999 318.364 124.04C313.781 127.095 302.569 130.499 296.814 132.724C240.705 154.409 202.596 191.859 171.66 243.227C168.231 251.894 159.442 266.732 157.149 274.858C147.459 295.949 142.803 321.984 135.437 343.64C111.369 414.404 70.4986 462.617 2.80494 493.952L2.35754 493.623C0.575266 480.291 4.53005 467.554 0 454.632L0 445.21L0 415.395L1.50731 415.313C2.42564 417.93 2.0514 432.704 2.0409 436.258C32.5376 410.242 46.7172 365.46 48.8766 326.657C49.3934 317.37 49.0307 306.681 49.2061 297.197C49.4784 284.933 50.6009 272.703 52.5656 260.594C58.7515 223.145 74.4332 187.908 98.113 158.248C143.469 100.651 218.6 69.5149 291.529 76.5383C308.1 78.1343 324.443 82.2723 340.869 84.9894C360.178 88.1684 379.839 88.6184 399.274 86.3262C458.218 79.1531 505.974 45.7898 541.942 0Z"/><path fill="#02CED3" d="M90.992 279.463C98.9034 250.134 127.467 211.356 149.431 190.35C194.705 146.685 255.484 122.828 318.364 124.04C313.781 127.095 302.569 130.499 296.814 132.724C240.705 154.409 202.596 191.859 171.66 243.227C168.231 251.894 159.442 266.732 157.149 274.858C147.459 295.949 142.803 321.984 135.437 343.64C111.369 414.404 70.4986 462.617 2.80494 493.952L2.35754 493.623C0.575266 480.291 4.53005 467.554 0 454.632L0 445.21C36.9058 416.993 63.4267 377.341 75.4184 332.452C79.0359 319.062 85.2684 291.561 90.7257 280.018L90.992 279.463Z"/><path fill="#00D6FE" d="M90.992 279.463C98.9034 250.134 127.467 211.356 149.431 190.35C194.705 146.685 255.484 122.828 318.364 124.04C313.781 127.095 302.569 130.499 296.814 132.724C240.705 154.409 202.596 191.859 171.66 243.227L171.373 242.249C191.523 203.664 228.856 166.98 266.548 145.679C269.503 143.817 270.362 142.237 272.479 139.365C274.547 136.559 278.246 136.364 279.578 133.98C274.385 131.307 263.262 136.326 257.287 137.037C254.639 137.352 250.857 144.533 244.872 140.184C243.934 136.433 249.171 136.086 252.087 134.132L251.674 133.713C246.554 133.91 240.472 136.549 235.549 138.317C212.912 146.451 184.006 162.088 165.527 178.193C175.367 174.186 183.41 163.105 190.661 165.732C191.515 167.425 191.341 166.542 191.123 168.486C188.875 169.254 188.289 169.031 186.548 170.815L182.328 171.606C179.237 172.202 175.85 178.062 173.577 179.256C164.516 184.013 160.433 193.489 151.274 197.692C148.517 198.958 146.401 198.847 144.468 201C143.889 204.836 151.437 210.676 148.622 213.424C142.02 215.307 137.139 213.887 131.087 216.56C130.575 213.234 133.043 212.692 131.981 211.519C123.403 217.482 103.541 252.012 98.6127 263.129C97.3505 265.976 92.6071 278.623 91.3363 279.598L90.992 279.463Z"/><path fill="#00D6FE" d="M267.59 140.809C269.303 142.994 268.018 143.44 266.548 145.679C265.293 143.045 265.812 143.069 267.59 140.809Z"/><path fill="#00D6FE" d="M234.861 145.38C240.106 145.305 242.338 143.577 243.047 148.876L242.374 148.828C235.588 148.276 240.186 151.969 234.861 145.38Z"/><path fill="#00D6FE" d="M231.732 149.372C238.349 149.112 234.843 151.462 233.986 151.353C229.396 152.647 228.395 150.417 231.732 149.372Z"/><path fill="#EF8566" d="M536.549 28.6496C539.588 31.4686 544.672 42.2243 538.699 43.3669C533.035 40.3974 528.482 34.9537 535.01 29.8451L536.549 28.6496Z"/><defs><linearGradient id="gradient_5" gradientUnits="userSpaceOnUse" x1="224.15837" y1="120.02634" x2="189.32468" y2="-39.071476"><stop offset="0" stop-color="#077EF9"/><stop offset="1" stop-color="#0199FF"/></linearGradient></defs><path fill="url(#gradient_5)" d="M0 0L436.404 0C431.205 4.21468 420.39 10.1837 414.315 13.3753C374.875 34.1125 330.231 42.8554 285.885 38.5266C268.384 36.7234 251.425 32.3475 234.172 31.0667C174.605 26.188 115.43 44.303 68.7965 81.6929C46.0278 100.374 27.1162 123.314 13.1186 149.23C9.33909 156.292 3.98652 170.335 0 175.891L0 0Z"/><defs><linearGradient id="gradient_6" gradientUnits="userSpaceOnUse" x1="523.52216" y1="67.218651" x2="565.58856" y2="677.25922"><stop offset="0" stop-color="#FF5900"/><stop offset="1" stop-color="#FFBF05"/></linearGradient></defs><path fill="url(#gradient_6)" d="M851.71 0L947.857 0L1044.85 0L1140.71 0C1136.85 2.20465 1123.76 4.95398 1118.4 7.00796C1102.04 13.2735 1083.95 20.4539 1068.73 29.0978C1076.05 34.2504 1082.39 24.8174 1085.35 41.1022C1086.22 45.9085 1090.31 52.3893 1088.15 57.2971L1088.56 57.4077C1093.99 50.1884 1102.23 40.8892 1108.55 34.5243L1108.93 34.4877C1107.16 36.8309 1099.93 45.0951 1099.33 46.0766C1103.48 50.1703 1111.3 57.7043 1112.31 63.4554C1111.51 66.6172 1108.17 67.2354 1106.58 72.2286C1103.06 77.4182 1097.44 82.9943 1093.4 88.0479C1074.11 112.171 1058.46 138.742 1040.25 163.63C1001.47 216.619 947.513 258.801 881.795 271.299C850.048 277.133 817.479 276.844 785.84 270.447C759.876 265.234 736.774 256.991 711.603 249.759C664.325 236.175 615.681 233.944 569.626 253.717C554.236 260.325 541.222 267.69 527.713 277.882C525.194 279.783 514.767 289.997 513.179 290.881C501.549 303.994 490.895 316.465 482.038 331.593C451.221 384.229 440.552 449.865 455.579 509.196C456.873 514.304 462.296 529.644 462.432 532.862C467.79 546.83 471.132 554.282 477.779 567.488C525.919 650.672 604.819 705.817 691.392 743.607C705.261 749.618 719.364 755.072 733.669 759.957C738.743 761.72 752.757 765.969 756.81 768L0 768L0 721.089L0 605.232C12.1118 604.798 22.6337 603.08 35.2916 603.405C51.7702 603.505 68.1565 606.262 84.5547 606.955C128.927 608.83 170.761 595.47 207.91 572.315C268.904 534.298 308.29 475.046 327.211 406.435C331.672 390.26 334.43 374.401 338.084 358.099C343.563 332.772 352.793 308.405 365.469 285.805C386.676 248.271 415.525 220.189 454.386 201.246C464.824 196.158 473.781 192.06 485.113 188.898C488.528 188.147 487.732 188.161 489.483 185.463C492.88 184.48 503.365 183.045 507.391 182.469C541.468 177.595 572.743 178.16 606.697 183.084C605.635 182.095 604.8 182.151 603.479 181.359C609.3 178.106 627.968 176.625 636.411 174.837C647.926 172.482 659.237 169.223 670.24 165.088C737.177 139.934 790.001 94.7218 830.332 35.8651C836.9 26.2811 847.032 10.2732 851.71 0Z"/><defs><linearGradient id="gradient_7" gradientUnits="userSpaceOnUse" x1="334.14084" y1="598.18756" x2="394.80283" y2="850.16119"><stop offset="0" stop-color="#63ADA5"/><stop offset="1" stop-color="#00A3B2"/></linearGradient></defs><path fill="url(#gradient_7)" d="M336.293 558.835C340.701 556.479 340.943 549.159 344.391 546.396C345.746 546.271 352.099 546.47 352.939 545.856C359.446 541.109 372.033 539.83 377.947 536.269C386.126 532.756 390.47 529.741 399.565 529.656C402.695 529.627 412.013 525.44 415.524 525.007C421.979 524.21 452.199 520.738 457.008 522.676C458.742 524.254 460.229 529.813 461.23 532.468L462.432 532.862C467.79 546.83 471.132 554.282 477.779 567.488C525.919 650.672 604.819 705.817 691.392 743.607C705.261 749.618 719.364 755.072 733.669 759.957C738.743 761.72 752.757 765.969 756.81 768L0 768L0 721.089C10.0625 710.11 28.9526 691.481 42.596 685.577C46.4554 682.302 61.1989 675.262 65.8357 673.247C91.3561 662.332 118.613 656.042 146.335 654.671C159.121 654.062 172.299 654.484 185.337 653.944C229.232 651.262 263.882 635.557 297.061 607.682C304.929 599.739 312.12 593.094 319.118 584.221C325.595 576.008 330.398 567.109 336.293 558.835Z"/><path fill="#14B8A6" d="M336.293 558.835C340.701 556.479 340.943 549.159 344.391 546.396C345.746 546.271 352.099 546.47 352.939 545.856C359.446 541.109 372.033 539.83 377.947 536.269C386.126 532.756 390.47 529.741 399.565 529.656C402.695 529.627 412.013 525.44 415.524 525.007C421.979 524.21 452.199 520.738 457.008 522.676C458.742 524.254 460.229 529.813 461.23 532.468L462.432 532.862C467.79 546.83 471.132 554.282 477.779 567.488L477.591 569.349C472.48 570.396 462.053 570.978 456.744 571.105C452.882 571.198 441.167 575.342 440.465 575.296C422.007 574.093 408.628 583.268 392.076 588.179C375.715 593.033 360.227 592.941 345.429 603.701C344.424 604.371 299.945 614.547 298.872 614.09C297.09 611.043 298.335 609.754 297.061 607.682C304.929 599.739 312.12 593.094 319.118 584.221C325.595 576.008 330.398 567.109 336.293 558.835Z"/><path fill="#14B8A6" d="M42.596 685.577C46.4554 682.302 61.1989 675.262 65.8357 673.247C91.3561 662.332 118.613 656.042 146.335 654.671C159.121 654.062 172.299 654.484 185.337 653.944C182.409 655.562 178.762 655.359 175.374 656.703C156.69 664.114 138.122 666.388 118.43 669.492C105.888 671.468 83.7654 679.87 71.1003 676.551C69.4911 675.066 69.9788 673.364 68.514 673.695C59.7643 675.672 51.2329 683.989 42.596 685.577Z"/><path fill="#E6A428" d="M1099.33 46.0766C1103.48 50.1703 1111.3 57.7043 1112.31 63.4554C1111.51 66.6172 1108.17 67.2354 1106.58 72.2286C1103.06 77.4182 1097.44 82.9943 1093.4 88.0479C1074.11 112.171 1058.46 138.742 1040.25 163.63C1001.47 216.619 947.513 258.801 881.795 271.299C850.048 277.133 817.479 276.844 785.84 270.447C759.876 265.234 736.774 256.991 711.603 249.759C664.325 236.175 615.681 233.944 569.626 253.717C554.236 260.325 541.222 267.69 527.713 277.882C525.194 279.783 514.767 289.997 513.179 290.881C501.549 303.994 490.895 316.465 482.038 331.593C451.221 384.229 440.552 449.865 455.579 509.196C456.873 514.304 462.296 529.644 462.432 532.862L461.23 532.468C460.229 529.813 458.742 524.254 457.008 522.676C452.199 520.738 421.979 524.21 415.524 525.007C412.013 525.44 402.695 529.627 399.565 529.656C390.47 529.741 386.126 532.756 377.947 536.269C372.033 539.83 359.446 541.109 352.939 545.856C352.099 546.47 345.746 546.271 344.391 546.396C340.943 549.159 340.701 556.479 336.293 558.835C338.539 553.66 341.69 548.111 344.096 542.566C350.111 528.705 354.962 514.912 358.484 500.22C363.879 477.718 363.994 455.71 366.663 433.059C370.192 403.114 380.989 370.773 394.479 343.889C397.194 338.479 406.076 322.017 409.853 318.466C412.034 313.881 422.321 300.997 426.104 296.496C488.361 222.427 580.387 201.247 672.71 217.361C697.408 221.672 713.998 227.241 737.3 232.472C767.75 239.311 799.099 241.229 830.156 238.155C928.5 229.355 1012.54 166.025 1068.86 88.0861C1079.08 73.9373 1088.07 59.5448 1099.33 46.0766Z"/><defs><linearGradient id="gradient_8" gradientUnits="userSpaceOnUse" x1="862.43842" y1="143.80714" x2="686.56067" y2="39.866325"><stop offset="0" stop-color="#01C9C5"/><stop offset="1" stop-color="#04C2D6"/></linearGradient></defs><path fill="url(#gradient_8)" d="M851.71 0L947.857 0C942.5 14.1089 932.099 28.5844 924.243 41.4581C886.245 103.731 834.502 157.589 768.116 189.465C764.37 191.264 757.611 192.316 755.281 195.682L755.555 196.877C757.28 197.895 758.723 197.666 760.774 197.677C755.997 198.672 741.734 198.679 736.492 198.657C692.915 198.479 649.997 188.999 606.697 183.084C605.635 182.095 604.8 182.151 603.479 181.359C609.3 178.106 627.968 176.625 636.411 174.837C647.926 172.482 659.237 169.223 670.24 165.088C737.177 139.934 790.001 94.7218 830.332 35.8651C836.9 26.2811 847.032 10.2732 851.71 0Z"/><path fill="#EF8566" d="M883.976 58.0427C887.643 58.8812 891.351 66.6561 892.912 69.9223C893.302 70.7382 890.37 73.2461 889.778 73.8135C879.281 73.5419 876.075 65.3371 883.976 58.0427Z"/><path fill="#02CED3" d="M947.857 0L1044.85 0L1140.71 0C1136.85 2.20465 1123.76 4.95398 1118.4 7.00796C1102.04 13.2735 1083.95 20.4539 1068.73 29.0978C1054.34 37.1916 1041.88 45.7043 1028.6 55.5487C1004.96 73.0797 984.744 94.8008 961.442 112.736C914.571 152.562 854.327 183.264 793.642 193.622C786.422 194.854 767.509 197.812 760.774 197.677C758.723 197.666 757.28 197.895 755.555 196.877L755.281 195.682C757.611 192.316 764.37 191.264 768.116 189.465C834.502 157.589 886.245 103.731 924.243 41.4581C932.099 28.5844 942.5 14.1089 947.857 0Z"/><path fill="#14B8A6" d="M1044.85 0L1140.71 0C1136.85 2.20465 1123.76 4.95398 1118.4 7.00796C1102.04 13.2735 1083.95 20.4539 1068.73 29.0978C1054.34 37.1916 1041.88 45.7043 1028.6 55.5487C1004.96 73.0797 984.744 94.8008 961.442 112.736C961.893 109.522 963.432 107.233 965.206 104.603C980.96 81.2584 991.21 55.0846 1009.28 33.0718C1020.26 19.6977 1031.56 10.6421 1044.85 0Z"/><path fill="#B8D274" d="M911.354 97.0429C915.054 97.8898 930.607 104.705 927.702 109.65C917.214 111.93 909.539 109.424 911.354 97.0429Z"/><path fill="#F97316" d="M1140.71 0L1237.13 0C1190.55 11.5963 1163.48 20.8916 1125.75 54.0411C1119.12 59.8743 1112.82 66.6283 1106.58 72.2286C1108.17 67.2354 1111.51 66.6172 1112.31 63.4554C1111.3 57.7043 1103.48 50.1703 1099.33 46.0766C1099.93 45.0951 1107.16 36.8309 1108.93 34.4877L1108.55 34.5243C1102.23 40.8892 1093.99 50.1884 1088.56 57.4077L1088.15 57.2971C1090.31 52.3893 1086.22 45.9085 1085.35 41.1022C1082.39 24.8174 1076.05 34.2504 1068.73 29.0978C1083.95 20.4539 1102.04 13.2735 1118.4 7.00796C1123.76 4.95398 1136.85 2.20465 1140.71 0Z"/></svg>