<?xml version="1.0" encoding="utf-8" ?><svg xmlns="http://www.w3.org/2000/svg" xmlns:xlink="http://www.w3.org/1999/xlink" width="520" height="423" viewBox="0 0 520 423"><path fill="#CFDBF6" d="M130.66 46.7227C130.742 25.4605 132.049 25.4757 148.849 25.6705L148.854 25.6706L148.878 25.6709L148.887 25.671C150.686 25.6918 152.662 25.7146 154.831 25.7134L177.023 25.7098L245.293 25.7088L344.399 25.7031C347.512 25.7033 350.626 25.7028 353.739 25.7023C367.736 25.6999 381.731 25.6975 395.728 25.7649C406.134 25.815 405.84 34.4054 405.572 42.2493L405.572 42.2504L405.572 42.2599L405.572 42.2639C405.517 43.8686 405.463 45.4417 405.503 46.904C405.509 47.5992 405.504 48.5254 405.498 49.5969L405.497 49.8582L405.495 50.1563C405.465 55.1759 405.421 62.827 406.013 65.3539C411.577 70.4507 413.588 73.8866 417.638 80.1476C427.483 95.3666 433.478 113.373 436.251 131.221C436.653 134.227 437.392 137.277 437.543 140.304C437.956 148.515 438.168 156.424 437.74 164.652C437.655 166.281 437.117 167.605 436.623 168.821C435.996 170.364 435.44 171.734 435.971 173.332C433.092 170.958 432.419 170.976 428.875 171.691C428.753 171.381 428.623 171.074 428.486 170.77C423.805 160.33 414.016 164.699 406.336 168.291C403.856 169.824 396.95 171.241 396.187 173.681C396.351 176.102 400.397 178.175 402.337 179.241C402.225 180.605 402.088 184.342 401.51 185.329L400.926 185.655C401.402 186.048 401.611 187.358 401.904 189.202C402.679 194.065 404.045 202.646 412.474 207.945C419.192 209.682 423.253 208.225 428.235 203.29C428.795 202.362 429.918 200.435 429.983 199.382C432.746 196.206 435.243 191.626 436.544 187.658C437.051 186.112 437.583 183.785 438.126 182.385L438.221 182.143L438.389 182.927C439.41 183.171 442.106 183.245 443.295 183.329C445.489 183.484 447.67 183.785 449.823 184.23C470.848 188.659 485.843 208.207 489.295 228.731C490.411 235.37 490.374 242.156 490.337 248.895L490.337 248.908C490.33 250.17 490.323 251.431 490.324 252.688L490.323 280.17L490.322 314.123L490.322 316.215C490.331 337.104 490.337 353.212 475.579 370.371C468.415 378.636 460.641 384.444 450.272 388.418C448.744 389.003 442.546 390.544 441.785 391.102C444.694 391.787 450.243 391.779 453.709 391.774C453.991 391.773 454.26 391.773 454.512 391.773L472.79 391.764C473.607 391.763 474.446 391.756 475.297 391.749L475.313 391.749C478.501 391.722 481.855 391.694 484.859 392.002C490.076 393.579 493.957 398.563 489.043 403.432C487.388 405.073 483.822 405.439 481.515 405.409C473.944 405.309 466.348 405.248 458.755 405.259L397.025 405.356L183.429 405.367L81.5466 405.299L53.0471 405.324C51.8124 405.333 50.5827 405.35 49.3564 405.366L49.308 405.366L49.2841 405.366C44.949 405.423 40.6566 405.48 36.3368 405.231C31.3417 404.945 28.3678 400.855 29.6025 396.359C30.9828 391.333 38.8325 391.691 45.872 392.012L45.8761 392.012C50.2801 392.214 54.3662 392.4 56.3514 391.245L56.3641 390.767C53.7408 389.707 52.8137 388.508 53.1704 385.69C54.547 380.616 55.2209 377.885 58.2299 373.473L58.6558 372.421C57.7927 372.234 57.5733 372.255 56.9289 371.706C55.8904 369.433 56.771 334.2 57.5917 301.364C58.2222 276.141 58.8173 252.332 58.4801 245.961C57.7438 245.734 56.8272 245.362 56.0879 245.087C55.6816 242.355 55.6928 240.371 56.3309 237.713C60.737 237.033 65.9064 237.093 70.9606 237.152L70.9743 237.152C74.3188 237.192 77.6125 237.231 80.6009 237.054C90.1501 236.053 93.638 235.775 103.387 237.12C104.163 237.112 104.952 237.101 105.751 237.09L105.762 237.09C110.839 237.018 116.293 236.941 121.111 237.754C121.075 237.337 121.055 236.917 121.053 236.498C121.034 235.213 121.105 233.931 121.205 232.651C121.925 223.445 123.045 214.274 124.048 205.098L125.7 189.148C125.946 186.642 126.435 177.758 127.828 176.31C132.74 174.48 136.426 170.112 139.446 166.103C139.918 165.181 140.366 164.214 140.814 163.277C138.662 155.987 134.907 150.526 130.44 144.501C130.587 143.617 130.574 140.083 130.567 138.138L130.567 138.129L130.567 138.055C130.565 137.692 130.564 137.39 130.564 137.178L130.526 121.24L130.521 66.8283C130.521 65.2332 130.524 63.6374 130.527 62.0416C130.531 60.178 130.535 58.3143 130.534 56.4517C130.534 56.1849 130.551 55.8219 130.569 55.4129C130.631 54.0839 130.715 52.2683 130.311 51.6833C130.58 51.2621 130.587 49.956 130.594 48.7014C130.598 47.9593 130.602 47.2351 130.66 46.7227Z"/><path fill="#F4D0AB" d="M121.111 237.754C121.075 237.337 121.055 236.917 121.053 236.498C121.034 235.213 121.105 233.931 121.205 232.651C121.925 223.445 123.045 214.274 124.048 205.098L125.7 189.148C125.946 186.642 126.435 177.758 127.828 176.31C128.547 177.185 130.514 179.605 130.868 180.629C130.78 182.344 130.847 184.668 130.911 186.868C130.946 188.077 130.98 189.25 130.986 190.262L131.022 210.267L131.016 229.332C131.016 229.938 131.014 230.547 131.012 231.159L131.012 231.178C131.001 234.79 130.99 238.496 131.407 242.051C131.589 243.596 132.503 245.156 133.547 246.305C136.078 249.092 139.937 249.093 143.503 249.094C143.709 249.094 143.914 249.094 144.118 249.095L304.504 249.069L332.226 248.999C334.502 248.98 337.968 248.942 340.337 248.868C340.449 248.972 340.56 249.076 340.672 249.179L340.874 249.887C340.907 246.839 341.698 246.37 344.029 244.668C350.315 245.18 357.829 246.605 364.078 247.679C364.109 244.099 364.214 240.519 364.392 236.943C366.425 223.407 367.694 218.684 374.524 206.815C381.404 196.159 389.348 190.328 400.926 185.655C401.402 186.048 401.611 187.358 401.904 189.202C402.679 194.065 404.045 202.646 412.474 207.945C419.192 209.682 423.253 208.225 428.235 203.29C428.795 202.362 429.918 200.435 429.983 199.382C432.746 196.206 435.243 191.626 436.544 187.658C437.051 186.112 437.583 183.785 438.126 182.385L438.221 182.143L438.389 182.927C439.41 183.171 442.106 183.245 443.295 183.329C445.489 183.484 447.67 183.785 449.823 184.23C470.848 188.659 485.843 208.207 489.295 228.731C490.411 235.37 490.374 242.156 490.337 248.895L490.337 248.908C490.33 250.17 490.323 251.431 490.324 252.688L490.323 280.17L490.322 314.123L490.322 316.215C490.331 337.104 490.337 353.212 475.579 370.371C468.415 378.636 460.641 384.444 450.272 388.418C448.744 389.003 442.546 390.544 441.785 391.102C444.694 391.787 450.243 391.779 453.709 391.774C453.991 391.773 454.26 391.773 454.512 391.773L472.79 391.764C473.607 391.763 474.446 391.756 475.297 391.749L475.313 391.749C478.501 391.722 481.855 391.694 484.859 392.002C490.076 393.579 493.957 398.563 489.043 403.432C487.388 405.073 483.822 405.439 481.515 405.409C473.944 405.309 466.348 405.248 458.755 405.259L397.025 405.356L183.429 405.367L81.5466 405.299L53.0471 405.324C51.8124 405.333 50.5827 405.35 49.3564 405.366L49.308 405.366L49.2841 405.366C44.949 405.423 40.6566 405.48 36.3368 405.231C31.3417 404.945 28.3678 400.855 29.6025 396.359C30.9828 391.333 38.8325 391.691 45.872 392.012L45.8761 392.012C50.2801 392.214 54.3662 392.4 56.3514 391.245L56.3641 390.767C53.7408 389.707 52.8137 388.508 53.1704 385.69C54.547 380.616 55.2209 377.885 58.2299 373.473L58.6558 372.421C57.7927 372.234 57.5733 372.255 56.9289 371.706C55.8904 369.433 56.771 334.2 57.5917 301.364C58.2222 276.141 58.8173 252.332 58.4801 245.961C57.7438 245.734 56.8272 245.362 56.0879 245.087C55.6816 242.355 55.6928 240.371 56.3309 237.713C60.737 237.033 65.9064 237.093 70.9606 237.152L70.9743 237.152C74.3188 237.192 77.6125 237.231 80.6009 237.054C90.1501 236.053 93.638 235.775 103.387 237.12C104.163 237.112 104.952 237.101 105.751 237.09L105.762 237.09C110.839 237.018 116.293 236.941 121.111 237.754Z"/><path fill="#EF9750" d="M438.221 182.143L438.389 182.927C439.41 183.171 442.106 183.245 443.295 183.329C445.489 183.484 447.67 183.785 449.823 184.23C470.848 188.659 485.843 208.207 489.295 228.731C490.411 235.37 490.374 242.156 490.337 248.895L490.337 248.908C490.33 250.17 490.323 251.431 490.324 252.688L490.323 280.17L490.322 314.123L490.322 316.215C490.331 337.104 490.337 353.212 475.579 370.371C468.415 378.636 460.641 384.444 450.272 388.418C448.744 389.003 442.546 390.544 441.785 391.102C441.434 390.929 437.202 391.146 431.511 391.439C420.102 392.026 402.83 392.914 399.207 391.558C399.656 390.998 400.204 390.603 400.706 390.24C401.726 389.504 402.563 388.9 402.027 387.323C403.027 385.261 399.614 379.197 398.235 377.491L397.979 375.712C397.69 375.813 397.416 375.911 397.154 376.003C393.685 377.233 392.429 377.678 388.351 376.86L388.868 378.151C385.932 383.208 380.912 385.017 375.82 386.763C375.264 384.519 373.826 378.583 371.164 378.172C371.07 377.837 371.066 377.54 371.062 377.209C371.057 376.818 371.052 376.379 370.895 375.77C367.071 377.445 366.497 377.578 362.318 377.159C359.588 374.384 354.452 341.901 353.782 336.332C353.155 330.7 352.712 325.048 352.455 319.386C352.301 313.14 354.097 307.497 360.23 304.747L360.749 303.958C358.07 303.625 348.739 302.399 347.191 301.061C345.031 299.192 344.086 282.606 343.837 279.926C342.935 269.905 341.947 259.891 340.874 249.887C340.907 246.839 341.698 246.37 344.029 244.668C350.315 245.18 357.829 246.605 364.078 247.679C364.109 244.099 364.214 240.519 364.392 236.943C366.425 223.407 367.694 218.684 374.524 206.815C381.404 196.159 389.348 190.328 400.926 185.655C401.402 186.048 401.611 187.358 401.904 189.202C402.679 194.065 404.045 202.646 412.474 207.945C419.192 209.682 423.253 208.225 428.235 203.29C428.795 202.362 429.918 200.435 429.983 199.382C432.746 196.206 435.243 191.626 436.544 187.658C437.051 186.112 437.583 183.785 438.126 182.385L438.221 182.143Z"/><path fill="#59B8FB" d="M400.926 185.655C401.402 186.048 401.611 187.358 401.904 189.202C402.679 194.065 404.045 202.646 412.474 207.945C419.192 209.682 423.253 208.225 428.235 203.29C428.286 203.571 428.378 204.021 428.488 204.555L428.498 204.602C428.844 206.295 429.353 208.789 429.289 209.449L429.822 209.629C432.001 211.392 433.997 212.561 436.03 214.128C439.134 215.901 442.432 217.488 445.424 219.206C450.766 222.272 454.401 229.277 455.921 235.099C457.38 240.688 458.911 251.623 458.249 257.239L456.754 258.988C454.041 259.195 452.005 259.166 449.494 259.13C449.061 259.124 448.614 259.117 448.147 259.112C445.546 258.367 443.235 257.541 440.685 256.633C440.683 256.852 440.682 257.17 440.682 257.561C440.678 260.309 440.667 266.684 440.095 267.995C437.118 274.812 428.934 283.038 424.092 289.08C423.993 289.204 423.608 289.484 423.503 289.561C423.634 294.108 424.281 297.838 424.538 302.095C424.667 302.745 424.801 303.762 425.089 304.309C425.335 305.296 425.334 307.822 425.333 309.727C425.332 310.386 425.332 310.972 425.342 311.392L424.661 311.989C424.209 311.978 423.823 312.07 423.439 312.161L423.431 312.163L423.424 312.165L423.417 312.167C423.128 312.237 422.84 312.306 422.526 312.333C418.621 312.669 414.563 311.992 410.651 311.339C409.965 311.224 409.283 311.11 408.608 311.003L393.239 308.567C392.939 308.519 392.479 308.442 391.914 308.346C388.974 307.848 383.189 306.869 382.208 307.175L381.577 306.811C379.501 305.779 364.082 304.109 360.749 303.958C358.07 303.625 348.739 302.399 347.191 301.061C345.031 299.192 344.086 282.606 343.837 279.926C342.935 269.905 341.947 259.891 340.874 249.887C340.907 246.839 341.698 246.37 344.029 244.668C350.315 245.18 357.829 246.605 364.078 247.679C364.109 244.099 364.214 240.519 364.392 236.943C366.425 223.407 367.694 218.684 374.524 206.815C381.404 196.159 389.348 190.328 400.926 185.655Z"/><path fill="#201751" d="M344.029 244.668C350.315 245.18 357.829 246.605 364.078 247.679C368.178 248.627 374.018 249.312 378.335 249.926C380.585 250.395 381.952 250.586 384.213 250.831C391.074 251.813 397.926 252.851 404.77 253.945C408.452 254.517 412.276 254.858 415.886 255.78C417.016 256.069 418.85 256.581 419.624 257.486C422.303 260.617 422.03 283.572 423.503 289.561C423.634 294.108 424.281 297.838 424.538 302.095C424.667 302.745 424.801 303.762 425.089 304.309C425.335 305.296 425.334 307.822 425.333 309.727C425.332 310.386 425.332 310.972 425.342 311.392L424.661 311.989C424.209 311.978 423.823 312.07 423.439 312.161L423.431 312.163L423.424 312.165L423.417 312.167C423.128 312.237 422.84 312.306 422.526 312.333C418.621 312.669 414.563 311.992 410.651 311.339C409.965 311.224 409.283 311.11 408.608 311.003L393.239 308.567C392.939 308.519 392.479 308.442 391.914 308.346C388.974 307.848 383.189 306.869 382.208 307.175L381.577 306.811C379.501 305.779 364.082 304.109 360.749 303.958C358.07 303.625 348.739 302.399 347.191 301.061C345.031 299.192 344.086 282.606 343.837 279.926C342.935 269.905 341.947 259.891 340.874 249.887C340.907 246.839 341.698 246.37 344.029 244.668Z"/><path fill="#9B7190" d="M424.538 302.095C424.667 302.745 424.801 303.762 425.089 304.309C425.335 305.296 425.334 307.822 425.333 309.727C425.332 310.386 425.332 310.972 425.342 311.392L424.661 311.989C424.521 310.036 424.53 307.421 424.539 305.023L424.539 304.944L424.539 304.905C424.543 303.907 424.547 302.95 424.538 302.095Z"/><path fill="#372B7C" d="M377.82 272.174C384.332 272.673 391.831 281.357 383.861 285.665C377.584 285.761 370.035 276.754 377.82 272.174Z"/><path fill="#EF9750" d="M400.926 185.655C401.402 186.048 401.611 187.358 401.904 189.202C402.679 194.065 404.045 202.646 412.474 207.945C411.904 208.755 411.628 209.212 411.162 210.088C409.202 212.073 407.155 213.97 405.027 215.775C401.152 218.17 397.668 218.565 394.049 220.314C387.748 223.36 377.272 238.002 379.479 245.02C378.914 246.886 378.674 248 378.335 249.926C374.018 249.312 368.178 248.627 364.078 247.679C364.109 244.099 364.214 240.519 364.392 236.943C366.425 223.407 367.694 218.684 374.524 206.815C381.404 196.159 389.348 190.328 400.926 185.655Z"/><path fill="#F5A89C" d="M412.474 207.945C419.192 209.682 423.253 208.225 428.235 203.29C428.286 203.571 428.378 204.021 428.488 204.555L428.498 204.602C428.844 206.295 429.353 208.789 429.289 209.449C428.246 210.364 422.712 219.961 421.16 222.115L420.862 222.01C415.518 216.872 415.139 214.487 411.162 210.088C411.628 209.212 411.904 208.755 412.474 207.945Z"/><path fill="#42A5FA" d="M411.162 210.088C415.139 214.487 415.518 216.872 420.862 222.01C420.32 222.991 413.598 226.239 411.928 227.276C409.639 223.502 407.218 219.592 405.027 215.775C407.155 213.97 409.202 212.073 411.162 210.088Z"/><path fill="#42A5FA" d="M429.289 209.449L429.822 209.629C432.001 211.392 433.997 212.561 436.03 214.128C434.346 217.382 432.244 222.333 430.793 225.78C429.216 225.285 421.613 223.153 421.16 222.115C422.712 219.961 428.246 210.364 429.289 209.449Z"/><path fill="#F4C2B5" d="M379.479 245.02C380.702 246.289 383.863 249.383 384.213 250.831C381.952 250.586 380.585 250.395 378.335 249.926C378.674 248 378.914 246.886 379.479 245.02Z"/><path fill="#EA7D21" d="M429.822 209.629C434.642 208.375 452.221 214.432 456.829 217.176C463.587 221.199 467.215 227.026 469.026 234.66C472.032 247.33 471.881 263.894 467.285 276.143C464.271 284.174 460.954 290.64 459.258 299.185C458.329 303.868 458.282 308.383 458.236 312.795C458.158 320.269 458.083 327.449 453.731 334.654C448.642 343.03 440.437 349.043 430.917 351.373C425.109 352.757 418.59 352.405 412.384 352.07L412.382 352.07L412.379 352.07C410.561 351.972 408.771 351.875 407.032 351.824C405.828 351.789 400.111 351.694 399.161 351.489C399.021 357.026 398.921 370.872 397.979 375.712C397.69 375.813 397.416 375.911 397.154 376.003C393.685 377.233 392.429 377.678 388.351 376.86L388.868 378.151C385.932 383.208 380.912 385.017 375.82 386.763C375.264 384.519 373.826 378.583 371.164 378.172C371.07 377.837 371.066 377.54 371.062 377.209C371.057 376.818 371.052 376.379 370.895 375.77C367.071 377.445 366.497 377.578 362.318 377.159C359.588 374.384 354.452 341.901 353.782 336.332C353.155 330.7 352.712 325.048 352.455 319.386C352.301 313.14 354.097 307.497 360.23 304.747L360.749 303.958C364.082 304.109 379.501 305.779 381.577 306.811L382.208 307.175C383.189 306.869 388.974 307.848 391.914 308.346C392.479 308.442 392.939 308.519 393.239 308.567L408.608 311.003C409.283 311.11 409.965 311.224 410.651 311.339C414.563 311.992 418.621 312.669 422.526 312.333C422.84 312.306 423.128 312.237 423.417 312.167L423.424 312.165L423.431 312.163L423.439 312.161C423.823 312.07 424.209 311.978 424.661 311.989L425.342 311.392C425.332 310.972 425.332 310.386 425.333 309.727C425.334 307.822 425.335 305.296 425.089 304.309C424.801 303.762 424.667 302.745 424.538 302.095C424.281 297.838 423.634 294.108 423.503 289.561C423.608 289.484 423.993 289.204 424.092 289.08C428.934 283.038 437.118 274.812 440.095 267.995C440.667 266.684 440.678 260.309 440.682 257.561C440.682 257.17 440.683 256.852 440.685 256.633C443.235 257.541 445.546 258.367 448.147 259.112C448.614 259.117 449.061 259.124 449.494 259.13C452.005 259.166 454.041 259.195 456.754 258.988L458.249 257.239C458.911 251.623 457.38 240.688 455.921 235.099C454.401 229.277 450.766 222.272 445.424 219.206C442.432 217.488 439.134 215.901 436.03 214.128C433.997 212.561 432.001 211.392 429.822 209.629Z"/><path fill="#003052" d="M360.749 303.958C364.082 304.109 379.501 305.779 381.577 306.811L382.208 307.175C378.915 311.984 378.966 316.935 378.67 322.632C379.191 323.811 379.887 334.023 380.18 336.06C380.853 340.733 381.366 346.316 382.423 350.984C382.994 354.112 386.683 375.463 388.351 376.86L388.868 378.151C385.932 383.208 380.912 385.017 375.82 386.763C375.264 384.519 373.826 378.583 371.164 378.172C371.07 377.837 371.066 377.54 371.062 377.209C371.057 376.818 371.052 376.379 370.895 375.77C367.071 377.445 366.497 377.578 362.318 377.159C359.588 374.384 354.452 341.901 353.782 336.332C353.155 330.7 352.712 325.048 352.455 319.386C352.301 313.14 354.097 307.497 360.23 304.747L360.749 303.958Z"/><path fill="#EF9750" d="M372.522 352.032C375.831 351.756 378.987 351.211 382.423 350.984C382.994 354.112 386.683 375.463 388.351 376.86L388.868 378.151C385.932 383.208 380.912 385.017 375.82 386.763C375.264 384.519 373.826 378.583 371.164 378.172C371.07 377.837 371.066 377.54 371.062 377.209C371.057 376.818 371.052 376.379 370.895 375.77C370.949 375.732 371.008 375.702 371.056 375.656C372.454 374.299 372.374 355.229 372.522 352.032Z"/><path fill="#EA7D21" d="M378.67 322.632C379.191 323.811 379.887 334.023 380.18 336.06C380.853 340.733 381.366 346.316 382.423 350.984C378.987 351.211 375.831 351.756 372.522 352.032C372.527 343.12 373.016 332.641 373.213 323.561C374.897 323.382 376.973 322.944 378.67 322.632Z"/><path fill="#535057" d="M360.749 303.958C364.082 304.109 379.501 305.779 381.577 306.811C379.965 307.045 376.572 306.446 372.89 305.796L372.876 305.793C368.015 304.934 362.656 303.987 360.23 304.747L360.749 303.958Z"/><path fill="#1B587F" d="M425.818 311.152C428.683 310.728 435.553 305.195 440.209 304.637C436.64 312.755 431.381 315.714 423.081 318.013C415.449 320.128 407.655 322.21 399.851 323.575L399.161 351.489C399.021 357.026 398.921 370.872 397.979 375.712C397.69 375.813 397.416 375.911 397.154 376.003C393.685 377.233 392.429 377.678 388.351 376.86C386.683 375.463 382.994 354.112 382.423 350.984C381.366 346.316 380.853 340.733 380.18 336.06C379.887 334.023 379.191 323.811 378.67 322.632C378.966 316.935 378.915 311.984 382.208 307.175C383.189 306.869 388.974 307.848 391.914 308.346C392.479 308.442 392.939 308.519 393.239 308.567L408.608 311.003C409.283 311.11 409.965 311.224 410.651 311.339C414.563 311.992 418.621 312.669 422.526 312.333C422.84 312.306 423.128 312.237 423.417 312.167L423.424 312.165L423.431 312.163L423.439 312.161C423.823 312.07 424.209 311.978 424.661 311.989L425.342 311.392L425.818 311.152Z"/><path fill="#F4C2B5" d="M440.685 256.633C443.235 257.541 445.546 258.367 448.147 259.112C448.614 259.117 449.061 259.124 449.494 259.13C452.005 259.166 454.041 259.195 456.754 258.988C456.7 260.401 456.579 263.582 456.298 264.9C456.254 266.469 456.241 268.429 455.84 269.937C454.05 276.676 445.772 279.839 443.513 286.334C443.152 287.371 443.367 289.199 443.087 290.557L443 293.851C451.207 296.402 447.003 299.303 443.331 301.836C442.269 302.569 441.252 303.27 440.592 303.924L440.209 304.637C435.553 305.195 428.683 310.728 425.818 311.152L425.342 311.392C425.332 310.972 425.332 310.386 425.333 309.727C425.334 307.822 425.335 305.296 425.089 304.309C424.801 303.762 424.667 302.745 424.538 302.095C424.281 297.838 423.634 294.108 423.503 289.561C423.608 289.484 423.993 289.204 424.092 289.08C428.934 283.038 437.118 274.812 440.095 267.995C440.667 266.684 440.678 260.309 440.682 257.561C440.682 257.17 440.683 256.852 440.685 256.633Z"/><path fill="#372B7C" d="M436.897 292.444C438.057 292.837 441.783 293.733 443 293.851C451.207 296.402 447.003 299.303 443.331 301.836C442.269 302.569 441.252 303.27 440.592 303.924L440.209 304.637C435.553 305.195 428.683 310.728 425.818 311.152L425.342 311.392C425.332 310.972 425.332 310.386 425.333 309.727C425.334 307.822 425.335 305.296 425.089 304.309C428.719 300.84 433.413 295.35 436.897 292.444Z"/><path fill="#6D82A4" d="M425.818 311.152C426.955 309.708 438.356 303.851 440.592 303.924L440.209 304.637C435.553 305.195 428.683 310.728 425.818 311.152Z"/><path fill="#59B8FB" d="M436.897 292.444C437.834 290.972 441.018 287.236 442.712 286.926L443.062 287.263C443.179 288.284 443.143 289.161 443.103 290.146L443.103 290.152L443.103 290.164C443.097 290.293 443.092 290.424 443.087 290.557L443 293.851C441.783 293.733 438.057 292.837 436.897 292.444Z"/><path fill="#F5A89C" d="M448.147 259.112C448.614 259.117 449.061 259.124 449.494 259.13C452.005 259.166 454.041 259.195 456.754 258.988C456.7 260.401 456.579 263.582 456.298 264.9C456.163 263.818 456.245 262.338 456.315 261.083C456.329 260.825 456.343 260.577 456.354 260.344C454.409 260.239 449.996 260.302 448.43 259.696L448.962 259.797C448.214 259.472 448.438 259.732 448.147 259.112Z"/><path fill="#CFDBF6" d="M397.979 375.712L398.235 377.491C399.614 379.197 403.027 385.261 402.027 387.323C402.563 388.9 401.726 389.504 400.706 390.24C400.204 390.603 399.656 390.998 399.207 391.558C402.83 392.914 420.102 392.026 431.511 391.439C437.202 391.146 441.434 390.929 441.785 391.102C444.694 391.787 450.243 391.779 453.709 391.774C453.991 391.773 454.26 391.773 454.512 391.773L472.79 391.764C473.607 391.763 474.446 391.756 475.297 391.749L475.313 391.749C478.501 391.722 481.855 391.694 484.859 392.002C490.076 393.579 493.957 398.563 489.043 403.432C487.388 405.073 483.822 405.439 481.515 405.409C473.944 405.309 466.348 405.248 458.755 405.259L397.025 405.356L183.429 405.367L81.5466 405.299L53.0471 405.324C51.8124 405.333 50.5827 405.35 49.3564 405.366L49.308 405.366L49.2841 405.366C44.949 405.423 40.6566 405.48 36.3368 405.231C31.3417 404.945 28.3678 400.855 29.6025 396.359C30.9828 391.333 38.8325 391.691 45.872 392.012L45.8761 392.012C50.2801 392.214 54.3662 392.4 56.3514 391.245L56.3641 390.767C57.092 390.73 58.7479 391.004 60.3324 391.267C61.4393 391.451 62.5114 391.628 63.2079 391.69C70.5781 392.341 82.0766 392.892 89.0897 390.63C90.5401 392.601 97.2941 392.306 99.269 391.497L99.808 390.857C108.593 392.613 122.691 392.804 131.482 390.613C131.731 391.114 131.87 391.679 132.382 391.74C137.064 392.298 143.383 392.246 148.668 392.202C149.991 392.191 151.249 392.18 152.401 392.18L182.373 392.181L201.33 392.215C202.08 392.22 202.875 392.229 203.699 392.238L203.701 392.238L203.703 392.238C207.507 392.281 211.925 392.331 215.324 391.992C215.465 391.843 215.7 391.618 215.805 391.459C217.542 392.649 234.53 392.353 237.047 391.838C237.812 392.464 254.205 392.295 261.607 392.219L261.619 392.219L261.647 392.219C263.075 392.204 264.164 392.193 264.735 392.192L305.356 392.197C305.973 392.197 306.939 392.205 308.159 392.214C316.356 392.277 336.015 392.428 338.263 391.127C341.916 391.655 344.033 391.851 347.824 391.693C346.674 391.325 345.306 389.111 344.813 388.029C344.74 387.864 344.721 387.567 344.694 387.369C345 387.167 345.074 387.086 345.165 387.052C345.255 387.018 345.362 387.028 345.727 387.012C354.05 386.628 357.053 384.54 362.373 378.581C362.17 377.987 362.19 377.877 362.276 377.402L362.276 377.401C362.288 377.329 362.303 377.25 362.318 377.159C366.497 377.578 367.071 377.445 370.895 375.77C371.052 376.379 371.057 376.818 371.062 377.209C371.066 377.54 371.07 377.837 371.164 378.172C373.826 378.583 375.264 384.519 375.82 386.763C380.912 385.017 385.932 383.208 388.868 378.151L388.351 376.86C392.429 377.678 393.685 377.233 397.154 376.003C397.416 375.911 397.69 375.813 397.979 375.712Z"/><path fill="#201751" d="M397.979 375.712L398.235 377.491C399.614 379.197 403.027 385.261 402.027 387.323C402.563 388.9 401.726 389.504 400.706 390.24C400.204 390.603 399.656 390.998 399.207 391.558C391.755 392.038 384.961 392.047 377.497 391.766C376.542 391.73 375.271 391.758 373.964 391.787C372.126 391.828 370.216 391.87 369.009 391.739C364.074 392.27 353.011 392.087 347.824 391.693C346.674 391.325 345.306 389.111 344.813 388.029C344.74 387.864 344.721 387.567 344.694 387.369C345 387.167 345.074 387.086 345.165 387.052C345.255 387.018 345.362 387.028 345.727 387.012C354.05 386.628 357.053 384.54 362.373 378.581C362.17 377.987 362.19 377.877 362.276 377.402L362.276 377.401C362.288 377.329 362.303 377.25 362.318 377.159C366.497 377.578 367.071 377.445 370.895 375.77C371.052 376.379 371.057 376.818 371.062 377.209C371.066 377.54 371.07 377.837 371.164 378.172C373.826 378.583 375.264 384.519 375.82 386.763C380.912 385.017 385.932 383.208 388.868 378.151L388.351 376.86C392.429 377.678 393.685 377.233 397.154 376.003C397.416 375.911 397.69 375.813 397.979 375.712Z"/><path fill="#FD4A43" d="M370.737 389.843C370.868 389.446 370.815 388.174 370.873 387.599L371.205 387.334C372.259 387.735 375.308 389.002 376.202 389.162C383.546 390.47 395.353 390.731 402.027 387.323C402.563 388.9 401.726 389.504 400.706 390.24C400.204 390.603 399.656 390.998 399.207 391.558C391.755 392.038 384.961 392.047 377.497 391.766C376.542 391.73 375.271 391.758 373.964 391.787C372.126 391.828 370.216 391.87 369.009 391.739C364.074 392.27 353.011 392.087 347.824 391.693C346.674 391.325 345.306 389.111 344.813 388.029C352.327 390.321 355.795 390.298 363.726 390.042C364.21 390.026 364.877 389.981 365.615 389.93L365.641 389.928L365.664 389.926L365.685 389.925C367.493 389.803 369.707 389.654 370.737 389.843Z"/><path fill="#F4C2B5" d="M397.979 375.712L398.235 377.491C395.151 381.909 392.353 382.72 388.868 378.151L388.351 376.86C392.429 377.678 393.685 377.233 397.154 376.003C397.416 375.911 397.69 375.813 397.979 375.712Z"/><path fill="#F4C2B5" d="M370.895 375.77C371.052 376.379 371.057 376.818 371.062 377.209C371.066 377.54 371.07 377.837 371.164 378.172C368.461 382.139 365.515 382.403 362.373 378.581C362.17 377.987 362.19 377.877 362.276 377.402L362.276 377.401C362.288 377.329 362.303 377.25 362.318 377.159C366.497 377.578 367.071 377.445 370.895 375.77Z"/><path fill="#1B587F" d="M80.6009 237.054C90.1501 236.053 93.638 235.775 103.387 237.12C103.231 237.122 103.062 237.121 102.882 237.12L102.874 237.12L102.858 237.12C101.989 237.113 100.906 237.106 100.296 237.421C99.7145 238.784 99.7098 241.528 99.706 243.747C99.7047 244.55 99.7034 245.284 99.675 245.859C99.5743 246.361 99.5959 246.508 99.5364 246.604C99.4832 246.689 99.3653 246.734 99.0379 246.957C98.1981 247.067 97.5924 247.053 96.99 247.039L96.988 247.039L96.987 247.039C96.488 247.028 95.9913 247.017 95.3654 247.076C94.5782 249.829 94.5119 253.603 94.3124 256.495C93.6909 265.504 91.3635 274.117 89.4148 282.891C88.9403 285.028 88.6262 287.069 88.6415 289.273C89.024 295.92 90.0695 303.433 90.8224 310.138C92.1893 322.418 93.6197 334.691 95.1135 346.956C95.8765 353.1 97.7532 365.469 97.789 371.205C98.795 371.548 101.296 372.528 102.13 372.725L101.228 373.742C97.8987 377.286 97.0453 381.225 95.7713 385.83C95.3134 388.949 97.1261 389.719 99.6256 390.779L99.6269 390.78L99.808 390.857L99.269 391.497C97.2941 392.306 90.5401 392.601 89.0897 390.63C82.0766 392.892 70.5781 392.341 63.2079 391.69C62.5114 391.628 61.4393 391.451 60.3324 391.267C58.7479 391.004 57.092 390.73 56.3641 390.767C53.7408 389.707 52.8137 388.508 53.1704 385.69C54.547 380.616 55.2209 377.885 58.2299 373.473L58.6558 372.421C57.7927 372.234 57.5733 372.255 56.9289 371.706C55.8904 369.433 56.771 334.2 57.5917 301.364C58.2222 276.141 58.8173 252.332 58.4801 245.961C57.7438 245.734 56.8272 245.362 56.0879 245.087C55.6816 242.355 55.6928 240.371 56.3309 237.713C60.737 237.033 65.9064 237.093 70.9606 237.152L70.9743 237.152C74.3188 237.192 77.6125 237.231 80.6009 237.054Z"/><path fill="#F4D0AB" d="M73.0031 372.463C74.5661 366.576 76.0547 355.589 77.164 349.19L84.6806 306.121C85.1024 303.633 87.2936 289.48 88.1074 287.936C88.563 288.317 88.4703 288.543 88.6415 289.273C89.024 295.92 90.0695 303.433 90.8224 310.138C92.1893 322.418 93.6197 334.691 95.1135 346.956C95.8765 353.1 97.7532 365.469 97.789 371.205C98.795 371.548 101.296 372.528 102.13 372.725L101.228 373.742C97.8987 377.286 97.0453 381.225 95.7713 385.83C95.3134 388.949 97.1261 389.719 99.6256 390.779L99.6269 390.78L99.808 390.857L99.269 391.497C97.2941 392.306 90.5401 392.601 89.0897 390.63C82.0766 392.892 70.5781 392.341 63.2079 391.69C62.5114 391.628 61.4393 391.451 60.3324 391.267C58.7479 391.004 57.092 390.73 56.3641 390.767C53.7408 389.707 52.8137 388.508 53.1704 385.69C54.547 380.616 55.2209 377.885 58.2299 373.473L58.6558 372.421C59.7632 372.473 60.7013 372.828 61.8179 372.984C64.4739 373.355 67.0587 373.416 69.7364 373.284C70.8179 373.051 71.929 372.742 73.0031 372.463Z"/><path fill="#201751" d="M58.6558 372.421C59.7632 372.473 60.7013 372.828 61.8179 372.984C64.4739 373.355 67.0587 373.416 69.7364 373.284L70.0415 374.383C74.6844 379.828 79.4291 384.679 87.0025 385.262C87.4165 385.294 87.9479 385.293 88.5213 385.292L88.544 385.292C90.0179 385.289 91.7601 385.285 92.4855 385.833C92.2935 388.804 91.5356 389.119 89.0897 390.63C82.0766 392.892 70.5781 392.341 63.2079 391.69C62.5114 391.628 61.4393 391.451 60.3324 391.267C58.7479 391.004 57.092 390.73 56.3641 390.767C53.7408 389.707 52.8137 388.508 53.1704 385.69C54.547 380.616 55.2209 377.885 58.2299 373.473L58.6558 372.421Z"/><path fill="#FD4A43" d="M53.1704 385.69C54.9821 386.67 58.1126 388.267 60.0736 388.603C68.5764 390.059 85.4738 391.46 92.4855 385.833C92.2935 388.804 91.5356 389.119 89.0897 390.63C82.0766 392.892 70.5781 392.341 63.2079 391.69C62.5114 391.628 61.4393 391.451 60.3324 391.267C58.7479 391.004 57.092 390.73 56.3641 390.767C53.7408 389.707 52.8137 388.508 53.1704 385.69Z"/><path fill="#F4C2B5" d="M58.6558 372.421C59.7632 372.473 60.7013 372.828 61.8179 372.984C64.4739 373.355 67.0587 373.416 69.7364 373.284L70.0415 374.383C67.8117 378 65.829 380.081 61.6015 376.728C60.3733 375.753 59.2057 374.72 58.2299 373.473L58.6558 372.421Z"/><path fill="#201751" d="M70.9606 237.152L70.9743 237.152C74.3188 237.192 77.6125 237.231 80.6009 237.054C81.3 237.157 81.96 237.085 82.2455 237.609C83.0477 239.081 82.9347 241.504 82.8359 243.622L82.8358 243.624C82.7987 244.42 82.7637 245.173 82.7799 245.816L67.1334 245.751C66.8194 245.75 66.438 245.747 66.0108 245.743C63.6917 245.723 60.0244 245.692 58.4801 245.961C57.7438 245.734 56.8272 245.362 56.0879 245.087C55.6816 242.355 55.6928 240.371 56.3309 237.713C60.737 237.033 65.9064 237.093 70.9606 237.152Z"/><path fill="#003052" d="M103.387 237.12C104.163 237.112 104.952 237.101 105.751 237.09L105.762 237.09C110.839 237.018 116.293 236.941 121.111 237.754C121.829 240.353 122.619 244.61 119.457 245.874C118.793 251.973 118.873 260.807 118.73 267.167L117.828 301.26L116.673 343.663C116.598 346.111 116.501 348.578 116.404 351.052L116.4 351.13L116.398 351.169C116.139 357.817 115.877 364.521 116.033 371.082L112.326 372.793C109.558 373.733 104.954 373.306 102.13 372.725C101.296 372.528 98.795 371.548 97.789 371.205C97.7532 365.469 95.8765 353.1 95.1135 346.956C93.6197 334.691 92.1893 322.418 90.8224 310.138C90.0695 303.433 89.024 295.92 88.6415 289.273C88.6262 287.069 88.9403 285.028 89.4148 282.891C91.3635 274.117 93.6909 265.504 94.3124 256.495C94.5119 253.603 94.5782 249.829 95.3654 247.076C95.9913 247.017 96.488 247.028 96.987 247.039L96.988 247.039L96.99 247.039C97.5924 247.053 98.1981 247.067 99.0379 246.957C99.3653 246.734 99.4832 246.689 99.5364 246.604C99.5959 246.508 99.5743 246.361 99.675 245.859C99.7034 245.284 99.7047 244.55 99.706 243.747C99.7098 241.528 99.7145 238.784 100.296 237.421C100.906 237.106 101.989 237.113 102.858 237.12L102.874 237.12L102.882 237.12C103.062 237.121 103.231 237.122 103.387 237.12Z"/><path fill="#201751" d="M103.387 237.12C104.163 237.112 104.952 237.101 105.751 237.09L105.762 237.09C110.839 237.018 116.293 236.941 121.111 237.754C121.829 240.353 122.619 244.61 119.457 245.874C117.398 245.046 105.882 245.822 101.238 246.135C100.76 246.168 100.355 246.195 100.041 246.215L99.675 245.859C99.7034 245.284 99.7047 244.55 99.706 243.747C99.7098 241.528 99.7145 238.784 100.296 237.421C100.906 237.106 101.989 237.113 102.858 237.12L102.874 237.12L102.882 237.12C103.062 237.121 103.231 237.122 103.387 237.12Z"/><path fill="#EF9750" d="M352.455 319.386C352.712 325.048 353.155 330.7 353.782 336.332C354.452 341.901 359.588 374.384 362.318 377.159C362.303 377.25 362.288 377.329 362.276 377.401L362.276 377.402C362.19 377.877 362.17 377.987 362.373 378.581C357.053 384.54 354.05 386.628 345.727 387.012C345.362 387.028 345.255 387.018 345.165 387.052C345.074 387.086 345 387.167 344.694 387.369C344.721 387.567 344.74 387.864 344.813 388.029C345.306 389.111 346.674 391.325 347.824 391.693C344.033 391.851 341.916 391.655 338.263 391.127C333.197 389.55 329.23 387.759 325.059 384.338C317.697 378.286 313.062 369.541 312.186 360.052C310.533 342.745 320.62 325.387 338.093 321.129C342.468 320.063 347.919 319.803 352.455 319.386Z"/><path fill="#7AD294" d="M214.169 341.546C212.48 332.268 214.63 316.289 218.676 307.567C219.773 305.2 224.723 299.772 227.421 301.915C230.982 304.742 230.419 310.187 229.917 315.04L229.917 315.043L229.915 315.06L229.914 315.066L229.912 315.086C229.648 317.657 229.401 320.058 229.801 321.813C231.195 327.935 233.774 334.221 235.481 340.42C236.683 339.941 237.47 338.453 238.045 337.247C241.636 329.678 238.244 316.645 247.246 312.593C251.142 310.839 257.365 312.362 258.818 316.61C260.286 320.899 257.535 324.832 254.887 328.616C253.418 330.717 251.98 332.772 251.313 334.817C250.696 336.708 250.62 339.051 250.596 341.017C250.615 341.732 250.636 342.403 250.656 343.034C250.89 350.455 250.955 352.522 244.676 358.448C246.926 359.639 246.873 362.724 245.93 364.77C245.369 365.988 244.049 365.658 242.897 366.051C240.39 366.304 228.236 366.042 225.408 365.942L215.148 365.914C213.756 366.054 211.756 365.956 210.667 366.311C210.522 366.599 210.401 366.799 210.301 367.104C210.245 366.5 210.287 366.519 209.894 366.069C209.422 365.983 208.196 365.783 207.894 365.505C206.699 364.406 206.765 361.972 206.815 360.14L206.815 360.131C206.823 359.843 206.831 359.57 206.833 359.319C206.042 359.308 205.63 359.18 204.922 358.805C197.273 354.703 199.929 343.882 196.461 337.64C195.612 336.112 194.002 334.523 192.298 332.841L192.297 332.84C188.467 329.059 184.167 324.814 187.003 319.768C188.208 317.611 190.257 316.054 192.657 315.47C201.413 313.342 203.961 321.229 206.481 329.029C208.153 334.204 209.812 339.341 213.265 341.487C213.641 341.721 213.649 341.718 213.893 341.633L213.893 341.633L213.895 341.633C213.963 341.609 214.05 341.579 214.169 341.546Z"/><path fill="#62B975" d="M214.169 341.546C212.48 332.268 214.63 316.289 218.676 307.567C219.773 305.2 224.723 299.772 227.421 301.915C230.982 304.742 230.419 310.187 229.917 315.04L229.917 315.043L229.915 315.06L229.914 315.066L229.912 315.086C229.648 317.657 229.401 320.058 229.801 321.813C231.195 327.935 233.774 334.221 235.481 340.42C234.869 341.85 233.264 343.691 232.216 344.914C229.092 348.555 227.128 350.534 225.339 355.035C225.234 354.37 225.13 353.713 225.027 353.064C223.415 342.907 222.094 334.576 222.635 323.736C222.734 321.269 222.96 318.809 223.312 316.366C223.373 315.949 223.465 315.4 223.567 314.786C223.884 312.888 224.303 310.373 224.25 309.227L223.912 309.051C222.446 310.394 221.554 320.569 221.434 323.184C221.028 332.063 221.761 340.719 222.836 349.512C221.012 348.076 214.907 343.479 214.169 341.546Z"/><path fill="#AC4846" d="M229.806 358.516L229.813 358.516L229.895 358.517L229.978 358.518L230.062 358.519C234.938 358.551 239.817 358.584 244.676 358.448C246.926 359.639 246.873 362.724 245.93 364.77C245.369 365.988 244.049 365.658 242.897 366.051C240.39 366.304 228.236 366.042 225.408 365.942L215.148 365.914C213.756 366.054 211.756 365.956 210.667 366.311C210.522 366.599 210.401 366.799 210.301 367.104C210.245 366.5 210.287 366.519 209.894 366.069C209.422 365.983 208.196 365.783 207.894 365.505C206.699 364.406 206.765 361.972 206.815 360.14L206.815 360.131C206.823 359.843 206.831 359.57 206.833 359.319C208.997 358.233 212.731 358.457 215.126 358.601L215.156 358.603L216.518 358.546C220.927 358.452 225.356 358.484 229.791 358.516L229.798 358.516L229.806 358.516Z"/><path fill="#AE5856" d="M215.148 365.914C214.687 365.875 213.823 365.844 213.428 365.704C215.09 364.798 238.871 364.95 241.843 365.38L242.217 365.652C241.723 365.973 234.824 365.949 229.942 365.931L229.808 365.931L229.737 365.931C227.706 365.924 226.053 365.918 225.408 365.942L215.148 365.914Z"/><path fill="#62B975" d="M195.459 323.455C202.829 328.953 203.964 341.498 208.414 348.818C210.116 351.615 215.866 355.716 216.518 358.546L215.156 358.603C213.315 354.293 208.515 351.611 206.221 347.446C203.849 343.139 202.872 338.183 201.024 333.663C199.581 330.133 197.213 326.847 195.459 323.455Z"/><path fill="#62B975" d="M249.184 321.111L249.434 321.52C248.845 324.157 246.79 327.701 245.975 331.298C244.862 336.205 244.673 342.597 242.692 346.914C240.879 350.862 237.674 354.44 235.663 358.628L235.285 358.085C235.163 357.202 237.698 353.452 239.546 350.72C240.298 349.608 240.936 348.665 241.234 348.152C244.065 343.282 243.815 337.743 245.071 332.254C246.179 327.409 246.81 325.378 249.184 321.111Z"/><path fill="#983634" d="M215.148 365.914L225.408 365.942C228.236 366.042 240.39 366.304 242.897 366.051C242.272 370.758 238.822 388.168 237.047 391.838C234.53 392.353 217.542 392.649 215.805 391.459C213.849 386.445 211.537 373.111 210.301 367.104C210.401 366.799 210.522 366.599 210.667 366.311C211.756 365.956 213.756 366.054 215.148 365.914Z"/><path fill="#201751" d="M102.13 372.725C104.954 373.306 109.558 373.733 112.326 372.793C112.43 373.305 112.612 374.357 112.787 374.789C118.157 380.661 122.019 384.873 130.643 385.27C131.932 385.329 133.941 385.308 135.15 385.595C135.562 388.322 133.675 389.568 131.482 390.613C122.691 392.804 108.593 392.613 99.808 390.857L99.6269 390.78L99.6256 390.779C97.1261 389.719 95.3134 388.949 95.7713 385.83C97.0453 381.225 97.8987 377.286 101.228 373.742L102.13 372.725Z"/><path fill="#FD4A43" d="M99.808 390.857L99.6269 390.78L99.6256 390.779C97.1261 389.719 95.3134 388.949 95.7713 385.83C98.1072 386.769 100.514 388.105 103.015 388.571C112.092 390.26 127.648 391.408 135.15 385.595C135.562 388.322 133.675 389.568 131.482 390.613C122.691 392.804 108.593 392.613 99.808 390.857Z"/><path fill="#F4C2B5" d="M102.13 372.725C104.954 373.306 109.558 373.733 112.326 372.793C112.43 373.305 112.612 374.357 112.787 374.789C111.593 375.688 109.66 378.397 107.325 378.564C105.922 378.663 103.339 375.95 101.887 374.425C101.626 374.151 101.402 373.916 101.228 373.742L102.13 372.725Z"/><path fill="#7AD294" d="M45.1245 145.94C42.5513 140.761 40.6314 128.256 40.7382 122.401C41.1784 98.2708 53.4128 75.5729 74.1951 63.0555C86.7818 55.4744 99.4635 52.5708 113.874 51.6592C115.604 51.5497 117.091 51.3862 118.467 51.2348L118.467 51.2348C122.303 50.8129 125.284 50.485 130.311 51.6833C130.715 52.2683 130.631 54.0839 130.569 55.4129C130.551 55.8219 130.534 56.1849 130.534 56.4517C130.535 58.3143 130.531 60.178 130.527 62.0416C130.524 63.6374 130.521 65.2332 130.521 66.8283L130.526 121.24L130.564 137.178C130.564 137.39 130.565 137.692 130.567 138.055L130.567 138.129L130.567 138.138C130.574 140.083 130.587 143.617 130.44 144.501C134.907 150.526 138.662 155.987 140.814 163.277C140.366 164.214 139.918 165.181 139.446 166.103C136.426 170.112 132.74 174.48 127.828 176.31C126.435 177.758 125.946 186.642 125.7 189.148L124.048 205.098C123.045 214.274 121.925 223.445 121.205 232.651C121.105 233.931 121.034 235.213 121.053 236.498C121.055 236.917 121.075 237.337 121.111 237.754C116.293 236.941 110.839 237.018 105.762 237.09L105.751 237.09C104.952 237.101 104.163 237.112 103.387 237.12C93.638 235.775 90.1501 236.053 80.6009 237.054C77.6125 237.231 74.3188 237.192 70.9743 237.152L70.9606 237.152C65.9064 237.093 60.737 237.033 56.3309 237.713C56.4916 236.142 56.4326 234.573 56.3032 233.002C55.4494 222.635 54.1315 212.314 53.2545 201.949C48.5618 200.773 44.3837 200.956 39.5367 199.059C24.0255 192.987 29.6912 179.466 34.6006 167.75L34.6007 167.75L34.601 167.749L34.6013 167.748C35.1907 166.342 35.7692 164.961 36.2988 163.623C37.395 159.574 39.0153 156.552 41.0182 152.985C41.8519 151.499 45.023 147.211 45.1245 145.94ZM103.889 105.348C103.923 105.234 103.957 105.124 103.989 105.017C104.532 103.236 104.781 102.418 102.733 101.379C102.688 101.552 102.645 101.712 102.603 101.863L102.602 101.866L102.601 101.871C102.374 102.704 102.223 103.261 102.372 104.244C102.916 105.063 102.818 105.03 103.889 105.348ZM51.6603 188.597C50.9499 185.944 51.2673 179.765 50.3727 177.984C48.7126 180.963 47.2478 184.299 45.8359 187.42C47.894 187.746 49.8149 188.299 51.6603 188.597Z"/><path fill="#F4D0AB" d="M45.1245 145.94C42.5513 140.761 40.6314 128.256 40.7382 122.401C41.1784 98.2708 53.4128 75.5729 74.1951 63.0555C86.7818 55.4744 99.4635 52.5708 113.874 51.6592C115.604 51.5497 117.091 51.3862 118.467 51.2348L118.467 51.2348C122.303 50.8129 125.284 50.485 130.311 51.6833C130.715 52.2683 130.631 54.0839 130.569 55.4129C130.551 55.8219 130.534 56.1849 130.534 56.4517C130.535 58.3143 130.531 60.178 130.527 62.0416C130.524 63.6374 130.521 65.2332 130.521 66.8283L130.526 121.24L130.564 137.178C130.564 137.39 130.565 137.692 130.567 138.055L130.567 138.129L130.567 138.138C130.574 140.083 130.587 143.617 130.44 144.501C121.276 135.458 117.724 136.561 107.121 132.553C104.785 130.871 101.97 128.45 99.858 126.498C98.7607 125.151 98.1508 123.776 97.381 122.23L96.7129 121.787C95.4965 122.175 92.7564 122.248 91.3846 122.33C85.989 122.649 82.4451 120.153 78.5975 116.544C79.1149 118.642 78.5136 124.583 77.6776 126.442C75.5069 128.582 73.4371 130.308 71.0503 132.205C65.0738 135.392 60.2493 135.372 54.1664 138.537C51.0747 140.146 46.3717 145.971 45.422 146.275L45.1245 145.94ZM103.889 105.348C103.923 105.234 103.957 105.124 103.989 105.017C104.532 103.236 104.781 102.418 102.733 101.379C102.688 101.552 102.645 101.712 102.603 101.863L102.602 101.866L102.601 101.871C102.374 102.704 102.223 103.261 102.372 104.244C102.916 105.063 102.818 105.03 103.889 105.348Z"/><path fill="#201751" d="M81.6956 72.4996C84.9294 67.9032 87.6882 68.8345 92.0599 70.3103C92.3376 70.404 92.6218 70.4999 92.913 70.5968C95.766 68.9643 99.4578 68.2932 102.256 70.4796C105.168 72.7549 105.332 76.1406 105.745 79.4908C110.286 83.3358 110.998 84.5747 107.177 89.381C107.604 90.4406 107.56 97.308 107.428 98.7382C110.047 102.709 110.279 105.105 106.469 108.378C106.378 109.08 106.401 109.609 105.958 110.136C104.192 115.73 102.013 118.589 97.381 122.23L96.7129 121.787C95.4965 122.175 92.7564 122.248 91.3846 122.33C85.989 122.649 82.4451 120.153 78.5975 116.544L78.1571 116.059C73.4175 112.823 70.7821 107.545 68.297 102.583C67.7136 102.332 67.142 102.055 66.5839 101.752C64.3751 100.547 63.8353 99.614 63.1634 97.3423C63.8392 94.5198 64.5055 93.4412 66.2724 91.1542C65.3221 89.3361 64.8057 88.1104 64.0444 86.2028C64.665 84.0637 65.0895 83.2288 66.3532 81.4432C67.8432 80.7327 69.4584 80.459 71.0731 80.1103C71.9646 73.4422 74.404 69.3334 81.6956 72.4996ZM103.889 105.348C103.923 105.234 103.957 105.124 103.989 105.017C104.532 103.236 104.781 102.418 102.733 101.379C102.688 101.552 102.645 101.712 102.603 101.863L102.602 101.866L102.601 101.871C102.374 102.704 102.223 103.261 102.372 104.244C102.916 105.063 102.818 105.03 103.889 105.348Z"/><path fill="#F4C2B5" d="M107.177 89.381C107.604 90.4406 107.56 97.308 107.428 98.7382C110.047 102.709 110.279 105.105 106.469 108.378C106.378 109.08 106.401 109.609 105.958 110.136C104.192 115.73 102.013 118.589 97.381 122.23L96.7129 121.787C95.4965 122.175 92.7564 122.248 91.3846 122.33C85.989 122.649 82.4451 120.153 78.5975 116.544L78.1571 116.059C78.1416 114.165 75.952 108.217 75.7024 103.848C75.6671 103.813 75.6317 103.778 75.5963 103.743L75.5957 103.742C73.8979 102.071 72.0994 100.3 73.2341 97.7115C75.0356 96.1225 76.651 97.7976 77.9432 99.1376L77.9434 99.1378C78.0007 99.1974 78.0575 99.2562 78.1136 99.3141L80.6672 91.8085C90.5126 94.4476 98.052 93.7807 107.177 89.381ZM103.889 105.348C103.923 105.234 103.957 105.124 103.989 105.017C104.532 103.236 104.781 102.418 102.733 101.379C102.688 101.552 102.645 101.712 102.603 101.863L102.602 101.866L102.601 101.871C102.374 102.704 102.223 103.261 102.372 104.244C102.916 105.063 102.818 105.03 103.889 105.348Z"/><path fill="#0B0909" d="M97.8257 102.066L98.1094 101.919C99.3498 101.265 100.217 100.453 100.99 99.7294C102.651 98.1744 103.876 97.0283 107.428 98.7382C110.047 102.709 110.279 105.105 106.469 108.378C101.839 109.201 101.151 107.378 100.464 105.558L100.464 105.558C100.107 104.611 99.7495 103.664 98.8367 103.092C97.9098 103.196 97.2388 104.415 96.5079 105.744C95.4884 107.597 94.3523 109.662 92.2425 109.206C86.0312 107.865 86.2534 101.391 91.0614 98.3572C91.2073 98.3482 91.3496 98.3387 91.4894 98.3293C92.2328 98.2792 92.9063 98.2339 93.6831 98.3106C95.4165 99.6136 96.3154 100.887 97.8257 102.066ZM103.889 105.348C103.923 105.234 103.957 105.124 103.989 105.017C104.532 103.236 104.781 102.418 102.733 101.379C102.688 101.552 102.645 101.712 102.603 101.863L102.602 101.866L102.601 101.871C102.374 102.704 102.223 103.261 102.372 104.244C102.916 105.063 102.818 105.03 103.889 105.348Z"/><path fill="#F4C2B5" d="M91.6898 98.9904C94.7561 99.0804 95.6206 101.116 96.6695 103.571C95.7304 106.043 95.5941 106.624 93.4638 108.045C87.3963 107.99 86.829 102.224 91.6898 98.9904Z"/><path fill="#F4C2B5" d="M103.303 98.7767C105.32 98.8742 106.88 99.2529 107.964 101.179C108.531 102.177 108.662 103.363 108.327 104.46C107.837 106.037 106.803 106.786 105.398 107.464C100.27 108.287 98.7975 102.08 103.303 98.7767ZM103.889 105.348C103.923 105.234 103.957 105.124 103.989 105.017C104.532 103.236 104.781 102.418 102.733 101.379C102.688 101.552 102.645 101.712 102.603 101.863L102.602 101.866L102.601 101.871C102.374 102.704 102.223 103.261 102.372 104.244C102.916 105.063 102.818 105.03 103.889 105.348Z"/><path fill="#0B0909" fill-opacity="0.98823529" d="M102.733 101.379C104.781 102.418 104.532 103.236 103.989 105.017C103.957 105.124 103.923 105.234 103.889 105.348C102.818 105.03 102.916 105.063 102.372 104.244C102.223 103.261 102.374 102.704 102.601 101.871L102.602 101.866L102.603 101.863C102.645 101.712 102.688 101.552 102.733 101.379Z"/><path fill="#D1AFB2" d="M96.7129 121.787C99.651 120.495 102.611 116.593 103.904 113.753C104.44 112.575 105.044 110.94 105.958 110.136C104.192 115.73 102.013 118.589 97.381 122.23L96.7129 121.787Z"/><path fill="#D1AFB2" d="M90.585 96.8333C92.0314 96.7644 92.5202 96.8064 93.9546 96.9846C93.8953 97.4814 93.8859 97.8501 93.6831 98.3106C92.9063 98.2339 92.2328 98.2792 91.4894 98.3293C91.3496 98.3387 91.2073 98.3482 91.0614 98.3572C90.4556 98.05 90.3377 97.8432 90.1966 97.2489L90.585 96.8333Z"/><path fill="#34232B" d="M90.585 96.8333L89.8962 96.6185L89.8511 96.1975C90.9239 95.0803 92.5177 95.5608 93.6392 96.309C93.7149 96.4623 93.9164 96.8388 93.9546 96.9846C92.5202 96.8064 92.0314 96.7644 90.585 96.8333Z"/><path fill="#201751" d="M91.5097 114.443C92.9363 114.891 94.9122 116.751 96.6783 116.846C97.5003 116.891 98.4575 116.847 99.0071 117.303L98.9117 117.908C95.3794 119.277 92.2667 118.635 91.5097 114.443Z"/><path fill="#0B0909" d="M97.7163 104.985C98.6409 105.599 103.026 114.244 96.5289 113.236C96.002 112.991 96.0009 113.036 95.7164 112.54C96.2369 112.293 96.714 112.357 97.1736 112.419L97.1779 112.419L97.18 112.419C97.6535 112.483 98.1082 112.545 98.5728 112.256C98.9887 111.197 98.5859 109.412 98.2022 107.712L98.2018 107.71L98.2015 107.709C97.9776 106.718 97.7604 105.756 97.7163 104.985Z"/><path fill="#0B0909" d="M101.827 94.9927C101.869 94.9919 101.911 94.9911 101.953 94.9902C102.836 94.9724 103.714 94.9548 104.493 95.3807C104.044 95.8842 104.063 95.735 103.234 95.9082C103.086 95.9289 102.954 95.949 102.833 95.9674L102.833 95.9674C102.119 96.0761 101.798 96.125 100.984 95.8828L101.014 95.4997L101.827 94.9927Z"/><path fill="#201751" d="M84.1735 162.196C89.9618 162.21 95.666 162.14 101.364 162.069L101.394 162.069L101.408 162.069C109.537 161.968 117.653 161.867 125.984 162.015C125.088 167.042 123.99 171.991 122.889 176.976C120.108 189.576 117.696 202.216 114.573 214.739C106.578 214.727 98.5834 214.773 90.5892 214.88C89.5007 214.894 88.4305 214.913 87.372 214.931L87.3586 214.931L87.3522 214.931C82.561 215.015 78.009 215.095 73.0821 214.722C73.1314 212.38 74.1809 204.701 75.2138 202.71L75.8755 202.514C79.145 202.946 84.3 202.516 85.7308 199.502C89.6473 191.251 81.1532 192.691 77.2488 193.706C77.5541 192.433 77.8447 191.157 78.1204 189.877C78.25 188.846 78.4371 187.881 78.6669 186.866C80.5263 178.658 82.2255 170.382 84.1735 162.196Z"/><path fill="#372B7C" d="M100.096 183.818C106.796 184.322 104.292 190.601 99.4013 192.858C92.6817 192.523 95.0044 186.154 100.096 183.818Z"/><path fill="#F4C2B5" d="M36.2988 163.623C37.8021 165.098 39.4606 168.712 42.0263 171.281C44.0942 173.352 49.8484 176.365 50.4352 177.712L50.3727 177.984C48.7126 180.963 47.2478 184.299 45.8359 187.42C47.894 187.746 49.8149 188.299 51.6603 188.597C56.0234 189.966 60.4072 191.269 64.81 192.504C66.8997 193.098 70.2049 193.929 72.1532 194.686C73.5766 193.111 75.609 190.538 77.5173 189.796L78.1204 189.877C77.8447 191.157 77.5541 192.433 77.2488 193.706C81.1532 192.691 89.6473 191.251 85.7308 199.502C84.3 202.516 79.145 202.946 75.8755 202.514C74.9294 202.255 69.9427 202.238 67.4375 202.23C66.9444 202.228 66.5475 202.227 66.2964 202.224L53.2545 201.949C48.5618 200.773 44.3837 200.956 39.5367 199.059C24.0255 192.987 29.6912 179.466 34.6006 167.75L34.6007 167.75L34.601 167.749L34.6013 167.748C35.1907 166.342 35.7692 164.961 36.2988 163.623Z"/><path fill="#F5A89C" d="M78.5975 116.544C82.4451 120.153 85.989 122.649 91.3846 122.33C92.7564 122.248 95.4965 122.175 96.7129 121.787L97.381 122.23C98.1508 123.776 98.7607 125.151 99.858 126.498C96.5492 133.603 97.6498 134.988 91.2403 141.497L90.9729 141.504C87.6131 138.872 84.8142 136.741 82.1393 133.295C80.9659 131.783 78.866 127.433 77.6776 126.442C78.5136 124.583 79.1149 118.642 78.5975 116.544Z"/><path fill="#62B975" d="M77.6776 126.442C78.866 127.433 80.9659 131.783 82.1393 133.295C84.8142 136.741 87.6131 138.872 90.9729 141.504C88.5582 143.286 84.4491 145.397 81.7537 146.682C76.0934 143.442 72.0457 138.768 71.0503 132.205C73.4371 130.308 75.5069 128.582 77.6776 126.442Z"/><path fill="#62B975" d="M99.858 126.498C101.97 128.45 104.785 130.871 107.121 132.553C106.798 138.9 106.089 141.472 102.388 146.914C100.449 145.916 92.0528 142.357 91.2403 141.497C97.6498 134.988 96.5492 133.603 99.858 126.498Z"/><path fill="#372B7C" d="M130.66 46.7227C130.742 25.4605 132.049 25.4757 148.849 25.6705L148.854 25.6706L148.878 25.6709L148.887 25.671C150.686 25.6918 152.662 25.7146 154.831 25.7134L177.023 25.7098L245.293 25.7088L344.399 25.7031C347.512 25.7033 350.626 25.7028 353.739 25.7023C367.736 25.6999 381.731 25.6975 395.728 25.7649C406.134 25.815 405.84 34.4054 405.572 42.2493L405.572 42.2504L405.572 42.2599L405.572 42.2639C405.517 43.8686 405.463 45.4417 405.503 46.904C400.024 46.6605 393.795 46.7193 387.836 46.7756L387.827 46.7757C385.359 46.7991 382.937 46.822 380.634 46.8228L334.363 46.8239L192.679 46.8184L146.87 46.8135C146.45 46.8136 145.61 46.8199 144.523 46.828L144.51 46.8281L144.507 46.8281C140.076 46.8612 131.575 46.9247 130.66 46.7227Z"/><path fill="#F4F7FD" d="M148.589 33.5594C161.947 33.3881 175.338 33.4554 188.729 33.5228L188.749 33.5229C200.711 33.583 212.675 33.643 224.614 33.5329C237.352 33.4154 250.337 33.371 263.066 33.7049C263.063 35.997 263.036 37.833 262.867 40.1339L148.624 40.1359L148.589 33.5594Z"/><path fill="#F4F7FD" d="M371.434 33.6184C372.586 33.1514 373.901 33.3533 374.86 34.1442C375.818 34.9352 376.266 36.1879 376.027 37.4074C375.787 38.6269 374.898 39.6168 373.711 39.986C371.979 40.525 370.13 39.6023 369.519 37.8941C368.908 36.186 369.753 34.3001 371.434 33.6184Z"/><path fill="#F4F7FD" d="M359.613 33.6528C361.332 32.917 363.321 33.7248 364.041 35.4507C364.76 37.1766 363.933 39.1579 362.201 39.8608C360.491 40.5543 358.542 39.7411 357.832 38.0382C357.122 36.3354 357.917 34.3787 359.613 33.6528Z"/><path fill="#F4F7FD" d="M383.206 33.6381C384.908 32.9497 386.848 33.7554 387.561 35.4472C388.275 37.139 387.498 39.0902 385.817 39.8285C384.707 40.3159 383.421 40.1678 382.451 39.4408C381.481 38.7138 380.978 37.5208 381.134 36.3189C381.291 35.117 382.082 34.0925 383.206 33.6381Z"/><path fill="#F4D0AB" d="M406.013 65.3539C411.577 70.4507 413.588 73.8866 417.638 80.1476C427.483 95.3666 433.478 113.373 436.251 131.221C436.653 134.227 437.392 137.277 437.543 140.304C437.956 148.515 438.168 156.424 437.74 164.652C437.655 166.281 437.117 167.605 436.623 168.821C435.996 170.364 435.44 171.734 435.971 173.332C433.092 170.958 432.419 170.976 428.875 171.691C428.753 171.381 428.623 171.074 428.486 170.77C423.805 160.33 414.016 164.699 406.336 168.291C406.168 168.195 405.93 167.958 405.773 167.818C405.397 166.331 405.447 161.278 405.474 158.526L405.474 158.519L405.474 158.51C405.479 158.037 405.483 157.632 405.484 157.326L405.51 140.502C405.511 139.366 405.5 137.098 405.484 134.035L405.483 133.824L405.477 132.735L405.472 131.837L405.471 131.676L405.47 131.575L405.47 131.52C405.365 111.468 405.134 67.4608 406.013 65.3539Z"/><path fill="#F4F7FD" d="M192.399 141.896L192.589 141.896C202.29 141.872 215.209 141.84 217.546 143.12C218.396 144.272 218.922 146.583 218.979 148.015C219.165 152.722 219.13 157.413 219.094 162.119C219.081 163.825 219.068 165.533 219.066 167.244C219.063 168.839 219.072 170.446 219.081 172.059L219.081 172.076L219.081 172.113C219.107 176.946 219.133 181.828 218.868 186.606C218.808 187.69 218.09 189.254 217.16 189.877C215.357 190.351 211.935 190.501 210.044 190.526C204.276 190.605 198.507 190.573 192.737 190.54L192.721 190.54L192.712 190.54C188.74 190.518 184.77 190.496 180.798 190.51C171.917 190.542 163.025 190.538 154.145 190.437C150.765 190.399 149.407 188.995 148.168 185.881C151.411 184.338 153.988 182.202 156.958 180.226C158.231 178.611 160.375 176.143 161.862 174.798C161.836 173.895 166.616 168.023 167.489 166.968L168.513 165.173C170.259 161.992 172.039 158.831 173.855 155.69C177.44 154.638 186.849 153.849 187.117 148.295C187.232 145.914 184.855 143.694 183.117 142.071L183.116 142.07L183.113 142.067C183.02 141.98 182.929 141.895 182.84 141.812C184.645 141.915 188.16 141.906 192.291 141.896L192.345 141.896L192.399 141.896Z"/><path fill="#59B8FB" d="M168.513 165.173L172.9 165.225L172.875 183.993C171.106 184.052 169.308 184.129 167.543 184.165C167.573 178.432 167.555 172.7 167.489 166.968L168.513 165.173Z"/><path fill="#59B8FB" d="M156.958 180.226C158.231 178.611 160.375 176.143 161.862 174.798C162.597 176.496 162.51 180.277 162.45 182.844C162.44 183.309 162.43 183.734 162.426 184.1C161.978 184.1 161.527 184.102 161.075 184.103C159.692 184.108 158.296 184.113 156.928 184.08L156.958 180.226Z"/><path fill="#59B8FB" d="M198.954 151.844C200.628 151.74 202.687 151.762 204.392 151.733C204.394 154.443 204.413 157.241 204.432 160.08C204.486 168.093 204.542 176.427 204.236 184.004C202.906 184.112 201.446 184.114 200.053 184.117C199.705 184.117 199.362 184.118 199.025 184.12C199.081 177.528 199.042 170.748 199.003 164.001C198.98 159.92 198.956 155.851 198.954 151.844Z"/><path fill="#59B8FB" d="M178.002 155.008L183.532 155.229C183.417 164.829 183.359 174.429 183.357 184.029C182.02 184.171 180.398 184.13 178.934 184.092C178.606 184.084 178.286 184.076 177.979 184.07C177.926 174.383 177.934 164.695 178.002 155.008Z"/><path fill="#59B8FB" d="M188.459 164.508L193.956 164.491L193.935 183.998C192.145 184.124 190.29 184.12 188.491 184.144C188.535 179.637 188.511 175.069 188.486 170.521C188.475 168.51 188.464 166.504 188.459 164.508Z"/><path fill="#F4F7FD" d="M364.392 236.943C359.689 236.84 354.957 236.886 350.226 236.932C345.659 236.977 341.092 237.022 336.551 236.932C335.776 236.916 334.808 236.927 333.724 236.939L333.685 236.939L333.515 236.941L333.449 236.942L333.441 236.942L333.437 236.942C328.575 237 321.58 237.083 318.957 235.331C318.365 234.534 317.793 232.867 317.856 231.947C317.95 230.575 317.879 228.32 317.797 225.709L317.797 225.699L317.795 225.63L317.794 225.61L317.794 225.605L317.794 225.601C317.584 218.967 317.303 210.104 319.4 207.587C322.19 206.059 335.879 206.162 344.613 206.228L344.622 206.228C347.249 206.248 349.427 206.264 350.724 206.232C354.323 206.142 371.567 206.027 374.524 206.815C367.694 218.684 366.425 223.407 364.392 236.943Z"/><path fill="#FD4A43" d="M351.726 216.708C354.42 216.091 357.109 217.758 357.755 220.445C358.401 223.133 356.762 225.84 354.082 226.514C352.322 226.956 350.46 226.419 349.207 225.108C347.953 223.796 347.501 221.913 348.022 220.175C348.543 218.437 349.957 217.113 351.726 216.708Z"/><path fill="#EF9750" d="M331.991 216.717C333.754 216.283 335.615 216.831 336.862 218.152C338.108 219.473 338.547 221.363 338.011 223.098C337.475 224.834 336.047 226.146 334.272 226.534C331.578 227.123 328.911 225.437 328.287 222.752C327.663 220.066 329.313 217.377 331.991 216.717Z"/><path fill="#F4C2B5" d="M174.177 142.324C174.509 142.077 174.994 141.697 175.588 141.23L175.589 141.229L175.598 141.222C179.071 138.494 186.25 132.857 188.511 133.978L188.673 134.469C187.832 137.946 183.377 140.154 182.84 141.812C182.929 141.895 183.02 141.98 183.113 142.067L183.116 142.07L183.117 142.071C184.855 143.694 187.232 145.914 187.117 148.295C186.849 153.849 177.44 154.638 173.855 155.69C172.039 158.831 170.259 161.992 168.513 165.173L167.489 166.968C166.616 168.023 161.836 173.895 161.862 174.798C160.375 176.143 158.231 178.611 156.958 180.226C153.988 182.202 151.411 184.338 148.168 185.881C147.25 186.09 146.325 186.273 145.396 186.428C139.69 187.373 136.879 185.212 133.145 182.341L133.144 182.341C132.428 181.791 131.678 181.214 130.868 180.629C130.514 179.605 128.547 177.185 127.828 176.31C132.74 174.48 136.426 170.112 139.446 166.103C140.598 166.969 142.87 169.744 143.914 170.948C145.481 169.552 147.214 168.082 148.629 166.551C149.579 165.791 150.567 164.878 151.44 164.004C157.023 158.41 163.367 153.315 168.454 147.28C169.699 145.803 170.266 143.923 170.801 142.113C171.18 141.116 171.573 140.124 171.981 139.138C172.491 137.925 173.397 136.396 174.66 135.881L175.25 136.232C175.771 138.217 174.889 140.49 174.191 142.287L174.177 142.324Z"/><path fill="#F4F7FD" d="M148.629 166.551C148.793 163.059 148.764 159.527 148.735 155.999C148.714 153.514 148.694 151.031 148.741 148.566C148.634 144.635 150.008 142.63 154.134 142.254C159.625 141.753 165.269 141.862 170.801 142.113C170.266 143.923 169.699 145.803 168.454 147.28C163.367 153.315 157.023 158.41 151.44 164.004C150.567 164.878 149.579 165.791 148.629 166.551Z"/><path fill="#F4F7FD" d="M323.326 62.5488C325.234 62.3767 328.636 62.3889 331.195 62.3981C331.822 62.4004 332.398 62.4025 332.89 62.4016L350.225 62.4416C351.482 62.4463 353.501 62.4231 355.959 62.3948L355.986 62.3945C365.89 62.2804 382.887 62.0846 385.999 63.2868C387.245 64.5322 387.572 65.3248 387.695 67.1026C388.079 72.6432 388.04 78.393 388.001 84.0308C387.991 85.4632 387.981 86.8884 387.978 88.3011L387.959 123.856L387.968 166.227C387.969 168.309 387.98 170.394 387.991 172.479L387.992 172.593L387.993 172.708L387.994 172.829C388.016 177.619 388.039 182.413 387.942 187.192C387.861 191.155 386.014 192.551 382.388 192.883C380.336 193.063 377.359 193.04 374.843 193.021L374.824 193.021L374.79 193.021C374.068 193.016 373.385 193.011 372.774 193.011L356.146 193.001L336.064 192.999C335.245 192.998 334.345 193.014 333.392 193.031L333.222 193.034C328.652 193.118 322.943 193.222 319.437 191.799C317.361 190.957 317.594 182.589 317.709 178.487C317.728 177.788 317.744 177.213 317.745 176.82L317.75 152.443L317.743 101.55C317.741 99.3542 317.733 97.1534 317.726 94.9496C317.693 85.6277 317.66 76.2518 318.066 66.9708C318.219 63.4558 320.32 62.9565 323.326 62.5488Z"/><path fill="#CFDBF6" d="M350.518 76.0516C359.224 74.7716 367.317 80.7993 368.583 89.5074C369.85 98.2156 363.81 106.299 355.1 107.552C346.408 108.803 338.346 102.779 337.082 94.0894C335.818 85.4002 341.83 77.3288 350.518 76.0516Z"/><path fill="#7AD294" d="M358.954 154.546C360.26 155.643 365.453 162.917 366.699 164.612C370.906 170.235 375.08 175.884 379.22 181.558L338.22 181.576C334.347 181.545 330.473 181.533 326.599 181.541C327.688 179.716 329.749 176.944 331.004 175.128C333.833 171.099 336.553 166.994 339.163 162.82C341.679 165.598 345.234 168.689 347.434 171.575C351.378 165.846 355.342 160.509 358.954 154.546Z"/><path fill="#CFDBF6" d="M361.892 118.04L361.905 118.04C364.291 118.058 366.651 118.076 368.954 118.082L368.699 122.452L365.565 122.431C355.95 122.513 346.335 122.507 336.721 122.412C336.697 121.533 336.708 120.596 336.718 119.675L336.719 119.615L336.721 119.491L336.722 119.441C336.727 119.06 336.732 118.683 336.735 118.315L340.662 118.182C347.436 117.93 354.769 117.986 361.865 118.04L361.879 118.04L361.892 118.04Z"/><path fill="#CFDBF6" d="M360.112 127.618L360.136 127.618C363.18 127.65 366.133 127.681 368.851 127.677C368.855 128.061 368.89 128.456 368.925 128.848C369.028 130.011 369.129 131.158 368.428 131.971L367.474 132.024L336.749 132C336.744 131.578 336.712 131.201 336.681 130.84L336.681 130.835C336.616 130.06 336.558 129.364 336.784 128.479C337.241 127.949 337.251 127.948 337.753 127.912C337.915 127.9 338.129 127.885 338.425 127.847C344.796 127.46 352.691 127.542 360.06 127.618L360.087 127.618L360.112 127.618Z"/><path fill="#EF9750" d="M345.194 148.703C347.017 148.533 348.789 149.361 349.829 150.866C350.87 152.372 351.017 154.322 350.213 155.967C349.41 157.612 347.782 158.695 345.954 158.8C343.197 158.959 340.821 156.879 340.614 154.125C340.406 151.371 342.444 148.959 345.194 148.703Z"/><path fill="#F4F7FD" d="M175.925 206.254L176.014 206.255C178.977 206.273 181.929 206.29 184.841 206.291L238.363 206.293L267.163 206.283C267.885 206.281 268.914 206.272 270.169 206.261C278.797 206.185 298.104 206.015 301.704 207.304C302.712 208.424 303.009 209.978 303.175 211.442C303.698 216.034 303.599 220.663 303.5 225.281L303.497 225.408L303.497 225.414L303.497 225.42C303.458 227.276 303.419 229.13 303.422 230.979C303.43 236.605 300.009 236.704 295.843 236.824C295.475 236.834 295.1 236.845 294.722 236.86C288.683 237.032 282.45 236.987 276.278 236.942C273.605 236.923 270.943 236.904 268.314 236.902L220.227 236.892L183.853 236.91C182.838 236.915 181.414 236.937 179.72 236.964L179.7 236.964L179.694 236.964C170.653 237.107 153.934 237.372 150.182 235.684C149.191 234.337 149.017 232.565 148.895 230.938C148.606 227.106 147.814 210.415 150.303 207.76C151.685 206.286 154.592 206.292 156.84 206.297L156.85 206.297L156.855 206.297C157.325 206.298 157.764 206.299 158.157 206.286C163.916 206.185 169.849 206.219 175.74 206.252L175.833 206.253L175.925 206.254Z"/><path fill="#CFDBF6" d="M187.124 219.114C193.206 219.028 199.289 218.999 205.371 219.028C205.366 219.263 205.364 219.538 205.361 219.838C205.347 221.218 205.328 223.123 205.094 224.09C199.119 224.048 193.143 224.078 187.169 224.181L187.124 219.114Z"/><path fill="#CFDBF6" d="M276.691 219.095L295.019 219.037L295.002 223.981C288.925 223.98 282.848 224.044 276.772 224.174L276.691 219.095Z"/><path fill="#CFDBF6" d="M157.254 219.173C162.686 218.907 169.95 218.989 175.444 219.082C175.449 219.317 175.455 219.553 175.46 219.789C175.494 221.181 175.528 222.604 175.384 223.969C173.591 223.956 171.565 223.999 169.469 224.042L169.293 224.046L169.12 224.05L168.95 224.054L168.914 224.054L168.894 224.054C164.847 224.142 160.596 224.235 157.304 223.997C157.169 222.348 157.204 221.031 157.248 219.4L157.254 219.173Z"/><path fill="#CFDBF6" d="M217.02 219.106L235.24 219.036L235.161 224.08C230.864 223.828 225.653 223.956 220.929 224.073C219.586 224.106 218.283 224.138 217.051 224.16L217.02 219.106Z"/><path fill="#CFDBF6" d="M246.803 219.089C252.905 219.153 259.008 219.148 265.11 219.074C265.111 219.349 265.114 219.631 265.117 219.917L265.117 219.94C265.13 221.32 265.144 222.806 264.99 224.097C259.281 223.844 253.291 224.01 247.559 224.169L246.913 224.187L246.803 219.089Z"/><path fill="#F4F7FD" d="M154.509 62.5508C162.377 62.2054 171.632 62.2912 180.482 62.3734L180.537 62.3739L180.56 62.3741L180.583 62.3743C184.557 62.411 188.447 62.447 192.092 62.4422L206.214 62.4304C206.533 62.4304 206.855 62.4299 207.18 62.4294C209.929 62.4249 212.854 62.4201 215.542 62.7593C217.202 62.9689 217.852 63.9511 218.747 65.2084C219.065 67.4937 219.057 70.6653 219.05 73.2447C219.049 73.6494 219.048 74.0395 219.048 74.4094L219.053 87.6983L219.079 108.369C219.079 109.271 219.083 110.173 219.087 111.075C219.099 113.972 219.111 116.87 219.016 119.765C218.884 123.781 218.322 124.958 214.275 125.684C207.477 126.058 200.539 126.003 193.655 125.948C191.304 125.929 188.96 125.911 186.629 125.909C184.184 125.907 181.732 125.917 179.278 125.928L178.744 125.93L178.685 125.93C170.819 125.964 162.923 125.998 155.106 125.68C154.066 125.638 150.956 124.966 150.354 124.315C148.815 122.651 148.946 117.391 149.022 114.346C149.036 113.815 149.047 113.352 149.048 112.986L149.079 99.5357C149.01 92.4907 148.989 85.4453 149.015 78.4C149.037 74.4622 149.078 70.527 149.337 66.5969C149.555 63.2824 151.758 62.9275 154.509 62.5508Z"/><path fill="#F4F7FD" d="M184.127 73.849C192.271 73.8706 199.615 78.7532 202.786 86.2544C205.957 93.7555 204.343 102.425 198.683 108.282C192.259 114.93 182.156 116.403 174.102 111.865C166.047 107.327 162.072 97.9234 164.429 88.9842C166.787 80.0449 174.882 73.8246 184.127 73.849Z"/><path fill="#FD4A43" d="M198.683 108.282C192.259 114.93 182.156 116.403 174.102 111.865C166.047 107.327 162.072 97.9234 164.429 88.9842C166.787 80.0449 174.882 73.8246 184.127 73.849C184.136 74.458 184.14 75.1223 184.145 75.8137C184.158 77.9284 184.173 80.2951 184.327 82.0982C178.791 81.991 173.89 85.6568 172.429 90.997C170.968 96.3372 173.32 101.987 178.139 104.713C182.958 107.439 189.013 106.544 192.837 102.54C194.256 104.1 197.919 107.327 198.683 108.282Z"/><path fill="#372B7C" d="M184.127 73.849C192.271 73.8706 199.615 78.7532 202.786 86.2544C205.957 93.7555 204.343 102.425 198.683 108.282C197.919 107.327 194.256 104.1 192.837 102.54C196.151 99.0703 197.1 93.9698 195.256 89.5405C193.412 85.1112 189.124 82.1911 184.327 82.0982C184.173 80.2951 184.158 77.9284 184.145 75.8137C184.14 75.1223 184.136 74.458 184.127 73.849Z"/><path fill="#F4F7FD" d="M255.65 62.3913L255.652 62.3913C259.633 62.4483 263.585 62.5048 267.338 62.4449C271.077 62.4601 274.817 62.4506 278.56 62.4411L278.563 62.4411L278.582 62.4411C284.714 62.4256 290.846 62.4101 296.973 62.503C298.881 62.532 302.758 62.9519 303.012 65.3993C303.626 71.3066 303.568 77.3491 303.51 83.3571L303.51 83.3939L303.51 83.4029C303.487 85.7576 303.464 88.107 303.482 90.4406C303.541 98.0316 303.509 105.64 303.476 113.239C303.468 115.251 303.459 117.263 303.452 119.273C303.392 123.209 302.885 124.86 298.865 125.674C286.945 126.141 274.841 126.003 262.812 125.866L262.803 125.866L262.785 125.866C258.383 125.815 253.992 125.765 249.623 125.745C248.349 125.681 246.9 125.706 245.387 125.733L245.379 125.733L245.375 125.733C241.726 125.797 237.704 125.868 234.857 124.696C233.218 122.703 233.353 114.475 233.402 111.496C233.406 111.246 233.409 111.032 233.411 110.863C233.47 105.169 233.454 99.5237 233.437 93.891L233.437 93.8715L233.437 93.8618C233.412 85.2043 233.387 76.5773 233.637 67.8527C233.735 64.4457 234.53 63.1848 237.873 62.5372C243.465 62.2171 249.59 62.3047 255.647 62.3913L255.649 62.3913L255.65 62.3913Z"/><path fill="#7AD294" d="M265.391 71.9917C265.53 71.9726 265.661 71.9537 265.785 71.9358C266.69 71.8049 267.235 71.7262 268.248 72.0032C268.137 72.7124 262.012 74.023 260.883 74.3976C251.998 77.3457 246.844 86.3724 247.497 95.5251C247.922 101.384 250.68 106.827 255.154 110.633C260.205 114.913 267.172 116.293 273.549 114.655C275.537 114.145 278.49 112.727 280.425 112.658C279.818 114.584 274.188 116.01 272.394 116.35C266.618 117.467 260.637 116.188 255.823 112.807C238.895 100.989 244.661 75.6059 265.391 71.9917Z"/><path fill="#7AD294" d="M266.533 78.2776L266.553 78.2748C267.453 78.1505 267.49 78.1454 268.343 78.4448L268.485 78.7698C266.018 81.1458 259.291 79.6078 255.675 86.6012C248.707 100.075 262.792 114.771 276.046 106.619C277.087 105.979 279.322 104.586 280.496 104.319C279.614 106.793 274.406 109.184 271.923 109.648C249.889 113.767 244.614 82.013 266.533 78.2776Z"/><path fill="#7AD294" d="M267.35 84.797C267.603 84.7371 267.736 84.7056 267.868 84.7096C268.017 84.7141 268.165 84.7636 268.48 84.8682C268.395 86.1406 263.259 86.8413 261.963 88.9752C255.362 99.8489 270.397 108.428 276.347 96.8966C276.857 95.9089 276.676 95.3189 277.434 94.2911L277.841 94.3506L278.105 95.0258C277.046 98.8061 274.994 102.609 270.76 103.428C257.881 105.919 253.617 87.7145 267.236 84.8239C267.277 84.8144 267.315 84.8054 267.35 84.797Z"/><path fill="#F4F7FD" d="M267.287 95.7964L267.286 95.7964C266.519 95.8014 265.457 95.8083 265.023 95.5215C265.145 94.4337 266.807 93.6753 267.236 92.1748L266.885 91.8271C266.791 91.8254 266.705 91.8246 266.625 91.8238C266.097 91.8186 265.85 91.8161 265.249 91.5886L265.102 91.1527C266.2 90.1929 267.427 91.2133 268.377 92.0045C268.473 92.0843 268.566 92.1617 268.656 92.2345C268.818 92.301 269.01 92.3723 269.219 92.4498L269.22 92.4501C270.585 92.9576 272.667 93.7317 271.917 95.1821C270.859 95.8364 270.039 95.8161 269.017 95.7908L269.016 95.7908C268.627 95.7811 268.209 95.7708 267.737 95.7965C267.608 95.7943 267.457 95.7953 267.29 95.7964L267.289 95.7964L267.287 95.7964Z"/><path fill="#535057" d="M267.287 95.7964L267.286 95.7964C266.519 95.8014 265.457 95.8083 265.023 95.5215C265.145 94.4337 266.807 93.6753 267.236 92.1748L266.885 91.8271C266.791 91.8254 266.705 91.8246 266.625 91.8238C266.097 91.8186 265.85 91.8161 265.249 91.5886L265.102 91.1527C266.2 90.1929 267.427 91.2133 268.377 92.0045C268.473 92.0843 268.566 92.1617 268.656 92.2345C267.756 93.1448 266.757 93.7991 266.561 94.8392C266.949 95.3895 267.165 95.4618 267.737 95.7965C267.608 95.7943 267.457 95.7953 267.29 95.7964L267.289 95.7964L267.287 95.7964Z"/><path fill="#F4F7FD" d="M241.783 142.034C243.099 142.003 244.416 141.98 245.732 141.964C251.671 141.901 257.637 141.927 263.604 141.954L263.798 141.955C268.731 141.978 273.666 142 278.587 141.973C280.896 142.011 283.21 141.984 285.525 141.957L285.528 141.957L285.561 141.957C290.072 141.906 294.587 141.855 299.071 142.278C301.979 142.42 303.237 144.433 303.347 147.233C303.559 152.658 303.522 158.094 303.485 163.533L303.484 163.605L303.484 163.677C303.45 168.877 303.416 174.079 303.602 179.277C303.706 182.148 303.795 187.276 301.677 189.469C300.628 190.555 298.079 190.536 296.316 190.522C296.077 190.52 295.852 190.519 295.647 190.52L257.772 190.518C257.1 190.518 256.123 190.536 254.943 190.559L254.931 190.559L254.928 190.559C248.76 190.675 237.085 190.895 234.511 189.111C233.271 186.915 233.368 177.622 233.421 172.561L233.421 172.554L233.421 172.543C233.431 171.606 233.439 170.815 233.437 170.242C233.393 164.734 233.417 159.225 233.508 153.718C233.551 151.281 233.591 148.856 233.703 146.421C233.892 142.326 237.32 142.204 240.486 142.091C240.926 142.076 241.362 142.06 241.783 142.034Z"/><path fill="#6D82A4" d="M287.295 150.514L287.591 150.611C287.945 151.069 288.921 152.481 289.266 152.983C290.473 154.736 297.062 160.654 297.338 162.164L296.966 162.391C295.038 160.79 289.975 154.595 287.261 151.991C284.535 154.05 280.522 157.587 278.022 159.388C277.79 159.555 269.141 162.181 268.189 162.51C261.966 160.606 257.913 160.73 251.764 161.94C245.33 163.873 242.472 168.868 239.491 169.87C239.537 168.221 247.056 164.032 248.861 161.473C250.762 161.321 252.558 161.046 254.424 160.742C255.049 160.655 255.669 160.479 256.285 160.303L256.286 160.303L256.289 160.302L256.296 160.3C257.576 159.936 258.839 159.576 260.11 160.039C270.446 163.808 280.593 157.787 287.295 150.514Z"/><path fill="#EF9750" d="M287.512 166.008C287.623 166.077 287.733 166.146 287.844 166.215C289.895 169.461 295.372 171.224 297.28 174.254L297.194 174.482C294.227 172.298 290.507 169.43 287.432 167.57C284.616 168.313 281.001 170.077 278.197 171.198C274.71 172.593 271.814 173.512 268.206 174.566C263.349 172.746 254.574 173.008 249.597 174.659C247.221 176.027 245.452 177.277 243.449 179.134C242.725 179.805 240.637 181.817 239.8 181.989L239.479 181.708C239.705 180.632 242.818 178.677 243.839 178.045C245.166 177.222 246.384 175.659 247.484 174.938C252.075 171.936 259.421 172.206 264.676 173.054C269.571 173.843 273.182 172.462 277.665 170.681C280.955 169.373 284.701 168.236 287.512 166.008Z"/><path fill="#F4C2B5" d="M406.336 168.291C414.016 164.699 423.805 160.33 428.486 170.77C428.623 171.074 428.753 171.381 428.875 171.691C432.419 170.976 433.092 170.958 435.971 173.332C437.606 176.116 438.715 178.837 438.221 182.143L438.126 182.385C437.583 183.785 437.051 186.112 436.544 187.658C435.243 191.626 432.746 196.206 429.983 199.382C429.918 200.435 428.795 202.362 428.235 203.29C423.253 208.225 419.192 209.682 412.474 207.945C404.045 202.646 402.679 194.065 401.904 189.202C401.611 187.358 401.402 186.048 400.926 185.655L401.51 185.329C402.088 184.342 402.225 180.605 402.337 179.241C400.397 178.175 396.351 176.102 396.187 173.681C396.95 171.241 403.856 169.824 406.336 168.291Z"/><path fill="#201751" d="M406.336 168.291C414.016 164.699 423.805 160.33 428.486 170.77C428.623 171.074 428.753 171.381 428.875 171.691C432.419 170.976 433.092 170.958 435.971 173.332C437.606 176.116 438.715 178.837 438.221 182.143L438.126 182.385C437.583 183.785 437.051 186.112 436.544 187.658C435.243 191.626 432.746 196.206 429.983 199.382C429.845 198.16 430.267 195.728 430.656 193.491L430.658 193.478L430.662 193.454C430.912 192.019 431.147 190.668 431.211 189.773C431.226 189.559 431.474 189.162 431.78 188.669C432.657 187.261 434.02 185.073 431.821 184.154C429.953 184.286 429.587 184.869 428.342 186.2C427.473 184.086 426.641 181.957 425.846 179.815C416.933 182.64 410.963 182.484 402.337 179.241C400.397 178.175 396.351 176.102 396.187 173.681C396.95 171.241 403.856 169.824 406.336 168.291Z"/><path fill="#201751" d="M415.84 202.195C415.936 202.179 416.02 202.163 416.095 202.15L416.098 202.15L416.099 202.15C416.571 202.064 416.697 202.041 417.312 202.182L417.538 202.545C417.223 204.155 415.396 204.832 413.95 204.957C412.774 204.572 412.157 204.461 411.508 203.489L411.793 203.034C412.986 202.363 414.453 202.341 415.84 202.195Z"/><path fill="#0B0909" d="M411.27 195.167L411.269 195.17C410.818 196.299 410.345 197.483 410.805 198.457C411.46 198.688 411.804 198.591 412.205 198.478C412.569 198.376 412.98 198.261 413.713 198.364L413.901 198.833L413.827 198.871C412.399 199.609 411.35 200.151 410.162 198.782C409.673 197.095 410.264 194.824 410.771 192.88C410.873 192.488 410.971 192.11 411.057 191.752C412.342 192.479 411.823 193.781 411.27 195.167Z"/><path fill="#34232B" d="M404.519 184.295C405.634 184.248 407.092 184.216 407.807 185.237L407.469 185.519C407.042 185.457 406.575 185.486 406.123 185.514L406.121 185.514L406.112 185.514L406.109 185.514C405.363 185.56 404.658 185.604 404.239 185.234L404.519 184.295Z"/></svg>