<?xml version="1.0" encoding="utf-8" ?><svg xmlns="http://www.w3.org/2000/svg" xmlns:xlink="http://www.w3.org/1999/xlink" width="922" height="622" viewBox="0 0 922 622"><clipPath id="cl_4"><rect width="922" height="622"/></clipPath><g clip-path="url(#cl_4)"><defs><linearGradient id="gradient_0" gradientUnits="userSpaceOnUse" x1="592.22437" y1="567.33984" x2="538.87213" y2="230.10811"><stop offset="0" stop-color="#F27F0D"/><stop offset="1" stop-color="#FFBF48"/></linearGradient></defs><path fill="url(#gradient_0)" transform="translate(-187 -140)" d="M756.563 164.438C771.401 152.25 791.493 147.461 810.205 151.993C815.627 152.519 824.375 156.324 828.866 159.433C838.32 163.555 850.475 179.235 854.395 189.123C859.962 203.492 859.63 219.477 853.471 233.602C846.592 249.074 834.49 259.988 818.724 265.944C816.979 266.61 815.215 267.225 813.435 267.789C812.031 268.124 811.357 268.405 809.923 268.384C814.07 279.783 818.545 291.012 822.746 302.366C828.3 317.071 833.971 331.732 839.76 346.347C842.218 352.558 845.93 362.734 848.693 368.519C851.497 377.106 855.46 385.455 858.115 393.579C859.332 396.927 860.553 399.927 861.936 403.212C866.011 413.634 873.579 431.16 876.812 441.29L877.862 443.683L877.638 444.252L878.137 448.912L877.895 449.608C876.148 457.509 873.112 462.446 865.615 466.241C857.419 476.343 849.949 486.943 841.867 497.209L749.638 615.245L722.951 649.318C716.981 657.07 711.132 665.021 704.775 672.451C698.73 679.518 695.692 679.732 687.388 676.79C670.786 671.601 654.366 665.008 637.818 659.862C634.488 667.103 611.87 689.472 605.841 696.87C594.469 710.827 580.485 724.834 568.835 738.805C566.092 742.094 564.748 742.252 560.711 742.545L561.11 740.002C555.884 733.741 547.407 711.563 544.375 703.756C539.861 692.135 532.351 678.692 527.151 667.375C521.275 654.586 505.506 612.292 497.787 603.379C495.434 604.068 491.566 605.032 489.652 606.465C472.955 612.606 458.853 618.555 446.845 600.722C446.259 598.96 445.919 598.208 445.101 596.534C444.07 594.144 443.029 591.269 442.067 588.808C440.205 585.584 436.622 575.384 435.106 571.527C430.44 559.653 426.256 547.481 421.036 535.815C418.532 528.566 415.012 520.527 412.215 513.271L391.067 458.745C382.73 437.422 375.268 415.652 366.279 394.527C338.066 389.916 324.627 384.741 302.529 365.951C287.644 376.251 274.211 381.234 255.683 379.97C237.987 378.762 222.112 371.709 210.455 358.184C200.263 346.294 195.315 330.785 196.739 315.189C197.941 300.754 205.811 286.714 216.985 277.74C233.475 264.495 248.019 261.577 268.154 263.181C268.459 262.706 268.771 262.235 269.09 261.768C279.837 245.713 295.378 231.908 314.798 228.089C313.664 207.949 315.168 196.781 328.481 180.057C340.231 165.297 359.487 155.886 378.226 154.108C396.715 152.379 415.123 158.16 429.305 170.148C443.298 181.806 449.782 195.069 451.406 212.974C477.131 219.551 485.358 225.041 503.669 243.808C527.05 239.649 551.331 237.934 571.384 253.717C615.518 239.7 659.349 222.89 703.303 208.237C713.769 204.748 722.996 200.192 734.038 198.52C736.254 198.147 736.364 194.828 737.261 192.165C741.299 180.182 747.194 172.481 756.563 164.438ZM734.038 198.52L734.988 199.304C734.702 203.116 733.84 209.411 733.918 212.917C733.432 227.92 738.988 243.205 747.129 255.68C749.136 255.005 749.565 254.6 751.152 253.18L751.793 253.544C751.586 255.779 751.498 256.368 750.826 258.503L752.551 255.631C766.669 266.182 786.035 271.765 803.632 269.418C805.379 269.185 808.434 268.408 809.923 268.384C811.357 268.405 812.031 268.124 813.435 267.789C815.215 267.225 816.979 266.61 818.724 265.944C834.49 259.988 846.592 249.074 853.471 233.602C859.63 219.477 859.962 203.492 854.395 189.123C850.475 179.235 838.32 163.555 828.866 159.433C824.375 156.324 815.627 152.519 810.205 151.993C791.493 147.461 771.401 152.25 756.563 164.438C747.194 172.481 741.299 180.182 737.261 192.165C736.364 194.828 736.254 198.147 734.038 198.52Z"/><defs><linearGradient id="gradient_1" gradientUnits="userSpaceOnUse" x1="670.26538" y1="532.78088" x2="625.39606" y2="397.45859"><stop offset="0" stop-color="#F88F30"/><stop offset="1" stop-color="#FFB638"/></linearGradient></defs><path fill="url(#gradient_1)" transform="translate(-187 -140)" d="M696.554 377.093C701.009 369.778 709.182 352.266 713.441 343.897C724.976 320.89 736.684 297.969 748.562 275.137C763.129 296.334 786.038 307.809 811.591 302.438C815.885 301.535 817.559 301.129 821.909 302.162L822.746 302.366C828.3 317.071 833.971 331.732 839.76 346.347C842.218 352.558 845.93 362.734 848.693 368.519C851.497 377.106 855.46 385.455 858.115 393.579C859.332 396.927 860.553 399.927 861.936 403.212C866.011 413.634 873.579 431.16 876.812 441.29L877.862 443.683L877.638 444.252L878.137 448.912L877.895 449.608C876.148 457.509 873.112 462.446 865.615 466.241C857.419 476.343 849.949 486.943 841.867 497.209L749.638 615.245L722.951 649.318C716.981 657.07 711.132 665.021 704.775 672.451C698.73 679.518 695.692 679.732 687.388 676.79C670.786 671.601 654.366 665.008 637.818 659.862C634.488 667.103 611.87 689.472 605.841 696.87C594.469 710.827 580.485 724.834 568.835 738.805C566.092 742.094 564.748 742.252 560.711 742.545L561.11 740.002C555.884 733.741 547.407 711.563 544.375 703.756C539.861 692.135 532.351 678.692 527.151 667.375C521.275 654.586 505.506 612.292 497.787 603.379C495.434 604.068 491.566 605.032 489.652 606.465C472.955 612.606 458.853 618.555 446.845 600.722C446.259 598.96 445.919 598.208 445.101 596.534C444.07 594.144 443.029 591.269 442.067 588.808C444.408 589.889 444.466 590.202 445.422 592.532L445.636 593.067C451.136 592.084 450.54 588.258 449.948 584.407C449.955 582.269 449.773 580.402 450.505 578.425C452.955 565.3 457.584 561.397 464.536 550.779C486.14 517.782 508.946 485.673 530.079 452.35C532.143 449.095 539.925 436.169 542.286 434.428C542.999 433.507 544.372 431.13 545.484 431.453C570.947 438.86 603.543 460.904 630.582 453.681C639.111 451.408 646.824 446.773 652.834 440.309C664.001 428.329 679.308 390.97 688.341 375.729L688.692 375.143L696.554 377.093Z"/><path fill="#D6D9E0" transform="translate(-187 -140)" d="M860.43 468.713C862.322 467.668 863.649 467.085 865.615 466.241C857.419 476.343 849.949 486.943 841.867 497.209L749.638 615.245L722.951 649.318C716.981 657.07 711.132 665.021 704.775 672.451C698.73 679.518 695.692 679.732 687.388 676.79C670.786 671.601 654.366 665.008 637.818 659.862C634.488 667.103 611.87 689.472 605.841 696.87C594.469 710.827 580.485 724.834 568.835 738.805C566.092 742.094 564.748 742.252 560.711 742.545L561.11 740.002C555.884 733.741 547.407 711.563 544.375 703.756C539.861 692.135 532.351 678.692 527.151 667.375C521.275 654.586 505.506 612.292 497.787 603.379L727.786 518.035C747.058 512.366 770.254 501.395 790.336 495.436C810.443 486.38 839.213 476.641 860.43 468.713Z"/><path fill="#837BA8" transform="translate(-187 -140)" d="M790.336 495.436C810.443 486.38 839.213 476.641 860.43 468.713C857.46 472.689 852.411 480.07 848.387 482.612L847.057 482.532C762.634 517.971 679.323 551.454 599.067 595.784C584.749 603.692 569.108 610.003 555.333 618.863C553.712 619.853 553.018 621.873 552.239 623.475L552.036 623.91C551.44 634.756 553.598 650.07 554.602 661.262L559.1 715.671C559.445 719.742 561.28 736.926 561.11 740.002C555.884 733.741 547.407 711.563 544.375 703.756C539.861 692.135 532.351 678.692 527.151 667.375C521.275 654.586 505.506 612.292 497.787 603.379L727.786 518.035C747.058 512.366 770.254 501.395 790.336 495.436Z"/><path fill="#6F628E" transform="translate(-187 -140)" d="M727.786 518.035C747.058 512.366 770.254 501.395 790.336 495.436C785.201 499.529 734.045 525.728 728.447 527.066C726.392 524.979 727.098 520.718 727.786 518.035Z"/><defs><linearGradient id="gradient_2" gradientUnits="userSpaceOnUse" x1="651.77563" y1="543.0412" x2="736.32867" y2="644.8772"><stop offset="0" stop-color="#8883A9"/><stop offset="1" stop-color="#ADABC6"/></linearGradient></defs><path fill="url(#gradient_2)" transform="translate(-187 -140)" d="M860.43 468.713C862.322 467.668 863.649 467.085 865.615 466.241C857.419 476.343 849.949 486.943 841.867 497.209L749.638 615.245L722.951 649.318C716.981 657.07 711.132 665.021 704.775 672.451C698.73 679.518 695.692 679.732 687.388 676.79C670.786 671.601 654.366 665.008 637.818 659.862C634.488 667.103 611.87 689.472 605.841 696.87C594.469 710.827 580.485 724.834 568.835 738.805C566.092 742.094 564.748 742.252 560.711 742.545L561.11 740.002C561.28 736.926 559.445 719.742 559.1 715.671L554.602 661.262C553.598 650.07 551.44 634.756 552.036 623.91C556.535 626.563 586.357 636.035 593.553 638.498L657.216 660.216C666.402 663.33 688.647 672.05 697.492 672.354C700.041 670.101 702.402 667.644 704.553 665.007C718.466 648.286 733.521 628.415 747.051 611.151L813.203 526.815C817.516 521.28 845.445 486.545 847.057 482.532L848.387 482.612C852.411 480.07 857.46 472.689 860.43 468.713Z"/><path fill="#B1ABC0" transform="translate(-187 -140)" d="M637.818 659.862L636.133 659.786C639.353 659.293 641.212 659.848 644.401 660.477C641.972 657.759 638.716 659.606 635.568 658.165C638.314 655.795 649.343 661.381 652.501 662.336C665.693 666.323 680.8 674.141 694.543 674.552C694.283 675.291 694.513 674.938 693.702 675.5C690.124 675.723 690.515 674.676 687.388 676.79C670.786 671.601 654.366 665.008 637.818 659.862Z"/><path fill="#F5B942" transform="translate(-187 -140)" d="M696.554 377.093C701.009 369.778 709.182 352.266 713.441 343.897C724.976 320.89 736.684 297.969 748.562 275.137C763.129 296.334 786.038 307.809 811.591 302.438C815.885 301.535 817.559 301.129 821.909 302.162L822.746 302.366C828.3 317.071 833.971 331.732 839.76 346.347C842.218 352.558 845.93 362.734 848.693 368.519C851.497 377.106 855.46 385.455 858.115 393.579C859.332 396.927 860.553 399.927 861.936 403.212C866.011 413.634 873.579 431.16 876.812 441.29C874.448 440.832 867.475 434.931 862.786 432.856C858.999 431.18 847.431 427.763 846.012 426.069C846.377 425.935 846.485 425.866 846.928 425.874C850.328 425.931 870.407 434.021 872.538 436.222C873.184 436.889 872.708 436.637 873.797 436.806L873.331 435.257C867.86 428.927 796.334 409.784 783.762 404.991C756.367 394.547 724.334 386.582 696.554 377.093Z"/><path fill="#EF5C37" transform="translate(-187 -140)" d="M449.948 584.407C451.686 595.646 464.425 602.709 475.238 598.853C510.465 586.291 545.498 573.111 580.552 560.07C585.58 558.2 590.451 555.835 595.449 554.027L727.803 505.941L786.867 484.802C790.859 483.416 795.302 482.514 799.223 481.041C823.122 472.062 847.641 464.333 870.674 453.21C873.101 452.038 874.604 450.899 877.282 449.846L877.895 449.608C876.148 457.509 873.112 462.446 865.615 466.241C863.649 467.085 862.322 467.668 860.43 468.713C839.213 476.641 810.443 486.38 790.336 495.436C770.254 501.395 747.058 512.366 727.786 518.035L497.787 603.379C495.434 604.068 491.566 605.032 489.652 606.465C472.955 612.606 458.853 618.555 446.845 600.722C446.259 598.96 445.919 598.208 445.101 596.534C444.07 594.144 443.029 591.269 442.067 588.808C444.408 589.889 444.466 590.202 445.422 592.532L445.636 593.067C451.136 592.084 450.54 588.258 449.948 584.407Z"/><path fill="#F3842B" transform="translate(-187 -140)" d="M451.705 586.598C455.45 590.381 459.144 594.318 463.418 597.505C469.24 601.848 477.21 596.45 483.645 594.471C497.898 590.086 511.66 584.485 525.55 579.171C540.179 573.576 555.311 568.871 569.723 562.566C573.745 560.767 579.595 559.802 583.457 558.009C591.461 554.293 597.015 551.304 605.678 549.387C611.895 548.012 619.388 544.356 625.703 542.584C630.735 541.867 639.083 536.541 643.515 535.652C660.278 532.289 674.777 524.508 690.492 518.084C694.586 516.411 700.234 515.689 704.151 513.958C724.814 504.83 746.608 498.599 767.905 491.149C774.499 488.859 779.439 486.077 785.682 483.162C788.507 481.843 794.981 481.468 798.162 480.419C803.19 479.171 806.428 476.688 811.12 474.826C814.86 473.334 819.901 472.763 823.522 471.257C838.276 465.086 853.567 459.927 868.065 453.179C869.374 452.57 876.632 445.836 877.638 444.252L878.137 448.912L877.895 449.608L877.282 449.846C874.604 450.899 873.101 452.038 870.674 453.21C847.641 464.333 823.122 472.062 799.223 481.041C795.302 482.514 790.859 483.416 786.867 484.802L727.803 505.941L595.449 554.027C590.451 555.835 585.58 558.2 580.552 560.07C545.498 573.111 510.465 586.291 475.238 598.853C464.425 602.709 451.686 595.646 449.948 584.407C449.955 582.269 449.773 580.402 450.505 578.425C450.974 580.882 451.34 584.066 451.705 586.598Z"/><defs><linearGradient id="gradient_3" gradientUnits="userSpaceOnUse" x1="359.41565" y1="400.06824" x2="407.9949" y2="157.84842"><stop offset="0" stop-color="#BCBBBF"/><stop offset="1" stop-color="#E2E2DF"/></linearGradient></defs><path fill="url(#gradient_3)" transform="translate(-187 -140)" d="M314.798 228.089C313.664 207.949 315.168 196.781 328.481 180.057C340.231 165.297 359.487 155.886 378.226 154.108C396.715 152.379 415.123 158.16 429.305 170.148C443.298 181.806 449.782 195.069 451.406 212.974C477.131 219.551 485.358 225.041 503.669 243.808C527.05 239.649 551.331 237.934 571.384 253.717L425.915 305.24L389.128 318.509C375.76 323.318 357.556 327.138 352.36 342.065C351.523 345.21 350.645 348.659 351.318 351.914C351.99 360.413 362.813 384.597 366.279 394.527C338.066 389.916 324.627 384.741 302.529 365.951C287.644 376.251 274.211 381.234 255.683 379.97C237.987 378.762 222.112 371.709 210.455 358.184C200.263 346.294 195.315 330.785 196.739 315.189C197.941 300.754 205.811 286.714 216.985 277.74C233.475 264.495 248.019 261.577 268.154 263.181C268.459 262.706 268.771 262.235 269.09 261.768C279.837 245.713 295.378 231.908 314.798 228.089Z"/><path fill="#EE5A45" transform="translate(-187 -140)" d="M756.563 164.438C771.401 152.25 791.493 147.461 810.205 151.993C815.627 152.519 824.375 156.324 828.866 159.433C838.32 163.555 850.475 179.235 854.395 189.123C859.962 203.492 859.63 219.477 853.471 233.602C846.592 249.074 834.49 259.988 818.724 265.944C816.979 266.61 815.215 267.225 813.435 267.789C812.031 268.124 811.357 268.405 809.923 268.384C808.434 268.408 805.379 269.185 803.632 269.418C786.035 271.765 766.669 266.182 752.551 255.631L750.826 258.503C751.498 256.368 751.586 255.779 751.793 253.544L751.152 253.18C749.565 254.6 749.136 255.005 747.129 255.68C738.988 243.205 733.432 227.92 733.918 212.917C733.84 209.411 734.702 203.116 734.988 199.304L734.038 198.52C736.254 198.147 736.364 194.828 737.261 192.165C741.299 180.182 747.194 172.481 756.563 164.438ZM795.604 212.162C795.992 212.928 796.206 213.439 796.536 214.235C799.224 221.648 802.404 239.683 812.975 231.521C813.45 230.209 814.475 227.97 814.074 226.496C810.871 214.74 805.4 203.566 801.699 191.941C801.317 190.783 801.16 190.286 800.911 189.093C800.229 187.497 798.716 184.346 798.23 182.89C795.671 181.429 794.234 181.359 791.212 181.165C788.213 182.873 781.564 188.858 779.911 191.582C777.482 194.353 776.053 194.948 775.188 198.467C778.123 202.709 779.049 203.795 784.156 202.707C787.233 200.601 787.384 200.163 789.76 197.485C790.598 199.442 791.579 201.782 792.453 203.673C793.346 205.581 794.958 210.116 795.604 212.162Z"/><path fill="#91181C" transform="translate(-187 -140)" d="M733.918 212.917C734.328 211.266 734.19 210.529 735.218 209.571C736.094 212.109 736.565 218.553 737.853 223.059C742.436 239.674 754.017 253.474 769.585 260.869C779.039 265.406 789.534 267.33 799.982 266.441C803.492 266.157 807.548 265.701 811.081 265.61C812.394 265.577 812.578 266.5 813.435 267.789C812.031 268.124 811.357 268.405 809.923 268.384C808.434 268.408 805.379 269.185 803.632 269.418C786.035 271.765 766.669 266.182 752.551 255.631L750.826 258.503C751.498 256.368 751.586 255.779 751.793 253.544L751.152 253.18C749.565 254.6 749.136 255.005 747.129 255.68C738.988 243.205 733.432 227.92 733.918 212.917Z"/><path fill="#EF5C37" transform="translate(-187 -140)" d="M756.563 164.438C771.401 152.25 791.493 147.461 810.205 151.993C815.627 152.519 824.375 156.324 828.866 159.433C826.163 160.325 817.69 156.163 814.247 155.405C811.296 154.754 807.969 153.831 804.935 153.183C789.652 152.854 779.261 152.899 764.982 160.796C761.571 162.683 759.866 166.347 756.563 164.438Z"/><path fill="#91181C" transform="translate(-187 -140)" d="M789.76 197.485C790.598 199.442 791.579 201.782 792.453 203.673C793.346 205.581 794.958 210.116 795.604 212.162C795.992 212.928 796.206 213.439 796.536 214.235C799.224 221.648 802.404 239.683 812.975 231.521C813.551 236.583 812.587 241.153 805.13 239.428C802.175 238.047 801.11 232.69 800.289 230.397C797 221.215 793.754 210.743 789.927 201.884L787.06 205.632C785.81 207.24 783.715 209.014 781.676 209.082C774.512 209.319 775.415 202.599 775.188 198.467C778.123 202.709 779.049 203.795 784.156 202.707C787.233 200.601 787.384 200.163 789.76 197.485Z"/><path fill="white" fill-opacity="0.6901961" transform="translate(-187 -140)" d="M779.911 191.582C781.564 188.858 788.213 182.873 791.212 181.165C792.926 185.579 794.528 187.787 798.23 182.89C798.716 184.346 800.229 187.497 800.911 189.093C794.602 189.147 789.533 190.168 789.76 197.485C787.384 200.163 787.233 200.601 784.156 202.707L784.904 199.78C786.099 195.194 782.204 195.004 779.911 191.582Z"/><path fill="#D6D9E0" fill-opacity="0.38431373" transform="translate(-187 -140)" d="M789.76 197.485C789.533 190.168 794.602 189.147 800.911 189.093C801.16 190.286 801.317 190.783 801.699 191.941L800.953 192.369C796.522 194.876 797.187 194.201 794.169 199.463C793.327 200.93 793.019 202.137 792.453 203.673C791.579 201.782 790.598 199.442 789.76 197.485Z"/><path fill="white" fill-opacity="0.11764706" transform="translate(-187 -140)" d="M795.604 212.162C797.488 205.744 802.799 207.034 800.901 212.598C800.385 214.11 797.798 214.052 796.536 214.235C796.206 213.439 795.992 212.928 795.604 212.162Z"/><path fill="white" fill-opacity="0.39215687" transform="translate(-187 -140)" d="M791.212 181.165C794.234 181.359 795.671 181.429 798.23 182.89C794.528 187.787 792.926 185.579 791.212 181.165Z"/><path fill="#EE5A45" transform="translate(-187 -140)" d="M747.129 255.68C749.136 255.005 749.565 254.6 751.152 253.18L751.793 253.544C751.586 255.779 751.498 256.368 750.826 258.503L752.551 255.631C766.669 266.182 786.035 271.765 803.632 269.418C805.379 269.185 808.434 268.408 809.923 268.384C814.07 279.783 818.545 291.012 822.746 302.366L821.909 302.162C817.559 301.129 815.885 301.535 811.591 302.438C786.038 307.809 763.129 296.334 748.562 275.137C736.684 297.969 724.976 320.89 713.441 343.897C709.182 352.266 701.009 369.778 696.554 377.093L688.692 375.143L688.341 375.729C679.308 390.97 664.001 428.329 652.834 440.309C646.824 446.773 639.111 451.408 630.582 453.681C603.543 460.904 570.947 438.86 545.484 431.453C544.372 431.13 542.999 433.507 542.286 434.428C538.206 431.948 529.96 428.902 525.253 427.034L497.713 416.099L411.754 380.618C408.343 379.191 404.548 377.503 401.143 376.18C384.112 369.564 375.123 366.168 373.775 346.06C374.199 345.201 374.3 345.181 374.909 344.425L375.479 345.589C378.399 349.855 381.48 352.553 386.232 354.716C398.093 360.112 412.12 364.522 424.543 368.664C447.251 376.235 470.009 384.396 492.728 391.726C495.554 392.342 513.627 398.585 515.88 399.872C536.92 407.063 591.243 427.852 611.105 429.104C620.556 429.714 630.006 427.898 638.557 423.827C647.881 419.343 653.587 410.883 660.039 407.8C667.908 396.707 676.158 381.918 683.215 369.985L716.925 313.346C725.058 299.756 733.782 286.405 741.325 272.497C743.339 268.784 750.196 260.889 748.418 257.327L747.129 255.68Z"/><path fill="#EF5C37" transform="translate(-187 -140)" d="M375.479 345.589C378.399 349.855 381.48 352.553 386.232 354.716C398.093 360.112 412.12 364.522 424.543 368.664C447.251 376.235 470.009 384.396 492.728 391.726C495.554 392.342 513.627 398.585 515.88 399.872C536.92 407.063 591.243 427.852 611.105 429.104C620.556 429.714 630.006 427.898 638.557 423.827C647.881 419.343 653.587 410.883 660.039 407.8C647.755 428.384 624.662 438.944 600.727 433.527C587.784 430.598 573.375 425.097 560.71 420.64L495.057 397.359C472.049 389.423 449.08 381.371 426.153 373.204C415.814 369.593 405.33 366.098 395.086 362.232C385.919 358.773 378.473 355.467 375.479 345.589Z"/><path fill="#EC6C2F" transform="translate(-187 -140)" d="M351.318 351.914C355.814 354.117 367.999 389.745 371.055 396.667C379.556 415.92 387.981 435.536 395.398 455.246C397.351 460.658 407.012 490.287 409.929 493.349C414.574 496.521 438.663 570.064 444.326 579.347C445.485 581.247 445.482 589.783 448.199 590.444C448.78 588.931 448.526 584.033 448.701 581.75L449.147 581.616C449.492 582.668 449.716 583.315 449.948 584.407C450.54 588.258 451.136 592.084 445.636 593.067L445.422 592.532C444.466 590.202 444.408 589.889 442.067 588.808C440.205 585.584 436.622 575.384 435.106 571.527C430.44 559.653 426.256 547.481 421.036 535.815C418.532 528.566 415.012 520.527 412.215 513.271L391.067 458.745C382.73 437.422 375.268 415.652 366.279 394.527C362.813 384.597 351.99 360.413 351.318 351.914Z"/><path fill="#EC6C2F" transform="translate(-187 -140)" d="M748.418 257.327C750.196 260.889 743.339 268.784 741.325 272.497C733.782 286.405 725.058 299.756 716.925 313.346L683.215 369.985C676.158 381.918 667.908 396.707 660.039 407.8C653.587 410.883 647.881 419.343 638.557 423.827C630.006 427.898 620.556 429.714 611.105 429.104C591.243 427.852 536.92 407.063 515.88 399.872C516.778 399.708 517.676 399.548 518.576 399.394C522.208 400.068 525.674 402.06 529.936 402.799C526.876 401.276 524.148 399.619 521.211 397.872C534.118 403.624 544.744 406.477 558.261 409.767C559.453 410.057 564.489 411.397 565.104 412.114C561.016 412.767 558.373 409.438 555.276 410.142C558.121 413.5 567.371 413.71 571.672 415.059C575.79 416.35 579.383 417.314 583.305 419.435C581.968 419.92 578.686 418.682 576.834 418.218C579.542 420.976 598.005 425.914 602.58 427.085C603.405 427.296 609.405 426.808 610.622 426.699L608.031 426.555C624.197 423.414 625.272 427.722 642.103 417.81L642.52 418.843L643.25 418.967C645.722 417.401 650.369 414.493 652.165 412.336C660.02 402.902 665.79 392.088 671.976 381.61L696.42 340.016C703.014 328.679 712.881 316.935 718.055 304.441C718.542 303.263 719.355 299.838 720.08 299.322L719.691 302.277C720.131 302.245 743.821 262.513 747.989 257.805L748.418 257.327Z"/><path fill="#F3842B" transform="translate(-187 -140)" d="M373.775 346.06C372.895 341.548 374.36 335.978 375.53 331.574C376.124 332.785 375.513 340.476 375.462 342.685C382.144 353.776 390.998 355.843 402.684 359.618C406.739 360.929 411.807 360.479 415.032 362.553L415.284 362.299L413.462 360.679C418.066 361.86 423.66 365.366 428.353 367.19C433.307 369.115 437.386 369.013 442.118 370.535C449.087 372.778 456.707 377.426 463.762 379.141L464.067 378.809C462.595 377.821 461.117 376.881 459.743 375.763C461.126 376.287 472.685 380.115 472.928 380.327C479.956 386.45 476.881 384.817 485.877 387.431L486.631 386.734L485.219 384.854C487.323 385.565 488.306 386.1 490.255 387.112C491.594 388.923 491.276 389.776 492.728 391.726C470.009 384.396 447.251 376.235 424.543 368.664C412.12 364.522 398.093 360.112 386.232 354.716C381.48 352.553 378.399 349.855 375.479 345.589L374.909 344.425C374.3 345.181 374.199 345.201 373.775 346.06Z"/><path fill="#F3842B" transform="translate(-187 -140)" d="M352.36 342.065C354.142 345.105 353.763 346.087 354.946 348.513C358.831 356.429 363.411 363.868 365.692 372.484C366.767 376.542 365.893 380.501 367.608 384.473C380.323 413.926 393.701 442.798 403.384 473.494C404.999 478.613 410.498 488.451 409.929 493.349C407.012 490.287 397.351 460.658 395.398 455.246C387.981 435.536 379.556 415.92 371.055 396.667C367.999 389.745 355.814 354.117 351.318 351.914C350.645 348.659 351.523 345.21 352.36 342.065Z"/><path fill="#F3842B" transform="translate(-187 -140)" d="M490.255 387.112C492.888 387.611 494.975 389.408 497.559 388.988C499.175 388.726 519.652 398.181 519.516 398.001C519.46 398.276 518.911 398.601 518.576 399.394C517.676 399.548 516.778 399.708 515.88 399.872C513.627 398.585 495.554 392.342 492.728 391.726C491.276 389.776 491.594 388.923 490.255 387.112Z"/><path fill="#F5B942" transform="translate(-187 -140)" d="M713.988 221.057L715.768 220.965L716.445 221.58C713.631 223.819 709.452 223.857 706.298 225.247C693.971 230.682 680.453 232.833 668.454 238.957L665.939 239.112L666.196 238.336C676.182 233.793 683.292 231.103 693.843 228.153C701.018 226.146 705.535 222.223 713.988 221.057Z"/><defs><linearGradient id="gradient_4" gradientUnits="userSpaceOnUse" x1="985.23077" y1="634.19153" x2="951.84094" y2="489.2973"><stop offset="0" stop-color="#B8B7BC"/><stop offset="1" stop-color="#E3E4E0"/></linearGradient></defs><path fill="url(#gradient_4)" transform="translate(-187 -140)" d="M965.141 485.885C988.801 484.466 1011.8 498.128 1014.25 523.133C1028.07 525.428 1036.09 530.616 1045.85 540.444C1057.28 539.37 1065.74 539.156 1076.49 544.186C1095.5 553.084 1103.62 574.592 1094.1 593.502C1089.11 603.47 1080.27 610.977 1069.63 614.299C1056.42 618.555 1044.58 616.853 1032.42 610.729C1019.53 625.225 1001.66 633.153 982.725 635.821C959.001 640.011 937.845 632.794 918.449 619.539C900.164 629.689 877.565 631.808 861.376 616.381C854.064 609.479 849.825 599.934 849.607 589.881C849.302 567.021 866.969 551.442 889.141 549.931C891.829 549.748 894.708 549.836 897.411 549.853C908.124 539.629 909.568 533.68 925.667 528.449C926.551 518.541 927.52 511.295 933.863 503.101C941.996 492.593 952.229 487.595 965.141 485.885Z"/><defs><linearGradient id="gradient_5" gradientUnits="userSpaceOnUse" x1="290.03046" y1="733.13306" x2="299.56876" y2="618.8844"><stop offset="0" stop-color="#BBB9BE"/><stop offset="1" stop-color="#E4E5E2"/></linearGradient></defs><path fill="url(#gradient_5)" transform="translate(-187 -140)" d="M255.311 652.591C256.27 640.628 257.716 634.505 267.482 625.846C274.924 619.248 285.599 616.662 295.461 617.658C304.698 618.582 313.177 623.179 318.991 630.417C323.256 635.735 324.647 640.434 326.311 646.886C336.587 650.392 341.993 652.702 349.956 660.693C361.924 660.156 371.537 659.835 381.051 668.372C392.944 679.043 393.082 696.332 382.499 707.875C376.65 714.294 368.433 718.044 359.752 718.257C352.728 718.483 347.366 716.85 340.828 714.623C338.247 716.895 335.569 719.317 332.806 721.349C308.88 738.95 272.662 738.685 249.093 720.803C238.017 726.374 230.412 728.462 217.656 724.821C212.572 723.37 204.958 718.344 202.416 713.762C197.032 709.009 196.353 697.022 198.389 690.497C203.408 673.503 217.669 669.67 233.469 668.958C240.346 660.895 244.908 656.413 255.311 652.591Z"/><path fill="#B1ABC0" transform="translate(-187 -140)" d="M198.389 690.497C198.768 692.018 199.142 694.156 198.423 695.516C197.482 697.294 199.437 699.826 201.049 700.255C201.853 699.733 199.353 698.418 200.1 697.089C200.33 696.681 199.654 695.758 199.704 695.241C200.267 694.833 200.893 695.626 201.065 696.091C202.596 700.219 204.556 702.822 208.232 705.284C208.733 705.645 211.042 707.043 211.111 707.46C210.329 708.603 203.497 702.318 202.843 702.202C200.939 705.023 198.202 704.264 200.464 709.183C201.6 711.654 202.354 710.781 202.416 713.762C197.032 709.009 196.353 697.022 198.389 690.497Z"/><path fill="#D6D9E0" transform="translate(-187 -140)" d="M848.693 368.519C884.659 354.903 921.7 343.062 957.881 329.981C961.17 328.791 962.907 330.13 965.625 331.741C966.186 335.221 964.193 337.912 962.108 340.67C940.99 368.603 919.045 395.924 897.455 423.475C894.24 427.578 879.306 446.109 878.137 448.912L877.638 444.252L877.862 443.683L876.812 441.29C873.579 431.16 866.011 413.634 861.936 403.212C860.553 399.927 859.332 396.927 858.115 393.579C855.46 385.455 851.497 377.106 848.693 368.519Z"/><path fill="#A19DBD" transform="translate(-187 -140)" d="M965.625 331.741C966.186 335.221 964.193 337.912 962.108 340.67C940.99 368.603 919.045 395.924 897.455 423.475C894.24 427.578 879.306 446.109 878.137 448.912L877.638 444.252L877.862 443.683C896.671 419.434 915.614 395.289 934.69 371.25C944.585 358.564 955.402 344.026 965.625 331.741Z"/><defs><linearGradient id="gradient_6" gradientUnits="userSpaceOnUse" x1="890.75348" y1="387.14981" x2="886.125" y2="377.41788"><stop offset="0" stop-color="#776F99"/><stop offset="1" stop-color="#8C85AF"/></linearGradient></defs><path fill="url(#gradient_6)" transform="translate(-187 -140)" d="M914.518 364.088L915.47 364.917C903.776 373.158 892.139 381.478 880.559 389.877C875.078 393.811 866.837 399.206 861.936 403.212C860.553 399.927 859.332 396.927 858.115 393.579C861.987 392.026 870.757 387.244 874.739 385.21C888.088 378.339 901.349 371.298 914.518 364.088Z"/><path fill="#B1ABC0" transform="translate(-187 -140)" d="M914.518 364.088C920.323 359.853 925.989 358.227 915.47 364.917L914.518 364.088Z"/><path fill="#837BA8" transform="translate(-187 -140)" d="M384.285 548.627C395.772 544.6 409.359 538.795 421.036 535.815C426.256 547.481 430.44 559.653 435.106 571.527C436.622 575.384 440.205 585.584 442.067 588.808C443.029 591.269 444.07 594.144 445.101 596.534C445.919 598.208 446.259 598.96 446.845 600.722C442.412 598.628 432.731 595.624 427.815 594.005L396.262 583.567C389.175 581.19 357.57 572.322 355.126 566.613C354.146 564.324 354.984 562.165 355.903 560.026C359.027 557.971 379.358 550.572 384.285 548.627Z"/><path fill="#D6D9E0" transform="translate(-187 -140)" d="M355.903 560.026C359.027 557.971 379.358 550.572 384.285 548.627C391.528 554.234 400.484 564.106 407.067 570.886C412.162 576.134 419.085 582.751 423.824 588.079C426.109 589.721 441.501 595.411 445.101 596.534C445.919 598.208 446.259 598.96 446.845 600.722C442.412 598.628 432.731 595.624 427.815 594.005L396.262 583.567C389.175 581.19 357.57 572.322 355.126 566.613C354.146 564.324 354.984 562.165 355.903 560.026Z"/><path fill="#A19DBD" transform="translate(-187 -140)" d="M446.845 600.722C442.412 598.628 432.731 595.624 427.815 594.005L396.262 583.567C389.175 581.19 357.57 572.322 355.126 566.613C354.146 564.324 354.984 562.165 355.903 560.026C355.967 561.144 356.089 564.688 356.891 565.003C368.517 569.566 413.996 587.59 423.824 588.079C426.109 589.721 441.501 595.411 445.101 596.534C445.919 598.208 446.259 598.96 446.845 600.722Z"/><path fill="#A19DBD" fill-opacity="0.98823529" transform="translate(-187 -140)" d="M489.652 606.465C491.566 605.032 495.434 604.068 497.787 603.379C505.506 612.292 521.275 654.586 527.151 667.375C532.351 678.692 539.861 692.135 544.375 703.756C547.407 711.563 555.884 733.741 561.11 740.002L560.711 742.545C558.875 741.333 557.742 740.724 556.665 738.633C552.171 729.914 548.82 720.625 544.93 711.611L516.497 647.119C513.027 639.217 503.575 616.602 499.304 609.953C496.64 608.737 492.53 607.454 489.652 606.465Z"/></g></svg>