<?xml version="1.0" encoding="utf-8" ?><svg xmlns="http://www.w3.org/2000/svg" xmlns:xlink="http://www.w3.org/1999/xlink" width="311" height="276" viewBox="0 0 311 276"><clipPath id="cl_15"><rect width="311" height="276"/></clipPath><g clip-path="url(#cl_15)"><path fill="#E3E1E0" transform="translate(0 -24)" d="M162 40.9915C140.776 45.9797 120.009 52.9201 98.982 58.5865L58.0606 71.0197C51.558 72.9904 35.4618 77.701 30.1405 80.7202C31.7614 87.7552 33.7209 94.7428 36.1954 101.527C37.103 104.016 37.5989 104.814 40.2591 104.421C40.8339 104.521 41.3804 104.533 41.6763 105.121C50.5383 122.73 60.0647 136.376 75.848 148.799C79.525 151.672 83.318 154.393 87.218 156.956C92.536 160.406 98.976 163.967 103.343 168.491C106.296 171.551 106.763 174.26 105.791 178.368C104.151 185.353 100.916 191.757 98.388 198.43C91.482 216.66 84.464 235.986 86.413 255.799C86.867 260.422 88.882 263.604 89.704 267.585C87.417 268.246 82.689 269.256 81.535 271.544C80.576 273.448 86.098 290.347 87.265 293.319C87.677 294.369 88.284 295.921 89.357 296.447C93.0833 296.813 112.834 290.955 121.308 288.442C122.497 288.089 123.464 287.802 124.133 287.608L159.567 277.233C163.399 276.369 168.006 274.667 171.996 273.67C188.605 268.685 205.43 264.486 221.843 258.863C225.568 257.588 229.792 256.393 233.05 254.133C232.872 252.853 232.655 251.578 232.399 250.312C231.642 246.687 228.07 231.342 225.118 228.635C223.983 227.594 218.131 229.34 216.243 229.91C215.522 230.427 212.353 231.26 211.283 231.613L208.557 232.242C207.633 230.293 204.395 221.467 202.555 220.637C200.493 215.654 194.548 209.637 193.055 205.963C191.966 205.602 191.758 205.44 190.808 204.791C183.213 195.016 168.919 194.106 157.845 191.486C153.634 190.49 150.717 188.94 146.821 187.713C150.658 181.425 153.934 173.752 158.313 167.577L158.45 167.245L158.267 166.938C158.015 166.723 157.763 166.509 157.512 166.297C153.045 162.508 148.885 158.98 151.733 152.274C153.006 149.272 154.335 146.257 155.671 143.226C163.378 125.742 171.33 107.7 170.334 88.2727C169.977 81.3293 170.299 73.3815 169.701 66.592C170.319 66.2914 171.084 65.9146 171.599 65.4533C172.337 64.7906 172.595 63.7471 172.625 62.7866C172.678 61.1046 168.205 46.0714 167.233 43.8147C166.771 42.7405 166.242 41.8813 165.429 41.0421C164.543 40.6966 162.919 40.7756 162 40.9915Z"/><defs><linearGradient id="gradient_0" gradientUnits="userSpaceOnUse" x1="115.938" y1="254.106" x2="205.18201" y2="190.05499"><stop offset="0" stop-color="#E4AC5F"/><stop offset="1" stop-color="#F8E5BB"/></linearGradient></defs><path fill="url(#gradient_0)" transform="translate(0 -24)" d="M126.781 167.382C126.005 167.535 125.482 167.543 124.804 167.981L125.969 171.039L126.055 171.523C127.826 181.456 129.022 188.17 122.723 197.287C119.945 201.059 116.069 205.475 112.525 208.476C102.025 217.371 96.84 227.104 96.239 240.989C96.1988 241.918 96.1235 243.04 96.0397 244.288C95.6085 250.713 94.9526 260.485 97.704 264.522L97.546 265.222C95.013 266.018 92.26 266.943 89.704 267.585C87.417 268.246 82.689 269.256 81.535 271.544C80.576 273.448 86.098 290.347 87.265 293.319C87.677 294.369 88.284 295.921 89.357 296.447C93.0833 296.813 112.834 290.955 121.308 288.442C122.497 288.089 123.464 287.802 124.133 287.608L159.567 277.233C163.399 276.369 168.006 274.667 171.996 273.67C188.605 268.685 205.43 264.486 221.843 258.863C225.568 257.588 229.792 256.393 233.05 254.133C232.872 252.853 232.655 251.578 232.399 250.312C231.642 246.687 228.07 231.342 225.118 228.635C223.983 227.594 218.131 229.34 216.243 229.91C215.522 230.427 212.353 231.26 211.283 231.613L208.557 232.242C207.633 230.293 204.395 221.467 202.555 220.637C200.493 215.654 194.548 209.637 193.055 205.963C191.966 205.602 191.758 205.44 190.808 204.791C183.213 195.016 168.919 194.106 157.845 191.486C153.634 190.49 150.717 188.94 146.821 187.713C140.331 184.061 135.336 173.524 133.499 166.645C133.356 166.147 133.175 165.046 133.065 164.483L132.829 163.702C130.697 165.992 130.119 166.724 126.781 167.382Z"/><path fill="#4B56A5" transform="translate(0 -24)" d="M225.118 228.635C223.983 227.594 218.131 229.34 216.243 229.91C215.522 230.427 212.353 231.26 211.283 231.613L208.557 232.242C207.223 232.636 205.577 233.075 204.304 233.571L204.768 234.493C200.267 236.021 195.516 237.072 191.021 238.532C187.07 239.783 182.622 240.981 178.796 242.257C175.388 243.114 165.457 245.496 162.714 246.668L161.763 246.14C159.762 246.653 152.607 248.395 150.99 249.164L150.978 249.547C150.38 249.943 149.861 250.202 149.481 250.77L149.463 250.746L149.422 250.862C149.441 250.83 149.461 250.8 149.481 250.77L149.892 251.313L149.762 251.465C149.463 251.817 149.241 251.989 149.181 252.433C149.268 252.527 150.443 253.676 150.412 253.554C151.887 259.2 155.607 264.094 156.728 269.8C156.822 270.281 157.191 270.648 157.575 271.031C158.146 271.6 158.75 272.202 158.536 273.261C158.464 274.542 158.046 275.722 157.509 276.875L157.637 277.2C158.287 277.208 158.382 277.197 159 276.999L159.567 277.233C163.399 276.369 168.006 274.667 171.996 273.67C188.605 268.685 205.43 264.486 221.843 258.863C225.568 257.588 229.792 256.393 233.05 254.133C232.872 252.853 232.655 251.578 232.399 250.312C231.642 246.687 228.07 231.342 225.118 228.635Z"/><path fill="#5D66AF" transform="translate(0 -24)" d="M192.813 245.563C192.345 244.991 192.361 239.723 191.021 238.532C187.07 239.783 182.622 240.981 178.796 242.257C178.794 242.559 178.769 242.928 178.742 243.32C178.684 244.159 178.619 245.105 178.761 245.723C179.827 250.384 181.28 254.917 182.069 259.649C182.371 260.991 184.274 262.877 185.658 262.76C191.648 262.25 195.313 254.534 195.639 249.213C195.778 246.949 195.358 245.628 193.086 245.568L192.813 245.563Z"/><path fill="#1B1D63" transform="translate(0 -24)" d="M161.763 246.14C159.762 246.653 152.607 248.395 150.99 249.164L150.978 249.547C150.38 249.943 149.861 250.202 149.481 250.77L149.463 250.746L149.422 250.862C149.441 250.83 149.461 250.8 149.481 250.77L149.892 251.313L149.762 251.465C149.463 251.817 149.241 251.989 149.181 252.433C149.268 252.527 150.443 253.676 150.412 253.554C151.887 259.2 155.607 264.094 156.728 269.8C156.822 270.281 157.191 270.648 157.575 271.031C158.146 271.6 158.75 272.202 158.536 273.261C158.464 274.542 158.046 275.722 157.509 276.875L157.637 277.2C158.287 277.208 158.382 277.197 159 276.999L159.567 277.233C163.399 276.369 168.006 274.667 171.996 273.67C171.95 273.423 171.758 272.442 171.56 272.335C168.581 270.727 165.19 269.999 163.51 266.376C161.773 262.633 158.151 253.266 158.89 248.991C159.064 247.986 161.697 246.996 162.714 246.668L161.763 246.14Z"/><path fill="#1B1D63" transform="translate(0 -24)" d="M211.283 231.613L208.557 232.242C207.223 232.636 205.577 233.075 204.304 233.571L204.768 234.493C206.922 234.417 210.005 233.459 211.283 231.613Z"/><defs><linearGradient id="gradient_1" gradientUnits="userSpaceOnUse" x1="110.553" y1="287.39801" x2="178.884" y2="260.504"><stop offset="0" stop-color="#040535"/><stop offset="1" stop-color="#25297E"/></linearGradient></defs><path fill="url(#gradient_1)" transform="translate(0 -24)" d="M150.99 249.164C148.049 249.965 145.118 250.804 142.199 251.682C140.108 252.298 126.27 256.275 125.124 256.901C121.901 257.61 114.244 259.991 110.983 261.094C107.394 262.331 101.167 264.579 97.546 265.222C95.013 266.018 92.26 266.943 89.704 267.585C87.417 268.246 82.689 269.256 81.535 271.544C80.576 273.448 86.098 290.347 87.265 293.319C87.677 294.369 88.284 295.921 89.357 296.447C93.0833 296.813 112.834 290.955 121.308 288.442C122.497 288.089 123.464 287.802 124.133 287.608L159.567 277.233L159 276.999C158.382 277.197 158.287 277.208 157.637 277.2L157.509 276.875C158.046 275.722 158.464 274.542 158.536 273.261C158.75 272.202 158.146 271.6 157.575 271.031C157.191 270.648 156.822 270.281 156.728 269.8C155.607 264.094 151.887 259.2 150.412 253.554C150.443 253.676 149.268 252.527 149.181 252.433C149.241 251.989 149.463 251.817 149.762 251.465L149.892 251.313L149.481 250.77C149.861 250.202 150.38 249.943 150.978 249.547L150.99 249.164Z"/><path fill="#1B1D63" transform="translate(0 -24)" d="M142.199 251.682C140.108 252.298 126.27 256.275 125.124 256.901C124.957 257.254 124.647 257.428 124.33 257.606C123.809 257.897 123.266 258.201 123.295 259.327L123.632 259.607C126.293 259.712 140.135 255.73 142.786 254.511C142.656 253.428 142.473 252.74 142.199 251.682Z"/><path fill="#FEFEFE" transform="translate(0 -24)" d="M193.055 205.963C191.966 205.602 191.758 205.44 190.808 204.791C189.168 205.462 186.051 205.848 184.219 206.273C176.088 208.162 169.539 208.857 161.272 209.456C156.815 212.927 155.492 215.467 154.325 220.87C154.702 221.644 155.16 222.658 155.571 223.388C159.222 225.225 161.996 225.471 163.634 229.842C165.554 234.968 170.018 235.356 174.917 234.535C181.019 233.511 187.45 232.298 193.418 230.62C198.076 229.266 199.584 227.202 201.768 223.132L200.598 221.388L200.69 221.067L200.862 221.049C201.465 220.981 201.994 220.887 202.555 220.637C200.493 215.654 194.548 209.637 193.055 205.963Z"/><path transform="translate(0 -24)" d="M204.768 234.493L204.304 233.571C190.704 238.292 175.297 241.608 161.763 246.14L162.714 246.668C165.457 245.496 175.388 243.114 178.796 242.257C182.622 240.981 187.07 239.783 191.021 238.532C195.516 237.072 200.267 236.021 204.768 234.493Z"/><path fill="#C68246" transform="translate(0 -24)" d="M110.983 261.094C108.51 259.908 98.501 262.398 97.704 264.522L97.546 265.222C101.167 264.579 107.394 262.331 110.983 261.094Z"/><path fill="#FEFEFE" transform="translate(0 -24)" d="M120.434 224.761C119.763 227.258 120.69 228.811 121.963 230.787L122.223 231.716C127.038 230.383 134.779 227.311 136.35 222.05C138.236 215.731 129.105 213.114 124.773 215.84C121.754 217.763 121.289 221.573 120.434 224.761Z"/><path fill="#F1D4B4" transform="translate(0 -24)" d="M118.608 225.645C117.665 226.27 117.698 233.447 122.223 231.716L121.963 230.787C121.669 231.009 121.589 231.103 121.491 231.13C121.387 231.158 121.262 231.111 120.836 231.061C119.971 230.374 119.736 230.014 119.076 229.138C119.028 227.969 119.061 226.709 118.608 225.645Z"/><path fill="#1B1D63" transform="translate(0 -24)" d="M162 40.9915C140.776 45.9797 120.009 52.9201 98.982 58.5865L58.0606 71.0197C51.558 72.9904 35.4618 77.701 30.1405 80.7202C31.7614 87.7552 33.7209 94.7428 36.1954 101.527C37.103 104.016 37.5989 104.814 40.2591 104.421L125.563 79.8529L149.146 72.7823C153.89 71.3763 159.145 70.0254 163.78 68.4337C164.795 68.4051 168.591 66.9864 169.701 66.592C170.319 66.2914 171.084 65.9146 171.599 65.4533C172.337 64.7906 172.595 63.7471 172.625 62.7866C172.678 61.1046 168.205 46.0714 167.233 43.8147C166.771 42.7405 166.242 41.8813 165.429 41.0421C164.543 40.6966 162.919 40.7756 162 40.9915Z"/><path fill="#4B56A5" transform="translate(0 -24)" d="M162 40.9915C140.776 45.9797 120.009 52.9201 98.982 58.5865C99.736 58.6942 100.712 58.9473 101.101 59.6533C103.748 64.4678 104.94 70.35 107.033 75.4424C108.093 78.0231 109.738 79.6713 111.08 81.9652C127.355 75.0997 145.39 71.7532 162.007 65.7692C162.676 65.5284 167.372 65.8177 168.32 65.9189L168.35 66.2276C166.892 67.4023 164.052 67.5257 163.78 68.4337C164.795 68.4051 168.591 66.9864 169.701 66.592C170.319 66.2914 171.084 65.9146 171.599 65.4533C172.337 64.7906 172.595 63.7471 172.625 62.7866C172.678 61.1046 168.205 46.0714 167.233 43.8147C166.771 42.7405 166.242 41.8813 165.429 41.0421C164.543 40.6966 162.919 40.7756 162 40.9915Z"/><path fill="#E2AC6A" transform="translate(0 -24)" d="M148.139 128.209C143.043 125.06 103.978 123.188 97.832 124.634C92.621 125.342 89.18 126.488 86.527 131.426C85.925 132.325 86.213 133.906 86.414 134.92C87.141 138.596 91.235 144.012 94.754 145.473C96.24 146.492 97.759 147.463 99.307 148.384C106.351 152.812 113.653 157.224 120.041 162.544C120.6 163.009 121.777 164.139 122.385 164.403L122.551 165.052C123.558 166.118 123.976 166.752 124.804 167.981C125.482 167.543 126.005 167.535 126.781 167.382C130.119 166.724 130.697 165.992 132.829 163.702C133.428 160.843 134.592 157.576 135.873 154.946C136.482 153.695 137.932 151.213 139.658 148.258C143.775 141.21 149.466 131.469 149.077 129.304C148.984 128.787 148.567 128.473 148.139 128.209Z"/><path fill="#D67B2E" transform="translate(0 -24)" d="M118.545 145.572C114.126 146.795 106.423 147.578 101.803 147.441C100.438 147.557 100.335 147.464 99.307 148.384C106.351 152.812 113.653 157.224 120.041 162.544C120.6 163.009 121.777 164.139 122.385 164.403L122.394 164.065C121.242 162.245 119.337 161.029 117.446 159.823C114.089 157.68 110.777 155.567 111.812 150.155C111.821 150.109 111.768 149.812 111.698 149.422C111.581 148.762 111.415 147.837 111.423 147.414C113.301 146.696 116.44 146.439 118.866 145.673L118.545 145.572Z"/><path fill="#C68246" transform="translate(0 -24)" d="M98.173 124.931L97.832 124.634C92.621 125.342 89.18 126.488 86.527 131.426C88.373 132.33 96.984 126.292 98.173 124.931Z"/><path fill="#C68246" transform="translate(0 -24)" d="M101.803 147.441C99.539 147.028 96.482 145.517 94.754 145.473C96.24 146.492 97.759 147.463 99.307 148.384C100.335 147.464 100.438 147.557 101.803 147.441Z"/><path fill="#FEFEFE" transform="translate(0 -24)" d="M124.804 167.981C123.976 166.752 123.558 166.118 122.551 165.052C120.159 166.552 111.748 166.792 110.507 169.66C111.194 170.664 113.711 170.635 115.964 170.61C117.342 170.594 118.622 170.579 119.325 170.803C119.733 170.933 121.459 173.116 121.882 173.523C123.185 172.957 124.625 172.399 125.783 171.598L125.969 171.039L124.804 167.981Z"/><path fill="#FEFEFE" transform="translate(0 -24)" d="M147.392 160.46C144.552 159.472 135.49 162.744 133.065 164.483C133.175 165.046 133.356 166.147 133.499 166.645C135.834 166.414 149.372 164.308 147.392 160.46Z"/><path fill="#AFAEAD" transform="translate(0 -24)" d="M114.438 105.126C113.314 102.311 112.952 101.404 109.398 101.789C107.859 102.285 106.65 102.517 105.814 104.075C104.064 107.332 106.913 111.064 110.449 111.03C112.631 109.458 113.628 108.118 114.618 105.574C114.556 105.419 114.496 105.27 114.438 105.126Z"/><path fill="#E73B38" transform="translate(0 -24)" d="M169.968 147.157C167.365 151.757 161.347 163.459 158.267 166.938L158.45 167.245L158.313 167.577C153.934 173.752 150.658 181.425 146.821 187.713C150.717 188.94 153.634 190.49 157.845 191.486C168.919 194.106 183.213 195.016 190.808 204.791C191.758 205.44 191.966 205.602 193.055 205.963C195.808 205.977 198.789 205.806 201.652 205.642C202.459 205.596 203.257 205.55 204.037 205.509C204.156 205.511 204.284 205.51 204.417 205.508C205.03 205.503 205.753 205.496 206.178 205.77C219.787 205.465 233.512 205.612 247.238 205.759C260.228 205.898 273.22 206.037 286.118 205.793C287.889 205.961 295.584 205.318 296.307 203.393C298.68 197.071 289.775 182.254 285.072 174.427C284.278 173.106 283.603 171.983 283.123 171.135L263.339 136.573L243.47 101.654C239.492 94.6764 235.577 87.568 231.205 80.6184C223.258 67.9864 217.764 66.1009 209.05 79.3511C203.79 87.3506 199.211 95.7694 194.462 104.155L169.968 147.157Z"/><path fill="#E25A49" transform="translate(0 -24)" d="M165.836 173.072C164 171.744 160.071 168.46 158.313 167.577C153.934 173.752 150.658 181.425 146.821 187.713C150.717 188.94 153.634 190.49 157.845 191.486C168.919 194.106 183.213 195.016 190.808 204.791C191.758 205.44 191.966 205.602 193.055 205.963C195.808 205.977 198.789 205.806 201.652 205.642C202.459 205.596 203.257 205.55 204.037 205.509C202.079 200.942 188.006 189.377 183.499 185.73C178.62 181.783 171.142 176.911 165.836 173.072Z"/><path fill="#FEFEFE" transform="translate(0 -24)" d="M219.375 105.234C219.028 105.241 218.681 105.263 218.336 105.298C216.22 105.967 214.113 107.214 213.089 109.275C210.986 113.511 213.496 151.626 215.479 157.251C215.96 158.64 216.987 159.773 218.323 160.386C219.701 161.006 220.468 160.883 221.821 160.388C223.055 159.156 224.771 157.035 225.067 155.268C226.948 144.01 227.783 131.906 227.99 120.48C227.997 120.093 228.006 119.703 228.015 119.31C228.169 112.457 228.336 105.036 219.375 105.234Z"/><path fill="#CB1413" transform="translate(0 -24)" d="M221.893 79.7574C221.042 79.7527 220.176 79.7478 219.362 79.7699C217.559 80.4079 216.657 80.7713 215.27 82.0767L215.293 82.4152C216.043 82.7119 216.946 82.6789 217.82 82.647C219.001 82.6039 220.128 82.5627 220.752 83.3385C223.867 87.2111 226.671 92.4921 229.129 96.7853L240.562 116.874L274.888 176.527C278.801 183.375 282.638 191.383 286.449 197.838C287.125 198.589 286.801 198.428 287.658 198.593C290.373 197.456 289.432 193.618 288.448 191.616C281.645 177.778 272.999 164.463 265.393 151.064L239.08 105.185C236.829 101.224 234.612 97.2438 232.432 93.2437C229.797 88.3688 227.575 83.219 223.073 79.7612C222.688 79.7618 222.292 79.7596 221.893 79.7574Z"/><path fill="#FEFEFE" transform="translate(0 -24)" d="M224.575 169.838C222.598 168.568 220.48 168.325 218.181 168.552C206.86 172.162 210.361 185.258 221.578 183.888C226.166 183.002 229.201 179.882 228.166 174.99C227.708 172.861 226.414 171.005 224.575 169.838Z"/><path fill="#E3E1E0" transform="translate(0 -24)" d="M204.417 205.508C204.284 205.51 204.156 205.511 204.037 205.509C203.257 205.55 202.459 205.596 201.652 205.642C198.789 205.806 195.808 205.977 193.055 205.963C194.548 209.637 200.493 215.654 202.555 220.637C204.395 221.467 207.633 230.293 208.557 232.242L211.283 231.613C212.353 231.26 215.522 230.427 216.243 229.91C216.065 229.377 215.564 227.084 215.47 226.457C214.318 218.711 208.509 212.733 206.178 205.77C205.753 205.496 205.03 205.503 204.417 205.508Z"/></g></svg>