<?xml version="1.0" encoding="utf-8" ?><svg xmlns="http://www.w3.org/2000/svg" xmlns:xlink="http://www.w3.org/1999/xlink" width="1006" height="859" viewBox="0 0 1006 859"><path fill="#92D0F9" transform="translate(0.000976562 0.000244141)" d="M725.526 83.961C804.417 67.3866 877.55 103.602 897.64 185.97C912.215 245.735 882.791 290.622 852.619 336.65L852.618 336.651C846.01 346.729 839.368 356.865 833.144 367.22C812.841 401.009 776.273 429.083 737.531 437.894C710.923 443.577 689.174 447.398 661.793 446.859C632.334 477.165 561.164 493.275 561.854 431.714C561.953 422.828 570.126 408.622 574.37 400.514C559.154 389.124 544.987 361.924 540.211 343.273C529.125 299.975 541.665 263.679 563.096 226.165C573.784 207.455 587.756 188.129 598.242 170.644C633.52 111.835 661.538 100.841 725.526 83.961ZM675.238 235.786C664.011 253.422 656.085 265.828 648.744 285.291C646.803 291.154 645.204 296.224 642.583 301.832C645.749 301.52 649.355 301.049 653.248 300.539L653.25 300.539C680.185 297.013 720.893 291.684 725.339 325.876C726.076 331.552 724.831 341.424 722.765 346.845C723.833 347.429 724.579 347.362 725.651 347.265L725.655 347.263C725.852 347.245 726.059 347.227 726.282 347.211C727.618 345.873 728.879 344.464 730.057 342.983C750.99 316.408 775.957 269.694 790.015 238.513C802.385 211.073 766.125 155.612 733.344 160.089C707.94 180.97 693.004 208.191 675.238 235.786Z"/><path fill="#1686D4" transform="translate(0.000976562 0.000244141)" d="M725.526 83.961C804.417 67.3866 877.55 103.602 897.64 185.97C912.215 245.735 882.791 290.622 852.619 336.65L852.618 336.651C846.01 346.729 839.368 356.865 833.144 367.22C812.841 401.009 776.273 429.083 737.531 437.894C738.928 430.673 767.903 411.339 774.379 402.375C779.763 394.918 785.464 387.307 791.28 379.539L791.283 379.536L791.284 379.534C834.875 321.323 884.947 254.457 857.294 180.006C842.528 140.257 809.385 105.056 768.012 93.889C754.767 90.3147 737.991 89.8504 726.101 84.2326L725.526 83.961Z"/><path fill="#3AAEEC" transform="translate(0.000976562 0.000244141)" d="M574.37 400.514C582.245 394.944 605.566 355.77 611.625 345.569C625.187 369.942 638.765 390.715 667.777 400.577C670.109 401.369 672.404 401.506 674.549 401.635C678.35 401.866 681.674 402.066 683.88 405.825C684.045 406.113 684.208 406.403 684.364 406.694C680.031 414.051 663.135 440.89 661.793 446.859C632.334 477.165 561.164 493.275 561.854 431.714C561.953 422.828 570.126 408.622 574.37 400.514Z"/><defs><linearGradient id="gradient_0" gradientUnits="userSpaceOnUse" x1="119.107" y1="57.830799" x2="101.476" y2="57.010101"><stop offset="0" stop-color="#1485D1"/><stop offset="1" stop-color="#38AEE8"/></linearGradient></defs><path fill="url(#gradient_0)" transform="translate(0.000976562 0.000244141)" d="M642.583 301.832C645.749 301.52 649.355 301.049 653.248 300.539L653.25 300.539C680.185 297.013 720.893 291.684 725.339 325.876C726.076 331.552 724.831 341.424 722.765 346.845C720.946 348.155 689.283 399.048 684.364 406.694C684.208 406.403 684.045 406.113 683.88 405.825C681.674 402.066 678.35 401.866 674.549 401.635C672.404 401.506 670.109 401.369 667.777 400.577C638.765 390.715 625.187 369.942 611.625 345.569C613.641 340.334 613.81 339.219 614.264 333.729C625.714 324.447 634.112 305.972 642.583 301.832Z"/><path fill="#1686D4" transform="translate(0.000976562 0.000244141)" d="M649.506 228.601C670.676 191.651 686.269 161.893 733.344 160.089C707.94 180.97 693.004 208.191 675.238 235.786C667.764 232.545 657.56 229.21 649.506 228.601Z"/><path fill="#3AAEEC" transform="translate(0.000976562 0.000244141)" d="M649.506 228.601C657.56 229.21 667.764 232.545 675.238 235.786C664.011 253.422 656.085 265.828 648.744 285.291C638.795 281.809 629.169 279.579 619.177 276.442C629.03 260.332 639.134 244.385 649.506 228.601Z"/><path fill="#1686D4" transform="translate(0.000976562 0.000244141)" d="M619.177 276.442C629.169 279.579 638.795 281.809 648.744 285.291C646.803 291.154 645.204 296.224 642.583 301.832C634.112 305.972 625.714 324.447 614.264 333.729C607.588 309.238 607.129 299.014 619.177 276.442Z"/><path fill="#92D0F9" transform="translate(0.000976562 0.000244141)" d="M119.984 530.248C129.712 506.869 157.168 468.802 180.007 455.303C222.901 432.157 280.261 417.663 328.15 409.872C391.241 399.611 437.392 424.61 471.859 475.543C488.172 473.343 505.806 471.801 519.846 482.497C526.654 487.616 531.086 495.284 532.13 503.744C534.208 519.622 525.359 535.63 516.395 548.153C507.979 558.747 497.196 567.217 484.916 572.881C476.208 599.49 468.857 617.687 453.587 641.262C426.078 688.433 373.624 709.973 322.151 719.292C319.075 720.068 316.029 720.846 313.012 721.615L313.01 721.615L313.008 721.616C263.023 734.366 220.764 745.146 171.445 717.639C140.079 699.861 116.919 670.479 106.935 635.804C96.5593 598.932 101.404 563.442 119.984 530.248ZM279.576 522.11C251.76 529.134 219.501 536.879 195.355 552.044C192.542 558.743 193.342 570.963 195.229 578.055C213.615 647.221 267.747 631.572 318.507 616.898L318.51 616.897C333.757 612.491 348.701 608.173 362.28 606.264C366.299 605.704 369.503 605.132 373.395 604.106L374.75 602.004C374.265 601.436 372.927 599.763 372.402 599.47C357.673 599.339 340.327 588.619 336.247 573.952C332.462 560.347 336.5 549.484 342.906 537.589C346.406 531.093 354.701 518.292 355.226 511.822C351.445 511.735 344.04 510.45 339.997 509.853C321.66 512.378 297.843 517.523 279.576 522.11Z"/><path fill="#3AAEEC" transform="translate(0.000976562 0.000244141)" d="M471.859 475.543C488.172 473.343 505.806 471.801 519.846 482.497C526.654 487.616 531.086 495.284 532.13 503.744C534.208 519.622 525.359 535.63 516.395 548.153C507.979 558.747 497.196 567.217 484.916 572.881C475.849 573.489 376.942 595.962 372.402 599.47C357.673 599.339 340.327 588.619 336.247 573.952C332.462 560.347 336.5 549.484 342.906 537.589C346.406 531.093 354.701 518.292 355.226 511.822C360.341 502.907 386.019 501.34 397.755 494.549C407.698 496.806 462.704 481.227 471.859 475.543Z"/><path fill="#1686D4" transform="translate(0.000976562 0.000244141)" d="M372.402 599.47C357.673 599.339 340.327 588.619 336.247 573.952C332.462 560.347 336.5 549.484 342.906 537.589C351.961 552.578 358.575 563.953 371.895 575.79C402.808 573.486 428.111 567.301 457.792 558.611C460.413 557.844 463.593 556.803 467.113 555.646L467.122 555.643L467.127 555.642L467.133 555.64C483.135 550.393 506.204 542.828 516.395 548.153C507.979 558.747 497.196 567.217 484.916 572.881C475.849 573.489 376.942 595.962 372.402 599.47Z"/><path fill="#1686D4" transform="translate(0.000976562 0.000244141)" d="M119.984 530.248C120.078 530.392 120.17 530.534 120.262 530.677C124.555 536.178 123.146 546.531 122.177 553.449C112.652 621.443 159.878 684.253 225.916 699.71C260.225 707.742 290.259 700.224 325.608 691.19C326.057 699.589 325.092 704.213 323.871 710.051L323.87 710.053C323.312 712.721 322.704 715.642 322.151 719.292C319.075 720.068 316.029 720.846 313.012 721.615L313.01 721.615L313.008 721.616C263.023 734.366 220.764 745.146 171.445 717.639C140.079 699.861 116.919 670.479 106.935 635.804C96.5593 598.932 101.404 563.442 119.984 530.248Z"/><path fill="#3AAEEC" transform="translate(0.000976562 0.000244141)" d="M325.608 691.19C349.637 681.889 387.768 677.198 413.31 665.152C425.227 659.535 444.015 641.942 453.587 641.262C426.078 688.433 373.624 709.973 322.151 719.292C322.704 715.642 323.312 712.721 323.87 710.053L323.871 710.051C325.092 704.213 326.057 699.589 325.608 691.19Z"/><path fill="#1686D4" transform="translate(0.000976562 0.000244141)" d="M195.355 552.044C198.682 514.509 248.259 503.799 278.159 496.164C278.161 497.049 278.146 498.133 278.129 499.352L278.126 499.59L278.125 499.627L278.125 499.634L278.12 499.965C278.016 507.073 277.854 518.177 279.576 522.11C251.76 529.134 219.501 536.879 195.355 552.044Z"/><path fill="#3AAEEC" transform="translate(0.000976562 0.000244141)" d="M278.159 496.164C296.654 491.177 320.214 484.175 338.538 480.741C338.617 482.438 338.823 485.409 339.065 488.829L339.065 488.837L339.067 488.864C339.635 496.975 340.379 507.6 339.997 509.853C321.66 512.378 297.843 517.523 279.576 522.11C277.854 518.177 278.016 507.073 278.12 499.965L278.125 499.634L278.125 499.627L278.126 499.59L278.129 499.352C278.146 498.133 278.161 497.049 278.159 496.164Z"/><path fill="#1686D4" transform="translate(0.000976562 0.000244141)" d="M338.538 480.741C365.223 476.903 373.96 481.54 397.755 494.549C386.019 501.34 360.341 502.907 355.226 511.822C351.445 511.735 344.04 510.45 339.997 509.853C340.379 507.6 339.635 496.975 339.067 488.864L339.065 488.837L339.065 488.829C338.823 485.409 338.617 482.438 338.538 480.741Z"/><path fill="#F3952F" transform="translate(0.000976562 0.000244141)" d="M552.394 669.795C590.102 667.014 590.579 703.29 589.999 731.549C589.935 734.694 589.943 737.852 589.952 740.992L589.952 741.117C590.008 762.694 590.062 783.417 567.11 793.113C536.52 797.141 530.264 765.719 531.182 742.324C531.365 737.672 531.311 732.779 531.255 727.796L531.255 727.794C531.005 705.224 530.736 680.894 552.394 669.795Z"/><path fill="#F3952F" transform="translate(0.000976562 0.000244141)" d="M240.166 303.091C264.456 304.594 296.913 315.258 318.446 326.802C342.538 339.717 345.126 372.299 313.975 379.224C292.388 378.555 260.481 366.433 240.637 357.189C210.03 342.932 200.865 313.438 240.166 303.091Z"/><path fill="#F3952F" transform="translate(0.000976562 0.000244141)" d="M701.531 652.894C727.691 652.156 775.867 705.824 782.849 731.131C776.527 746.455 771.836 750.289 756.786 757.629C743.946 757.338 628.384 676.011 701.531 652.894Z"/><path fill="#F3952F" transform="translate(0.000976562 0.000244141)" d="M734.057 510.733C758.301 516.501 786.891 526.98 809.016 538.61C836.165 552.878 831.358 583.296 800.812 590.176C777.151 587.259 670.543 558.949 715.631 519.793C720.587 515.488 727.672 512.298 734.057 510.733Z"/><path fill="#F3952F" transform="translate(0.000976562 0.000244141)" d="M285.805 148.589C316.371 153.924 341.052 179.983 360.411 202.492C379.26 224.401 372.804 236.441 352.282 251.697C333.722 253.415 314.843 235.86 299.981 222.039L299.979 222.037C296.728 219.015 293.668 216.17 290.849 213.746C268.226 194.305 252.449 166.916 285.805 148.589Z"/><path fill="#F3952F" transform="translate(0.000976562 0.000244141)" d="M488.113 108.893C499.733 109.594 503.324 112.076 512.99 118.706C521.278 134.045 521.146 151.798 521.017 169.095L521.017 169.125L521.016 169.16L521.014 169.394C520.993 172.217 520.973 175.028 520.992 177.815C520.995 178.138 520.997 178.462 520.999 178.787L520.999 178.791C521.145 200.133 521.328 226.942 497.636 235.043L480.904 231.792C474.964 227.067 473.481 225.349 468.749 219.37C464.412 201.825 464.611 183.572 464.809 165.561C464.836 163.008 464.865 160.462 464.878 157.92C464.883 157.104 464.888 156.3 464.891 155.506C465.004 132.236 465.064 119.578 488.113 108.893Z"/></svg>