<?xml version="1.0" encoding="utf-8" ?><svg xmlns="http://www.w3.org/2000/svg" xmlns:xlink="http://www.w3.org/1999/xlink" width="1006" height="859" viewBox="0 0 1006 859"><defs><linearGradient id="gradient_0" gradientUnits="userSpaceOnUse" x1="985.23102" y1="634.19202" x2="951.841" y2="489.297"><stop offset="0" stop-color="#B8B7BC"/><stop offset="1" stop-color="#E3E4E0"/></linearGradient></defs><path fill="url(#gradient_0)" transform="translate(0.000488281 0.000244141)" d="M123.463 592.147C147.577 590.7 171.022 604.633 173.517 630.134C187.607 632.475 195.78 637.766 205.728 647.789C217.38 646.693 226.003 646.475 236.956 651.606C256.333 660.68 264.61 682.615 254.91 701.9C249.82 712.066 240.813 719.723 229.966 723.11C216.5 727.451 204.434 725.715 192.04 719.469C178.897 734.253 160.683 742.338 141.386 745.059C117.204 749.333 95.641 741.972 75.8668 728.455C57.232 738.805 34.195 740.967 17.6967 725.234C10.2427 718.194 5.9219 708.461 5.69866 698.207C5.38879 674.894 23.3987 659.006 45.9954 657.465C48.1746 657.316 50.4782 657.342 52.7187 657.368C53.2945 657.375 53.8643 657.381 54.428 657.385C65.3425 646.958 66.8154 640.89 83.2281 635.556C84.1251 625.451 85.1158 618.062 91.5791 609.705C99.869 598.988 110.3 593.891 123.463 592.147Z"/><defs><linearGradient id="gradient_1" gradientUnits="userSpaceOnUse" x1="985.23102" y1="634.19202" x2="951.841" y2="489.297"><stop offset="0" stop-color="#B8B7BC"/><stop offset="1" stop-color="#E3E4E0"/></linearGradient></defs><path fill="url(#gradient_1)" transform="translate(0.000488281 0.000244141)" d="M347.278 63.3799C343.146 21.1281 304.323 -1.95705 264.391 0.440694C242.596 3.33013 225.322 11.7753 211.595 29.5311C200.891 43.3768 199.251 55.6205 197.766 72.3624C170.588 81.2014 168.148 91.2536 150.074 108.53C149.142 108.524 148.198 108.513 147.244 108.503C143.534 108.459 139.72 108.417 136.111 108.662C98.6924 111.215 68.8694 137.538 69.3826 176.166C69.7521 193.154 76.907 209.281 89.2505 220.945C116.57 247.012 154.718 243.43 185.576 226.28C218.321 248.677 254.027 260.872 294.071 253.792C326.026 249.284 356.187 235.888 377.952 211.394C398.475 221.741 418.455 224.617 440.754 217.425C458.715 211.814 473.631 199.128 482.057 182.284C498.121 150.332 484.417 113.99 452.328 98.9538C434.192 90.4544 419.912 90.816 400.618 92.6309C384.142 76.0241 370.611 67.2578 347.278 63.3799Z"/><path fill="#92D0F9" transform="translate(0.000488281 0.000244141)" d="M896.914 185.787C876.839 103.5 803.766 67.32 724.938 83.8779C661.002 100.742 633.007 111.724 597.759 170.476C587.279 187.943 573.319 207.251 562.64 225.94C541.227 263.418 528.696 299.678 539.773 342.934C544.546 361.567 558.701 388.74 573.905 400.118C569.664 408.217 561.497 422.411 561.398 431.288C560.71 492.786 631.821 476.694 661.256 446.418C688.616 446.954 710.347 443.139 736.934 437.462C775.645 428.659 812.184 400.613 832.469 366.857C838.688 356.511 845.326 346.387 851.928 336.318C882.076 290.335 911.477 245.492 896.914 185.787ZM648.219 285.009C655.554 265.564 663.474 253.17 674.692 235.552C692.443 207.984 707.367 180.79 732.75 159.93C765.504 155.459 801.735 210.863 789.376 238.276C775.33 269.427 750.381 316.096 729.466 342.644C728.288 344.122 727.03 345.531 725.694 346.868C725.471 346.883 725.264 346.902 725.067 346.92C723.993 347.017 723.249 347.085 722.18 346.503C724.243 341.085 725.488 331.225 724.751 325.555C720.308 291.395 679.633 296.719 652.722 300.242L652.72 300.242C648.83 300.752 645.227 301.223 642.064 301.533C644.682 295.93 646.278 290.866 648.219 285.009Z"/><path fill="#1686D4" transform="translate(0.000488281 0.000244141)" d="M896.914 185.787C876.839 103.5 803.766 67.32 724.938 83.8779L725.513 84.1492C737.394 89.7616 754.155 90.2253 767.391 93.796C808.731 104.951 841.847 140.119 856.601 179.829C884.23 254.207 834.197 321.008 790.641 379.162L790.639 379.164C784.828 386.923 779.133 394.528 773.752 401.976C767.282 410.931 738.331 430.247 736.934 437.462C775.645 428.659 812.184 400.613 832.469 366.857C838.688 356.511 845.326 346.387 851.928 336.318C882.076 290.335 911.477 245.492 896.914 185.787Z"/><path fill="#3AAEEC" transform="translate(0.000488281 0.000244141)" d="M611.13 345.227C605.077 355.419 581.774 394.554 573.905 400.118C569.664 408.217 561.497 422.411 561.398 431.288C560.71 492.786 631.821 476.694 661.256 446.418C662.598 440.455 679.48 413.641 683.809 406.292C683.653 406.001 683.49 405.711 683.326 405.423C681.122 401.667 677.801 401.468 674.003 401.239C671.86 401.11 669.566 400.973 667.237 400.181C638.249 390.328 624.68 369.576 611.13 345.227Z"/><defs><linearGradient id="gradient_2" gradientUnits="userSpaceOnUse" x1="119.107" y1="57.830799" x2="101.476" y2="57.010101"><stop offset="0" stop-color="#1485D1"/><stop offset="1" stop-color="#38AEE8"/></linearGradient></defs><path fill="url(#gradient_2)" transform="translate(0.000488281 0.000244141)" d="M652.72 300.242C648.83 300.752 645.227 301.223 642.064 301.533C633.599 305.669 625.207 324.126 613.766 333.399C613.312 338.883 613.143 339.998 611.13 345.227C624.68 369.576 638.249 390.328 667.237 400.181C669.566 400.973 671.86 401.11 674.003 401.239C677.801 401.468 681.122 401.667 683.326 405.423C683.49 405.711 683.653 406.001 683.809 406.292C688.725 398.652 720.361 347.81 722.18 346.503C724.243 341.085 725.488 331.225 724.751 325.555C720.308 291.395 679.633 296.719 652.722 300.242L652.72 300.242Z"/><path fill="#1686D4" transform="translate(0.000488281 0.000244141)" d="M732.75 159.93C685.714 161.734 670.133 191.462 648.981 228.376C657.028 228.982 667.224 232.314 674.692 235.552C692.443 207.984 707.367 180.79 732.75 159.93Z"/><path fill="#3AAEEC" transform="translate(0.000488281 0.000244141)" d="M674.692 235.552C667.224 232.314 657.028 228.982 648.981 228.376C638.617 244.142 628.52 260.074 618.676 276.169C628.659 279.303 638.279 281.53 648.219 285.009C655.554 265.564 663.474 253.17 674.692 235.552Z"/><path fill="#1686D4" transform="translate(0.000488281 0.000244141)" d="M648.219 285.009C638.279 281.53 628.659 279.303 618.676 276.169C606.637 298.717 607.096 308.932 613.766 333.399C625.207 324.126 633.599 305.669 642.064 301.533C644.682 295.93 646.278 290.866 648.219 285.009Z"/><path fill="#92D0F9" transform="translate(0.000488281 0.000244141)" d="M179.86 454.853C157.042 468.337 129.607 506.368 119.888 529.723C101.323 562.884 96.481 598.339 106.848 635.174C116.823 669.816 139.965 699.168 171.307 716.928C220.586 744.409 262.812 733.639 312.758 720.901L312.759 720.901C315.774 720.132 318.817 719.356 321.89 718.581C373.321 709.271 425.733 687.752 453.221 640.628C468.476 617.075 475.823 598.896 484.523 572.314C496.794 566.656 507.568 558.195 515.978 547.61C524.933 535.099 533.776 519.109 531.698 503.246C530.657 494.795 526.228 487.133 519.426 482.02C505.396 471.333 487.776 472.875 471.478 475.072C437.038 424.19 390.923 399.215 327.883 409.467C280.033 417.249 222.721 431.729 179.86 454.853ZM195.196 551.498C219.324 536.348 251.556 528.611 279.351 521.594C297.603 517.01 321.399 511.871 339.721 509.349C343.761 509.946 351.16 511.228 354.938 511.315C354.413 517.779 346.126 530.568 342.627 537.058C336.227 548.941 332.192 559.792 335.974 573.385C340.051 588.037 357.383 598.745 372.101 598.876C372.624 599.169 373.962 600.842 374.447 601.409L373.092 603.509C369.203 604.533 366.002 605.104 361.986 605.664C348.419 607.57 333.487 611.885 318.252 616.288L318.249 616.289C267.531 630.948 213.441 646.582 195.07 577.482C193.186 570.399 192.386 558.191 195.196 551.498Z"/><path fill="#3AAEEC" transform="translate(0.000488281 0.000244141)" d="M519.426 482.02C505.396 471.333 487.776 472.875 471.478 475.072C462.329 480.75 407.368 496.314 397.434 494.06C385.707 500.845 360.05 502.409 354.938 511.315C354.413 517.779 346.126 530.568 342.627 537.058C336.227 548.941 332.192 559.792 335.974 573.385C340.051 588.037 357.383 598.745 372.101 598.876C376.636 595.372 475.465 572.922 484.523 572.314C496.794 566.656 507.568 558.195 515.978 547.61C524.933 535.099 533.776 519.109 531.698 503.246C530.657 494.795 526.228 487.133 519.426 482.02Z"/><path fill="#1686D4" transform="translate(0.000488281 0.000244141)" d="M335.974 573.385C340.051 588.037 357.383 598.745 372.101 598.876C376.636 595.372 475.465 572.922 484.523 572.314C496.794 566.656 507.568 558.195 515.978 547.61C505.791 542.29 482.734 549.851 466.744 555.094L466.735 555.097C463.218 556.251 460.041 557.292 457.421 558.059C427.763 566.74 402.481 572.919 371.595 575.22C358.284 563.395 351.676 552.032 342.627 537.058C336.227 548.941 332.192 559.792 335.974 573.385Z"/><path fill="#1686D4" transform="translate(0.000488281 0.000244141)" d="M120.166 530.152C120.074 530.009 119.982 529.867 119.888 529.723C101.323 562.884 96.481 598.339 106.848 635.174C116.823 669.816 139.965 699.168 171.307 716.928C220.586 744.409 262.812 733.639 312.758 720.901L312.759 720.901C315.774 720.132 318.817 719.356 321.89 718.581C322.443 714.934 323.051 712.016 323.609 709.351L323.61 709.349C324.828 703.517 325.793 698.897 325.344 690.506C290.025 699.531 260.015 707.043 225.733 699.017C159.749 683.575 112.562 620.828 122.078 552.901C123.047 545.991 124.453 535.647 120.166 530.152Z"/><path fill="#3AAEEC" transform="translate(0.000488281 0.000244141)" d="M412.974 664.495C387.453 676.529 349.355 681.214 325.344 690.506C325.793 698.897 324.828 703.517 323.61 709.349L323.609 709.351C323.051 712.016 322.443 714.934 321.89 718.581C373.321 709.271 425.733 687.752 453.221 640.628C443.655 641.306 424.882 658.883 412.974 664.495Z"/><path fill="#1686D4" transform="translate(0.000488281 0.000244141)" d="M277.934 495.672C248.058 503.301 198.52 513.999 195.196 551.498C219.324 536.348 251.556 528.611 279.351 521.594C277.629 517.664 277.791 506.572 277.895 499.47L277.9 499.139L277.9 499.132C277.919 497.802 277.936 496.623 277.934 495.672Z"/><path fill="#3AAEEC" transform="translate(0.000488281 0.000244141)" d="M338.265 480.265C319.956 483.695 296.414 490.691 277.934 495.672C277.936 496.623 277.919 497.802 277.9 499.132L277.9 499.139L277.895 499.47C277.791 506.572 277.629 517.664 279.351 521.594C297.603 517.01 321.399 511.871 339.721 509.349C340.104 507.095 339.358 496.452 338.79 488.346C338.55 484.929 338.344 481.961 338.265 480.265Z"/><path fill="#1686D4" transform="translate(0.000488281 0.000244141)" d="M397.434 494.06C373.657 481.063 364.926 476.432 338.265 480.265C338.344 481.961 338.55 484.929 338.79 488.346C339.358 496.452 340.104 507.095 339.721 509.349C343.761 509.946 351.16 511.228 354.938 511.315C360.05 502.409 385.707 500.845 397.434 494.06Z"/><path fill="#F3952F" transform="translate(0.000488281 0.000244141)" d="M589.522 730.826C590.102 702.594 589.625 666.354 551.947 669.132C530.306 680.22 530.576 704.527 530.826 727.076C530.882 732.053 530.936 736.943 530.753 741.589C529.835 764.961 536.085 796.352 566.651 792.327C589.585 782.642 589.531 761.938 589.475 740.385L589.475 740.26C589.466 737.123 589.458 733.968 589.522 730.826Z"/><path fill="#F3952F" transform="translate(0.000488281 0.000244141)" d="M318.188 326.478C296.673 314.946 264.243 304.294 239.971 302.791C200.703 313.129 209.859 342.593 240.442 356.835C260.271 366.07 292.151 378.18 313.72 378.849C344.847 371.93 342.262 339.381 318.188 326.478Z"/><path fill="#F3952F" transform="translate(0.000488281 0.000244141)" d="M782.216 730.408C775.24 705.125 727.103 651.511 700.964 652.249C627.874 675.342 743.343 756.588 756.174 756.879C771.212 749.548 775.898 745.717 782.216 730.408Z"/><path fill="#F3952F" transform="translate(0.000488281 0.000244141)" d="M808.362 538.076C786.255 526.458 757.686 515.991 733.463 510.229C727.084 511.791 720.004 514.978 715.052 519.28C670 558.397 776.521 586.677 800.164 589.591C830.686 582.72 835.487 552.332 808.362 538.076Z"/><path fill="#F3952F" transform="translate(0.000488281 0.000244141)" d="M360.12 202.291C340.776 179.806 316.116 153.771 285.574 148.442C252.245 166.751 268.01 194.113 290.613 213.535C293.431 215.957 296.488 218.799 299.736 221.818L299.738 221.82C314.588 235.626 333.452 253.163 351.997 251.448C372.501 236.207 378.954 224.179 360.12 202.291Z"/><path fill="#F3952F" transform="translate(0.000488281 0.000244141)" d="M512.576 118.589C502.916 111.965 499.328 109.486 487.717 108.785C464.687 119.461 464.627 132.104 464.516 155.353C464.513 156.144 464.508 156.948 464.503 157.764C464.489 160.303 464.461 162.846 464.434 165.396C464.236 183.389 464.037 201.624 468.37 219.154C473.097 225.127 474.58 226.842 480.514 231.564L497.234 234.811C520.906 226.717 520.722 199.934 520.576 178.613L520.576 178.61C520.574 178.285 520.572 177.961 520.569 177.638C520.55 174.777 520.572 171.891 520.593 168.992L520.594 168.957L520.594 168.93C520.723 151.65 520.856 133.914 512.576 118.589Z"/><defs><linearGradient id="gradient_3" gradientUnits="userSpaceOnUse" x1="985.23102" y1="634.19202" x2="951.841" y2="489.297"><stop offset="0" stop-color="#B8B7BC"/><stop offset="1" stop-color="#E3E4E0"/></linearGradient></defs><path fill="url(#gradient_3)" transform="translate(0.000488281 0.000244141)" d="M269.956 728.565C289.795 727.375 309.082 738.838 311.135 759.817C322.727 761.742 329.449 766.095 337.635 774.341C347.221 773.439 354.314 773.261 363.325 777.48C379.266 784.947 386.076 802.991 378.095 818.857C373.908 827.221 366.497 833.519 357.575 836.306C346.497 839.877 336.57 838.449 326.374 833.311C315.561 845.473 300.577 852.125 284.701 854.364C264.807 857.879 247.067 851.824 230.8 840.703C215.469 849.219 196.517 850.997 182.944 838.054C176.812 832.262 173.258 824.254 173.074 815.819C172.818 796.64 187.635 783.569 206.225 782.3C208.018 782.179 209.913 782.2 211.757 782.222C212.23 782.226 212.698 782.232 213.163 782.235C222.142 773.658 223.353 768.666 236.856 764.277C237.593 755.964 238.409 749.885 243.727 743.009C250.546 734.193 259.128 730 269.956 728.565Z"/><defs><linearGradient id="gradient_4" gradientUnits="userSpaceOnUse" x1="985.23102" y1="634.19202" x2="951.841" y2="489.297"><stop offset="0" stop-color="#B8B7BC"/><stop offset="1" stop-color="#E3E4E0"/></linearGradient></defs><path fill="url(#gradient_4)" transform="translate(0.000488281 0.000244141)" d="M871.107 567.655C890.946 566.465 910.233 577.928 912.286 598.907C923.878 600.832 930.6 605.185 938.786 613.431C948.372 612.529 955.465 612.351 964.476 616.57C980.417 624.037 987.227 642.081 979.246 657.948C975.059 666.311 967.648 672.609 958.726 675.396C947.648 678.967 937.721 677.539 927.526 672.401C916.712 684.563 901.728 691.215 885.852 693.454C865.958 696.969 848.218 690.914 831.951 679.793C816.62 688.309 797.668 690.087 784.095 677.144C777.963 671.352 774.409 663.344 774.225 654.909C773.969 635.73 788.786 622.659 807.376 621.39C809.169 621.269 811.064 621.29 812.908 621.312C813.381 621.316 813.849 621.322 814.314 621.325C823.293 612.748 824.504 607.756 838.007 603.367C838.744 595.054 839.56 588.974 844.878 582.099C851.697 573.283 860.279 569.09 871.107 567.655Z"/></svg>