<?xml version="1.0" encoding="utf-8" ?><svg xmlns="http://www.w3.org/2000/svg" xmlns:xlink="http://www.w3.org/1999/xlink" width="1536" height="768" viewBox="0 0 1536 768"><path fill="#BF6408" d="M0.485779 0L1536 0L1536 767.521L0.485779 767.521L0.485779 0Z"/><path fill="#FFAB5C" d="M1536 767.521L1536 598.872C1500.61 565.114 1465.97 540.771 1419.69 523.109C1398.55 514.466 1370.69 507.561 1348.12 503.728C1239.31 485.324 1143.31 515.833 1055.59 579.776C1022.04 604.232 991.197 630.577 958.098 655.445C944.952 665.323 925.349 679.812 910.792 687.589C831.977 735.068 739.752 753.281 649.153 762.43C618.997 765.477 586.159 767.077 555.864 765.891C518.525 764.68 481.425 759.443 445.209 750.273C431.277 746.82 401.539 739.2 388.932 734.219C384.494 733.643 358.009 724.43 353.253 722.57C340.455 718.607 325.396 712.413 312.76 707.456C304.418 704.183 296.031 700.786 287.604 697.373C213.298 667.277 135.858 635.912 58.105 677.12C32.0335 690.938 15.5319 706.734 0.485779 731.904L0.485779 767.521L1536 767.521Z"/><path fill="#F27F0D" d="M573.881 0L0.485779 0L0.485779 367.077C38.0329 363.361 63.3652 364.599 101.113 366.986C193.411 373.393 272.731 345.094 313.164 255.166C330.09 217.521 333.444 184.006 368.682 154.233C392.966 132.567 422.233 126.732 452.926 118.59C511.523 103.044 564.819 63.8923 573.881 0Z"/><defs><linearGradient id="gradient_0" gradientUnits="userSpaceOnUse" x1="127.058" y1="103.444" x2="215.51801" y2="210.03999"><stop offset="0" stop-color="#8A4006"/><stop offset="1" stop-color="#C45608"/></linearGradient></defs><path fill="url(#gradient_0)" d="M363.148 0L0.485779 0L0.485779 339.199C38.0939 325.082 54.6112 305.452 73.4045 271.201C82.2276 250.32 87.6255 237.528 101.627 219.024C128.825 183.079 162.229 161.936 206.994 155.758C227.519 152.667 245.396 155.531 266.308 151.248C302.799 143.776 329.85 122.316 350.214 91.8574C368.376 62.5045 371.63 32.9675 363.148 0Z"/><path fill="#8F4B06" d="M248.911 0L0.485779 0L0.485779 238.83C34.8152 227.905 67.1823 205.536 84.2303 173.178C97.2091 148.544 99.4794 138.247 121.175 118.041C147.042 93.9481 172.405 92.96 199.51 75.1107C226.743 57.1772 242.462 31.6319 248.911 0Z"/><path fill="#DD7F10" d="M73.4045 271.201C82.2276 250.32 87.6255 237.528 101.627 219.024C128.825 183.079 162.229 161.936 206.994 155.758C189.372 212.794 152.668 249.346 94.8068 266.18C87.7348 268.237 80.4107 269.319 73.4045 271.201Z"/><path fill="#DD7F10" d="M449.573 0L363.148 0C371.63 32.9675 368.376 62.5045 350.214 91.8574C401.779 76.7204 434.825 53.5242 449.573 0Z"/><path fill="#FD5E03" d="M0.485779 534.044C35.38 509.322 71.9953 500.296 114.202 500.217C221.63 500.017 317.381 560.796 399.776 623.663C417.691 637.565 435.877 651.112 454.325 664.299C459.615 668.036 470.225 675.865 475.4 678.554L475.367 678.951C478.838 680.521 481.267 681.948 484.798 683.544L485.351 684.208C486.68 685.434 488.007 686.143 489.417 687.25L490.06 687.172C493.612 689.036 496.896 690.955 500.573 692.76L500.792 693.401C503.4 694.359 517.76 699.914 518.999 700.661L519.304 700.578C527.946 703.747 536.304 705.193 544.87 707.328C592.743 719.365 642.075 705.503 685.913 686.057C701.098 679.87 716.185 670.711 731.523 665.167C784.465 646.034 842.199 654.154 892.006 678.278C898.25 681.302 904.522 684.703 910.792 687.589C831.977 735.068 739.752 753.281 649.153 762.43C618.997 765.477 586.159 767.077 555.864 765.891C518.525 764.68 481.425 759.443 445.209 750.273C431.277 746.82 401.539 739.2 388.932 734.219C384.494 733.643 358.009 724.43 353.253 722.57C340.455 718.607 325.396 712.413 312.76 707.456C304.418 704.183 296.031 700.786 287.604 697.373C213.298 667.277 135.858 635.912 58.105 677.12C32.0335 690.938 15.5319 706.734 0.485779 731.904L0.485779 534.044Z"/><path fill="#F27F0D" d="M62.3391 609.177C109.113 596.301 152.654 597.95 198.268 616.503C201.44 617.794 212.441 623.266 214.95 623.685C217.174 624.789 219.375 625.938 221.553 627.13C238.366 637.375 254.678 647.521 270.883 658.781C278.032 663.747 286.857 672.437 293.632 676.939C308.737 689.125 323.653 701.447 339.504 712.664C341.874 714.341 351.903 720.943 353.253 722.57C340.455 718.607 325.396 712.413 312.76 707.456C304.418 704.183 296.031 700.786 287.604 697.373C213.298 667.277 135.858 635.912 58.105 677.12C32.0335 690.938 15.5319 706.734 0.485779 731.904L0.485779 645.583C5.03575 641.466 9.70633 637.656 14.4161 633.749C17.4063 632.281 29.1365 624.124 32.1604 621.839C32.2622 621.842 32.3552 621.846 32.4427 621.851L32.4457 621.851C32.7956 621.868 33.0574 621.881 33.4385 621.781L35.2506 620.094C43.4957 616.109 53.4665 611.5 62.3391 609.177Z"/><path fill="#F78F5A" d="M475.367 678.951C478.838 680.521 481.267 681.948 484.798 683.544L485.351 684.208C486.68 685.434 488.007 686.143 489.417 687.25L490.06 687.172C493.612 689.036 496.896 690.955 500.573 692.76L500.792 693.401C503.4 694.359 517.76 699.914 518.999 700.661C514.62 708.666 508.034 711.276 499.81 713.578L491.353 713.518C490.163 712.883 489.097 712.307 487.852 711.768C482.948 709.503 481.774 708.164 478.159 704.076C477.137 702.577 476.16 701.047 475.228 699.492C471.819 692.086 471.642 686.304 475.367 678.951Z"/><path fill="#FD5E03" d="M500.792 693.401C503.4 694.359 517.76 699.914 518.999 700.661C514.62 708.666 508.034 711.276 499.81 713.578C498.841 708.747 498.41 708.176 495.655 703.961C495.6 703.879 495.761 703.899 496.059 703.937L496.061 703.937C497.142 704.073 500.017 704.436 501.034 700.966C501.1 699.359 500.93 698.705 500.771 698.088L500.77 698.085L500.77 698.084C500.551 697.239 500.349 696.461 500.792 693.401Z"/><path fill="#F27F0D" d="M490.06 687.172C493.612 689.036 496.896 690.955 500.573 692.76L500.792 693.401C500.349 696.461 500.551 697.239 500.77 698.084L500.77 698.085L500.771 698.088C500.93 698.705 501.1 699.359 501.034 700.966C500.017 704.436 497.142 704.073 496.061 703.937L496.059 703.937C495.761 703.899 495.6 703.879 495.655 703.961C498.41 708.176 498.841 708.747 499.81 713.578L491.353 713.518C490.163 712.883 489.097 712.307 487.852 711.768C489.05 709.499 487.714 707.103 486.782 705.432L486.78 705.429C486.156 704.312 485.714 703.52 486.334 703.31L486.15 703.427C487.04 703.331 487.725 703.564 488.37 703.785L488.372 703.786C489.21 704.071 489.983 704.335 491.054 703.82C491.408 703.225 490.615 702.774 489.81 702.317C488.82 701.755 487.812 701.182 488.887 700.315C489.514 699.81 489.416 699.719 489.704 698.922C490.587 697.464 490.388 696.942 490.014 695.964C489.826 695.471 489.593 694.862 489.433 693.96C491.079 692.386 490.762 691.954 490.209 691.201C489.706 690.516 489.009 689.566 489.417 687.25L490.06 687.172Z"/><path fill="#E35208" d="M0.485779 614.656C2.18116 614.339 3.67739 613.713 4.99439 613.162L4.99463 613.162C8.60747 611.651 10.8714 610.704 12.1977 618.249C12.4008 619.404 14.4662 619.404 15.9228 619.404C16.6494 619.404 17.2245 619.404 17.3414 619.547C18.1996 620.602 26.9755 619.581 27.8845 619.292C27.1019 617.89 27.5145 611.016 27.5431 610.984C31.0105 607.055 35.7938 611.68 31.7053 616.114C30.5394 617.339 31.8353 620.393 33.4385 621.781C33.0574 621.881 32.7956 621.868 32.4457 621.851L32.4427 621.851C32.3552 621.846 32.2622 621.842 32.1604 621.839C29.1365 624.124 17.4063 632.281 14.4161 633.749C9.70633 637.656 5.03575 641.466 0.485779 645.583L0.485779 614.656Z"/><path fill="#BF6408" d="M0.485779 625.151C2.90955 625.811 5.00243 625.81 6.78552 625.809L6.78585 625.809C10.8702 625.806 13.329 625.804 14.4161 633.749C9.70633 637.656 5.03575 641.466 0.485779 645.583L0.485779 625.151Z"/><path fill="#E35208" d="M293.632 676.939C296.557 675.279 297.485 675.591 298.406 675.901C299.163 676.157 299.915 676.41 301.769 675.565L301.751 676.807L300.399 677.95L296.537 676.852L296.16 677.072C300.523 680.831 334.328 708.882 337.603 708.812C338.126 706.083 338.428 703.492 340.576 701.742C340.837 703.188 340.6 703.631 340.348 704.106L340.347 704.107C340.06 704.644 339.753 705.222 340.123 707.339L342.907 708.974C343.307 710.687 343.227 711.182 342.976 712.74L342.976 712.742C342.955 712.871 342.933 713.009 342.91 713.154C353.929 724.653 374.074 727.185 388.704 733.057C388.78 733.445 388.856 733.831 388.932 734.219C384.494 733.643 358.009 724.43 353.253 722.57C351.903 720.943 341.874 714.341 339.504 712.664C323.653 701.447 308.737 689.125 293.632 676.939Z"/><path fill="#E35208" d="M35.2506 620.094C35.5072 619.328 35.5692 618.505 36.4512 618.262C40.0945 617.253 38.8965 615.861 40.1314 613.536C40.1917 613.573 40.2519 613.609 40.3122 613.643C40.546 612.85 40.3508 612.026 40.1456 611.16C40.0288 610.667 39.9088 610.161 39.863 609.638L39.8085 608.973L39.7673 608.921C29.5873 612.975 36.855 602.883 39.2055 603.646C39.7478 605.124 38.8874 605.672 38.0032 606.234C37.2963 606.684 36.574 607.143 36.5414 608.096C37.0714 608.468 37.845 608.296 38.6385 608.119C40.3847 607.73 42.2277 607.32 41.7851 612.635C41.4467 616.698 45.0969 614.297 46.4206 613.426L46.4219 613.425C46.7255 613.225 46.9063 613.106 46.8879 613.164C47.0824 612.546 46.7201 610.856 46.3551 609.153L46.3549 609.152C46.1425 608.161 45.9292 607.165 45.8244 606.375C45.1911 606.727 45.1877 608.084 44.4554 608.215C44.4609 608.156 44.3023 607.805 44.0757 607.304L44.0753 607.303C43.4362 605.889 42.2576 603.281 42.6962 602.645L42.9691 602.596C43.3784 602.753 43.7336 602.956 44.0017 603.339C45.9129 606.08 50.7613 605.583 53.3412 607.367L53.398 607.333C53.4535 604.796 59.0526 600.79 62.3391 609.177C53.4665 611.5 43.4957 616.109 35.2506 620.094ZM44.4554 608.215C44.4545 608.226 44.4482 608.227 44.4362 608.219C44.4426 608.218 44.4491 608.216 44.4554 608.215Z"/><path fill="#E35208" d="M214.95 623.685C217.237 620.779 218.051 620.75 219.861 620.688C220.748 620.657 221.874 620.618 223.531 620.227C223.59 620.32 223.649 620.411 223.709 620.502C223.485 621.245 222.742 621.922 222.215 622.473C222.869 624.063 222.601 624.663 222.109 625.762C221.941 626.139 221.746 626.575 221.553 627.13C219.375 625.938 217.174 624.789 214.95 623.685Z"/><path fill="#E35208" d="M298.936 661.513C300.774 662.26 303.482 662.955 304.927 664.447C306.577 666.151 306.61 667.153 306.642 668.11C306.677 669.155 306.71 670.145 308.849 671.937C310.553 673.362 307.556 675.297 305.345 676.073L305.408 676.067C304.805 676.326 304.681 676.268 304.471 676.857C304.939 677.479 312.713 681.487 312.72 677.223C312.721 676.169 313.045 676.181 313.394 676.194C313.856 676.213 314.359 676.232 314.197 673.742L314.409 673.562C316.581 673.825 317.278 676.205 318.263 677.21L318.352 677.166C318.763 676.072 319.123 674.94 319.568 673.864L319.795 673.911C320.464 674.729 319.827 676.227 319.27 677.536L319.269 677.539C318.947 678.296 318.652 678.991 318.651 679.456C318.719 679.674 318.889 679.922 319.07 680.187C319.535 680.865 320.069 681.646 319.129 682.268C317.911 683.077 315.288 683.802 314.704 681.758L314.604 681.828L314.588 681.792L314.445 682.109L314.618 682.18C313.924 683.208 313.108 686.792 312.695 688.193C311.54 685.362 311.931 684.071 312.172 683.279C312.259 682.992 312.326 682.771 312.293 682.566C312.167 681.786 310.593 681.238 303.143 678.21C302.859 678.094 302.593 676.888 302.729 676.776C307.682 672.747 307.639 672.678 306.503 670.841C305.891 669.852 304.963 668.351 304.327 665.445C304.036 664.237 296.4 660.635 299.859 668.455C300.014 668.805 300.257 669.232 300.524 669.701L300.525 669.703C301.429 671.292 302.611 673.369 301.611 674.659C300.244 673.883 299.328 669.992 298.527 668.887C298.351 668.844 298.125 668.872 297.894 668.901C297.489 668.952 297.069 669.005 296.871 668.685C296.889 668.359 297.118 668.11 297.361 667.847C297.915 667.246 298.537 666.57 296.872 664.724C296.618 664.442 297.491 663.359 298.139 662.556C298.311 662.342 298.468 662.147 298.583 661.994L298.936 661.513Z"/><path fill="#E35208" d="M333.968 691.88C335.205 692.336 337.403 695.266 339.837 696.729L339.849 696.726C340.126 695.95 340.029 695.395 339.944 694.913L339.943 694.909C339.858 694.417 339.785 694 340.145 693.5C341.869 693.183 342.472 695.703 342.88 697.408C343.045 698.099 343.178 698.656 343.341 698.838C343.674 699.199 343.968 699.507 344.224 699.775C345.102 700.696 345.523 701.138 345.511 701.569C345.496 702.106 344.804 702.625 343.48 704.034C342.78 704.779 343.722 705.545 344.752 706.382C345.97 707.372 347.311 708.463 346.213 709.74C345.738 709.265 345.261 708.831 344.809 708.42C342.529 706.347 340.894 704.859 343.47 701.76C343.916 701.223 341.513 698.786 341.355 698.685C340.284 702.003 333.291 701.773 332.21 698.125C331.804 696.753 330.241 696.253 329.995 695.492L330.142 695.265C331.558 694.77 331.878 694.853 332.065 694.732C332.296 694.582 332.326 694.121 333.968 691.88Z"/><path fill="#E35208" d="M127.405 584.807C134.167 585.036 141.797 590.279 131.374 591.065C130.991 591.173 130.555 591.677 130.104 592.197C129.205 593.234 128.248 594.338 127.541 592.508L127.406 592.161C126.081 588.741 125.9 588.274 127.405 584.807Z"/><path fill="#E35208" d="M20.4111 613.52C24.1266 613.594 26.6527 614.091 27.0506 618.45C22.684 618.339 21.2084 618.318 20.4111 613.52Z"/><path fill="#E35208" d="M246.004 604.318C246.179 604.278 246.31 604.239 246.415 604.207C246.705 604.119 246.793 604.093 247.044 604.281C247.096 604.694 246.976 605.139 246.86 605.569L246.859 605.574C246.808 605.761 246.758 605.945 246.724 606.122C246.643 606.132 246.574 606.144 246.514 606.154C246.298 606.192 246.189 606.211 245.988 606.093C245.803 605.784 245.875 605.357 245.938 604.984C245.955 604.887 245.97 604.794 245.981 604.708L246.004 604.318Z"/><path fill="#FD5E03" d="M1536 305.904L1536 0L1056.59 0C1052.29 33.2998 1061.64 66.9338 1082.55 93.2286C1091.18 104.299 1103.02 114.967 1114.58 122.853C1132.56 135.119 1167.75 148.987 1189.68 150.191C1203.06 151.003 1216.48 151.168 1229.87 150.686C1243.07 150.109 1255.81 148.767 1269.12 148.708C1326.46 148.453 1382.28 167.011 1421.26 210.542C1434.6 225.435 1440.22 236.118 1451.43 251.472C1472.72 280.647 1502.7 295.187 1536 305.904Z"/><path fill="#FFAB5C" d="M1536 416.852L1536 305.904C1502.7 295.187 1472.72 280.647 1451.43 251.472C1440.22 236.118 1434.6 225.435 1421.26 210.542C1382.28 167.011 1326.46 148.453 1269.12 148.708C1255.81 148.767 1243.07 150.109 1229.87 150.686C1216.48 151.168 1203.06 151.003 1189.68 150.191C1167.75 148.987 1132.56 135.119 1114.58 122.853C1103.02 114.967 1091.18 104.299 1082.55 93.2286C1061.64 66.9338 1052.29 33.2998 1056.59 0L985.366 0C976.86 61.6705 1020.27 107.344 1075.73 126.855C1090.79 132.156 1122.69 142.062 1133.05 152.818C1160.65 170.295 1168.79 199.345 1182.13 224.869C1205.77 269.728 1248.32 301.581 1298.03 311.617C1314.48 315.03 1335.17 316.056 1352.2 316.014C1392.94 320.448 1430.38 333.672 1459.49 363.027C1486 389.767 1500.26 402.476 1536 416.852Z"/><path fill="#F27F0D" d="M1536 366.262L1536 305.904C1502.7 295.187 1472.72 280.647 1451.43 251.472C1440.22 236.118 1434.6 225.435 1421.26 210.542C1382.28 167.011 1326.46 148.453 1269.12 148.708C1255.81 148.767 1243.07 150.109 1229.87 150.686C1216.48 151.168 1203.06 151.003 1189.68 150.191C1199.42 154.668 1216.83 154.725 1229.62 154.768C1231.6 154.774 1233.47 154.78 1235.19 154.803C1274.82 155.014 1313.34 167.875 1345.15 191.511C1381.88 218.952 1394.49 246.68 1415.89 284.669C1442.03 331.088 1485.2 354.833 1536 366.262Z"/><path fill="#FD5E03" d="M1536 474.155L1536 416.852C1500.26 402.476 1486 389.767 1459.49 363.027C1430.38 333.672 1392.94 320.448 1352.2 316.014C1356.14 324.703 1359.75 333.376 1363.06 342.299C1366.38 351.249 1369.19 360.809 1373.07 369.467C1397.34 423.695 1450.66 462.206 1508.99 471.352C1517.86 472.742 1526.93 473.487 1536 474.155Z"/><path fill="#FD5E03" d="M985.366 0L905.126 0C909.916 44.3284 925.614 74.8334 960.536 104.03C986.612 125.831 1019.45 136.701 1052.88 139.509C1068.21 140.796 1083.44 141.442 1098.78 143.737C1111.4 145.626 1121.06 149.409 1133.05 152.818C1122.69 142.062 1090.79 132.156 1075.73 126.855C1020.27 107.344 976.86 61.6705 985.366 0Z"/><path fill="#FD5E03" d="M0.485779 367.077C38.0329 363.361 63.3652 364.599 101.113 366.986C98.3072 371.57 91.4637 378.889 87.5459 382.997C64.9451 406.706 34.6121 426.742 2.48302 434.503C1.81849 434.664 1.15272 434.819 0.485779 434.97L0.485779 367.077Z"/><defs><linearGradient id="gradient_1" gradientUnits="userSpaceOnUse" x1="1416.17" y1="491.97299" x2="1352.04" y2="511.61899"><stop offset="0" stop-color="#D76526"/><stop offset="1" stop-color="#E49465"/></linearGradient></defs><path fill="url(#gradient_1)" d="M1348.12 503.728C1351.67 492.1 1356.72 483.285 1367.95 477.217C1376.45 472.608 1386.47 471.658 1395.69 474.586C1417.93 481.518 1425.64 501.738 1419.69 523.109C1398.55 514.466 1370.69 507.561 1348.12 503.728Z"/><defs><linearGradient id="gradient_2" gradientUnits="userSpaceOnUse" x1="521.61401" y1="687.43201" x2="480.34799" y2="672.53497"><stop offset="0" stop-color="#C7541A"/><stop offset="1" stop-color="#DA7340"/></linearGradient></defs><path fill="url(#gradient_2)" d="M475.4 678.554C484.584 666.555 497.224 658.698 511.093 669.841C516.606 674.322 520.08 680.835 520.73 687.909C521.138 691.908 520.656 696.771 519.304 700.578L518.999 700.661C517.76 699.914 503.4 694.359 500.792 693.401L500.573 692.76C496.896 690.955 493.612 689.036 490.06 687.172L489.417 687.25C488.007 686.143 486.68 685.434 485.351 684.208L484.798 683.544C481.267 681.948 478.838 680.521 475.367 678.951L475.4 678.554Z"/><path fill="#E35208" d="M490.704 680.734C494.84 680.283 494.443 680.906 493.707 682.06L493.706 682.061C493.077 683.048 492.201 684.422 493.696 685.846C495.883 687.932 496.596 687.084 497.322 686.22C497.923 685.505 498.534 684.779 499.997 685.692C500.415 687.237 500.807 688.791 501.171 690.349C500.982 691.156 500.782 691.96 500.573 692.76C496.896 690.955 493.612 689.036 490.06 687.172C490.521 685.164 490.521 684.369 490.521 683.457C490.521 682.787 490.521 682.055 490.704 680.734Z"/><path fill="#BF6408" d="M499.997 685.692C502.23 684.43 504.448 683.055 504.506 680.185C504.519 679.528 505.086 678.879 505.589 678.305L505.591 678.303C506.111 677.707 506.562 677.19 506.254 676.827C505.666 676.133 503.435 676.315 502.76 674.885C503.181 673.802 504.441 674.096 505.286 673.656C505.475 673.118 505.305 672.652 505.146 672.213L505.145 672.211C505.003 671.822 504.868 671.452 504.994 671.068C506.587 670.563 506.954 671.831 507.071 672.235C507.086 672.287 507.097 672.325 507.106 672.343C508.89 675.977 507.806 677.465 506.645 679.057L506.644 679.059C506.053 679.87 505.442 680.708 505.18 681.869C504.927 682.987 503.973 684.175 503.082 685.283C501.63 687.09 500.351 688.682 502.57 689.411C502.841 689.224 503.111 689.039 503.381 688.852C505.341 690.023 502.05 690.426 501.171 690.349C500.807 688.791 500.415 687.237 499.997 685.692Z"/><path fill="#FD5E03" d="M485.351 684.208L485.873 683.808C487.141 682.839 490.274 680.444 490.322 680.337C490.51 680.441 490.391 680.351 490.704 680.734C490.521 682.055 490.521 682.787 490.521 683.457C490.521 684.369 490.521 685.164 490.06 687.172L489.417 687.25C488.007 686.143 486.68 685.434 485.351 684.208ZM490.322 680.337C490.32 680.336 490.319 680.336 490.317 680.335C490.322 680.333 490.324 680.334 490.322 680.337Z"/><defs><linearGradient id="gradient_3" gradientUnits="userSpaceOnUse" x1="880.974" y1="9.1667604" x2="869.95898" y2="40.485401"><stop offset="0" stop-color="#CA4C03"/><stop offset="1" stop-color="#E46A0D"/></linearGradient></defs><path fill="url(#gradient_3)" d="M870.768 8.4105C879.786 5.37827 889.563 10.1798 892.677 19.17C895.791 28.1602 891.078 37.9802 882.116 41.1752C877.271 42.9026 871.909 42.3894 867.48 39.7744C863.05 37.1594 860.011 32.7126 859.182 27.636C857.815 19.2549 862.719 11.1169 870.768 8.4105Z"/><path fill="#DD7F10" d="M1117.07 172.391C1121.99 171.272 1127.12 172.888 1130.51 176.619C1133.9 180.35 1135.01 185.617 1133.43 190.4C1131.84 195.183 1127.8 198.739 1122.85 199.705C1115.37 201.166 1108.09 196.352 1106.52 188.891C1104.94 181.431 1109.64 174.085 1117.07 172.391Z"/><path fill="#FD5E03" d="M1331.03 465.085C1335.43 463.913 1340.09 465.672 1342.63 469.462C1345.16 473.253 1345 478.234 1342.23 481.854C1339.46 485.475 1334.69 486.932 1330.37 485.48C1325.92 483.982 1322.97 479.74 1323.12 475.04C1323.27 470.34 1326.48 466.294 1331.03 465.085Z"/><path fill="#F78F5A" d="M1331.03 465.085C1333.74 466.854 1333.49 472.68 1333.28 477.495L1333.27 477.698C1333.18 479.677 1333.11 481.471 1333.27 482.721C1333.46 484.315 1332.48 484.677 1331.25 485.132C1330.97 485.237 1330.67 485.348 1330.37 485.48C1325.92 483.982 1322.97 479.74 1323.12 475.04C1323.27 470.34 1326.48 466.294 1331.03 465.085Z"/><defs><linearGradient id="gradient_4" gradientUnits="userSpaceOnUse" x1="402.74301" y1="204.009" x2="413.20099" y2="211.819"><stop offset="0" stop-color="#D05A07"/><stop offset="1" stop-color="#E17209"/></linearGradient></defs><path fill="url(#gradient_4)" d="M407.685 200.01C411.91 199.417 415.841 202.285 416.567 206.489C417.293 210.692 414.551 214.712 410.373 215.571C407.55 216.151 404.635 215.148 402.767 212.953C400.899 210.758 400.374 207.721 401.398 205.027C402.422 202.333 404.831 200.41 407.685 200.01Z"/><path fill="#FD5E03" d="M583.325 43.1761C585.829 42.2511 588.638 42.7457 590.676 44.4707C592.715 46.1958 593.667 48.8842 593.168 51.5074C592.67 54.1307 590.799 56.2828 588.27 57.1404C584.432 58.4419 580.261 56.418 578.908 52.598C577.555 48.778 579.523 44.58 583.325 43.1761Z"/><path fill="#FD5E03" d="M164.673 388.523C168.218 387.592 171.847 389.708 172.783 393.251C173.719 396.794 171.609 400.426 168.067 401.367C164.518 402.31 160.878 400.195 159.94 396.645C159.002 393.095 161.122 389.458 164.673 388.523Z"/><path fill="#FD5E03" d="M882.388 52.5523C883.204 52.6395 884.374 52.6991 885.137 52.8293C886.506 53.0517 887.715 53.8456 888.464 55.013C891.123 59.1197 888.289 63.0835 884.883 65.3819C876.462 63.1333 876.307 57.9075 882.388 52.5523Z"/><path fill="#F78F5A" d="M474.418 637.611C482.833 639.114 479.937 644.952 476.083 650.562C468.276 647.2 467.857 642.607 474.418 637.611Z"/><path fill="#FD5E03" d="M1139.6 206.087C1140.94 205.448 1142.53 205.582 1143.74 206.44C1144.96 207.298 1145.62 208.745 1145.47 210.226C1145.32 211.706 1144.38 212.991 1143.01 213.585C1140.95 214.483 1138.55 213.563 1137.62 211.516C1136.69 209.47 1137.57 207.054 1139.6 206.087Z"/><path fill="#8F4B06" d="M1043.61 567.404C1048.04 568.757 1049.26 570.69 1049.07 575.252C1043.48 573.833 1043.02 572.349 1043.61 567.404Z"/><path fill="#8F4B06" d="M1098.31 539.874C1098.91 539.318 1099.78 539.151 1100.54 539.443C1101.31 539.737 1101.84 540.439 1101.91 541.255C1101.99 542.07 1101.6 542.857 1100.9 543.286C1099.96 543.867 1098.73 543.635 1098.06 542.753C1097.39 541.872 1097.5 540.625 1098.31 539.874Z"/><path fill="#8F4B06" d="M939.994 603.046C942.271 605.266 941.191 606.274 939.451 607.898C939.279 608.058 939.101 608.224 938.919 608.398C936.833 606.34 937.225 605.945 938.558 604.606C938.964 604.198 939.457 603.702 939.994 603.046Z"/><path fill="#8F4B06" d="M1067.72 525.044C1067.81 525.013 1067.9 524.972 1068 524.929L1068.02 524.922C1068.48 524.729 1069.01 524.51 1069.37 524.909C1069.46 525.524 1069.12 526.042 1068.77 526.573C1068.69 526.691 1068.61 526.809 1068.54 526.929C1067.02 526.716 1066.7 526.424 1067.72 525.044Z"/><path fill="#8F4B06" d="M967.718 617.911C969.89 616.58 969.678 617.984 968.436 619.286C966.052 620.604 966.011 619.359 967.718 617.911Z"/><path fill="#8F4B06" d="M648.695 687.382C650.26 686.815 651.635 686.758 650.599 688.929C649.399 689.049 647.612 689.127 648.695 687.382Z"/><path fill="#8F4B06" d="M939.276 618.594L940.063 618.542L939.991 619.635C939.834 619.648 939.737 619.658 939.672 619.665C939.599 619.673 939.566 619.676 939.534 619.674C939.492 619.671 939.45 619.658 939.325 619.633C939.192 619.239 939.195 619.219 939.232 618.953L939.232 618.951C939.244 618.864 939.26 618.752 939.276 618.594Z"/></svg>