<?xml version="1.0" encoding="utf-8" ?><svg xmlns="http://www.w3.org/2000/svg" xmlns:xlink="http://www.w3.org/1999/xlink" width="1483" height="738" viewBox="0 0 1483 738"><clipPath id="cl_39"><rect width="1483" height="738"/></clipPath><g clip-path="url(#cl_39)"><path fill="#FFDAB7" transform="translate(-12 -5)" d="M1.53274 1.72875L1500.66 1.72875L1500.66 743L1.53274 743L1.53274 1.72875Z"/><path fill="#FFAB5C" transform="translate(-12 -5)" d="M559.849 743L598.7 743C597.635 741.548 596.567 740.089 595.498 738.628C577.281 713.731 558.464 688.013 537.236 682.676C528.807 680.575 520.583 679.152 512.08 676.034L511.781 676.116C510.56 675.381 496.43 669.915 493.864 668.972L493.648 668.341C490.03 666.565 486.799 664.677 483.304 662.843L482.671 662.92C481.284 661.83 479.978 661.133 478.67 659.926L478.126 659.273C474.652 657.702 472.261 656.298 468.846 654.752L468.878 654.363C463.786 651.716 453.346 644.013 448.141 640.336C429.988 627.36 412.093 614.03 394.465 600.351C313.389 538.49 219.171 478.684 113.463 478.881C71.9323 478.957 35.9031 487.839 1.56737 512.166L1.56737 706.858C16.3727 682.092 32.6102 666.548 58.2643 652.952C134.772 612.402 210.972 643.265 284.089 672.88C292.381 676.239 300.634 679.581 308.842 682.802C321.276 687.68 336.094 693.775 348.687 697.674C353.367 699.504 379.428 708.57 383.795 709.137C396.2 714.038 425.462 721.536 439.171 724.934C474.807 733.957 511.314 739.11 548.054 740.301C552.296 740.467 556.196 741.448 559.849 743Z"/><path fill="#FFAB5C" transform="translate(-12 -5)" d="M0.209142 743L604.192 743C474.123 716.646 336.388 688.798 335.158 687.927C319.561 676.889 304.883 664.765 290.02 652.774C283.354 648.344 274.67 639.793 267.635 634.906C251.69 623.827 235.639 613.843 219.095 603.762C216.952 602.588 214.786 601.458 212.598 600.372C210.129 599.959 199.304 594.575 196.183 593.304C151.299 575.049 108.455 573.427 62.4306 586.096C53.7001 588.382 43.8889 592.917 35.7758 596.839L33.9927 598.499C33.6194 598.596 33.3625 598.584 33.0207 598.568L33.0128 598.568C32.9267 598.563 32.8352 598.558 32.735 598.555C29.7595 600.804 18.2171 608.831 15.2748 610.275C10.6404 614.12 6.04449 617.868 1.56737 621.92L0.209142 627.929L0.209142 743Z"/><path fill="#FFAB5C" transform="translate(-12 -5)" d="M493.864 668.972C496.43 669.915 510.56 675.381 511.781 676.116C507.471 683.993 500.99 686.561 492.898 688.826C491.944 684.072 491.52 683.511 488.809 679.363C488.755 679.282 488.914 679.301 489.207 679.339L489.21 679.339C490.276 679.473 493.101 679.828 494.102 676.416C494.167 674.84 494.001 674.194 493.844 673.59L493.843 673.584L493.842 673.581L493.842 673.579C493.627 672.748 493.428 671.979 493.864 668.972Z"/><path fill="#FFAB5C" transform="translate(-12 -5)" d="M1.56737 591.488C3.23561 591.175 4.70788 590.56 6.00381 590.017L6.00453 590.017C9.55923 588.53 11.7868 587.599 13.0919 595.023C13.2917 596.159 15.3241 596.159 16.7574 596.159C17.4723 596.159 18.0382 596.159 18.1533 596.3C18.9977 597.338 27.6331 596.334 28.5276 596.048C27.7575 594.67 28.1635 587.905 28.1916 587.874C31.6035 584.008 36.3103 588.559 32.2872 592.922C31.14 594.127 32.4151 597.133 33.9927 598.499C33.6194 598.596 33.3625 598.584 33.0207 598.568L33.0128 598.568C32.9267 598.563 32.8352 598.558 32.735 598.555C29.7595 600.804 18.2171 608.831 15.2748 610.275C10.6404 614.12 6.04449 617.868 1.56737 621.92L1.56737 591.488Z"/><path fill="#FFAB5C" transform="translate(-12 -5)" d="M1.56737 601.815C3.95234 602.463 6.01172 602.463 7.76626 602.462L7.7697 602.462C11.7869 602.459 14.2051 602.457 15.2748 610.275C10.6404 614.12 6.04449 617.868 1.56737 621.92L1.56737 601.815Z"/><path fill="#FFAB5C" transform="translate(-12 -5)" d="M290.02 652.774C292.896 651.139 293.811 651.447 294.718 651.752C295.463 652.003 296.203 652.252 298.027 651.422L298.009 652.644L296.679 653.768L292.879 652.687L292.508 652.905C296.801 656.603 330.065 684.205 333.287 684.136C333.802 681.451 334.099 678.902 336.213 677.18C336.47 678.598 336.237 679.035 335.99 679.502L335.989 679.503L335.988 679.506L335.987 679.507C335.705 680.034 335.403 680.603 335.767 682.686L338.506 684.296C338.9 685.979 338.821 686.468 338.574 687.999L338.574 688.003C338.554 688.129 338.532 688.265 338.509 688.408C349.352 699.724 369.174 702.215 383.57 707.993C383.645 708.375 383.72 708.755 383.795 709.137C379.428 708.57 353.367 699.504 348.687 697.674C347.358 696.073 337.49 689.577 335.158 687.927C319.561 676.889 304.883 664.765 290.02 652.774Z"/><path fill="#FFAB5C" transform="translate(-12 -5)" d="M35.7758 596.839C36.0283 596.085 36.0893 595.275 36.9571 595.036C40.5421 594.042 39.3633 592.673 40.5784 590.386C40.6378 590.422 40.697 590.457 40.7563 590.491C40.9861 589.71 40.7947 588.901 40.593 588.049L40.5924 588.047C40.4775 587.562 40.3594 587.065 40.3143 586.55L40.2607 585.896L40.2202 585.844C30.2031 589.833 37.3545 579.903 39.6674 580.654C40.2009 582.108 39.3545 582.647 38.4843 583.201C37.7887 583.643 37.078 584.095 37.0459 585.033C37.567 585.399 38.3275 585.229 39.1078 585.055L39.1094 585.055C40.8277 584.672 42.6412 584.269 42.2057 589.499C41.8727 593.497 45.4644 591.134 46.767 590.277L46.7682 590.275L46.7737 590.271C47.0692 590.078 47.2448 589.962 47.2268 590.02C47.418 589.411 47.0624 587.752 46.7038 586.079L46.7034 586.077L46.7028 586.073L46.7023 586.071C46.4933 585.097 46.2834 584.116 46.1803 583.339C45.5571 583.685 45.5538 585.02 44.8332 585.15C44.8386 585.092 44.6826 584.746 44.4596 584.253L44.4592 584.251L44.4584 584.249C43.8293 582.858 42.6708 580.294 43.1022 579.669L43.3707 579.621C43.7735 579.774 44.123 579.975 44.3868 580.351C46.2674 583.049 51.0382 582.56 53.5768 584.315L53.6327 584.282C53.6873 581.786 59.1967 577.843 62.4306 586.096C53.7001 588.382 43.8889 592.917 35.7758 596.839ZM44.8332 585.15C44.8323 585.161 44.8261 585.161 44.8143 585.154C44.8206 585.153 44.827 585.151 44.8332 585.15Z"/><path fill="#FFAB5C" transform="translate(-12 -5)" d="M212.598 600.372C214.848 597.512 215.649 597.484 217.43 597.422C218.303 597.392 219.411 597.353 221.041 596.969C221.099 597.061 221.157 597.151 221.217 597.24C220.996 597.971 220.265 598.637 219.746 599.18C220.39 600.743 220.126 601.334 219.642 602.416C219.477 602.786 219.285 603.216 219.095 603.762C216.952 602.588 214.786 601.458 212.598 600.372Z"/><path fill="#FFAB5C" transform="translate(-12 -5)" d="M295.239 637.595C297.048 638.33 299.713 639.013 301.134 640.482C302.758 642.158 302.79 643.144 302.822 644.085C302.856 645.114 302.889 646.088 304.994 647.852C306.67 649.254 303.721 651.158 301.546 651.922L301.608 651.916C301.014 652.169 300.892 652.113 300.686 652.693C301.146 653.305 308.796 657.249 308.803 653.053C308.804 652.017 309.121 652.028 309.466 652.04C309.92 652.059 310.415 652.078 310.256 649.628L310.465 649.451C312.602 649.709 313.288 652.051 314.257 653.04L314.344 652.997C314.749 651.921 315.103 650.807 315.541 649.748L315.764 649.794C316.423 650.598 315.797 652.069 315.249 653.359L315.248 653.361L315.247 653.364C314.93 654.109 314.64 654.793 314.639 655.25C314.706 655.465 314.873 655.709 315.051 655.97C315.509 656.636 316.034 657.405 315.109 658.017C313.911 658.813 311.33 659.527 310.755 657.516L310.656 657.584L310.641 657.548L310.5 657.861L310.67 657.931C309.987 658.942 309.184 662.468 308.778 663.847C307.642 661.062 308.026 659.79 308.263 659.011C308.349 658.73 308.415 658.512 308.382 658.31C308.258 657.543 306.71 657.003 299.379 654.024C299.099 653.91 298.838 652.723 298.972 652.613C303.845 648.649 303.803 648.58 302.685 646.773C302.083 645.799 301.17 644.323 300.544 641.464C300.258 640.275 292.744 636.731 296.148 644.425C296.3 644.77 296.539 645.19 296.802 645.651L296.803 645.653L296.804 645.653L296.807 645.66L296.808 645.662C297.696 647.224 298.854 649.262 297.871 650.53C296.526 649.767 295.625 645.938 294.837 644.851C294.665 644.808 294.444 644.836 294.219 644.863L294.214 644.864C293.814 644.914 293.402 644.966 293.207 644.652C293.225 644.331 293.45 644.085 293.689 643.826C294.235 643.235 294.847 642.571 293.208 640.754C292.958 640.477 293.817 639.411 294.455 638.621C294.624 638.409 294.779 638.217 294.892 638.068L295.239 637.595Z"/><path fill="#FFAB5C" transform="translate(-12 -5)" d="M329.711 667.475C330.928 667.924 333.091 670.806 335.486 672.247L335.497 672.244C335.77 671.481 335.674 670.935 335.591 670.461L335.591 670.46L335.59 670.456L335.588 670.45L335.587 670.444C335.505 669.965 335.436 669.558 335.789 669.07C337.484 668.757 338.078 671.234 338.48 672.913L338.48 672.915C338.642 673.595 338.773 674.143 338.933 674.322C339.261 674.676 339.55 674.98 339.802 675.244C340.666 676.149 341.081 676.585 341.069 677.008C341.054 677.538 340.373 678.048 339.07 679.435C338.381 680.166 339.307 680.92 340.321 681.744L340.322 681.745C341.52 682.719 342.84 683.793 341.759 685.049C341.292 684.582 340.823 684.155 340.378 683.75C338.134 681.71 336.526 680.247 339.06 677.197C339.499 676.669 337.135 674.271 336.979 674.172C335.925 677.435 329.044 677.21 327.981 673.62C327.581 672.269 326.043 671.777 325.801 671.03L325.946 670.806C327.339 670.319 327.654 670.401 327.838 670.282C328.065 670.133 328.095 669.68 329.711 667.475Z"/><path fill="#FFAB5C" transform="translate(-12 -5)" d="M126.454 562.117C133.108 562.342 140.616 567.5 130.36 568.274C129.983 568.38 129.554 568.877 129.11 569.388C128.225 570.409 127.284 571.494 126.588 569.694L126.455 569.353C125.151 565.987 124.973 565.527 126.454 562.117Z"/><path fill="#FFAB5C" transform="translate(-12 -5)" d="M21.1738 590.37C24.8298 590.443 27.3155 590.932 27.707 595.221C23.4103 595.111 21.9583 595.091 21.1738 590.37Z"/><path fill="#FFAB5C" transform="translate(-12 -5)" d="M243.155 581.315C243.327 581.276 243.456 581.237 243.559 581.205C243.844 581.119 243.931 581.094 244.178 581.279C244.229 581.684 244.111 582.122 243.997 582.545L243.996 582.55C243.946 582.734 243.897 582.916 243.863 583.09C243.783 583.1 243.715 583.111 243.656 583.121C243.444 583.159 243.337 583.178 243.139 583.062C242.957 582.758 243.028 582.338 243.09 581.971C243.106 581.875 243.121 581.784 243.132 581.699L243.155 581.315Z"/><path fill="#FFAB5C" transform="translate(-12 -5)" d="M1511 293.322L1511 0L1041.4 0C1039.17 30.5203 1048.47 60.875 1067.63 84.968C1076.12 95.862 1087.77 106.359 1099.15 114.119C1116.84 126.189 1151.47 139.835 1173.05 141.019C1186.21 141.818 1199.42 141.981 1212.59 141.506C1225.58 140.939 1238.12 139.618 1251.22 139.56C1307.64 139.309 1362.56 157.57 1400.92 200.404C1414.05 215.059 1419.58 225.571 1430.61 240.679C1450.94 268.563 1479.36 282.861 1511 293.322Z"/><path fill="#FFAB5C" transform="translate(-12 -5)" d="M1511 346.727L1511 287.192C1478.84 276.692 1449.91 262.386 1429.29 234.118C1418.26 219.009 1412.73 208.497 1399.61 193.843C1361.25 151.009 1306.33 132.748 1249.9 132.999C1236.81 133.057 1224.27 134.377 1211.28 134.945C1198.11 135.419 1184.9 135.257 1171.74 134.458C1181.32 138.863 1198.45 138.919 1211.04 138.962C1212.98 138.967 1214.82 138.973 1216.52 138.996C1255.51 139.204 1293.42 151.859 1324.72 175.116C1360.86 202.118 1373.27 229.402 1394.32 266.783C1419.77 312 1461.66 335.353 1511 346.727Z"/><path fill="#FFAB5C" transform="translate(-12 -5)" d="M116.836 543.675L212.547 543.675C202.842 616.995 254.596 671.286 320.656 694.525C338.644 700.86 376.769 712.699 389.157 725.554C374.826 721.48 363.275 716.958 348.203 714.702C329.863 711.958 311.669 711.187 293.341 709.648C253.389 706.292 214.139 693.301 182.975 667.246C141.44 632.518 122.658 596.243 116.836 543.675Z"/><path fill="#FFAB5C" transform="translate(-12 -5)" d="M1447.48 743L1342.51 743C1337.43 735.429 1332.97 727.425 1329.22 719.038C1325.4 710.518 1322.64 701.112 1319.37 692.305C1316.11 683.525 1312.56 674.991 1308.68 666.441C1348.77 670.804 1385.61 683.816 1414.26 712.701C1426.9 725.46 1436.72 734.973 1447.48 743Z"/><path fill="#FFAB5C" transform="translate(-12 -5)" d="M1511 713.415L1511 743L1433.06 743C1420.43 729.581 1409.93 714.162 1402.33 697.175C1398.51 688.655 1395.74 679.249 1392.48 670.442C1389.22 661.662 1385.67 653.128 1381.79 644.578C1421.88 648.941 1458.72 661.953 1487.37 690.838C1496.2 699.746 1503.64 707.072 1511 713.415Z"/><path fill="#FFAB5C" transform="translate(-12 -5)" d="M1511 614.163L1511 711.18C1481.54 693.21 1457.21 666.937 1443 635.189C1439.18 626.669 1436.41 617.263 1433.15 608.456C1429.89 599.676 1426.34 591.142 1422.46 582.592C1454.99 586.133 1485.39 595.369 1511 614.163Z"/><path fill="#FFAB5C" transform="translate(-12 -5)" d="M35.3199 61.835L91.86 133.013C83.23 132.372 74.62 131.643 66.17 130.319C42.7591 126.648 20.167 118.169 -1.06581e-13 105.793L0 33.0861C7.28444 37.5282 7.24056 40.1121 7.18438 43.4198C7.16157 44.7631 7.13672 46.2259 7.59998 47.981C10.7492 44.2336 13.1335 46.3413 17.5749 50.2675C21.3837 53.6345 26.7054 58.3389 35.3199 61.835Z"/><path fill="#FFAB5C" transform="translate(-12 -5)" d="M57.03 19.418L101.38 77.738C92.75 77.097 84.14 76.368 75.6901 75.044C48.5202 70.7841 22.4531 60.0475 -3.01981e-14 44.2595L0 0L32.2628 0C36.312 6.6333 40.7011 12.7937 57.03 19.418Z"/><path fill="#FFAB5C" transform="translate(-12 -5)" d="M105.226 0L138.263 43.444C129.633 42.803 121.023 42.074 112.573 40.75C80.0214 35.6463 49.0525 21.246 23.9852 4.44089e-16L105.226 0Z"/></g></svg>