<!DOCTYPE svg PUBLIC "-//W3C//DTD SVG 1.1//EN" "http://www.w3.org/Graphics/SVG/1.1/DTD/svg11.dtd">
<!-- Uploaded to: SVG Repo, www.svgrepo.com, Transformed by: SVG Repo Mixer Tools -->
<svg height="72px" width="72px" version="1.1" id="Layer_1" xmlns="http://www.w3.org/2000/svg" xmlns:xlink="http://www.w3.org/1999/xlink" viewBox="-201.76 -201.76 907.92 907.92" xml:space="preserve" fill="#000000">
<g id="SVGRepo_bgCarrier" stroke-width="0" transform="translate(0,0), scale(1)">
<path transform="translate(-201.76, -201.76), scale(28.3725)" d="M16,27.890756715621265C18.857157160074358,27.7315958994704,21.602969023593765,27.104208887852202,23.977383356397837,25.50707527448838C26.6200833526539,23.72948113864415,29.458985626107655,21.607227225144136,30.006094950196115,18.46965243408416C30.5528284537608,15.334232906971355,28.178634049516848,12.639990019257496,26.713766496173985,9.81440402939916C25.150205131042046,6.798447346135441,24.268250541253853,3.1356103416182974,21.249089122986724,1.5782461618891084C18.042665218383107,-0.07571301493528804,13.922072127439279,-0.141507723662182,10.751847473789066,1.580819440381724C7.77264905702683,3.199365417670167,7.321565936954779,7.0750644197710395,5.67546022612175,10.039124182292387C4.0728624674989655,12.924841363503553,0.9915732363420273,15.30517025198409,1.3050970097975014,18.591107876066193C1.6263205249901196,21.957743913512452,4.382534381606652,24.630914984290275,7.240275873820167,26.439432697508984C9.819003852393898,28.071377098194063,12.952989998904092,28.06049347542262,16,27.890756715621265" fill="#ffe3c7" strokewidth="0"/>
</g>
<g id="SVGRepo_tracerCarrier" stroke-linecap="round" stroke-linejoin="round" stroke="#CCCCCC" stroke-width="5.044"/>
<g id="SVGRepo_iconCarrier"> <path style="fill:#F27F0D;" d="M294.625,4.4c-9.3,0-17.9,3.4-24.7,10.2l-256,256c-6.8,6.8-10.2,16.2-10.2,24.7h0.8 c0,11.1,8.6,23,8.6,22.2l172.3,172.4c6,6.8,15.4,10.2,23.9,10.2V500c9-0.2,17.3-3.6,23.9-10.2l256-256c6.8-6.8,10.2-16.2,10.2-24.7 s-3.4-17.1-10.2-23.9l-171.5-171.5c0,0-14.5-8.5-23-8.5"/> <path style="fill:#35373b;" d="M124.025,504.4H4.525c-2.6,0-4.3-1.7-4.3-4.3s1.7-4.3,4.3-4.3h119.5c2.6,0,4.3,1.7,4.3,4.3 S126.525,504.4,124.025,504.4z M209.325,504.4c-10.2,0-19.6-3.4-27.3-11.1l-160.4-160.5c-1.7-1.7-1.7-4.3,0-6s4.3-1.7,6,0 l160.4,160.4c11.9,11.9,30.7,11.9,42.7,0l256-256c11.9-11.9,11.9-30.7,0-42.7l-160.5-160.3c-1.7-1.7-1.7-4.3,0-6s4.3-1.7,6,0 l160.4,160.4c15.4,15.4,15.4,39.3,0,54.6l-256,256C228.925,500.9,219.625,504.4,209.325,504.4z M209.325,453.2 c-2.6,0-4.3-1.7-4.3-4.3V329.4c0-2.6,1.7-4.3,4.3-4.3s4.3,1.7,4.3,4.3v119.5C213.625,451.5,211.925,453.2,209.325,453.2z M72.825,453.2h-68.3c-2.6,0-4.3-1.7-4.3-4.3c0-2.6,1.7-4.3,4.3-4.3h68.3c2.6,0,4.3,1.7,4.3,4.3 C77.125,451.5,75.325,453.2,72.825,453.2z M38.725,402h-34.2c-2.6,0-4.3-1.7-4.3-4.3c0-2.6,1.7-4.3,4.3-4.3h34.1 c2.6,0,4.3,1.7,4.3,4.3C42.925,400.3,41.225,402,38.725,402z M260.525,299.6h-256c-2.6,0-4.3-1.7-4.3-4.3c0,0,0,0,0-0.9 c0-10.2,4.3-19.6,11.1-27.3l256-256c7.7-7.7,17.1-11.1,27.3-11.1l0,0c2.6,0,4.3,1.7,4.3,4.3v256 C298.925,282.5,281.925,299.6,260.525,299.6z M8.825,291h251.7c16.2,0,29.9-13.7,29.9-29.9V9.4c-6.8,0.9-12.8,4.3-17.1,8.5l-256,256 C13.125,278.2,9.625,284.2,8.825,291z M448.325,214.2h-119.5c-2.6,0-4.3-1.7-4.3-4.3s1.7-4.3,4.3-4.3h119.5c2.6,0,4.3,1.7,4.3,4.3 S450.825,214.2,448.325,214.2z"/> </g>
</svg>