<?xml version="1.0" encoding="utf-8" ?><svg xmlns="http://www.w3.org/2000/svg" xmlns:xlink="http://www.w3.org/1999/xlink" width="431" height="448" viewBox="0 0 431 448"><clipPath id="cl_4"><rect x="-6.1035156e-05" y="-0.00052642822" width="431" height="447.99997"/></clipPath><g clip-path="url(#cl_4)"><path fill="#010102" transform="matrix(0.881391 0 0 0.880157 -234.45 -20.2441)" d="M535.5 43.8583C542.638 33.2764 547.759 29.374 561.12 31.8349C554.96 34.2566 554.318 34.4274 550.169 39.3474C576.758 33.6379 597.557 41.7826 616.95 60.8132C621.583 65.3596 617.066 68.0099 613.514 70.1873C618.973 75.2705 625.909 87.8203 628.819 94.8439C632.131 102.837 624.358 104.932 618.283 106.913C618.098 115.047 617.18 123.776 609.191 128.175C606.838 126.454 608.709 120.138 605.892 113.999L605.581 113.339C602.232 124.367 591.275 157.873 585.86 166.542C583.678 170.033 581.031 173.21 577.992 175.986C575 178.739 567.645 182.572 566.851 184.815C569.096 187.346 573.853 188.093 577.034 189.502C584.898 192.983 587.977 197.649 592.148 204.495C617.869 220.111 626.998 231.895 638.292 258.766C647.015 241.632 653.865 222.941 663.793 206.421C664.461 205.309 666.922 204.252 668.076 203.738C673.72 204.055 710.488 209.248 713.946 211.019C715.416 211.771 716.388 213.046 716.882 214.593C717.611 216.872 717.269 219.331 716.614 221.583C714.343 229.384 705.328 245.834 701.496 253.867C714.151 271.464 711.503 279.084 706.062 298.349C703.961 306.07 701.914 313.804 699.923 321.553C726.014 334.667 725.599 372.147 698.982 380.837C695.481 406.464 682.081 429.147 652.479 427.527C645.253 427.132 639.795 424.472 633.182 421.751C634.494 428.304 637.778 438.639 639.661 445.307L651.96 489.01C661.218 521.725 663.457 521.309 629.473 534.868C630.239 538.708 631.714 542.73 632.955 546.455C637.274 559.415 641.105 572.523 645.24 585.542C650.531 602.304 655.726 619.097 660.825 635.919C665.538 651.429 671.334 669.16 673.038 685.355C674.489 699.137 673.296 715.328 672.432 729.169C671.75 740.088 671.255 750.663 670.312 761.603C670.018 761.641 669.571 761.632 669.336 761.838C668.656 766.644 667.524 768.203 668.65 773.745C669.567 778.258 667.222 783.066 669.134 788.209C668.481 801.399 667.581 814.575 666.435 827.731C662.811 832.353 663.953 832.978 664.695 838.326C665.179 841.818 663.383 844.725 664.975 848.688L665.2 849.263C664.74 855.395 664.174 870.809 661.638 875.418C656.679 884.432 635.841 884.875 626.439 887.608L625.778 887.805C624.749 891.63 624.086 896.13 623.557 900.072C630.138 901.314 633.294 901.611 636.012 908.226C636.585 909.621 637.512 911.76 638.515 912.869L640.121 912.348C641.419 914.434 637.761 920.661 641.274 923.871C644.276 924.235 648.324 920.189 651.955 918.241L652.585 917.909C652.256 921.037 651.614 924.159 651.039 927.254L655.591 928.826C658.424 926.497 660.369 925.138 663.436 923.101L661.778 931.126C663.889 932.042 666.475 932.924 668.664 933.735C670.963 931.664 672.718 930.101 675.192 928.225C674.336 930.988 673.699 932.32 672.482 934.875C679.042 936.988 685.329 939.445 692 941.378C700.408 943.813 711.758 944.419 718.181 950.622C721.529 953.835 723.483 958.234 723.622 962.873L724.033 963.268L724.709 963.938C727.94 967.102 729.838 969.959 729.809 974.661C729.711 990.702 706.487 987.223 695.832 987.185L655.24 987.069C633.077 987.287 610.912 987.328 588.748 987.191C578.459 987.17 567.908 987.278 557.619 987.039C553.488 986.942 550.199 985.205 547.531 981.983C544.548 978.352 543.18 973.659 543.742 968.993C544.286 964.654 546.2 961.795 549.541 959.18C551.706 948.835 553.697 937.765 556.162 927.522C558.106 919.443 564.475 914.963 571.362 911.225C572.033 903.495 572.86 895.78 573.843 888.083C565.965 886.664 546.785 881.689 545.62 872.971C544.347 863.451 546.767 845.169 547.727 835.348L557.267 733.652C558.31 721.683 560.338 705.056 560.337 693.45C560.337 690.261 553.086 669.48 551.46 664.69C545.436 646.938 539.675 628.701 533.522 610.988C531.162 619.36 530.062 630.786 528.689 639.539C525.862 657.568 523.796 676.367 520.538 694.271C519.051 702.471 517.419 710.644 515.642 718.786C508.701 749.818 501.166 779.82 493.531 811.816C489.435 828.98 481.535 867.456 475.36 884.007C473.41 889.234 445.757 889.75 437.602 889.053C436.771 892.553 435.085 897.094 433.893 900.589C445.607 906.156 441.64 910.273 444.794 913.151C445.999 912.384 446.875 911.648 448.271 911.47C449.715 914.094 446.659 920.994 450.052 923.883C451.768 923.964 458.497 918.848 461.3 917.356L461.918 917.034C461.067 920.901 460.671 923.125 460.261 927.054L465.107 928.729C467.784 926.633 470.439 924.509 473.071 922.357C472.735 925.834 472.562 927.885 471.732 931.283C472.82 931.679 473.91 932.066 475.004 932.444C477.33 933.243 478.346 933.787 480.509 932.736L480.986 930.854C482.343 930.385 481.65 930.455 483.113 930.93C483.299 933.093 482.532 935.465 484.922 936.596C499.223 943.367 525.5 942.146 526.554 963.034C532.592 968.204 535.664 973.828 531.176 981.429C526.647 989.101 511.916 987.095 503.985 987.114L465.179 987.137L396.968 987.099C385.505 987.088 373.827 987.296 362.385 986.994C358.834 986.9 355.506 986.451 352.757 984.154C348.713 980.775 347.542 978.295 346.755 973.344C345.503 965.47 351.961 960.706 352.711 958.054C355.878 946.856 356.783 928.602 363.768 919.502C368.29 913.61 374.832 912.363 381.702 911.646C383.031 902.115 385.266 893.319 387.676 884.014C381.359 882.276 354.97 874.071 356.689 864.608C359.325 850.104 363.81 834.504 367.396 820.073L388.749 733.762L396.33 702.61C398.569 693.276 400.599 685.664 401.273 676.031C402.159 663.358 403.108 650.649 404.082 637.983C406.607 607.834 408.853 577.663 410.821 547.473C399.69 544.319 383.767 544.141 374.911 535.138C371.096 531.26 373.886 518.974 374.597 513.642C375.689 505.394 376.707 497.136 377.652 488.869C361.995 487.182 336.454 483.069 324.759 471.408C316.544 463.217 316.257 454.498 316.498 443.994C295.782 437.714 300.011 422.126 301.344 405.378C302.391 392.204 304.41 379.336 306.282 366.278C303.092 366.442 297.894 367.337 295.681 365.013C294.255 358.141 311.09 336.611 316.622 332.275C318.862 330.519 322.989 328.436 325.644 327.272C326.588 322.134 327.177 315.439 327.775 310.125C323.29 308.754 318.73 307.441 314.749 304.885C310.789 302.343 306.867 297.723 306.091 292.944C305.566 289.719 305.75 286.299 306.37 283.104C308.143 273.962 322.353 227.064 327.195 220.853C331.053 215.906 336.575 214.669 342.425 213.919C336.088 204.073 325.469 190.301 318.249 181.001C304.595 163.412 293.215 145.757 303.072 123.091C305.787 116.918 309.996 111.517 315.319 107.376C324.153 100.466 340.219 94.4712 350.587 89.7873C362.238 84.5235 374.764 78.3293 386.598 73.6491C389.202 67.8984 391.359 63.4452 396.575 59.5986C409.913 49.7637 426.298 51.6532 439.856 59.5014C463.904 53.6633 487.705 40.7073 513.029 38.0901C524.905 36.8627 526.186 36.6507 535.5 43.8583ZM547.639 207.369C546.77 207.955 544.913 209.376 543.996 210.065L542.176 211.266C533.019 215.114 531.746 215.524 521.651 215.546L519.49 215.535C519.015 216.996 514.769 217.154 513.1 217.457C507.112 215.037 508.757 211.983 501.459 212.087C500.632 212.099 500.343 210.333 499.511 209.523C493.28 206.174 492.533 207.839 493.077 213.824C493.258 215.962 493.817 218.174 495.37 219.708L495.373 219.782C494.894 220.093 494.626 219.626 494.15 219.649C493.303 221.071 500.512 240.441 498.802 243.403C504.422 274.181 505.013 294.146 503.995 325.107L502.284 374.047C501.069 410.558 499.542 447.058 497.701 483.543C505.408 482.206 514.424 479.307 522.877 477.734C548.71 472.926 570.26 472.942 596.188 474.668C593.366 459.425 591.037 441.732 588.526 426.16L571.555 318.747L564.329 273.306C562.886 264.04 561.325 251.554 559.153 242.667C553.482 237.336 555.622 222.225 553.241 214.749C552.629 212.828 552.394 207.51 551.009 206.279C552.768 207.842 547.787 203.843 549.81 205.49L547.639 207.369ZM524.527 984.869C528.668 982.446 529.621 981.184 531.06 976.773C532.658 971.878 528.849 964.839 523.705 964.426C505.915 962.999 487.04 963.807 469.293 963.252C442.805 962.259 416.309 961.485 389.808 960.931C380.142 960.699 363.433 959.61 354.382 960.138C350.712 963.57 348.96 965.705 348.571 970.949C348.071 977.703 352.754 984.468 359.689 985.09C367.063 985.751 374.527 985.508 381.906 985.49L418.669 985.496L479.482 985.392C492.41 985.431 507.513 985.856 520.27 985.45C521.704 985.391 523.13 985.196 524.527 984.869ZM647.976 962.597C626.598 962.591 605.044 961.215 583.64 960.972C573.725 960.86 563.738 960.123 553.812 960.213C552.041 960.206 549.658 961.292 548.347 962.531C541.114 969.361 547.406 984.946 556.96 985.359C566.043 985.752 575.854 985.481 585.099 985.448L633.492 985.461L688.089 985.448C697.678 985.453 707.694 986.031 717.246 985.271C720.91 984.979 723.112 984.225 725.495 981.293C727.491 978.839 728.459 976.165 728.012 972.992C727.607 970.114 726.044 967.447 723.626 965.807C718.177 962.111 682.832 963.74 673.844 963.387C670.286 963.611 651.622 963.054 647.976 962.597ZM462.601 94.7288C462.72 100.585 463.006 105.521 461.171 111.201C457.378 122.94 447.671 128.549 435.639 128.273C433.85 128.227 432.062 128.163 430.275 128.08C425.181 136.882 414.923 137.877 405.505 142.586L405.009 150.994C412.499 154.748 419.983 158.305 427.457 162.126C429.35 157.751 430.883 157.268 435.349 155.396C447.344 152.105 459.883 153.689 469.628 162.162C474.295 166.22 479.682 165.791 484.981 168.022C489.157 158.987 494.716 147.633 498.407 138.591C494.146 131.653 494.874 126.104 494.073 118.414C493.467 112.601 492.628 108.213 492.781 102.231L492.794 101.52C487.021 98.8315 483.268 95.7031 478.42 91.6422C478.184 91.4447 476.671 91.5286 476.282 91.6074C472.365 92.5165 466.262 94.26 462.601 94.7288ZM666.768 309.76C667.726 302.215 668.24 299.677 671.559 292.826C663.189 288.05 634.836 277.137 652.627 266.544C653.194 266.207 650.844 255.143 657.822 254.891C666.117 254.591 674.445 261.399 682.105 264.236C684.515 263.589 684.075 264.331 685.37 262.093C682.309 258.529 653.4 236.206 675.383 234.31C679.003 233.998 697.517 249.026 700.77 252.591C702.967 246.854 714.96 222.791 715.185 219.808C712.171 217.222 703.205 216.607 698.961 216.143C690.01 215.166 679.367 211.984 670.585 211.983L669.699 211.977C656.057 240.36 642.979 269.072 628.617 297.088C627.557 299.156 628.278 303.399 630.326 303.857C641.854 306.438 655.062 307.792 666.768 309.76ZM354.2 958.396C362.813 959.21 373.122 958.976 381.931 959.236L445.05 960.701L454.789 960.828C449.33 944.492 430.015 931.487 414.307 926.296C401.718 930.901 381.115 937.744 372.027 922.072C371.252 920.736 372.07 917.03 371.059 916.014C362.025 921.427 361.008 927.976 359.021 937.654C357.597 944.59 355.869 951.517 354.2 958.396ZM551.436 958.501C560.433 959.158 569.579 958.766 578.498 959.191C599.13 960.175 620.344 959.895 640.875 960.713L650.602 960.893C644.005 945.804 629.989 933.391 614.747 927.474C613.452 926.98 612.145 926.518 610.826 926.09L610.304 926.215C606.814 927.084 603.778 928.583 600.371 929.581C588.576 933.035 570.742 933.866 567.566 918.619C567.45 918.036 567.355 917.449 567.283 916.859L566.914 916.504C555.814 923.828 554.25 944.817 551.617 957.593L551.436 958.501ZM414.972 924.426C432.814 930.939 448.502 941.86 456.786 959.588C456.977 959.999 457.162 960.412 457.341 960.828C477.668 961.695 504.346 962.659 524.754 962.5C523.184 952.009 516.966 948.401 507.594 945.723C501.685 943.932 495.461 941.907 489.465 940.541C486.923 942.404 481.488 947.372 479.015 947.147C477.74 944.113 481.184 938.176 478.911 936.266C475.403 936.679 469.258 942.809 466.743 945.251C467.636 940.685 468.997 937.358 470.039 933.111L465.811 931.607C462.323 934.251 458.809 936.869 455.428 939.648C456.168 935.626 456.764 932.475 457.853 928.552L449.793 925.826C448.542 928.048 448.051 929.319 446.05 930.911L444.787 931.19C442.476 929.122 443.35 926.253 443.588 923.298C440.773 922.342 432.728 920.018 431.393 917.901C432.959 916.538 436.411 917.472 438.346 917.844C439.739 917.022 441.545 916.031 442.858 915.158C440.416 904.848 434.734 900.921 424.001 901.581C410.419 905.089 413.618 913.041 414.972 924.426ZM653.057 961.61C656.176 960.467 688.208 961.375 692.743 961.917C702.419 961.825 712.339 962.459 722.141 962.538C721.672 960.342 721.189 958.173 720.116 956.183C718.475 953.189 715.992 950.743 712.973 949.148C708.457 946.714 688.362 942.363 681.185 940.151C677.03 942.757 674.407 945.655 669.716 947.931C669.931 944.61 671.752 938.908 670.988 936.667L669.939 936.153C665.528 936.502 660.782 940.675 657.221 943.409C658.029 940.054 659.185 936.277 660.132 932.917L656.24 931.422C652.73 933.895 649.27 936.439 645.864 939.053C646.687 935.556 647.528 932.064 648.388 928.576L642.434 926.6L634.206 932.9C634.968 929.42 635.487 927.554 636.817 924.242C632.56 922.202 629.23 921.827 624.851 919.924L624.623 919.156C626.937 917.729 632.608 919.301 635.1 917.036C638.543 913.908 634.763 907.501 631.925 905.208C626.647 900.943 615.794 899.316 611.153 905.428C608.537 909.075 611.42 920.242 612.283 924.493C628.443 929.664 647.284 945.357 653.057 961.61ZM661.865 324.665C663.409 323.91 664.741 323.447 666.329 322.834C666.346 320.882 666.426 318.91 666.48 316.954C660.384 316.038 650.48 313.934 644.688 314.009C645.63 318.085 649.667 327.186 651.673 330.921C655.598 328.232 657.459 326.691 661.865 324.665ZM488.162 197.171C492.758 197.489 494.901 199.456 498.5 202.35C498.192 202.136 505.68 205.763 506.699 206.337C508.551 207.18 509.501 207.399 511.501 207.931L514.651 208.128C517.745 210.022 525.731 207.357 527.534 207.85C529.79 208.451 532.165 208.439 534.415 207.817C537.23 207.361 537.636 207.202 540.321 206.121C543.79 202.744 544.03 202.449 548.524 201.785C549.773 201.6 549.661 200.86 550.406 199.882C550.487 193.508 551.629 192.457 546.21 194.501L546.067 194.843L545.935 195.663C545.755 197.008 545.237 198.182 544.656 199.394C543.998 199.916 544.017 199.989 543.494 200.673C542.501 201.973 540.823 202.313 539.497 203.319C537.442 204.365 535.872 205.142 533.733 205.941C530.906 205.453 527.137 206.424 523.932 206.525C520.056 205.517 516.478 204.956 512.568 204.257C511.182 203.712 510.288 203.274 509 202.542L509.468 201.5C506.251 199.881 503.006 198.29 499.782 196.671C493.413 192.66 488.828 188.592 483.184 183.834C482.776 183.451 480.8 181.32 480.293 181.4C479.977 181.898 481.307 184.279 481.542 184.814C483.071 191.234 483.853 192.762 488.162 197.171ZM579.637 928.27C580.447 928.412 580.739 928.754 581.506 928.948C585.303 929.909 590.227 930.06 594.013 929.026C594.57 928.872 594.038 928.795 594.931 928.833C600.484 927.894 604.002 926.288 609.019 923.972C610.25 923.403 609.381 916.799 607.79 918.055C602.799 921.997 597.597 924.864 591.248 925.985C588.446 926.751 582.469 926.41 579.918 924.77C575.93 922.206 575.063 926.681 578.825 927.947L579.637 928.27ZM572.963 844.667C572.356 846.318 572.411 849.867 572.699 851.646L572.353 853.478L572.56 854.777C573.901 854.513 575.139 854.412 576.497 854.149L576.612 853.056C575.196 853.048 574.906 853.135 573.697 852.514C574.004 850.236 574.263 845.53 574.445 842.933C574.373 835.593 575.556 823.244 576.16 815.697C577.546 799.693 578.715 783.671 579.668 767.636C579.951 765.342 579.977 763.376 580.217 761.158C580.396 759.745 580.42 759.364 580.403 757.95C580.493 756.145 580.501 754.767 580.467 752.978C581.198 744.086 582.422 730.354 582.451 721.645C582.56 719.845 582.783 718.13 582.93 716.331C583.059 713.754 583.246 711.799 583.447 709.247C583.489 707.423 583.475 705.838 583.71 704.023C583.997 701.711 584.026 700.626 584.018 698.299L584.253 697.87C584.533 694.173 584.776 689.276 584.198 685.66C584 685.036 583.777 684.377 583.624 683.743C582.709 679.837 581.612 675.975 580.336 672.172C580.194 671.61 580.061 671.077 579.901 670.52C579.52 669.563 579.004 667.558 578.791 666.562C577.839 663.948 577.13 661.146 576.309 658.477C576.126 657.967 575.934 657.461 575.735 656.958L575.287 655.662C571.098 642.544 566.988 629.401 562.955 616.234C561.809 612.53 558.567 600.978 557.073 598.229L556.533 598.108C556.004 599.878 559.927 610.173 560.691 612.747C564.956 627.365 569.465 641.911 574.218 656.378L574.679 657.871C574.898 658.689 575.032 659.285 575.204 660.114C576.164 662.45 576.804 664.951 577.688 667.358C577.996 668.772 578.411 669.673 578.591 671.005C578.854 671.753 578.918 671.864 579.31 672.541C580.715 678.04 582.372 682.33 583.209 688.075C583.045 689.954 583.091 692.498 583.069 694.461C582.997 696.094 582.901 697.531 582.761 699.153C582.581 699.908 582.599 700.077 582.566 700.864L582.424 706.772C581.863 710.115 581.536 715.88 581.534 719.285C581.501 720.037 581.495 720.713 581.491 721.463C581.36 723.927 581.063 726.279 580.918 728.831C580.428 731.617 580.505 732.92 580.579 735.77L580.535 736.778C580.328 742.37 579.475 747.161 579.579 752.923C579.468 753.985 579.345 755.045 579.207 756.104C578.963 757.51 578.974 759.46 578.87 760.961C578.655 762.456 578.579 763.614 578.49 765.102C578.476 771.95 577.635 779.108 577.243 785.966C576.149 805.106 573.432 825.574 572.963 844.667ZM589.137 274.763C592.45 284.783 595.011 295.258 598.33 305.297C600.245 311.087 601.548 317.919 603.748 323.482C604.596 322.193 604.557 322.265 604.875 320.717C604.655 320.058 604.407 319.354 604.211 318.691C599.622 302.846 594.887 287.044 590.006 271.287C589.365 272.927 589.267 272.977 589.137 274.763ZM481.017 177.584C482.631 173.72 482.725 172.999 483.279 169.089C479.809 168.038 476.575 167.287 473.135 166.341C474.306 168.806 475.563 171.682 476.826 174.069C478.158 176.586 478.916 181.007 481.017 177.584ZM416.977 727.368C417.953 723.524 418.816 719.67 419.797 715.837C420.095 714.546 420.405 713.8 420.602 712.468C421.5 708.543 422.563 703.343 423.695 699.605C423.992 698.359 424.341 697.16 424.416 695.876L424.714 694.826C426.056 689.655 426.388 685.298 426.771 680.036C426.087 679.651 426.103 679.925 425.671 680.456C425.289 684.264 424.665 689.361 423.731 693.02C423.576 693.906 423.414 694.791 423.244 695.675C422.842 696.658 422.693 697.704 422.544 698.751C421.752 702.492 420.642 706.895 419.633 710.598C419.301 712.53 418.766 713.503 418.624 715.643C417.662 718.814 416.724 722.852 416.137 726.126C412.078 740.191 407.809 756.177 404.588 770.467L403.951 772.687C404.311 773.327 404.679 773.963 405.054 774.595C405.369 773.322 405.563 772.215 405.949 770.951L408.127 762.506L408.335 761.716L408.841 759.72L410.363 753.731L410.866 751.732L411.368 749.733L411.606 748.757C413.266 742.154 415.698 733.856 416.977 727.368ZM435.742 586.013C435.426 587.33 435.226 589.657 435.15 591.024L436.189 592.885C436.483 590.625 436.68 588.353 436.78 586.076C438.797 568.698 440.591 551.296 442.16 533.872C442.93 532.183 442.444 529.483 441.964 527.741C440.258 533.687 440.104 546.411 438.912 553.31C438.57 555.157 438.395 555.545 438.678 557.357C437.471 565.788 436.336 577.428 435.742 586.013ZM394.648 927.396C397.279 927.756 398.554 927.598 400.925 928.554C401.197 928.482 401.468 928.411 401.74 928.34C404.049 927.578 406.223 927.034 408.517 926.185C410.136 925.718 413.301 925.317 412.656 923.386C412.357 918.806 412.215 920.067 407.949 922.621C406.538 922.868 405.483 923.5 404.191 924.126C401.936 924.632 399.829 925.351 397.494 925.806L395.672 925.928C391.1 925.964 389.809 925.82 385.44 924.163C382.687 923.119 381.665 920.43 381.567 923.482C381.438 927.507 379.881 926.763 383.571 928.749C386.809 927.58 391.212 927.488 394.648 927.396ZM533.916 603.945C531.279 604.521 532.313 607.455 533.335 609.118C535.453 610.077 535.413 606.378 535.617 604.756C536.455 598.086 537.323 591.451 538.531 584.829L538.946 582.556C538.127 582.741 538.086 582.83 537.26 583.277L537.53 584.522C537.024 586.779 536.769 588.468 536.446 590.747C535.96 594.019 535.369 597.274 534.675 600.508C534.33 602.161 534.547 602.154 533.916 603.945ZM459.406 867.306C458.07 866.615 456.946 866.079 455.512 865.631L454.847 866.838C455.994 867.403 457.153 867.959 458.344 868.424C460.335 869.298 474.011 877.285 473.89 877.342C474.873 875.11 461.337 868.292 459.406 867.306ZM675.329 942.056C680.443 938.406 679.015 939.336 672.746 937.134C672.255 942.618 670.887 945.34 675.329 942.056ZM480.525 944.354C481.618 943.558 482.675 942.862 483.75 942.092C484.234 941.697 486.272 940.238 486.676 939.629C486.956 939.207 485.406 938.863 485.303 938.878C484.14 938.562 483.138 937.96 482.139 937.318C481.533 939.569 481.085 942.02 480.525 944.354ZM427.757 659.761C427.515 661.868 427.316 663.826 427.042 665.937C427.579 665.244 428.125 664.558 428.678 663.877C428.919 663.076 428.868 663.047 428.882 662.126L429.045 659.912L429.205 659.418C429.561 657.481 429.579 655.138 429.94 652.821C430.033 651.144 430.35 649.56 430.379 647.93C429.503 647.678 429.609 647.517 429.307 646.679C428.91 647.72 428.586 651.628 428.478 652.842C428.455 653.498 428.523 654.094 428.573 654.752C428.299 656.458 427.998 658.032 427.757 659.761ZM443.456 919.308L444.627 919.891C445.207 924.004 447.261 916.668 446.453 915.654C445.726 915.544 444.964 916.972 444.603 917.476L443.438 917.585C438.433 919.648 441.623 920.852 443.456 919.308ZM634.738 857.22C635.801 857.434 636.658 857.638 637.702 857.93C639.446 858.518 641.227 859.056 642.983 859.622C644.696 860.278 646.749 861.28 648.505 862.022L649.321 860.915C647.673 860.133 646.881 859.736 645.147 859.216C642.524 858.199 640.764 857.515 638 856.678C637.236 856.372 637.021 856.337 636.2 856.166C635.331 855.828 634.457 855.5 633.581 855.181C632.344 855.007 631.968 854.977 630.795 854.625C629.911 854.422 629.296 854.259 628.386 854.168L626.626 853.775C625.536 853.429 624.974 853.328 623.854 853.135C623.161 853.052 622.474 852.964 621.789 852.832L621.086 852.706L621.282 854.248C622.04 854.37 622.36 854.383 623.13 854.415C624.211 854.685 624.615 854.744 625.74 854.88L627.498 855.189C628.357 855.524 629.158 855.729 630.042 855.978C630.895 856.031 631.078 856.085 631.955 856.261C632.985 856.576 633.723 856.824 634.738 857.22ZM592.992 206.669C593.629 208.007 594.381 209.797 595.05 211.042C597.341 208.389 596.559 211.314 597.795 210.397L598.209 210.107C597.05 208.818 594.501 207.569 592.992 206.669ZM659.356 929.147C659.05 929.455 658.76 929.671 658.704 929.9C658.994 929.827 659.285 929.753 659.575 929.679C659.692 929.512 659.908 929.288 659.93 929.073C659.778 929.008 659.644 929.08 659.356 929.147ZM637.39 917.087C633.682 919.077 630.744 918.691 634.489 920.61C635.129 920.825 636.599 921.495 637.216 921.488C637.652 921.131 638.125 917.79 637.39 917.087ZM550.248 863.192C554.252 861.284 558.611 858.862 562.778 857.596L561.063 856.75C556.619 857.969 553.043 859.542 550.248 863.192ZM651.091 932.67C651.631 932.205 652.904 931.369 653.108 930.722C652.938 930.098 651.096 929.658 650.447 929.379C650.01 930.973 648.268 934.364 651.091 932.67ZM433.328 610.095C432.619 612.141 432.324 618.107 432.014 620.692L433.198 621.584C433.738 618.016 434.107 613.912 434.484 610.299L433.328 610.095Z"/><path fill="#0B7E66" transform="matrix(0.881391 0 0 0.880157 -234.45 -20.2441)" d="M407.48 286.604C403.965 281.022 396.908 273.907 392.413 268.922L364.141 237.668C351.382 223.391 339.602 207.08 328.021 191.536C314.483 173.367 297.201 155.924 302.124 131.09C307.855 102.28 343.305 96.7522 365.502 84.9213C368.58 83.2812 383.5 76.0711 385.743 75.862C410.699 73.5358 435.81 97.3653 429.959 123.225C427.328 134.854 416.388 135.444 407.304 139.864C392.9 145.701 375.748 152.761 360.072 153.565L359.562 154.241C362.849 158.936 398.049 145.483 404.098 142.899C403.3 152.781 402.108 158.462 396.794 167.152C395.785 168.801 393.127 172.069 392.838 173.566L393.448 173.986C397.597 172.796 403.471 157.436 404.579 153.047C421.457 161.114 429.945 161.697 438.037 180.991C442.159 190.818 443.041 191.77 442.494 203.222C440.852 237.547 426.145 268.93 415.547 301.076C414.991 302.76 413.285 306.705 413.738 308.227L414.464 308.154C417.09 304.019 421.083 290.751 423.086 285.244C431.134 263.121 444.443 227.703 444.516 204.135L445.802 202.481C447.799 210.974 450.104 221.493 450.435 230.263C452.047 272.969 438.518 318.91 416.503 355.275C409.318 367.142 401.084 376.363 391.069 385.583C392.303 348.291 392.222 310.522 393.715 273.442C398.055 278.315 401.865 283.383 407.48 286.604Z"/><defs><linearGradient id="gradient_0" gradientUnits="userSpaceOnUse" x1="578.25275" y1="220.47168" x2="507.10199" y2="484.18594"><stop offset="0" stop-color="white" stop-opacity="0.94509804"/><stop offset="1" stop-color="white"/></linearGradient></defs><path fill="url(#gradient_0)" transform="matrix(0.881391 0 0 0.880157 -234.45 -20.2441)" d="M549.81 205.49C547.787 203.843 552.768 207.842 551.009 206.279C552.394 207.51 552.629 212.828 553.241 214.749C555.622 222.225 553.482 237.336 559.153 242.667C561.325 251.554 562.886 264.04 564.329 273.306L571.555 318.747L588.526 426.16C591.037 441.732 593.366 459.425 596.188 474.668C570.26 472.942 548.71 472.926 522.877 477.734C514.424 479.307 505.408 482.206 497.701 483.543C499.542 447.058 501.069 410.558 502.284 374.047L503.995 325.107C505.013 294.146 504.422 274.181 498.802 243.403C500.512 240.441 493.303 221.071 494.15 219.649C494.626 219.626 494.894 220.093 495.373 219.782L495.37 219.708C493.817 218.174 493.258 215.962 493.077 213.824C495.349 212.866 498.587 212.203 499.511 209.523C500.343 210.333 500.632 212.099 501.459 212.087C508.757 211.983 507.112 215.037 513.1 217.457C514.769 217.154 519.015 216.996 519.49 215.535L521.651 215.546C520.045 217.031 520.254 216.798 518.499 217.713C518.661 217.844 518.823 217.976 518.986 218.108C519.456 218.757 519.287 221.372 520.037 221.737C520.874 222.144 520.3 218.806 520.588 218.564C524.006 215.87 531.446 218.604 535.936 217.195C541.945 215.308 539.328 214.672 540.293 213.245C541.459 212.711 542.346 213.885 542.176 211.266L543.996 210.065C544.374 212.552 544.158 210.966 545.902 212.445C548 214.224 554.145 210.173 547.639 207.369L549.81 205.49Z"/><path fill="#010102" transform="matrix(0.881391 0 0 0.880157 -234.45 -20.2441)" d="M572.411 381.286C573.276 381.784 572.906 381.423 573.413 382.468C562.352 398.87 527.826 430.345 511.394 441.4C511.066 441.294 511.302 441.414 510.585 440.739C511.14 439.648 534.508 420.753 537.698 417.829C550.196 406.37 561.364 394.118 572.411 381.286Z"/><path fill="#0B7E66" transform="matrix(0.881391 0 0 0.880157 -234.45 -20.2441)" d="M488.102 254.484C493.87 267.764 500.139 288.12 502.715 302.354C503.22 305.145 502.656 317.193 502.545 320.601L501.136 357.166C500.641 369.524 500.125 382.073 499.903 394.432C499.279 429.217 495.775 464.574 495.421 499.296C483.665 494.458 465.617 492.096 452.762 491.515C432.304 490.591 412.54 493.035 392.985 499.1C390.581 499.846 384.887 501.678 383.123 503.316C383.712 503.873 399.236 499.099 401.561 498.488C434.237 489.906 463.126 492.059 495.406 501.09L494.923 508.123C494.684 511.445 494.596 514.855 494.472 518.191C450.21 509.401 416.753 506.578 374.37 526.744C375.13 522.712 375.66 518.391 376.134 514.304C380.02 480.751 386.002 447.389 390.236 413.91C393.013 412.168 396.819 409.834 399.416 407.978C435.806 381.963 465.941 329.521 479.786 288.115C483.376 277.123 486.155 265.882 488.102 254.484Z"/><path fill="#010102" transform="matrix(0.881391 0 0 0.880157 -234.45 -20.2441)" d="M457.754 427.374C458.853 428.477 458.442 429.424 457.787 430.802C448.694 449.943 431.776 466.962 412.158 474.868C411.967 474.62 411.171 473.598 411.843 473.304C428.745 465.929 442.413 452.648 452.313 437.246C454.27 434.201 455.866 430.633 457.754 427.374Z"/><path fill="#D0987B" transform="matrix(0.881391 0 0 0.880157 -234.45 -20.2441)" d="M568.79 73.4907C573.697 84.4322 580.946 93.9492 589.549 102.271C591.084 103.756 594.613 107.045 596.643 106.972C597.417 105.048 593.626 96.85 592.634 93.9559C596.899 99.365 599.599 105.017 604.644 111.035C603.607 113.795 601.555 122.299 599.341 123.273C594.115 123.104 592.728 117.207 589.227 114.004L588.518 114.304C586.855 118.708 596.444 124.356 599.893 125.7C592.553 144.55 588.532 169.828 569.48 180.23C556.1 187.537 538.938 182.205 528.701 171.932C523.495 166.708 521.664 162.451 518.302 156.061L517.462 156.248C516.462 163.787 525.607 182.129 530.513 188.243C534.553 192.351 537.181 194.151 542.6 195.775C522.726 212.993 496.812 194.586 482.029 179.802C489.34 162.676 497.123 145.756 505.369 129.06C507.048 129.382 509.28 129.982 510.701 129.043C498.507 123.069 494.233 117.899 494.44 103.941C494.556 96.1449 500.117 89.1246 508.554 89.3152C523.485 89.6523 521.344 109.639 522.807 111.4C528.792 112.452 535.331 102.097 537.867 97.6073C554.919 96.7583 565.478 91.6661 568.79 73.4907Z"/><path fill="#010102" transform="matrix(0.881391 0 0 0.880157 -234.45 -20.2441)" d="M560.698 118.415C568.862 118.66 567.036 125.381 562.956 129.957C554.518 132.842 556.261 122.541 560.698 118.415Z"/><path fill="#010102" transform="matrix(0.881391 0 0 0.880157 -234.45 -20.2441)" d="M587.117 124.864C594.195 126.614 592.151 134.355 587.472 137.306L586.865 137.701C579.722 135.093 582.151 128.465 587.117 124.864Z"/><path fill="#010102" transform="matrix(0.881391 0 0 0.880157 -234.45 -20.2441)" d="M574.782 122.176C574.787 122.179 575.665 122.754 575.668 122.761C576.961 126.379 578.097 138.312 578.404 141.502C579.117 148.923 578.073 149.14 571.707 149.523C568.658 146.002 575.915 148.642 576.438 146.638C578.102 140.257 573.919 128.266 574.782 122.176Z"/><path fill="#010102" transform="matrix(0.881391 0 0 0.880157 -234.45 -20.2441)" d="M504.236 98.403C509.855 99.2088 515.104 107.33 513.151 109.287C512.32 109.41 510.277 106.092 508.126 109.806C507.024 111.708 506.873 113.006 507.45 115.076L507.849 116.473C511.339 121.796 497.933 114.499 510.726 105.31C508.249 102.293 506.889 101.085 504.236 98.403Z"/><path fill="#010102" transform="matrix(0.881391 0 0 0.880157 -234.45 -20.2441)" d="M571.318 106.341C572.272 107.136 572.58 107.68 571.646 108.823C568.2 113.039 561.574 112.96 556.629 113.009C553.398 109.086 564.706 113.221 570.622 107.048L571.318 106.341Z"/><path fill="#010102" transform="matrix(0.881391 0 0 0.880157 -234.45 -20.2441)" d="M555.598 152.175C562.952 152.885 563.979 154.428 569.189 159.513C565.468 157.764 565.957 157.995 562.535 155.573C557.88 153.473 555.06 154.309 550.27 154.554C550.052 154.566 549.542 154.249 549.828 153.955C551.274 152.47 553.669 152.432 555.598 152.175Z"/><path fill="#FC7243" transform="matrix(0.881391 0 0 0.880157 -234.45 -20.2441)" d="M443.959 155.173C467.125 155.509 471.066 165.029 478.989 184.147C499.837 234.457 480.589 292.673 455.346 337.712C436.576 371.203 408.331 409.384 369.734 419.763C362.797 421.542 357.304 421.967 350.237 422.54C350.195 417.096 350.206 411.651 350.267 406.206C357.185 405.031 361.757 404.106 368.364 401.674C397.253 391.045 419.536 358.174 431.467 330.761C449.536 289.246 460.678 235.864 444.857 192.116C442.475 185.529 439.041 178.71 435.619 172.585C433.562 168.905 431.123 165.267 429.616 161.36C430.655 157.573 440.386 155.662 443.959 155.173Z"/><path fill="#0B7E66" transform="matrix(0.881391 0 0 0.880157 -234.45 -20.2441)" d="M564.655 233.298C568.68 234.022 572.71 234.721 576.744 235.395C580.805 248.54 584.936 261.662 589.137 274.763C592.45 284.783 595.011 295.258 598.33 305.297C600.245 311.087 601.548 317.919 603.748 323.482L652.419 497.228C633.311 490.635 620.622 490.589 601.231 493.18L580.952 365.536L574.731 326.82C573.717 320.384 571.325 308.793 571.46 302.548C571.908 281.893 572.625 258.835 574.621 238.432C571.068 236.871 567.905 235.418 564.655 233.298Z"/><path fill="#FC7243" transform="matrix(0.881391 0 0 0.880157 -234.45 -20.2441)" d="M350.824 224.826C353.877 227.615 360.981 236.929 364.907 241.129C363.698 243.382 362.628 245.707 361.703 248.091C358.574 256.088 348.329 295.326 350.706 300.649L351.547 300.798C352.285 299.26 354.198 285.551 354.717 282.808C357.262 269.356 360.277 255.195 366.227 242.808L391.607 271.11C391.825 301.17 390.755 335.844 389.702 365.875C389.346 372.631 389.474 380.119 389.208 387.086C377.38 396.881 365.269 401.618 350.331 404.286C350.051 389.692 349.932 373.775 352.92 359.324C354.073 353.751 363.852 330.262 361.226 326.777C356.686 324.946 333.461 326.617 327.325 327.095C328.072 318.358 330.521 304.917 331.994 296.187C335.984 272.543 339.914 246.408 350.824 224.826Z"/><path fill="#0B7E66" transform="matrix(0.881391 0 0 0.880157 -234.45 -20.2441)" d="M595.05 211.042C597.341 208.389 596.559 211.314 597.795 210.397L598.209 210.107C615.62 221.944 631.643 240.565 636.836 261.31C631.085 272.919 624.215 285.278 619.791 297.302C614.046 312.915 633.678 311.288 642.303 313.175C644.132 317.892 646.929 325.942 648.946 330.193C638.989 332.952 633.719 338.61 628.251 347.296C625.119 352.27 620.13 367.458 621.532 372.697L622.404 373.666L623.049 373.338C624.347 359.394 627.674 346.655 638.928 337.415C641.312 335.458 647.927 331.168 651.004 332.366C651.054 335.116 649.368 340.661 649.48 342.615C649.966 351.133 656.163 361.304 662.333 366.939C672.844 376.538 683.461 381.591 697.541 381.38C695.382 396.148 690.769 409.615 678.342 418.97C670.443 424.854 660.523 427.345 650.781 425.889C644.547 425.004 637.848 422.306 632.566 418.891C628.164 407.15 624.831 391.268 621.028 378.875C618.609 370.995 615.504 359.601 613.979 351.61C613.521 349.209 615.326 338.58 615.775 335.437C616.513 330.264 616.933 325.05 617.03 319.825C617.478 285.788 608.007 242.441 595.05 211.042Z"/><path fill="#D0987B" transform="matrix(0.881391 0 0 0.880157 -234.45 -20.2441)" d="M672.471 235.974C677.006 235.579 679.552 237.718 682.966 240.51C687.263 244.023 692.241 247.074 696.224 250.9C698.45 253.013 700.414 255.386 702.073 257.968C704.622 261.902 709.944 273.612 709.241 277.699C707.356 288.667 702.895 302.782 700.013 313.703C696.333 328.105 692.975 342.587 689.941 357.139C671.379 346.935 666.336 334.101 668.454 314.079C669.373 305.394 668.64 301.762 673.465 293.787C676.637 295.737 680.204 298.248 683.995 298.36C681.614 296.183 667.482 288.522 663.753 286.441C659.138 284.104 654.172 282.033 650.537 278.353C648.27 276.059 648.428 269.653 651.143 269.312C663.36 267.777 682.932 286.247 693.432 289.043L693.092 288.366L693.394 288.975L692.794 288.788L692.948 288.197C682.532 278.879 666.04 273.977 655.313 265.122C654.366 264.34 654.199 261.366 654.602 260.038C655.133 258.336 656.413 256.969 658.076 256.326C662.747 254.54 695.691 275.358 701.686 277.791C701.864 277.863 702.044 277.929 702.223 277.998C700.325 275.687 697.985 273.791 696.271 271.651C688.59 261.983 679.902 253.702 670.986 245.235C667.432 241.86 668.913 238.477 672.471 235.974Z"/><path fill="#FC7243" transform="matrix(0.881391 0 0 0.880157 -234.45 -20.2441)" d="M349.693 360.987L350.378 361.249C349.379 368.873 348.587 376.469 348.316 384.157C347.992 393.365 349.564 433.509 346.794 438.572C345.47 440.992 343.234 442.54 340.57 443.164C335.688 444.307 319.37 442.878 314.36 441.397C312.243 440.772 310.467 439.64 308.626 438.458C300.253 431.247 301.394 422.756 302.422 412.852C303.99 397.748 304.649 380.838 308.409 366.153C321.311 365.342 338.902 367.559 349.693 360.987Z"/><path fill="#FC7243" transform="matrix(0.881391 0 0 0.880157 -234.45 -20.2441)" d="M387.929 415.027C388.066 415.263 388.204 415.5 388.341 415.737C385.695 433.923 379.855 469.887 377.688 486.984C362.515 485.497 344.083 482.25 331.019 474.207C319.475 466.201 317.767 457.63 318.377 444.369C324.167 444.696 330.036 445.254 335.825 445.52C350.679 446.205 350.237 435.303 350.104 424.454C363.987 423.828 375.564 421.457 387.929 415.027Z"/><path fill="#FC7243" transform="matrix(0.881391 0 0 0.880157 -234.45 -20.2441)" d="M556.542 185.52C567.394 187.729 581.591 190.045 587.474 200.414C602.21 226.391 613.587 276.551 614.972 305.438C615.683 319.522 614.736 333.641 612.15 347.504C609.706 338.895 606.937 329.386 604.875 320.717C604.655 320.058 604.407 319.354 604.211 318.691C599.622 302.846 594.887 287.044 590.006 271.287C582.58 247.606 577.004 225.229 565.269 203.249C562.241 197.579 559.927 191.055 556.542 185.52Z"/><path fill="#0B7E66" transform="matrix(0.881391 0 0 0.880157 -234.45 -20.2441)" d="M416.359 54.7092C468.817 57.6795 476.317 131.139 432.444 126.396L431.54 126.201C430.787 124.579 432.417 120.773 432.511 118.771C433.779 91.7845 413.024 76.2385 388.735 73.3944C394.493 59.9432 402.38 55.6465 416.359 54.7092Z"/><path fill="#D0987B" transform="matrix(0.881391 0 0 0.880157 -234.45 -20.2441)" d="M514.699 39.6843C517.828 39.1049 524.25 39.4068 527.426 39.5952L533.289 43.6915C520.657 45.1006 518.049 47.7542 508.927 55.8965C507.682 57.0081 503.529 57.4788 501.543 59.5474L501.802 60.2953C503.657 60.1204 506.508 59.0496 508.371 58.4355C504.339 69.388 501.814 76.5626 502.309 88.53C496.768 92.1117 495.271 93.6688 493.094 99.7933C489.594 97.8431 487.925 96.8019 484.81 94.2832C482.908 92.7455 480.005 89.4854 478.264 88.6486C472.691 90.7955 468.221 91.7867 462.352 92.8454C459.753 79.2011 452.933 69.3068 442.123 60.9041C462.439 53.669 494.31 42.2326 514.699 39.6843Z"/><path fill="#FC7243" transform="matrix(0.881391 0 0 0.880157 -234.45 -20.2441)" d="M338.617 216.184C345.363 215.797 345.787 218.029 349.781 223.182C337.836 241.5 331.751 286.245 327.985 308.469L321.188 306.278C319.505 305.585 317.771 304.729 316.237 303.736C311.539 300.693 308.471 296.355 307.407 290.841C306.929 288.364 307.21 286.297 307.741 283.857C309.548 275.55 324.043 228.354 327.258 223.729C330.013 219.766 333.886 217.089 338.617 216.184Z"/><path fill="#0B7E66" transform="matrix(0.881391 0 0 0.880157 -234.45 -20.2441)" d="M699.882 323.434C713.042 329.87 720.948 346.209 716.278 360.11C704.157 396.192 665.948 375.513 653.779 351.826C648.52 337.158 651.716 330.567 665.925 325.011C666.666 335.665 668.603 340.299 675.79 348.916C683.287 357.904 706.046 369.104 706.078 348.532C706.087 342.521 702.764 336.134 698.077 331.984C698.462 329.144 699.225 326.237 699.882 323.434Z"/><path fill="#FC7243" transform="matrix(0.881391 0 0 0.880157 -234.45 -20.2441)" d="M355.384 327.719C356.875 327.665 358.876 327.753 360.411 327.772C358.587 335.128 356.532 342.238 354.256 349.442C349.013 366.037 334.836 363.263 321.023 363.55C314.828 363.703 308.638 364.02 302.46 364.501L296.376 364.426C301.48 353.462 311.814 334.867 323.419 330.037C329.545 327.487 347.809 328.077 355.384 327.719Z"/><path fill="#0B7E66" transform="matrix(0.881391 0 0 0.880157 -234.45 -20.2441)" d="M613.375 493.705C624.147 492.052 642.823 495.821 653.042 499.462C654.294 504.428 655.884 509.133 657.135 514.293C653.335 512.183 650.767 511.135 646.689 509.752C631.772 506.073 618.301 508.153 603.869 511.978L601.585 495.304C605.562 494.632 609.369 494.182 613.375 493.705Z"/><path fill="#0B7E66" transform="matrix(0.881391 0 0 0.880157 -234.45 -20.2441)" d="M552.41 185.338C557.156 187.833 573.842 226.229 576.321 233.318C570.607 232.575 565.002 231.101 559.279 230.14C558.162 223.147 551.834 189.906 552.41 185.338Z"/><path fill="#0B7E66" transform="matrix(0.881391 0 0 0.880157 -234.45 -20.2441)" d="M489.526 219.485L490.797 218.171L491.003 219.145C491.738 222.543 492.873 226.056 493.763 229.448C498.403 247.139 500.484 265.952 502.252 284.105C501.969 285.415 501.931 285.367 501.216 286.497C499.435 281.477 497.78 275.035 496.037 269.875C494.863 266.398 488.697 251.514 488.906 248.848C489.706 238.609 489.85 229.724 489.526 219.485Z"/><path fill="#0B7E66" transform="matrix(0.881391 0 0 0.880157 -234.45 -20.2441)" d="M559.927 234.351C562.174 235.005 568.702 238.42 572.163 239.734C570.999 255.75 570.517 271.838 569.646 287.879L569.396 289.617C567.956 287.036 560.971 241.185 559.927 234.351Z"/><path fill="#FBFBFB" transform="matrix(0.881391 0 0 0.880157 -234.45 -20.2441)" d="M550.173 188.056L552.543 200.079C547.384 205.496 543.415 208.671 536.451 211.667C521.041 218.298 498.661 209.204 488.162 197.171C492.758 197.489 494.901 199.456 498.5 202.35C498.192 202.136 505.68 205.763 506.699 206.337C508.551 207.18 509.501 207.399 511.501 207.931L514.651 208.128C517.745 210.022 525.731 207.357 527.534 207.85C529.79 208.451 532.165 208.439 534.415 207.817C537.23 207.361 537.636 207.202 540.321 206.121C543.79 202.744 544.03 202.449 548.524 201.785C549.773 201.6 549.661 200.86 550.406 199.882C550.487 193.508 551.629 192.457 546.21 194.501L550.173 188.056Z"/><path fill="#FBFBFB" transform="matrix(0.881391 0 0 0.880157 -234.45 -20.2441)" d="M485.486 197.394C497.348 208.747 504.057 211.543 519.49 215.535C519.015 216.996 514.769 217.154 513.1 217.457C507.112 215.037 508.757 211.983 501.459 212.087C500.632 212.099 500.343 210.333 499.511 209.523C493.28 206.174 492.533 207.839 493.077 213.824C493.258 215.962 493.817 218.174 495.37 219.708L495.373 219.782C494.894 220.093 494.626 219.626 494.15 219.649C493.303 221.071 500.512 240.441 498.802 243.403C495.585 226.549 490.355 213.463 485.486 197.394Z"/><path fill="#FBFBFB" transform="matrix(0.881391 0 0 0.880157 -234.45 -20.2441)" d="M537.26 583.277C539.652 574.197 546.121 518.482 549.162 515.317C548.793 522.978 545.691 538.129 544.241 546.163C551.276 543.531 560.038 538.699 565.723 533.667C568.73 531.006 571.315 527.557 574.725 524.767L575.086 525.208L574.73 524.748L574.847 525.731C568 535.516 555.185 543.272 544.265 547.515C542.32 556.19 540.329 573.26 538.946 582.556C538.127 582.741 538.086 582.83 537.26 583.277Z"/><path fill="#010102" fill-opacity="0.98823529" transform="matrix(0.881391 0 0 0.880157 -234.45 -20.2441)" d="M590.006 271.287C594.887 287.044 599.622 302.846 604.211 318.691C604.407 319.354 604.655 320.058 604.875 320.717C604.557 322.265 604.596 322.193 603.748 323.482C601.548 317.919 600.245 311.087 598.33 305.297C595.011 295.258 592.45 284.783 589.137 274.763C589.267 272.977 589.365 272.927 590.006 271.287Z"/><path fill="#FBFBFB" transform="matrix(0.881391 0 0 0.880157 -234.45 -20.2441)" d="M546.067 194.843L545.935 195.663C545.755 197.008 545.237 198.182 544.656 199.394C543.998 199.916 544.017 199.989 543.494 200.673C542.501 201.973 540.823 202.313 539.497 203.319C537.442 204.365 535.872 205.142 533.733 205.941C530.906 205.453 527.137 206.424 523.932 206.525C520.056 205.517 516.478 204.956 512.568 204.257C511.182 203.712 510.288 203.274 509 202.542L509.468 201.5C523.505 207.004 535.274 205.646 546.067 194.843Z"/><path fill="#FBFBFB" transform="matrix(0.881391 0 0 0.880157 -234.45 -20.2441)" d="M549.81 205.49C553.537 201.779 552.751 202.399 553.563 207.996C555.211 219.368 557.948 231.298 559.153 242.667C553.482 237.336 555.622 222.225 553.241 214.749C552.629 212.828 552.394 207.51 551.009 206.279C552.768 207.842 547.787 203.843 549.81 205.49Z"/><path fill="#0B7E66" fill-opacity="0.98431373" transform="matrix(0.881391 0 0 0.880157 -234.45 -20.2441)" d="M473.135 166.341C476.575 167.287 479.809 168.038 483.279 169.089C482.725 172.999 482.631 173.72 481.017 177.584C478.916 181.007 478.158 176.586 476.826 174.069C475.563 171.682 474.306 168.806 473.135 166.341Z"/><path fill="#F6F5F8" fill-opacity="0.078431375" transform="matrix(0.881391 0 0 0.880157 -234.45 -20.2441)" d="M438.912 553.31C440.104 546.411 440.258 533.687 441.964 527.741C442.066 529.704 441.937 532.025 442.16 533.872C440.591 551.296 438.797 568.698 436.78 586.076C436.456 586.345 436.395 586.433 436.025 586.192L435.742 586.013C436.336 577.428 437.471 565.788 438.678 557.357C439.541 556.267 439.032 554.898 438.912 553.31Z"/><path fill="#FBFBFB" fill-opacity="0.87843138" transform="matrix(0.881391 0 0 0.880157 -234.45 -20.2441)" d="M521.651 215.546C531.746 215.524 533.019 215.114 542.176 211.266C542.346 213.885 541.459 212.711 540.293 213.245C539.328 214.672 541.945 215.308 535.936 217.195C531.446 218.604 524.006 215.87 520.588 218.564C520.3 218.806 520.874 222.144 520.037 221.737C519.287 221.372 519.456 218.757 518.986 218.108C518.823 217.976 518.661 217.844 518.499 217.713C520.254 216.798 520.045 217.031 521.651 215.546Z"/><path fill="#FBFBFB" fill-opacity="0.42745098" transform="matrix(0.881391 0 0 0.880157 -234.45 -20.2441)" d="M499.782 196.671C503.006 198.29 506.251 199.881 509.468 201.5L509 202.542C508.041 202.64 506.185 202.642 505.455 203.344C505.384 203.97 506.393 205.687 506.699 206.337C505.68 205.763 498.192 202.136 498.5 202.35C500.947 200.606 500.548 199.768 499.984 197.497L499.782 196.671Z"/><path fill="#FBFBFB" fill-opacity="0.21960784" transform="matrix(0.881391 0 0 0.880157 -234.45 -20.2441)" d="M546.21 194.501C551.629 192.457 550.487 193.508 550.406 199.882C546.904 200.635 545.166 203.076 544.656 199.394C545.237 198.182 545.755 197.008 545.935 195.663L546.067 194.843L546.21 194.501Z"/><path fill="#FBFBFB" fill-opacity="0.50196081" transform="matrix(0.881391 0 0 0.880157 -234.45 -20.2441)" d="M512.568 204.257C516.478 204.956 520.056 205.517 523.932 206.525C521.599 207.981 517.314 208.096 514.651 208.128L511.501 207.931C511.832 207.142 512.225 205.314 512.568 204.257Z"/><path fill="#FBFBFB" fill-opacity="0.64705884" transform="matrix(0.881391 0 0 0.880157 -234.45 -20.2441)" d="M523.932 206.525C527.137 206.424 530.906 205.453 533.733 205.941C533.763 206.864 533.922 206.954 534.415 207.817C532.165 208.439 529.79 208.451 527.534 207.85C525.731 207.357 517.745 210.022 514.651 208.128C517.314 208.096 521.599 207.981 523.932 206.525Z"/><path fill="#FBFBFB" fill-opacity="0.54509807" transform="matrix(0.881391 0 0 0.880157 -234.45 -20.2441)" d="M493.077 213.824C492.533 207.839 493.28 206.174 499.511 209.523C498.587 212.203 495.349 212.866 493.077 213.824Z"/><path fill="#FBFBFB" fill-opacity="0.67450982" transform="matrix(0.881391 0 0 0.880157 -234.45 -20.2441)" d="M547.639 207.369C554.145 210.173 548 214.224 545.902 212.445C544.158 210.966 544.374 212.552 543.996 210.065C544.913 209.376 546.77 207.955 547.639 207.369Z"/><path fill="#FBFBFB" fill-opacity="0.26274511" transform="matrix(0.881391 0 0 0.880157 -234.45 -20.2441)" d="M509 202.542C510.288 203.274 511.182 203.712 512.568 204.257C512.225 205.314 511.832 207.142 511.501 207.931C509.501 207.399 508.551 207.18 506.699 206.337C506.393 205.687 505.384 203.97 505.455 203.344C506.185 202.642 508.041 202.64 509 202.542Z"/><path fill="#FBFBFB" transform="matrix(0.881391 0 0 0.880157 -234.45 -20.2441)" d="M685.37 262.093C687.768 264.324 690.075 267.126 692.105 269.708C690.45 268.847 682.864 265.143 682.105 264.236C684.515 263.589 684.075 264.331 685.37 262.093Z"/><path fill="#FBFBFB" fill-opacity="0.75294119" transform="matrix(0.881391 0 0 0.880157 -234.45 -20.2441)" d="M539.497 203.319C540.823 202.313 542.501 201.973 543.494 200.673C544.017 199.989 543.998 199.916 544.656 199.394C545.166 203.076 546.904 200.635 550.406 199.882C549.661 200.86 549.773 201.6 548.524 201.785C544.03 202.449 543.79 202.744 540.321 206.121C540.852 204.405 540.765 204.614 539.497 203.319Z"/><path fill="#FBFBFB" fill-opacity="0.33333334" transform="matrix(0.881391 0 0 0.880157 -234.45 -20.2441)" d="M539.497 203.319C540.765 204.614 540.852 204.405 540.321 206.121C537.636 207.202 537.23 207.361 534.415 207.817C533.922 206.954 533.763 206.864 533.733 205.941C535.872 205.142 537.442 204.365 539.497 203.319Z"/><path fill="#167671" fill-opacity="0.98823529" transform="matrix(0.881391 0 0 0.880157 -234.45 -20.2441)" d="M592.992 206.669C594.501 207.569 597.05 208.818 598.209 210.107L597.795 210.397C596.559 211.314 597.341 208.389 595.05 211.042C594.381 209.797 593.629 208.007 592.992 206.669Z"/><path fill="#285C64" transform="matrix(0.881391 0 0 0.880157 -234.45 -20.2441)" d="M502.252 284.105C502.509 285.248 502.584 287.413 502.532 288.596L502.208 289.052L502.331 289.139L502.296 289.196C501.724 289.027 501.365 286.986 501.216 286.497C501.931 285.367 501.969 285.415 502.252 284.105Z"/><path fill="#285C64" transform="matrix(0.881391 0 0 0.880157 -234.45 -20.2441)" d="M444.516 204.135C444.51 202.738 444.503 201.341 444.478 199.944L444.855 199.631L444.64 199.273L444.725 199.186C445.342 199.479 445.606 201.815 445.802 202.481L444.516 204.135Z"/><path fill="#FBFBFB" fill-opacity="0.062745102" transform="matrix(0.881391 0 0 0.880157 -234.45 -20.2441)" d="M481.542 184.814C481.307 184.279 479.977 181.898 480.293 181.4C480.8 181.32 482.776 183.451 483.184 183.834L481.542 184.814Z"/><path fill="#285C64" transform="matrix(0.881391 0 0 0.880157 -234.45 -20.2441)" d="M489.526 219.485C489.496 218.91 489.181 216.532 489.43 216.118C490.047 215.777 490.445 217.223 490.566 217.56L490.797 218.171L489.526 219.485Z"/><path fill="#B7AEB9" fill-opacity="0.30980393" transform="matrix(0.881391 0 0 0.880157 -234.45 -20.2441)" d="M441.964 527.741C442.444 529.483 442.93 532.183 442.16 533.872C441.937 532.025 442.066 529.704 441.964 527.741Z"/><path fill="#010102" fill-opacity="0.98431373" transform="matrix(0.881391 0 0 0.880157 -234.45 -20.2441)" d="M672.578 65.6022C673.351 65.5324 674.125 65.4717 674.9 65.42C734.188 61.5306 743.172 150.469 676.906 153.03C664.123 151.522 662.325 149.407 651.544 144.654C649.146 143.596 631.062 144.003 627.125 143.994C630.531 137.075 633.651 129.786 636.772 122.713C629.302 95.268 645.522 71.8607 672.578 65.6022ZM638.532 122.441C635.75 129.58 632.971 135.432 629.557 142.327C637.952 143.005 644.45 142.995 652.903 142.742C661.713 148.048 665.934 150.184 676.379 151.451C689.262 151.601 699.512 148.649 708.911 139.345C716.977 131.301 721.494 120.367 721.459 108.975C721.34 84.298 699.191 64.2875 674.705 67.179C663.247 68.5586 652.82 74.474 645.758 83.6015C637.26 94.3702 634.228 109.346 638.532 122.441Z"/><path fill="#010102" transform="matrix(0.881391 0 0 0.880157 -234.45 -20.2441)" d="M680.059 121.15C678.856 121.031 674.65 121.089 673.914 119.973C673.23 118.934 673.767 116.05 673.994 114.998C675.154 109.642 679.657 107.775 683.858 105.214C685.445 104.067 686.632 102.941 686.973 101.009C687.876 95.8965 685.239 93.6378 680.251 92.9823C676.712 92.5172 671.593 92.8817 670.104 97.0066C669.96 97.4069 669.421 98.734 669.057 99.0235C668.872 99.0275 668.44 99.0167 668.305 98.8898C667.141 97.7963 662.978 99.8136 663.441 97.243C665.128 87.8805 676.124 85.9807 683.992 87.5803C686.208 88.0308 689.285 89.1134 690.637 91.0309L690.678 91.7679C690.681 91.8916 692.669 99.1823 692.9 101.04C690.967 105.864 688.157 107.064 687.073 109.813C686.643 110.381 681.536 113.896 680.525 114.677C680.365 116.913 680.272 118.9 680.059 121.15Z"/><path fill="#010102" transform="matrix(0.881391 0 0 0.880157 -234.45 -20.2441)" d="M674.007 124.471C681.47 124.506 681.618 124.48 680.881 131.383C679.428 131.708 675.627 131.423 673.922 131.362L674.007 124.471Z"/><path fill="#010102" fill-opacity="0.93333334" transform="matrix(0.881391 0 0 0.880157 -234.45 -20.2441)" d="M690.637 91.0309C697.08 97.0804 694.184 105.685 687.073 109.813C688.157 107.064 690.967 105.864 692.9 101.04C692.669 99.1823 690.681 91.8916 690.678 91.7679L690.637 91.0309Z"/></g></svg>