<?xml version="1.0" encoding="utf-8" ?><svg xmlns="http://www.w3.org/2000/svg" xmlns:xlink="http://www.w3.org/1999/xlink" width="1024" height="1024" viewBox="0 0 1024 1024"><path d="M559.67 43.0048C572.86 20.5917 585.391 13.7494 610.907 17.8005C600.436 22.4602 596.393 23.8573 589.447 33.1654C630.775 25.9081 665.198 30.0375 700.247 55.1441C708.339 60.9407 726.624 73.555 729.554 83.5287C731.044 88.5985 723.02 93.6062 719.213 96.0344C731.459 109.128 741.35 126.421 748.76 142.626C757.175 161.033 743.395 165.199 729.192 169.944C727.555 183.492 727.243 200.408 715.561 209.742C713.721 211.212 711.586 212.858 709.261 212.569C707.193 208.123 706.577 193.578 703.764 185.174L703.041 182.939C698.717 198.409 692.617 214.903 687.18 230.105C674.9 264.444 666.848 300.597 632.623 319.959C626.555 323.425 620.035 326.032 613.25 327.706C633.862 332.552 658.512 339.577 669.626 359.201C670.497 360.738 674.028 366.501 675.264 367.293C704.168 385.807 729.658 404.094 747.806 434.122C756.365 448.286 762.228 462.98 769.924 477.942C785.198 449.457 795.827 420.847 810.87 392.423C813.584 387.295 819.439 375.71 822.74 371.616C824.468 369.434 826.8 367.81 829.445 366.945C834.656 365.201 918.028 378.153 925.034 381.917C928.033 383.529 929.955 386.585 930.826 389.804C931.987 394.091 930.958 399.121 929.748 403.315C928.377 408.067 926.228 412.69 924.303 417.24C916.964 434.586 907.993 451.54 899.176 468.186C922.616 501.946 920.32 518.348 909.08 556.145C904.637 571.087 899.35 591.163 896.19 606.304C905.129 610.869 910.671 614.283 917.533 621.953C943.821 651.335 941.651 701.063 905.666 721.656C902.197 723.641 897.988 725.28 894.248 726.836C889.647 756.709 879.592 788.089 854.157 806.762C835.382 820.545 814.615 824.345 791.728 821.084C780.07 819.423 769.529 814.417 758.879 809.717C762.276 823.764 766.434 836.897 770.312 850.729L796.246 942.586L804.338 972.28C806.955 982.1 811.591 995.283 805.246 1004.49C798.609 1014.11 781.063 1020.01 770.391 1024L628.692 1024L624.808 1024L582.324 1024L579.65 1024L226.436 1024C224.428 1012.74 232.116 961.407 234.425 947.129C200.046 943.601 145.561 935.142 122.453 907.363C110.025 892.424 108.454 874.179 109.167 855.504C90.3806 849.275 76.3129 837.953 75.8856 816.567C75.6156 803.059 77.1251 789.271 78.4683 775.819C80.1334 757.604 82.2244 739.43 84.7396 721.313C85.8241 713.99 87.9547 704.014 88.7319 697.059C77.1634 697.821 60.464 701.057 68.8506 683.326C77.9025 664.189 90.7446 646.387 105.554 631.254C110.7 626.008 121.569 620.805 128.137 617.315C129.621 606.042 130.752 593.667 132.287 582.725C111.33 576.347 87.3881 566.862 87.2813 540.229C87.2259 526.408 93.0462 509.958 97.0537 496.583L106.975 463.75C111.402 449.358 123.159 412.723 131.548 401.298C134.275 397.584 137.732 394.858 141.8 392.729C153.007 386.865 167.631 386.516 179.558 390.282C181.587 390.922 183.564 391.713 185.557 392.453C190.069 386.308 194.195 380.496 199.244 374.753C221.737 349.169 249.311 336.506 282.513 331.386C298.442 328.985 314.576 328.228 330.66 329.126C345.366 313.417 369.803 309.429 390.332 307.812C400.591 307.003 403.461 309.39 412.352 311.333C417.67 309.597 420.899 306.522 425.084 302.828C436.624 292.643 444.887 286.379 460.308 284.103L473.347 256.273C476.375 249.867 480.86 240.925 483.002 234.449C475.06 215.793 476.563 210.071 474.163 190.832C471.374 168.477 466.441 144.576 491.57 133.034C490.56 93.3222 505.101 44.0906 552.719 43.0449C555.035 42.9939 557.353 42.9805 559.67 43.0048ZM797.646 625.019C802.839 621.518 809.765 616.684 815.319 614.016C819.474 612.083 822.655 610.67 826.939 609.092C827.459 604.622 827.446 600.687 827.496 596.208C814.028 592.585 796.69 591.603 782.866 590.177C785.751 598.415 792.662 619.333 797.646 625.019Z"/><path fill="#FEFEFE" d="M586.62 990.53C586.462 1000.31 583.301 1013.87 582.324 1024L579.65 1024C580.988 1013.68 582.901 1000.1 586.62 990.53Z"/><path fill="#FEFEFE" d="M640.625 1008.14C637.147 1015.02 633.619 1018.12 628.692 1024L624.808 1024C628.628 1019.24 635.865 1011.96 640.625 1008.14Z"/><path fill="#117D63" d="M335.307 342.951L336.217 342.899C339.359 344.001 347.932 355.396 350.201 358.807C380.039 403.651 390.164 462.76 388.409 515.782C387.822 533.507 384.928 551.471 381.771 568.596C381.197 559.812 380.404 509.524 376.494 504.82L375.814 505.057C375.25 507.32 376.477 523.857 376.593 527.611C377.571 559.13 378.794 590.534 378.331 622.078C362.594 619.073 346.717 617.754 330.919 621.371C325.866 622.527 298.958 630.651 300.243 636.403C301.861 636.715 306.611 634.181 308.445 633.309C328.967 623.55 357.225 619.424 379.295 626.116C370.062 629.708 361.963 631.782 352.486 635.996C333.214 644.445 316.311 657.495 303.259 674.001C300.343 677.723 291.57 689.224 293.277 694.216L292.807 693.619L293.18 694.205C295.152 693.449 297.868 688.241 299.164 686.234C305.122 677.08 312.24 668.736 320.342 661.411C351.618 632.639 384.96 629.417 424.296 619.706C449.738 613.424 474.752 606.996 500.503 601.635C500.051 604.348 499.825 606.66 499.569 609.379L499.519 609.804C496.422 637.105 505.734 674.617 519.014 698.903C522.567 705.402 527.651 711.716 532.291 717.514C522.108 725.544 512.2 733.928 501.633 741.463C475.173 760.329 442.833 777.849 412.648 790.139C376.996 804.656 321.55 820.747 284.601 804.932C263.508 795.903 249.419 778.54 241.058 757.606C204.334 665.667 217.417 506.25 256.349 415.945C273.089 377.116 296.842 358.2 335.307 342.951Z"/><path d="M294.852 386.107C317.165 391.015 340.271 412.794 352.517 431.218C359.016 440.995 367.923 456.402 369.371 468.262L367.823 468.367C365.907 466.11 361.377 454.496 359.552 450.842C349.105 429.927 333.83 412.458 314.817 398.854C310.443 395.725 297.48 389.279 294.852 386.107Z"/><path fill="#117D63" d="M485.287 756.945L485.833 757.544C485.887 766.459 485.192 777.039 484.789 786.06L482.298 837.965L476.45 960.89C472.151 959.108 462.5 956.044 457.761 954.847C398.877 939.974 332.894 941.286 274.59 958.219C265.063 960.986 253.174 964.81 244.858 969.527C251.505 968.67 261.787 965.421 268.489 963.49C278.89 960.398 289.398 957.678 299.993 955.335C357.534 943.022 420.334 947.176 476.342 964.931C475.28 975.59 475.021 988.488 474.533 999.317C466.378 997.591 458.189 996.03 449.971 994.633C386.109 982.416 319.269 980.374 257.783 1004.22C247.898 1008.06 238.307 1012.99 228.319 1016.61C229.464 1009.83 230.433 1002.82 231.373 995.988C240.656 928.56 251.642 861.358 260.266 793.846C289.691 819.164 320.874 818.628 357.011 811.161C403.021 801.654 445.551 781.617 485.287 756.945Z"/><path d="M398.896 822.196C399.173 822.326 399.733 822.807 400.004 823.021C400.909 827.851 388.468 847.181 385.134 852.313C367.578 879.337 336.404 907.182 305.642 917.819L304.574 916.977C304.738 916.012 304.727 915.623 305.753 915.161C339.202 900.08 366.518 873.55 386.635 843.203C390.909 836.756 394.751 829.162 398.896 822.196Z"/><path fill="#FEFEFE" d="M637.195 630.431L637.97 630.741C641.419 650.459 644.283 670.948 647.37 690.788L660.759 775.355C668.115 822.572 676.368 871.306 682.872 918.541C679.068 918.499 674.833 918.233 671.014 917.954C616.802 914.004 564.572 917.37 511.614 930.001C501.736 931.937 490.803 934.868 480.975 937.388C481.936 922.736 482.368 907.259 483.037 892.532L488.96 754.734C507.733 742.298 517.49 734.475 534.669 720.21C552.577 734.149 570.167 725.209 588.83 717.396C596.389 714.231 605.031 709.362 609.091 701.842C619.021 683.448 617.013 659.832 612.077 640.289C622.841 638.612 628.128 636.266 637.195 630.431Z"/><path d="M634.509 728.262C636.026 728.403 635.45 728.059 636.415 729.034C636.286 736.002 598.504 773.112 591.57 779.808C575.167 795.86 558.197 811.322 540.693 826.165C530.838 834.534 520.501 842.317 509.734 849.473L508.255 849.373L507.998 848.76C509.067 846.5 543.98 818.282 548.732 814.349C570.558 796.285 589.413 777.927 608.571 757.056C616.942 747.937 626.071 736.957 634.509 728.262Z"/><path fill="#CC9477" d="M627.376 103.229C628.034 103.949 630.876 108.812 631.098 109.751C633.288 119.012 674.437 173.457 684.051 169.671C685.507 166.425 678.442 148.883 676.873 144.138C685.617 156.153 691.211 166.124 700.96 178.757C694.166 196.612 688.2 217.184 681.57 235.572C674.526 256.845 668.701 275.001 656.069 293.878C624.37 341.245 566.086 332.431 535.067 289.558C533.047 286.766 524.888 271.041 523.425 269.979L522.613 270.448C522.13 271.396 521.844 272.138 521.834 273.217C521.687 289.131 541.627 329.374 553.982 339.91C557.537 342.942 561.7 345.336 565.887 347.375C568.076 348.44 571.31 348.999 573.051 350.664L572.22 351.559C530.39 382.808 480.584 348.883 449.423 318.231L479.361 252.509C485.069 240.254 491.265 226.775 498.083 215.08C500.299 215.555 506.301 217.062 507.418 214.769C506.183 213.531 502.12 211.916 500.228 210.775C491.61 205.577 483.495 199.37 479.156 190.023C474.473 179.687 473.258 162.472 477.471 151.883C481.9 140.752 493.606 133.305 505.591 134.493C521.693 136.088 527.888 147.916 530.447 162.255C531.483 168.056 531.541 173.463 533.442 178.891C544.253 183.728 559.066 158.094 564.316 151.54L564.658 151.121C583.566 150.209 604.739 146.14 616.587 129.828C622.55 121.617 624.663 112.791 627.376 103.229Z"/><path d="M613.977 193.533C628.956 194.977 624.164 214.129 614.573 218.553C599.789 218.641 603.35 198.561 613.977 193.533Z"/><path d="M667.668 207.495C668.867 207.623 669.293 207.696 670.448 208.082C672.693 208.809 674.532 210.44 675.524 212.58C678.802 219.71 673.821 228.967 666.925 232.182C666.124 232.141 665.444 232.052 664.663 231.872C662.402 231.37 660.444 229.967 659.244 227.986C654.841 220.643 660.681 211.149 667.668 207.495Z"/><path d="M496.207 153.371C502.878 153.669 517.17 166.253 513.486 174.151C512.537 176.184 509.209 171.454 507.264 172.373C500.849 175.404 500.181 182.525 502.181 188.637C502.865 189.988 503.005 190.264 503.441 191.703L503.005 192.412L501.751 192.402C497.646 190.037 496.351 184.632 497.395 180.254C498.921 173.858 503.116 170.216 508.403 166.929C504.088 162.068 500.752 158.121 496.207 153.371Z"/><path d="M640.086 201.703C640.648 201.882 640.373 201.764 641.021 202.151C642.035 202.756 642.3 204.381 642.56 205.478C644.127 212.089 649.842 248.566 646.188 253.159C643.739 256.237 638.7 256.117 635.16 256.364C633.534 256.114 633.356 256.235 632.137 255.109C632.644 251.696 642.763 252.53 643.402 250.516C646.977 239.264 638.901 213.073 640.086 201.703Z"/><path d="M587.37 259.778C591.513 259.571 595.284 264.945 599.777 267.804C607.92 272.987 614.136 276.468 623.878 277.8C626.08 278.101 631.926 278.982 633.592 279.867L633.548 280.756C621.366 283.219 589.726 272.687 587.37 259.778Z"/><path d="M606.291 174.686C611.892 174.124 631.242 174.932 632.526 181.767L631.624 182.272C629.067 182.4 627.261 181.349 624.848 180.343C614.778 177.561 609.444 178.344 599.059 179.489C597.347 179.678 596.456 179.638 595.262 178.632L595.358 177.523C597.443 175.697 603.482 175.024 606.291 174.686Z"/><path d="M660.953 189.139C668.592 188.473 689.894 191.062 689.696 201.017C685.24 200.083 681.375 195.868 676.925 193.828C672.002 191.571 664.819 193.845 660.971 191.514C660.311 190.091 660.409 190.85 660.953 189.139Z"/><path fill="#117D63" d="M697.389 606.367C699.68 608.737 788.309 928.593 796.362 957.042C779.444 951.14 758.93 947.746 741.043 946.995C726.55 946.646 707.183 948.404 692.953 951.308C688.271 918.767 682.167 884.255 676.856 851.755L661.93 757.271C657.103 725.463 652.039 693.691 646.738 661.958C644.853 650.455 643.21 638.61 641.023 627.19C647.894 619.686 650.189 616.052 655.654 607.603C661.969 613.191 667.496 613.678 675.518 613.71C684.898 613.748 690.599 613.531 697.389 606.367Z"/><path fill="#FC6F41" d="M131.492 617.483C133.842 593.952 138.553 570.639 142.327 547.612C155.65 466.306 173.896 359.236 269.575 338.258C289.515 333.885 308.498 332.068 328.946 332.362L326.205 340.812C246.071 363.276 202.894 430.486 187.412 508.178C185.571 517.415 174.569 557.814 180.272 564.047L181.086 563.699C182.443 561.044 182.87 558.245 183.306 555.32C185.409 541.205 187.789 527.069 190.54 513.066C193.315 498.84 197.001 484.807 201.574 471.054C216.892 425.591 245.481 382.391 289.529 360.611L291.281 362.253C274.046 376.27 263.281 390.298 254.257 410.963C226.288 475.014 216.743 548.07 215.566 617.557C215.42 626.212 216.341 636.963 216.74 645.567C218.447 682.373 223.377 719.8 236.077 754.58C214.342 766.536 202.084 769.466 178.458 774.314C178.29 746.684 177.804 716.652 183.018 689.158C187.23 666.95 200.272 643.343 202.013 620.571C202.137 618.944 201.713 617.668 200.542 616.53C190.978 612.183 143.923 616.389 131.492 617.483Z"/><path fill="#FEFEFE" d="M455.511 352.797C457.741 354.105 468.965 364.939 472.809 367.711C491.159 380.944 512.861 389.652 535.43 390.2C560.448 390.808 576.976 381.186 594.379 364.547C596.568 374.286 598.191 388.592 600.033 398.81C604.208 421.111 608.126 443.458 611.787 465.849C615.278 487.472 618.403 509.955 622.263 531.41C614.533 539.754 606.586 549.377 598.668 558.068C591.924 565.522 587.874 569.166 579.655 574.763C576.481 572.311 570.978 568.352 566.971 567.35C552.777 563.8 529.059 571.119 516.301 577.585C506.105 582.753 504.486 588.363 501.595 598.139C499.221 598.459 496.849 598.798 494.481 599.158C496.446 540.624 492.617 480.652 478.347 423.606C472.503 400.242 463.024 375.786 455.511 352.797Z"/><path fill="#117D63" d="M721.584 512.577C725.218 512.207 744.549 514.908 750.939 515.272C743.596 528.471 735.769 545.565 731.08 559.709C722.076 586.866 761.782 585.513 777.816 589.093L778.516 589.252C781.534 599.153 787.675 613.806 791.524 623.781C759.277 632.82 741.748 664.743 736.484 695.961C736.011 698.764 733.678 712.084 738.185 711.822C739.188 710.745 739.825 702.914 740.09 700.907C740.86 695.065 741.764 689.627 743.245 683.908C746.055 672.675 750.992 662.086 757.789 652.712C766.93 640.231 780.182 629.292 795.814 626.835C795.011 639.015 790.737 647.626 794.591 659.955C802.813 686.257 821.539 703.973 844.76 716.954C858.534 724.549 875.617 728.227 891.266 728.447C886.702 748.253 883.15 765.778 871.816 783.364C846.319 822.925 796.534 829.334 758.055 804.301C756.914 801.667 756.078 798.923 755.271 796.17C743.833 757.151 733.343 717.765 722.622 678.543C721.808 675.563 719.543 665.168 719.853 662.799C724.096 630.349 729.034 598.474 724.514 565.492C732.801 552.555 735.084 537.636 720.805 527.824C720.153 524.014 718.762 519.04 719.046 515.259C719.168 513.645 720.18 513.442 721.584 512.577Z"/><path fill="#FC6F41" d="M386.824 311.699C393.311 311.085 399.506 311.279 405.776 313.259C414.724 316.751 422.3 332.085 425.973 340.698C452.554 403.041 461.072 474.682 449.39 541.422C444.758 567.888 437.009 590.569 427.956 615.016L388.222 624.201C386.403 624.56 384.936 624.974 383.264 624.223C381.069 621.796 381.714 591.29 382.252 586.238C382.727 581.774 385.336 571.21 386.289 565.961C388.772 552.472 390.522 538.859 391.531 525.181C392.898 507.866 392.784 490.466 391.191 473.17C387.695 432.29 370.407 365.84 338.027 338.611C335.789 338.941 333.041 339.097 330.747 339.292C335.906 319.673 369.784 313.469 386.824 311.699Z"/><path fill="#CC9477" d="M714.254 486.643C722.261 485.435 753.154 492.098 761.509 494.849C758.505 500.333 755.657 505.901 752.968 511.545C743.375 511.472 733.237 509.049 724.003 509.169C718.288 509.244 703.604 514.454 698.465 517.506C695.197 516.224 679.817 508.196 677.758 510.038C681.456 514.591 709.101 525.754 716.212 530.163C731.046 539.36 729.965 548.012 722.081 561.606C720.436 555.733 717.729 551.692 712.813 548.021C703.529 541.089 692.704 536.438 682.049 532.053C678.003 530.388 673.974 528.214 669.816 526.892C668.814 532.445 712.396 546.273 715.818 556.505C720.36 570.085 714.354 588.393 701.844 595.443C703.525 589.592 707.238 579.51 703.55 574.687C698.57 568.175 670.165 551.048 662.987 549.593L662.39 550.062C664.267 554.635 691.046 566.897 699.022 574.636C700.963 577.377 701.54 578.603 701.536 582.086C701.527 589.726 695.77 602.811 690.556 608.176C682.337 610.348 676.358 609.498 668.459 609.384C654.278 609.181 655.819 593.258 668.741 592.162C671.309 591.944 678.541 592.17 679.704 590.787C677.674 587.574 670.761 587.867 667.521 587.811C665.015 585.277 663.83 584.12 661.001 581.968C652.512 614.517 635.767 636.809 600.23 637.084C590.95 643.671 577.334 652.236 568.965 658.824C561.355 640.803 555.125 611.567 558.706 592.118C570.254 584.01 579.216 581.203 591.762 570.308C611.099 553.516 636.648 517.049 655.46 503.127C660.297 499.548 708.212 487.644 714.254 486.643Z"/><path fill="#CC9477" d="M841.359 431.451C842.257 431.588 843.153 431.736 844.048 431.893C854.798 433.807 859.295 441.014 868.196 446.558C892.37 461.616 911.267 486.304 914.898 515.009C915.718 521.496 909.236 542.455 907.134 550.24L893.589 599.555C887.18 623.636 880.058 654.27 875.692 678.524C874.36 677.796 873.036 677.055 871.718 676.3C840.174 658.192 828.229 632.575 831.164 596.526C832.748 577.064 831.566 567.759 841.737 550.069C850.128 554.723 854.364 557.292 863.796 559.371C856.11 552.199 828.725 538.227 819.253 533.536C810.738 529.039 797.812 523.864 793.045 515.041C791.368 511.937 790.968 508.013 792.006 504.631C792.593 502.718 793.764 501.178 795.583 500.295C808.393 494.079 843.761 518.958 855.256 525.797C864.24 531.141 873.627 536.82 883.506 540.269C866.905 522.348 809.788 501.67 803.421 488.401C802.278 486.02 802.416 483.167 803.276 480.719C804.26 477.917 806.114 475.1 808.948 473.923C811.151 473.007 813.547 473.166 815.819 473.724C822.754 475.429 829.87 479.39 836.222 482.626C848.915 489.122 861.447 495.927 873.809 503.033C881.621 507.475 893.667 514.867 901.679 517.838C891.526 508.065 883.032 498.263 873.752 487.327C861.41 472.782 844.797 460.505 833.018 445.546C832.253 444.575 832.748 440.84 833.206 439.637C834.759 435.561 837.552 433.332 841.359 431.451Z"/><path fill="#FC6F41" d="M177.596 686.463L178.171 686.832C178.348 691.025 177.091 700.697 176.608 705.271C175.698 713.939 175.036 722.631 174.622 731.337C173.744 753.764 175.046 777.735 174.567 800.331C174.561 812.55 174.483 824.24 173.188 836.439C171.954 848.068 166.878 852.502 155.191 854.143C147.888 854.988 140.391 854.397 133.096 853.83C117.444 852.614 105.96 853.155 93.0763 843.296C84.9917 835.865 80.8456 828.919 79.7924 817.722C78.5819 804.852 80.7909 792.247 81.8974 779.455C83.5433 760.427 84.8434 741.355 87.8424 722.475C89.2359 714.118 91.5624 705.195 93.4789 696.9C118.155 696.081 156.553 698.967 177.596 686.463Z"/><path fill="#FC6F41" d="M255.879 796.013L256.206 796.358C256.935 801.472 249.775 842.551 248.664 849.526C243.512 880.637 238.901 911.836 234.834 943.107C204.472 940.998 164.368 932.791 138.479 916.502C116.253 900.831 111.905 882.415 113.311 856.417C124.291 857.759 135.665 857.774 146.596 858.527C178.188 860.703 178.568 839.822 178.292 815.549C209.454 813.632 228.061 809.888 255.879 796.013Z"/><path fill="#FEFEFE" d="M834.799 383.012C835.424 383.047 836.049 383.088 836.672 383.135C853.634 384.427 870.814 388.426 887.681 390.877C898.176 392.402 908.918 392.858 919.173 395.517C922.081 396.271 924.175 397.276 926.118 399.538C926.829 406.775 902.365 453.33 898.476 465.639L898.236 466.411C888.562 454.85 861.539 435.448 847.562 428.95C842.279 426.495 826.513 432.927 829.518 441.456C838.062 465.71 865.459 479.362 879.834 500.457C863.983 493.201 824.112 466.758 807.955 470.821C804.612 471.662 803.096 473.415 801.445 476.315C798.799 483.309 800.529 490.409 799.299 492.464C794.578 500.354 790.17 497.08 787.339 508.534C787.436 509.009 787.538 509.483 787.645 509.956C791.937 528.577 823.668 538.733 838.485 548.056C831.167 562.353 830.129 566.082 828.409 581.652C814.126 579.089 760.983 573.489 752.651 568.897C751.002 567.987 750.232 566.273 749.79 564.515C749.019 561.446 749.5 558.548 750.719 555.681C756.103 543.018 763.341 530.821 769.507 518.504C779.034 499.476 788.078 480.1 797.318 460.923L822.584 407.747C825.603 401.445 831.291 388.592 834.799 383.012Z"/><path fill="#117D63" d="M555.24 569.683C564.519 568.687 569.875 572.05 576.989 576.989C570.452 579.952 570.874 576.954 565.443 577.264C552.392 578.009 553.602 604.7 554.514 612.955C557.435 639.402 565.082 672.434 584.997 691.179C593.562 699.242 605.652 692.37 606.21 681.634C607.997 668.372 607.152 656.484 603.981 643.394C603.691 642.196 603.502 641.562 604.179 640.665L606.677 640.325C609.795 641.602 609.915 647.66 610.47 650.767C612.872 664.205 613.089 676.268 610.245 689.681C608.957 693.749 607.06 698.07 604.487 701.736C596.362 713.318 573.871 720.272 560.609 723.494C554.661 724.938 543.322 722.864 538.872 718.804C519.81 701.416 508.124 664.014 504.602 638.719C502.45 623.256 501.983 598.726 511.5 586.164C518.007 577.574 544.992 570.828 555.24 569.683Z"/><path fill="#FC6F41" d="M155.174 392.115C163.592 391.611 175.289 393.291 183.358 395.848C177.685 406.041 172.071 415.895 167.522 426.679C147.179 474.897 143.064 528.125 132.838 578.912C128.776 577.962 125.109 576.803 121.136 575.572C106.159 569.861 94.9688 560.715 90.9669 544.531C90.1438 541.202 90.7581 534.92 91.4975 531.565C96.4366 509.651 102.965 489.266 109.908 467.761C116.359 447.781 122.834 424.688 132.636 406.026C136.617 398.448 146.941 393.756 155.174 392.115Z"/><path fill="#117D63" d="M895.722 609.274C909.236 618.2 916.983 623.668 924.705 638.696C932.169 653.183 933.922 671.434 928.581 686.902C904.731 755.972 825.343 715.876 802.533 668.345C802.36 667.95 802.192 667.552 802.031 667.152C798.501 658.385 797.35 652.644 797.309 643.212C797.235 626.109 812.193 618.513 826.388 613.409C828.131 633.396 832.613 645.113 846.099 661.042C860.79 679.116 908.352 703.774 908.347 661.073C908.346 646.724 901.617 636.434 891.844 626.684C893.074 620.841 894.252 615.064 895.722 609.274Z"/><path fill="#FC6F41" d="M602.685 329.63C616.883 330.954 639.378 338.06 651.451 345.097C664.098 352.47 672.658 371.819 678.225 385.145C691.351 416.568 701.418 450.12 708.872 483.38L700.607 485.374L668.003 494.223C657.714 455.7 644.449 418.033 628.328 381.563C624.782 373.738 620.69 366.266 616.854 358.594L602.685 329.63Z"/><path fill="#FC6F41" d="M177.943 618.75C184.986 618.456 192.036 618.422 199.081 618.649C197.685 625.633 194.953 634.833 193.016 641.801C190.854 649.581 187.853 661.567 184.563 668.634C182.889 672.235 180.701 675.573 178.067 678.544C163.274 695.278 136.782 690.61 116.251 691.466C107.059 691.848 98.6041 692.168 89.3479 692.75C83.2773 693.285 74.8105 693.345 68.5936 693.465C77.202 673.271 101.243 632.938 122.292 623.879C134.003 618.839 164.458 619.12 177.943 618.75Z"/><path fill="#117D63" d="M457.558 459.417C459.461 462.741 462.407 470.66 463.922 474.376C473.095 496.875 480.687 520.206 486.377 543.832C487.868 550.023 491.056 560.667 491.659 566.538C492.655 576.223 491.831 590.018 491.195 599.682C480.427 601.955 469.722 604.516 459.092 607.363C451.456 609.814 440.278 612.133 432.238 614.044C448.224 575.292 457.01 533.949 458.162 492.044C458.456 480.777 457.578 470.477 457.558 459.417Z"/><path fill="#117D63" d="M676.844 371.815C679.048 372.862 691.471 381.943 694.177 383.857C722.917 404.19 748.845 435.133 761.801 468.026C763.4 472.087 766.122 479.742 766.8 483.808L763.975 489.341C762.614 493.055 759.703 490.605 756.307 489.735C742.75 486.261 726.282 482.279 712.301 482.507C705.309 447.539 691.519 404.13 676.844 371.815Z"/><path fill="#117D63" d="M456.174 288.496C457.392 288.461 456.999 288.432 458.173 288.732C457.033 292.909 448.589 311.635 446.486 315.699L446.454 315.266C446.264 312.215 447.157 299.802 446.18 298.848C439.916 300.82 443.989 327.063 445.101 332.307C449.859 354.74 460.149 375.433 467.187 397.08C478.939 433.229 484.615 471.126 488.468 508.833C489.542 519.466 490.789 531.699 491.009 542.181L488.666 535.664C482.324 512.6 474.316 490.913 466.07 468.487C463.411 461.257 459.15 453.701 456.882 446.414C455.725 442.697 455.175 435.751 454.644 431.631C453.887 426.123 452.993 420.634 451.962 415.17C446.765 387.246 438.409 357.321 425.609 331.79C423.164 326.913 418.43 319.957 415.37 315.247C429.85 304.853 438.304 293.812 456.174 288.496Z"/><path fill="#FEFEFE" d="M447.438 321.817C450.329 323.649 456.255 329.472 459.276 332.137C483.077 353.128 517.264 373.898 550.216 366.48C560.85 364.086 573.378 356.912 580.472 348.627C583.116 345.539 586.86 338.79 589.107 335.105C591.018 341.02 592.279 349.48 593.359 355.733L594.015 359.81C590.303 362.614 586.463 366.676 582.851 369.811C550.164 398.182 504.663 388.109 473.136 363.368C466.358 358.049 455.749 348.419 451.285 340.896C449.663 338.163 447.862 325.464 447.438 321.817Z"/><path fill="#117D63" d="M727.07 951.254C744.806 950.641 762.542 952.479 779.776 956.715C786.171 958.277 791.807 960.176 798.041 961.812C800.494 970.752 802.821 979.726 805.021 988.731C794.332 982.133 783.867 979.795 771.617 978.077C744.48 975.527 724.191 978.607 698.416 986.559C696.854 976.195 695.228 965.841 693.537 955.497C705.807 952.923 714.636 951.949 727.07 951.254Z"/><path fill="#FC6F41" d="M237.423 758.513C238.036 759.316 242.821 769.561 243.671 771.295C247.649 779.415 251.279 783.697 257.122 790.301C240.03 800.061 217.258 807.1 197.909 809.83C191.389 810.535 184.97 811.272 178.422 811.672L178.382 778.311C199.604 774.97 218.819 769.467 237.423 758.513Z"/><path fill="#117D63" d="M593.495 329.153C593.752 329.252 594.012 329.344 594.267 329.449C604.179 333.555 637.201 411.317 642.762 426.433C632.96 424.897 616.785 421.234 607.888 420.382C604.464 401.737 601.31 383.042 598.429 364.305C596.635 352.823 594.383 340.651 593.495 329.153Z"/><path fill="#117D63" d="M619.692 426.93C623.792 426.996 638.395 430.013 644.048 430.625C647.377 440.877 650.21 451.542 653.554 461.834C657.221 473.118 661.007 484.224 664.342 495.619C656.501 498.295 653.608 499.024 647.117 504.122C642.834 508.214 638.311 513.341 633.959 517.681C634.223 499.673 636.332 479.877 637.313 461.805C637.749 453.783 638.847 445.793 639.06 437.669C634.773 434.387 625.135 430.141 619.692 426.93Z"/><path fill="#117D63" d="M609.03 428.132C615.438 430.71 628.167 436.761 634.112 439.964C632.81 464.591 630.818 489.173 630.474 513.87C630.438 516.469 630.548 519.862 629.764 522.259C628.408 524.11 626.565 526.143 625.046 527.91L609.03 428.132Z"/><path fill="#FC6F41" d="M721.2 571.354C722.393 573.378 722.576 581.324 722.635 584.04C723.029 599.794 722.288 615.555 720.415 631.202C719.339 640.376 717.62 649.669 716.703 658.697C715.202 655.051 714.008 650.71 712.856 646.895C708.636 631.049 704.285 616.09 700.499 599.959C715.096 594.766 717.476 584.797 721.2 571.354Z"/><path fill="#FC6F41" d="M714.13 515.46C715.946 516.048 716.484 523.771 716.75 525.661L710.513 522.627L704.348 519.629L714.13 515.46Z"/><path fill="#BD6855" d="M302.652 354.246C298.878 357.085 295.177 359.601 291.281 362.253L289.529 360.611C293.627 358.207 298.268 356.099 302.652 354.246Z"/><path d="M844.954 86.2614C851.382 85.9685 857.775 85.7675 864.197 86.4583C887.679 88.9842 910.443 101.072 924.788 120.082C939.225 139.554 945.446 163.912 942.115 187.922C937.562 220.364 916.492 245.794 885.701 256.946C872.85 261.6 855.754 264.723 842.116 262.661C822.335 260.114 810.731 250.597 794.688 246.119C786.513 243.837 757.353 245.49 746.991 245.502C748.116 242.959 749.37 240.474 750.624 237.992C756.572 226.216 761.651 214.044 766.873 201.934C758.655 174.074 764.093 141.941 783.227 119.787C798.204 102.445 821.776 87.9888 844.954 86.2614ZM752.11 242.408C759.989 243.001 767.955 242.943 775.612 243.185C781.11 243.359 795.423 242.41 799.99 244.171C813.298 249.303 823.071 257.044 838.027 259.381C859.143 263.14 886.253 257.576 903.665 245.015C922.891 231.145 934.608 212.797 938.703 189.604C942.602 167.24 937.346 144.249 924.117 125.801C910.726 106.752 890.334 93.7823 867.405 89.7296C862.602 88.9158 856.323 88.3475 851.439 88.696C827.271 90.1299 804.05 100.614 787.888 118.793C772.827 135.967 765.136 158.382 766.479 181.185C766.931 188.591 768.457 194.849 770.025 202.065C764.38 215.076 758.218 229.72 752.11 242.408Z"/><path fill="#117D63" d="M891.982 129.753C893.85 130.446 907.786 144.952 910.145 147.316C894.428 163.987 877.806 179.963 861.945 196.508C854.196 204.592 846.484 212.642 838.581 220.577C831.562 212.792 823.141 204.456 815.75 196.927C809.558 190.778 803.458 184.367 797.271 178.159C802.397 172.567 809.428 166.043 814.974 160.812C820.367 165.31 833.913 179.226 838.635 184.52C856.053 166.145 874.396 148.179 891.982 129.753Z"/></svg>