<?xml version="1.0" encoding="utf-8" ?><svg xmlns="http://www.w3.org/2000/svg" xmlns:xlink="http://www.w3.org/1999/xlink" width="1344" height="768" viewBox="0 0 1344 768"><path fill="white" d="M0 0L69.996 0L193.649 0L624.769 0L643.286 0L749.185 0L810.157 0L885.527 0L1344 0L1344 587.437L1344 684.844L1344 768L1222.05 768L1129.49 768L944.088 768L941.292 768L883.68 768L882.229 768L760.394 768L758.809 768L687.893 768L660.972 768L639.873 768L488.477 768L285.018 768L150.509 768L20.6641 768L0 768L0 354.717L0 352.375L0 331.352L0 284.079L0 100.816L0 41.4968L0 6.46672L0 5.70291L0 0Z"/><defs><linearGradient id="gradient_0" gradientUnits="userSpaceOnUse" x1="-73.773735" y1="474.65268" x2="573.2533" y2="874.17603"><stop offset="0" stop-color="#FF6C00"/><stop offset="1" stop-color="#00C7EA"/></linearGradient></defs><path fill="url(#gradient_0)" d="M0 354.717C10.9496 366.81 16.3183 374.871 29.2646 386.891C61.9568 417.436 102.374 438.463 146.147 447.699C152.758 449.078 164.802 451.247 171.281 451.606C172.66 451.686 174.042 451.671 175.418 451.56L175.695 451.672C181.6 469.328 187.142 481.923 197.147 497.899C200.852 503.815 206.663 511.148 209.861 516.511L210.112 516.741C214.608 520.933 219.807 528.05 224.638 532.723C244.55 551.985 262.319 562.35 287.772 571.913C294.64 574.142 308.93 578.726 315.888 579.045C334.274 582.855 356.169 583.143 374.854 581.471C392.986 579.85 419.118 575.925 437.353 578.213C488.794 577.63 545.792 602.034 581.391 638.497C584.023 641.192 590.263 647.655 592.124 650.678C614.265 675.323 625.731 702.474 634.974 733.691C636.163 740.035 638.003 748.351 638.543 754.553C638.97 759.073 639.364 763.488 639.873 768L488.477 768L285.018 768L150.509 768L20.6641 768L0 768L0 354.717Z"/><path fill="#14B8A6" d="M455.672 635.538C458.94 634.316 462.584 635.938 463.866 639.183C465.148 642.429 463.595 646.104 460.374 647.446C458.237 648.336 455.786 648.003 453.964 646.574C452.142 645.146 451.233 642.844 451.587 640.556C451.941 638.268 453.503 636.349 455.672 635.538Z"/><path fill="#018EDF" d="M600.834 702.95C603.616 703.052 605.351 702.785 607.288 705.219C608.48 706.731 609.019 708.657 608.782 710.569C608.471 712.94 607.232 714.168 605.479 715.575C596.775 714.439 593.923 709.169 600.834 702.95Z"/><path fill="white" d="M280.289 678.45C281.697 677.541 283.575 677.939 284.492 679.341C285.41 680.744 285.023 682.625 283.626 683.551C282.218 684.485 280.318 684.094 279.393 682.679C278.468 681.265 278.87 679.367 280.289 678.45Z"/><path fill="#FD904E" d="M76.0241 600.914C76.9161 600.344 78.0461 600.3 78.9796 600.799C79.9132 601.298 80.5049 602.262 80.5272 603.32C80.5496 604.379 79.9992 605.367 79.0876 605.905C77.7121 606.716 75.9402 606.276 75.1047 604.915C74.2691 603.553 74.6782 601.774 76.0241 600.914Z"/><path fill="#FD904E" d="M120.601 748.657C120.982 748.409 121.245 748.163 121.669 748.091C121.725 748.132 121.78 748.174 121.836 748.215C121.803 748.695 121.538 748.932 121.242 749.354C120.875 749.491 120.213 749.888 119.817 749.629C119.751 749.185 120.294 748.906 120.601 748.657Z"/><path fill="#F97316" d="M0 0L69.996 0L193.649 0L624.769 0C605.533 34.1905 572.085 63.9844 537.073 81.5585C524.447 87.8964 515.47 90.212 503.387 95.28C484.867 100.284 467.037 104.705 447.834 106.403C440.047 107.08 432.246 107.596 424.437 107.949C421.252 108.108 413.315 108.285 410.514 108.902C415.338 110.71 423.16 108.871 428.346 109.394C432.59 109.822 436.836 107.185 440.721 108.324L441.018 109.146C438.594 111.388 433.382 110.804 428.176 113.007C419.752 116.571 379.866 143.522 377.191 150.236C379.24 151.96 385.236 149.993 389.267 153.101C360.356 150.491 336.167 149.989 307.508 157.121C303.774 158.05 293.932 160.739 290.854 162.524C270.058 169.393 250.025 180.994 233.048 194.763C231.438 196.666 229.055 199.316 227.791 201.34C224.627 204.618 219.304 212.099 216.362 216.011L213.027 219.189L212.83 219.732C210.987 224.685 207.364 230.159 204.853 234.96C173.301 295.319 172.371 369.851 199.291 432.11C200.737 435.453 208.579 449.483 208.486 451.306L206.32 452.382C197.42 451.683 185.845 452.347 175.695 451.672L175.418 451.56C174.042 451.671 172.66 451.686 171.281 451.606C164.802 451.247 152.758 449.078 146.147 447.699C102.374 438.463 61.9568 417.436 29.2646 386.891C16.3183 374.871 10.9496 366.81 0 354.717L0 352.375L0 331.352L0 284.079L0 100.816L0 41.4968L0 6.46672L0 5.70291L0 0Z"/><defs><linearGradient id="gradient_1" gradientUnits="userSpaceOnUse" x1="90.285347" y1="253.94746" x2="211.092" y2="447.56747"><stop offset="0" stop-color="#0267CC"/><stop offset="1" stop-color="#00B1FF"/></linearGradient></defs><path fill="url(#gradient_1)" d="M87.775 240.493C100.242 245.281 112.545 249.462 125.953 250.599C151.091 252.731 177.416 246.555 197.836 231.4C203.052 227.53 208.023 223.323 213.027 219.189L212.83 219.732C210.987 224.685 207.364 230.159 204.853 234.96C173.301 295.319 172.371 369.851 199.291 432.11C200.737 435.453 208.579 449.483 208.486 451.306L206.32 452.382C197.42 451.683 185.845 452.347 175.695 451.672L175.418 451.56C174.042 451.671 172.66 451.686 171.281 451.606C164.802 451.247 152.758 449.078 146.147 447.699C102.374 438.463 61.9568 417.436 29.2646 386.891C16.3183 374.871 10.9496 366.81 0 354.717L0 352.375L0 331.352L0 284.079C0.980461 283.933 0.620867 283.92 1.56266 284.191C2.45592 287.427 2.02012 309.464 1.98595 314.102C4.52687 311.3 17.7171 304.677 22.1423 300.428C23.6906 298.941 38.7331 289.855 41.1107 288.706C56.8259 281.232 69.1161 269.632 83.359 259.887C87.6182 256.972 101.443 252.16 100.994 247.416C98.2618 244.181 91.1978 243.837 87.2349 241.263L87.775 240.493Z"/><path fill="#F97316" d="M0 331.352C31.7044 320.683 58.099 321.453 88.4401 336.45C123.359 353.71 155.078 387.934 166.996 425.289C169.075 431.804 172.742 444.817 175.091 450.462L175.418 451.56C174.042 451.671 172.66 451.686 171.281 451.606C164.802 451.247 152.758 449.078 146.147 447.699C102.374 438.463 61.9568 417.436 29.2646 386.891C16.3183 374.871 10.9496 366.81 0 354.717L0 352.375L0 331.352Z"/><path fill="#FD904E" d="M0 352.375C8.11537 361.904 15.3657 371.481 24.2777 380.375C62.9036 418.922 117.171 446.022 171.985 450.29C173.019 450.372 174.055 450.43 175.091 450.462L175.418 451.56C174.042 451.671 172.66 451.686 171.281 451.606C164.802 451.247 152.758 449.078 146.147 447.699C102.374 438.463 61.9568 417.436 29.2646 386.891C16.3183 374.871 10.9496 366.81 0 354.717L0 352.375Z"/><path fill="#018EDF" d="M154.611 290.233C159.968 292.152 152.741 307.037 145.827 294.353C146.242 293.435 146.959 290.917 147.931 290.8C148.783 291.765 148.074 293.642 148.6 296.145L148.66 296.182L148.934 295.134L148.919 295.409C149.296 285.877 154.346 291.845 154.093 291.907C154.418 291.45 154.488 290.795 154.611 290.233Z"/><path fill="#2563EB" d="M150.64 288.61C151.543 288.268 151.561 288.194 152.13 288.979C151.165 289.392 151.004 289.748 150.64 288.61Z"/><path fill="#2563EB" d="M0 100.816C0.702291 102.945 1.43748 105.054 1.99785 107.223C2.57559 115.988 5.59419 125.743 7.48392 134.367C17.8577 181.71 43.5083 218.576 87.775 240.493L87.2349 241.263C91.1978 243.837 98.2618 244.181 100.994 247.416C101.443 252.16 87.6182 256.972 83.359 259.887C69.1161 269.632 56.8259 281.232 41.1107 288.706C38.7331 289.855 23.6906 298.941 22.1423 300.428C17.7171 304.677 4.52687 311.3 1.98595 314.102C2.02012 309.464 2.45592 287.427 1.56266 284.191C0.620867 283.92 0.980461 283.933 0 284.079L0 100.816Z"/><defs><linearGradient id="gradient_2" gradientUnits="userSpaceOnUse" x1="97.648232" y1="53.768749" x2="51.070244" y2="-28.817337"><stop offset="0" stop-color="#F50"/><stop offset="1" stop-color="#FFE2D8"/></linearGradient></defs><path fill="url(#gradient_2)" d="M0 0L69.996 0L193.649 0C189.866 3.3067 177.346 2.31304 172.139 2.29674L138.878 2.17841C130.633 7.63892 109.585 16.5986 99.441 22.3167L25.1958 63.8794C20.2378 66.6057 6.06264 75.4653 2.0819 77.2748C2.15569 81.519 2.87769 104.558 1.99785 107.223C1.43748 105.054 0.702291 102.945 0 100.816L0 41.4968L0 6.46672L0 5.70291L0 0Z"/><path fill="#DFCBD0" d="M0 5.70291C0.994579 4.61604 1.80705 3.98319 2.37453 2.51013C3.65719 2.2436 5.80465 1.53696 7.07283 2.08802C7.12413 2.11031 7.27511 2.32778 7.21627 2.39958C5.23691 4.81493 2.85488 5.98643 0 6.46672L0 5.70291Z"/><path fill="#B4BEDA" d="M410.514 108.902C415.338 110.71 423.16 108.871 428.346 109.394C432.59 109.822 436.836 107.185 440.721 108.324L441.018 109.146C438.594 111.388 433.382 110.804 428.176 113.007C419.752 116.571 379.866 143.522 377.191 150.236C379.24 151.96 385.236 149.993 389.267 153.101C360.356 150.491 336.167 149.989 307.508 157.121C303.774 158.05 293.932 160.739 290.854 162.524C270.058 169.393 250.025 180.994 233.048 194.763C234.452 192.423 237.89 188.67 239.764 186.541C280.463 140.305 349.201 111.798 410.514 108.902Z"/><defs><linearGradient id="gradient_3" gradientUnits="userSpaceOnUse" x1="242.36906" y1="189.75549" x2="375.74689" y2="368.96033"><stop offset="0" stop-color="#0173D5"/><stop offset="1" stop-color="#00B8FF"/></linearGradient></defs><path fill="url(#gradient_3)" d="M290.854 162.524C293.932 160.739 303.774 158.05 307.508 157.121C336.167 149.989 360.356 150.491 389.267 153.101C408.881 157.467 428.027 161.418 447.312 167.434C449.739 168.191 452.975 169.082 455.449 169.605C454.43 171.816 442.365 183.709 439.507 187.366C427.978 202.119 421.641 213.732 414.152 230.442C402.453 256.542 401.086 281.374 393.568 307.778C375.753 368.569 330.225 417.338 270.811 439.275C254.849 445.19 228.172 451.327 210.822 451.718C209.549 451.932 207.539 452.345 206.32 452.382L208.486 451.306C208.579 449.483 200.737 435.453 199.291 432.11C172.371 369.851 173.301 295.319 204.853 234.96C207.364 230.159 210.987 224.685 212.83 219.732L213.027 219.189L216.362 216.011C219.304 212.099 224.627 204.618 227.791 201.34C229.055 199.316 231.438 196.666 233.048 194.763C250.025 180.994 270.058 169.393 290.854 162.524Z"/><path fill="#2563EB" d="M233.048 194.763C250.025 180.994 270.058 169.393 290.854 162.524C288.19 166.09 280.714 166.939 278.815 168.987C276.043 171.979 275.947 174.314 270.203 175.617C269.956 175.673 270.172 180.283 268.936 180.411C266.15 181.953 263.773 183.013 261.032 184.721C254.628 188.71 245.997 200.006 238.563 200.581C236.536 200.738 234.791 200.994 232.748 201.066C232.351 199.504 233.106 198.48 233.763 196.688C232.045 198.243 229.824 200.522 227.791 201.34C229.055 199.316 231.438 196.666 233.048 194.763Z"/><path fill="#0EA5E9" d="M213.027 219.189L216.362 216.011C209.591 228.177 202.533 240.719 197.338 253.643C178.644 301.405 176.261 354.009 190.559 403.267C196.603 424.478 200.603 432.436 210.822 451.718C209.549 451.932 207.539 452.345 206.32 452.382L208.486 451.306C208.579 449.483 200.737 435.453 199.291 432.11C172.371 369.851 173.301 295.319 204.853 234.96C207.364 230.159 210.987 224.685 212.83 219.732L213.027 219.189Z"/><defs><linearGradient id="gradient_4" gradientUnits="userSpaceOnUse" x1="530.09216" y1="33.411701" x2="626.46588" y2="163.49736"><stop offset="0" stop-color="#E3B6B2"/><stop offset="1" stop-color="white"/></linearGradient></defs><path fill="url(#gradient_4)" d="M624.769 0L643.286 0L749.185 0C743.23 25.8624 739.094 39.3986 726.082 63.5876C679.314 149.025 584.864 201.212 487.041 179.138C477.619 177.012 464.364 170.659 455.449 169.605C452.975 169.082 449.739 168.191 447.312 167.434C428.027 161.418 408.881 157.467 389.267 153.101C385.236 149.993 379.24 151.96 377.191 150.236C379.866 143.522 419.752 116.571 428.176 113.007C433.382 110.804 438.594 111.388 441.018 109.146L440.721 108.324C436.836 107.185 432.59 109.822 428.346 109.394C423.16 108.871 415.338 110.71 410.514 108.902C413.315 108.285 421.252 108.108 424.437 107.949C432.246 107.596 440.047 107.08 447.834 106.403C467.037 104.705 484.867 100.284 503.387 95.28C515.47 90.212 524.447 87.8964 537.073 81.5585C572.085 63.9844 605.533 34.1905 624.769 0Z"/><path fill="#F7B8A8" d="M624.769 0L643.286 0C639.948 3.34927 637.74 2.45189 633.213 2.29224C619.104 24.2848 588.17 52.5408 565.816 66.6232C551.735 75.4941 523.414 91.6407 507.227 95.0471C505.966 95.3217 504.671 95.4002 503.387 95.28C515.47 90.212 524.447 87.8964 537.073 81.5585C572.085 63.9844 605.533 34.1905 624.769 0Z"/><path fill="#B4BEDA" d="M726.082 63.5876C728.089 64.0605 736.98 59.1413 739.578 58.0692C751.145 53.2962 770.769 46.9278 783.244 48.618C780.839 50.7369 766.988 49.9027 766.551 51.6076C762.402 68.4074 748.347 73.7931 739.662 86.6563C731.501 98.7443 731.584 110.684 720.646 122.16C707.291 136.17 688.971 154.249 673.032 165.17C640.623 187.378 603.795 205.046 567.105 218.807C549.005 225.254 525.784 228.248 506.827 233.105C502.49 234.217 492.903 242.914 487.938 235.735C481.366 224.269 481.485 204.763 464.41 202.89C437.438 199.93 429.358 224.381 446.593 242.452C452.173 248.303 461.176 253.22 461.937 261.289C460.382 266.864 450.187 280.063 446.627 285.994C441.406 294.692 436.484 303.741 431.795 312.739C428.065 319.897 425.829 327.888 423.114 335.472C420.461 342.884 417.406 350.201 414.568 357.548C406.042 379.616 389.886 404.674 373.228 421.511C365.391 429.433 356.564 436.345 348.099 443.573C339.644 450.793 330.167 462.605 320.811 467.747C297.043 480.812 252.917 439.75 227.544 481.484C224.331 486.768 221.544 492.105 219.72 498.032C218.863 500.816 214.91 518.354 215.129 520.258C220.938 526.652 226.184 533.522 233.398 538.29C235.585 539.735 238.55 543.768 240.919 545.433C259.621 558.573 278.633 569.011 301.05 574.467C304.085 575.206 314.258 577.164 315.888 579.045C308.93 578.726 294.64 574.142 287.772 571.913C262.319 562.35 244.55 551.985 224.638 532.723C219.807 528.05 214.608 520.933 210.112 516.741L209.861 516.511C206.663 511.148 200.852 503.815 197.147 497.899C187.142 481.923 181.6 469.328 175.695 451.672C185.845 452.347 197.42 451.683 206.32 452.382C207.539 452.345 209.549 451.932 210.822 451.718C228.172 451.327 254.849 445.19 270.811 439.275C330.225 417.338 375.753 368.569 393.568 307.778C401.086 281.374 402.453 256.542 414.152 230.442C421.641 213.732 427.978 202.119 439.507 187.366C442.365 183.709 454.43 171.816 455.449 169.605C464.364 170.659 477.619 177.012 487.041 179.138C584.864 201.212 679.314 149.025 726.082 63.5876Z"/><path fill="#F97316" d="M1344 684.844L1344 768L1222.05 768L1129.49 768C1138.17 739.854 1164.26 715.757 1191.41 705.683C1216.44 696.399 1239.76 700.736 1265.21 704.411C1271.16 705.6 1277.71 705.738 1283.85 706.283L1284.4 706.887C1291.88 708.811 1309.44 704.933 1317.33 703.555L1318.38 704.608C1320.53 703.888 1324.12 701.452 1325.96 700.077C1333.34 695.134 1337.59 691.057 1344 684.844Z"/><path fill="#14B8A6" d="M1344 684.844L1344 768L1222.05 768C1233.79 746.294 1255.34 728.185 1278.56 720.137C1292.17 715.422 1305.74 711.825 1318.38 704.608C1320.53 703.888 1324.12 701.452 1325.96 700.077C1333.34 695.134 1337.59 691.057 1344 684.844Z"/><path fill="#018EDF" d="M749.185 0L810.157 0L885.527 0C877.278 21.0464 867.86 34.541 846.297 44.0295C831.395 50.4539 814.923 52.3114 798.965 49.3668C793.13 48.8405 789.073 48.4945 783.244 48.618C770.769 46.9278 751.145 53.2962 739.578 58.0692C736.98 59.1413 728.089 64.0605 726.082 63.5876C739.094 39.3986 743.23 25.8624 749.185 0Z"/><defs><linearGradient id="gradient_5" gradientUnits="userSpaceOnUse" x1="727.05438" y1="32.445" x2="775.0871" y2="31.27734"><stop offset="0" stop-color="#0253BD"/><stop offset="1" stop-color="#0275C8"/></linearGradient></defs><path fill="url(#gradient_5)" d="M749.185 0L810.157 0C804.597 5.39033 779.879 -0.765173 775.103 3.24257C771.496 13.2225 775.098 38.8677 767.797 47.7411C770.631 48.5774 770.795 47.1674 772.944 47.4177C780.929 48.3477 796.021 45.5382 803.426 49.1734L798.965 49.3668C793.13 48.8405 789.073 48.4945 783.244 48.618C770.769 46.9278 751.145 53.2962 739.578 58.0692C736.98 59.1413 728.089 64.0605 726.082 63.5876C739.094 39.3986 743.23 25.8624 749.185 0Z"/><path fill="white" d="M760.394 768C776.926 739.695 792.59 723.085 825.787 713.222C836.423 710.062 854.645 708.474 865.662 710.504C872.47 729.238 879.357 748.167 882.229 768L760.394 768Z"/><path fill="white" d="M867.559 710.629C902.842 717.237 925.927 735.868 941.292 768L883.68 768C881.434 751.13 873.709 726.426 867.559 710.629Z"/><path fill="#B4BEDA" d="M1344 587.437L1344 684.844C1337.59 691.057 1333.34 695.134 1325.96 700.077C1324.12 701.452 1320.53 703.888 1318.38 704.608L1317.33 703.555C1309.44 704.933 1291.88 708.811 1284.4 706.887L1283.85 706.283C1277.71 705.738 1271.16 705.6 1265.21 704.411C1267.88 703.637 1288.31 704.715 1293.14 704.662C1309.36 687.889 1325.5 675.146 1334.84 652.278C1336.79 647.504 1341.07 636.721 1341.9 631.725C1343.47 622.235 1338.53 594.65 1344 587.437Z"/><path fill="#F97316" d="M1283.85 706.283C1293.79 705.245 1303.64 705.716 1313.46 703.014C1317.3 701.96 1322.07 700.195 1325.96 700.077C1324.12 701.452 1320.53 703.888 1318.38 704.608L1317.33 703.555C1309.44 704.933 1291.88 708.811 1284.4 706.887L1283.85 706.283Z"/><path fill="#DFCBD0" d="M864.908 708.325C837.685 639.488 783.041 575.819 721.167 535.592C709.128 527.893 696.824 520.616 684.279 513.772C680.758 511.87 667.766 505.762 665.882 504.295L666.262 503.592C670.741 504.309 685.225 512.756 690.289 515.401C740.558 541.661 788.363 582.576 821.87 628.355C837.145 649.225 857.793 683.753 866.78 708.556C904.59 715.147 927.46 733.547 944.088 768L941.292 768C925.927 735.868 902.842 717.237 867.559 710.629C873.709 726.426 881.434 751.13 883.68 768L882.229 768C879.357 748.167 872.47 729.238 865.662 710.504C854.645 708.474 836.423 710.062 825.787 713.222C792.59 723.085 776.926 739.695 760.394 768L758.809 768C769.568 743.463 789.689 724.247 814.691 714.631C832.321 707.967 846.499 706.986 864.908 708.325Z"/><path fill="#B4BEDA" d="M634.974 733.691C635.073 733.771 635.172 733.85 635.271 733.929C636.951 734.462 637.76 740.995 638.335 740.974C659.14 740.209 670.305 745.39 678.769 765.251C679.531 767.041 684.461 763.717 687.893 768L660.972 768L639.873 768C639.364 763.488 638.97 759.073 638.543 754.553C638.003 748.351 636.163 740.035 634.974 733.691Z"/><path fill="#0EA5E9" d="M638.543 754.553C639.965 757.478 640.851 764.415 641.913 764.966C647.351 767.784 656.994 762.704 660.972 768L639.873 768C639.364 763.488 638.97 759.073 638.543 754.553Z"/><path fill="#B4BEDA" d="M469.448 239.821L471.515 240.609C475.784 246.318 475.424 261.22 476.407 267.9C493.736 385.636 412.525 506.852 292.828 525.146C292.39 524.767 292.562 524.769 292.393 523.944C301.846 522.288 311.318 520.944 320.119 517.333C325.265 515.222 331.82 514.314 337.076 511.994C366.058 499.201 393.124 481.318 414.716 457.997C459.547 410.762 480.371 349.567 476.204 284.901C475.585 275.29 473.319 264.378 471.789 254.801C471.1 250.489 469.596 244.632 469.461 240.373L469.448 239.821Z"/><path fill="#B4BEDA" d="M1066.22 690.995C1068.11 690.133 1070.35 690.892 1071.32 692.727C1072.3 694.563 1071.68 696.843 1069.91 697.934C1068.67 698.703 1067.09 698.715 1065.83 697.966C1064.57 697.216 1063.84 695.829 1063.92 694.365C1064 692.901 1064.88 691.603 1066.22 690.995Z"/><path fill="white" d="M1066.54 692.352C1067.72 691.688 1069.21 692.065 1069.94 693.209C1070.66 694.353 1070.37 695.865 1069.26 696.65C1068.49 697.197 1067.49 697.274 1066.64 696.852C1065.8 696.43 1065.26 695.576 1065.24 694.634C1065.22 693.691 1065.71 692.813 1066.54 692.352Z"/><path fill="#FD904E" d="M1145.11 717.171C1146.27 716.638 1147.64 716.803 1148.64 717.599C1149.64 718.394 1150.11 719.686 1149.86 720.941C1149.61 722.196 1148.67 723.202 1147.43 723.544C1145.72 724.018 1143.94 723.098 1143.33 721.431C1142.72 719.765 1143.5 717.91 1145.11 717.171Z"/><path fill="#AEE2DB" d="M1164.3 624.618C1165.9 623.778 1167.88 624.386 1168.74 625.98C1169.59 627.574 1169.01 629.56 1167.42 630.434C1166.38 631.008 1165.12 630.979 1164.1 630.357C1163.09 629.736 1162.49 628.618 1162.53 627.431C1162.57 626.244 1163.25 625.17 1164.3 624.618Z"/><path fill="#2563EB" d="M652.791 601.564C654.417 600.875 656.295 601.604 657.033 603.209C657.77 604.814 657.098 606.714 655.517 607.499C654.451 608.029 653.181 607.936 652.202 607.258C651.224 606.579 650.692 605.421 650.815 604.237C650.937 603.052 651.694 602.028 652.791 601.564Z"/><path fill="#F97316" d="M449.571 535.314C451.204 535.009 452.794 536.023 453.208 537.633C453.622 539.242 452.717 540.897 451.139 541.418C450.02 541.787 448.788 541.502 447.945 540.679C447.101 539.855 446.787 538.631 447.129 537.502C447.471 536.374 448.412 535.531 449.571 535.314Z"/></svg>