<?xml version="1.0" encoding="utf-8" ?><svg xmlns="http://www.w3.org/2000/svg" xmlns:xlink="http://www.w3.org/1999/xlink" width="433" height="586" viewBox="0 0 433 586"><path fill="#F27808" d="M93.2489 450.635C91.7704 448.951 89.2668 445.429 87.8559 443.531C83.1563 437.228 78.6428 430.788 74.3211 424.22C58.5259 400.547 43.9356 376.862 32.0715 350.889C2.54253 286.243 -10.2661 212.867 15.483 144.643C35.7519 89.9547 76.9797 45.5954 130.046 21.3779C172.275 2.67854 219.435 -1.80462 264.432 8.60284C272.814 10.6326 281.08 13.1105 289.196 16.026C293.413 17.5767 297.414 19.3696 301.592 20.9445L302.009 21.8781C301.078 22.7596 299.307 22.0943 297.888 22.3043C296.91 22.2649 293.756 21.7248 292.573 21.5699C289.046 21.1082 285.502 20.7888 281.949 20.6124C253.933 19.4598 228.792 23.7009 203.079 35.149C160.405 54.1887 127.074 89.44 110.457 133.108C96.6307 169.156 89.7976 219.695 100.638 257.258C102.683 264.297 105.285 271.163 108.419 277.79C110.285 281.707 112.469 285.506 114.233 289.454C117.879 287.849 132.628 284.228 136.808 283.401C139.535 284.526 145.97 288.744 149.392 290.593C155.742 294.025 163.737 296.557 169.491 299.892C156.879 303.578 138.883 311.615 131.197 322.873C128.19 327.277 126.959 332.358 127.973 337.631C132.427 360.792 173.573 372.997 191.197 384.94C196.512 388.541 202.122 393.136 203.325 399.809C204.058 403.876 202.84 407.96 200.48 411.291C184.946 433.216 119.437 446.281 93.2489 450.635Z"/><path fill="#F27808" d="M364.325 236.42C374.006 235.345 381.216 241.389 388.739 246.77C404.135 257.784 410.892 258.341 428.493 255.348C427.547 268.959 423.273 285.559 419.815 298.714C419.06 301.587 417.524 307.857 416.061 310.125C413.587 311.532 410.57 312.354 407.785 312.836C388.611 316.154 378.487 297.687 360.079 296.488C342.513 295.344 330.747 307.192 317.297 316.18C310.431 320.769 300.255 325.823 292.3 328.043C279.426 331.635 265.168 331.396 252.064 329.395C275.782 342.318 304.763 340.518 327.698 327.326C336.388 322.327 346.249 314.843 356.597 314.922C368.828 315.014 377.713 325.619 389.36 329.168C397.189 331.553 400.489 331.502 408.644 331.49C408.045 333.98 405.516 339.543 404.405 342.075C401.097 349.743 397.549 357.304 393.763 364.747C359.016 432.665 309.653 491.557 256.513 545.773C243.469 558.848 230.028 571.521 216.209 583.776C213.617 581.769 210.105 578.426 207.618 576.17C200.689 569.849 193.89 563.387 187.227 556.787C177.073 546.826 167.213 536.998 157.588 526.521C153.46 522.027 148.962 517.761 144.991 513.118C146.738 512.114 151.84 510.108 153.992 509.189C159.673 506.759 165.314 504.235 170.912 501.618C204.023 485.778 255.35 459.419 276.13 428.784C282.092 419.994 285.847 408.841 283.747 398.182C276.48 361.294 204.799 357.792 177.77 339.282C174.396 336.972 170.892 333.644 170.166 329.426C169.598 326.127 170.833 322.824 172.758 320.179C183.989 304.754 230.06 291.414 248.633 287.446C266.984 283.525 285.661 282.501 302.88 274.376C309.885 271.078 316.551 267.105 322.784 262.513C334.056 254.271 350.223 238.522 364.325 236.42Z"/><path fill="#F27808" d="M265.72 38.472C277.289 37.9524 288.879 38.7344 300.272 40.8032C327.581 45.8058 354.704 58.6605 375.316 77.4895C380.926 82.6143 387.552 90.787 391.862 97.0358C414.786 130.505 428.033 169.647 430.146 210.156C430.591 217.604 430.731 225.935 430.086 233.355C429.811 236.519 421.336 238.341 418.911 238.666C406.808 240.456 398.799 231.755 389.694 225.564C370.682 212.638 353.986 217.813 336.586 229.276C336.888 225.045 336.478 220.771 336.207 216.531C334.717 181.466 317.566 149.356 292.062 125.919C290.927 124.876 289.265 117.366 288.59 115.364C286.401 108.928 283.359 102.813 279.546 97.1849C268.189 80.3091 250.583 68.6451 230.612 64.767C207.559 60.4427 184.687 66.7805 166.76 81.7703C164.627 83.5539 162.612 85.9937 160.311 87.4757C161.54 85.762 162.884 84.134 164.334 82.603C189.406 55.6793 229.312 39.7985 265.72 38.472Z"/><path fill="#F27808" d="M214.998 83.4331C216.53 83.7288 216.136 83.4542 217.121 84.3122C217.561 85.4225 217.361 86.3263 217.258 87.537C218.849 87.4138 220.835 86.8844 221.431 88.7135L220.916 89.3976C219.86 90.0346 218.716 89.8806 217.431 89.8877L217.362 95.6944C220.465 98.4958 220.77 101.175 224.043 103.594C233.072 110.265 241.927 117.06 251.371 123.147C253.663 124.625 261.464 128.972 262.691 130.824C262.603 133.653 258.37 135.601 256.168 136.713L256.192 162.388C256.196 166.088 256.383 174.196 255.925 177.491C265.814 178.523 286.859 184.753 295.452 189.182C292.31 190.613 286.325 195.446 283.181 197.613C268.948 207.422 255.404 210.697 238.376 207.496C238.714 207.678 239.054 207.855 239.398 208.027C255.13 215.884 269.585 215.185 285.37 207.511C290.648 204.945 294.884 201.439 300.679 199.575C308.801 196.963 313.117 200.461 319.834 204.375C322.478 205.915 325.348 207.257 328.087 208.653C328.153 209.062 328.212 209.472 328.264 209.883C329.85 222.666 325.18 240.638 317.056 250.811C300.214 271.9 272.212 276.31 247.094 279.293C251.975 272.799 256.829 268.721 258.963 260.336C260.218 255.406 259.73 250.542 257.275 246.064C245.334 224.283 195.198 224.072 187.415 210.062C186.463 208.348 186.294 206.379 186.884 204.512C188.548 199.254 195.245 195.958 199.845 193.607C212.661 187.459 225.841 183.722 239.713 180.871C243.128 180.169 246.744 179.495 250.066 178.454C249.847 178.454 249.628 178.456 249.409 178.462C226.759 179.111 180.925 184.882 163.841 201.227C161.349 203.749 159.451 207.675 159.697 211.242C160.224 218.861 166.389 223.658 172.324 227.732C180.403 233.446 197.368 239.275 203.972 245.858C222.61 264.435 172.015 276.416 161.53 279.546C160.176 279.95 156.528 280.747 155.387 280.592C148.618 279.672 136.082 271.751 131.242 268.053C128.09 265.664 125.146 263.011 122.442 260.124C109.076 245.901 103.033 228.691 103.625 209.343C103.916 208.964 104.228 208.601 104.559 208.256C106.599 206.128 111.602 202.625 114.053 200.951C129.633 190.345 147.115 182.848 165.538 178.871C168.487 178.209 173.024 177.175 176.024 177.086C175.833 163.817 175.982 150.256 175.993 136.961C173.799 135.662 169.393 133.521 169.603 130.695C170.974 128.633 177.958 125.074 180.904 123.115C190.67 116.621 200.741 109.327 209.931 101.998C211.874 100.447 211.255 98.1049 214.904 96.0826C214.809 93.8541 214.833 92.1891 214.916 89.9861C213.613 90.0151 213.1 90.0507 211.784 89.7901C211.039 89.2788 210.907 89.2589 210.621 88.454C211.515 87.0822 213.574 87.8014 214.771 87.0433C214.732 85.4798 214.697 84.983 214.998 83.4331ZM218.002 168.262L225.736 168.251L225.706 167.911C225.256 162.512 226.393 148.017 225.203 143.774C224.673 141.838 223.573 140.105 222.046 138.801C219.91 136.985 217.204 136.473 214.476 136.731C214.26 136.753 214.044 136.777 213.829 136.804C209.904 138.343 206.844 141.297 206.544 145.594C206.022 153.066 206.727 160.96 206.392 168.443C209.892 168.14 214.415 168.259 218.002 168.262ZM240.511 168.473C242.777 168.311 244.503 168.255 246.764 168.248L249.635 168.24C249.512 162.438 249.628 156.626 249.608 150.822C249.594 146.995 249.364 139.903 243.829 140.442C242.269 141.389 241.262 142.42 240.954 144.288C239.735 151.684 240.999 161.122 240.511 168.473ZM182.795 168.399L187.399 168.284L191.701 168.333L191.657 168.045C190.806 162.166 193.453 144.291 189.009 140.98C188.303 140.454 187.467 140.3 186.624 140.129C181.895 143.361 182.882 147.659 182.708 152.616C182.527 157.792 183.002 163.257 182.795 168.399Z"/><path fill="#D97B2D" d="M301.592 20.9445C304.675 22.2825 306.099 22.8597 308.849 24.856C304.93 23.5753 301.97 22.9931 297.888 22.3043C299.307 22.0943 301.078 22.7596 302.009 21.8781L301.592 20.9445Z"/></svg>