<?xml version="1.0" encoding="utf-8" ?><svg xmlns="http://www.w3.org/2000/svg" xmlns:xlink="http://www.w3.org/1999/xlink" width="952" height="800" viewBox="0 0 952 800"><defs><linearGradient id="gradient_0" gradientUnits="userSpaceOnUse" x1="929.31897" y1="255.495" x2="55.093102" y2="910.71399"><stop offset="0" stop-color="black"/><stop offset="1" stop-color="#132130"/></linearGradient></defs><path fill="url(#gradient_0)" d="M246.055 800L108.832 800L109.466 786.609C103.648 783.365 104.173 781.548 99.735 777.081C96.278 773.602 90.049 770.109 87.48 765.648C78.5132 750.081 78.5677 729.307 78.6163 710.808C78.6246 707.657 78.6327 704.573 78.596 701.591C78.5952 698.69 78.8214 695.619 79.0483 692.539C79.3726 688.137 79.6982 683.717 79.364 679.753C78.536 669.936 75.356 659.289 73.177 649.645C61.2575 649.792 57.2467 648.418 53.0699 636.636C52.9593 636.324 52.8496 636.016 52.741 635.71C50.1668 628.471 48.1986 622.937 49.7159 614.963C52.3424 612.037 53.588 611.245 57.1765 609.676C52.3697 599.993 49.8329 591.971 47.3781 581.518C46.5617 578.042 44.7598 569.633 43.6687 566.698C42.233 554.63 38.4612 543.019 37.8793 529.577L37.2145 527.612C36.899 522.064 35.8732 515.156 35.1295 509.577C33.7278 497.518 32.3985 484.292 32.5466 472.204C32.1705 466.624 33.6044 453.931 34.4544 446.407C34.5776 445.317 34.6884 444.336 34.7798 443.5C37.2402 420.992 40.093 396.983 44.8592 374.881C52.239 334.083 65.298 287.038 102.028 262.984C119.69 251.417 139.296 240.972 159.194 233.798C165.251 224.693 172.909 218.664 182.842 214.123C183.933 203.423 185.083 190.737 186.654 180.274C183.017 176.784 179.536 170.59 176.707 168.143C162.381 155.755 151.874 142.693 164.328 123.077C155.903 99.466 151.786 63.626 179.157 50.72C181.036 49.91 184.328 48.903 186.351 48.221C186.96 48.1688 187.575 48.1685 188.173 48.1683C190.195 48.1674 192.013 48.1667 192.688 46.152C194.388 37.015 198.256 32.343 205.391 26.937C210.499 23.657 212.02 23.082 218.175 21.814C215.508 26.238 212.377 31.197 209.882 35.655C226.682 25.499 244.074 22.513 263.404 27.609C274.512 30.537 294.322 36.688 303.049 44.809C306.016 47.5697 301.003 51.913 298.791 53.8304C298.714 53.8973 298.64 53.9612 298.57 54.022L302.361 56.869C313.099 65.38 319.46 71.887 323.325 85.229C320.876 94.191 320.719 91.175 313.745 95.517L313.751 96.572C315.872 110.639 312.852 122.313 302.473 132.329C300.23 158.269 299.909 189.969 278.682 207.811C272.391 213.099 262.478 215.077 260.619 218.33C260.617 222.053 276.268 237.116 280.459 238.886C288.386 242.233 296.079 245.63 303.727 249.688C311.504 253.859 319.031 258.48 326.27 263.527C345.158 276.847 356.076 296.832 367.12 316.418C377.934 335.506 388.069 354.97 397.506 374.776C401.047 382.117 407.791 395.219 409.985 402.631C424.455 389.962 428.823 387.326 446.338 378.853C446.143 356.688 446.125 334.523 446.284 312.359L446.334 248.621C446.342 247.912 446.384 247.149 446.427 246.367C446.559 243.962 446.7 241.393 445.882 239.77C444.407 238.88 443.978 238.915 442.697 239.017C442.263 239.052 441.731 239.095 441.028 239.112L437.576 239.062C424.117 239.137 408.729 234.122 404.439 219.739C403.65 217.094 403.234 214.147 402.633 211.427C402.608 209.307 402.544 206.955 402.477 204.473C402.236 195.538 401.949 184.926 403.232 177.454C404.458 170.311 412.088 159.995 414.89 153.197C428.159 125.193 444.697 98.498 456.595 69.914C457.649 67.3822 457.407 60.6971 457.262 56.692C457.24 56.0716 457.22 55.5154 457.207 55.049C474.403 54.4276 493.517 54.5704 511.742 54.7065C518.124 54.7542 524.396 54.801 530.439 54.814L649 54.86L753.592 55.005C759.651 54.9897 766.185 54.9019 772.899 54.8117C788.526 54.6019 805.124 54.379 818.946 55.026C819.273 75.474 820.129 72.337 828.627 89.758C839.948 112.97 851.132 136.011 863.554 158.72C866.728 164.72 870.125 171.13 872.441 177.421C873.357 182.26 873.208 187.754 873.063 193.146C872.967 196.673 872.873 200.156 873.079 203.383C874.647 228.03 862.23 237.801 838.958 239.593L839.008 503.552C845.252 511.45 849.995 529.759 850.281 539.995C850.317 541.277 850.027 542.82 849.723 544.441C849.177 547.346 848.584 550.503 849.731 552.867C851.201 553.619 855.275 553.462 857.574 553.374C857.853 553.364 858.107 553.354 858.326 553.347C858.002 549.4 857.339 546.228 856.691 543.128C855.802 538.872 854.942 534.754 855.026 528.96L856.877 530.142C857.557 538.236 859.546 545.413 860.732 553.274C861.088 553.288 861.496 553.306 861.942 553.327C865.581 553.493 871.808 553.777 874.135 552.394L874.836 553.035C877.544 553.743 879.842 553.587 881.246 554.974C881.328 556.685 881.257 557.453 881.092 559.172C881.701 561.299 883.488 564.288 884.668 566.261C888.823 573.216 890.044 581.244 887.877 589.09C884.231 597.126 881.876 599.466 875.031 604.861C878.014 604.866 881.551 604.806 885.247 604.743C892.397 604.621 900.143 604.489 905.627 604.803C906.84 605.062 908.211 605.244 908.827 606.382C910.9 610.209 910.318 616.829 909.87 621.927C909.762 623.16 909.661 624.305 909.608 625.299C906.769 627.785 901.453 627.5 896.665 627.242C894.93 627.149 893.265 627.06 891.812 627.107C893.785 644.813 897.448 665.439 900.277 683.191L910.608 751.522C912.245 762.6 915.976 781.128 916.625 791.487C916.129 791.511 915.55 791.544 914.911 791.582C910.755 791.823 904.069 792.211 901.421 791.008L900.566 790.041C900.664 787.507 899.07 777.024 898.158 774.584L896.897 774.117C887.121 776.312 886.676 768.326 886.272 761.052C886.199 759.753 886.128 758.478 886.006 757.287L885.565 754.331C885.13 747.741 883.395 736.286 882.478 729.559C878.94 729.553 875.253 729.522 871.5 729.491C861.193 729.404 850.388 729.312 840.813 729.734L839.522 729.621C838.58 730.959 838.834 733.951 839.014 736.07C839.046 736.438 839.075 736.781 839.095 737.083L755.468 737.125C751.311 737.151 747.06 737.185 742.747 737.22C721.473 737.392 698.682 737.576 678.191 736.848C677.388 743.361 674.605 769.031 672.744 773.891C669.861 773.983 666.549 774.009 663.709 774.204C662.858 779.873 662.066 785.819 660.924 791.414C660.215 791.458 659.496 791.514 658.771 791.57C654.889 791.869 650.841 792.182 647.339 790.867C645.453 788.866 646.732 781.671 647.28 778.861C649.884 765.512 650.742 750.698 653.551 737.494C633.894 737.365 614.236 737.36 594.579 737.479C591.673 737.487 588.65 737.462 585.594 737.437C579.846 737.391 573.983 737.343 568.573 737.507C562.037 737.306 555.376 737.347 548.75 737.388C545.675 737.407 542.609 737.425 539.566 737.42C539.326 739.356 539.095 741.225 538.787 743.152C537.851 749.994 537.438 755.128 535.998 761.998C522.222 771.521 488.515 768.683 472.022 766.85C467.898 766.391 462.466 764.042 458.924 761.833C458.44 758.662 457.875 755.725 457.25 752.579C439.153 758.439 414.2 759.046 396.289 752.479C392.765 738.715 390.648 723.197 387.945 709.133C386.685 702.574 386.095 693.571 384.181 687.387C384.06 687.005 383.94 686.633 383.823 686.272C382.379 681.809 381.431 678.881 385.955 675.46C395.434 673.22 417.028 673.69 426.711 673.969C426.512 671.215 426.517 668.645 426.522 666.19C426.536 659.154 426.548 653.055 421.739 646.234C422.13 644.69 422.499 644.546 423.627 643.405C426.708 637.585 420.983 622.227 416.895 617.207C399.919 611.843 389.599 603.031 382.709 586.285L382.684 586.224C381.64 583.686 379.284 577.961 380.257 575.474C381.578 574.954 382.206 575.011 383.712 575.581C398.048 581.007 409.703 590.772 416.025 604.903C418.354 610.109 419.563 615.484 422.068 620.533L422.373 621.138C422.991 608.862 421.233 599.73 416.857 588.366C400.202 576.846 390.761 562.799 389.909 542.128C389.898 541.865 389.885 541.607 389.872 541.353C389.761 539.221 389.665 537.371 391.191 535.605C394.376 534.705 396.768 537.17 398.932 539.401C399.171 539.648 399.407 539.891 399.641 540.127C407.032 547.567 412.655 555.404 416.294 565.245C417.457 569.786 418.219 572.58 418.733 577.23C419.451 583.1 420.064 587.418 421.472 593.194C421.481 591.2 421.545 589.558 421.603 588.103C421.79 583.351 421.899 580.582 419.728 574.038L417.604 564.998C417.292 560.934 417.095 554.945 417.52 550.943C418.338 543.241 426.392 523.117 433.386 520.041C439.662 520.424 438.916 544.323 438.489 549.192C437.261 563.186 431.93 570.278 424.684 581.436C424.222 591.392 424.05 598.998 424.237 608.931C425.797 603.805 425.799 598.293 426.846 593.074C429.416 580.276 437.022 569.913 446.002 560.793C446.333 535.491 446.565 505.299 446.019 480.099C414.12 501.244 396.913 510.261 362.063 488.779C366.321 521.951 370.078 555.185 373.331 588.471C373.548 590.873 373.837 593.606 374.143 596.509C375.154 606.081 376.36 617.503 375.843 624.997C372.13 628.418 370.332 629.286 365.716 631.187C368.345 687.425 369.995 743.705 370.666 800L255.543 800C254.5 786.977 253.304 773.992 251.807 761.105C251.278 769.905 248.613 783.419 247.229 792.586L246.055 800ZM449.847 589.394C451.532 591.248 450.727 594.196 449.156 595.949C447.369 594.916 449.036 591.2 449.75 589.612C449.784 589.534 449.817 589.461 449.847 589.394ZM426.56 628.577C425.731 627.779 425.75 626.191 425.495 624.76C425.217 616.735 425.896 612.508 428.569 604.888C434.794 601.03 440.977 597.629 446.395 592.676C446.355 594.542 446.339 596.021 446.434 597.882C440.458 602.758 436.658 608.946 431.104 614.263C430.532 614.81 430.185 616.656 430.013 617.43C429.338 620.365 428.519 623.265 427.557 626.119C427.222 627.334 427.147 627.451 426.56 628.577ZM456.767 623.891L454.965 623.424L450.405 619.776L454.82 616.36C456.32 617.477 458.608 622.21 456.767 623.891ZM864.472 656.641C862.92 650.607 842.619 653.688 839.004 654.705L838.989 627.229L870.34 627.499C873.882 653.537 876.017 679.789 879.525 705.835C880.033 709.605 880.381 713.393 881.083 717.135C876.866 717.054 872.598 717.054 868.375 717.019L866.98 716.988C866.542 716.077 867.359 715.075 868.056 714.22C868.168 714.084 868.276 713.952 868.375 713.824C882.544 695.624 875.236 683.192 862.503 668.113C862.607 667.567 862.793 666.72 863.011 665.727C863.717 662.514 864.76 657.761 864.472 656.641ZM437.862 635.666C435.112 639.721 432.549 643.9 430.182 648.191L428.812 650.806L428.255 650.743C426.798 647.637 426.945 639.006 427.717 635.484C428.543 631.713 429.522 630.331 432.634 628.271C433.993 628.473 433.613 628.383 434.872 628.892C436.549 630.903 437.034 633.14 437.862 635.666ZM511.554 637.031C511.658 636.728 511.776 636.383 511.892 635.966L512.715 636.023C512.385 637.478 512.34 638.256 511.42 639.443C511.063 638.472 511.246 637.937 511.554 637.031ZM428.873 668.472C428.515 661.752 428.227 656.334 432.164 650.656C435.22 650.095 438.354 649.708 441.436 649.284C443.337 649.03 443.559 649.013 445.467 649.125C447.386 652.319 446.465 670.611 443.366 673.549C442.37 674.493 436.234 674.248 433.656 674.144C433.335 674.132 433.069 674.121 432.875 674.115C429.375 674.132 429.096 672.703 428.907 669.122C428.896 668.904 428.884 668.688 428.873 668.472ZM462.431 668.35C457.565 669.227 453.058 669.62 448.145 669.998C447.978 664.186 448.251 659.515 448.588 653.738L448.59 653.696C449.536 654.335 462.909 667.316 463.2 667.872L462.431 668.35Z"/><path fill="#117E65" d="M182.08 217.638C175.006 220.869 167.913 227.396 162.676 233.029C159.8 251.729 156.066 265.998 150.32 284.087C162.353 289.251 176.758 293.768 188.077 299.009C184.268 305.521 178.753 312.783 174.456 319.39C184.677 336.892 207.828 377.697 211.24 396.526C207.622 391.797 205.313 386.688 203.088 381.201C194.281 359.488 182.618 339.548 171.316 319.031C174.822 312.82 179.9 306.198 184.161 300.353C172.086 295.239 159.327 290.963 147.022 285.917C152.864 268.414 156.052 254.584 159.522 236.557C79.584 269.857 64.3083 293.635 47.0369 377.52C45.7611 376.692 45.6421 376.2 44.8592 374.881C40.093 396.983 37.2402 420.992 34.7798 443.5C34.6884 444.336 34.5776 445.317 34.4544 446.407C33.6044 453.931 32.1705 466.624 32.5466 472.204C33.1633 473.003 33.4703 473.32 34.1605 474.052C34.2881 471.938 34.2554 471.564 35.4187 469.809C35.2967 489.165 37.2034 504.437 39.8549 523.435C43.7796 551.558 46.7998 583.316 59.6327 608.967C79.464 601.929 96.613 599.959 117.549 601.326C125.449 573.158 121.968 542.816 117.898 514.142C114.606 490.953 116.296 481.064 119.608 461.683C120.101 458.802 120.629 455.711 121.182 452.335C124.476 432.648 127.309 412.888 129.679 393.069C130.125 389.233 131.29 374.296 133.02 372.3L133.269 372.463C134.839 380.345 133.377 389.79 132.03 398.489C131.593 401.314 131.168 404.06 130.863 406.648C127.739 433.136 122.159 459.463 118.748 485.846C118.008 491.572 119.067 500.698 119.917 508.028C120.158 510.105 120.382 512.038 120.544 513.709C121.083 519.265 121.771 524.852 122.461 530.453C125.386 554.191 128.342 578.185 120.087 601.221C130.491 606.495 130.1 615.371 129.667 625.211C129.606 626.586 129.545 627.981 129.512 629.387C132.422 629.57 135.698 629.88 138.598 630.253C167.472 633.967 194.096 633.1 222.993 630.969C222.999 626.22 223.019 621.434 223.04 616.632C223.098 602.767 223.157 588.762 222.882 575.091C222.051 544.277 220.859 513.474 219.306 482.688C217.435 441.941 215.228 400.524 209.039 360.242C203.141 321.858 191.068 283.665 181.492 246.098C179.041 236.482 179.786 231.993 181.006 224.64C181.347 222.587 181.725 220.311 182.08 217.638Z"/><path fill="#000102" d="M47.0369 377.52C45.7611 376.692 45.6421 376.2 44.8592 374.881C40.093 396.983 37.2402 420.992 34.7798 443.5C34.6884 444.336 34.5776 445.317 34.4544 446.407C33.6044 453.931 32.1705 466.624 32.5466 472.204C33.1633 473.003 33.4703 473.32 34.1605 474.052C34.2881 471.938 34.2554 471.564 35.4187 469.809C35.5652 457.656 37.4883 441.475 39.0475 429.446C41.2019 412.063 43.8662 394.746 47.0369 377.52Z"/><path fill="#000102" d="M173.729 544.626C175.636 541.113 181.421 530.426 178.632 526.816C175.798 531.29 174.71 535.863 172.536 540.513C166.531 553.356 158.238 565.798 147.694 575.35C147.132 575.864 146.222 576.621 145.15 577.514C141.445 580.6 135.795 585.306 135.809 587.171L136.205 587.76C152.904 578.557 164.813 561.045 173.729 544.626Z"/><path fill="#000102" d="M107.197 288.027C105.215 286.207 102.205 284.101 99.612 283.416C112.104 298.552 121.613 305.919 127.36 327.079C128.449 331.09 129.06 338.896 132.557 340.374C131.401 322.409 120.58 300.316 107.197 288.027Z"/><path fill="#000102" d="M87.69 470.81C83.138 468.505 76.131 462.971 71.894 461.347C72.012 463.583 72.321 463.923 74.045 465.571C79.257 470.551 99.264 480.565 105.616 481.03C105.143 479.479 105.123 479.152 103.197 478.21C98.007 475.673 92.858 473.427 87.69 470.81Z"/><path fill="#000102" d="M87.8874 487.105C81.5479 486.541 74.792 485.94 69.999 486.12C71.452 488.311 72.305 488.644 75.245 489.098C82.582 490.231 94.706 490.578 102.052 489.777C100.915 488.348 100.617 488.008 98.282 487.901C95.302 487.765 91.6688 487.441 87.8874 487.105Z"/><path fill="#D1946C" d="M843.029 561.09C838.634 565.507 834.07 569.912 830.827 575.264C832.396 581.793 832.22 588.957 832.049 595.872C832.017 597.183 831.985 598.486 831.965 599.773C838.397 605.148 841.497 605.111 847.097 605.043C848.743 605.023 850.605 605 852.831 605.112C869.847 605.964 881.511 604.117 886.671 585.057C886.706 584.623 886.741 584.211 886.775 583.819C887.169 579.235 887.339 577.264 884.078 573.373L883.475 572.864C879.46 569.445 875.597 563.569 871.603 562.221C869.286 562.625 867.208 565.488 865.039 568.477C861.706 573.068 858.159 577.955 853.205 574.675C849.295 572.086 846.886 565.253 843.029 561.09Z"/><path fill="#000102" d="M841.909 594.492C838.707 591.477 836.542 584.657 833.478 581.934C833.346 587.453 838.699 596.358 844.39 597.141C843.625 596.313 842.7 595.238 841.909 594.492Z"/><path fill="#F26E45" d="M383.823 686.272C383.94 686.633 384.06 687.005 384.181 687.387L385.435 686.693C392.507 688.384 442.965 692.072 445.7 688.899C445.451 688.658 445.203 688.414 444.957 688.169C442.606 685.792 442.672 681.741 442.732 678.139C442.741 677.594 442.75 677.059 442.75 676.542C441.787 676.525 440.839 676.507 439.907 676.49C419.837 676.122 406.583 675.879 386.133 677.585L385.955 675.46C381.431 678.881 382.379 681.809 383.823 686.272Z"/><path fill="#000102" d="M383.823 686.272C383.94 686.633 384.06 687.005 384.181 687.387L385.435 686.693C385.446 686.227 385.443 685.636 385.439 684.975C385.427 682.456 385.409 678.938 386.133 677.585L385.955 675.46C381.431 678.881 382.379 681.809 383.823 686.272Z"/><path fill="#D1946C" d="M842.721 555.469C838.31 555.521 834.042 555.571 830.088 555.587C830.863 561.879 830.831 565.378 829.467 571.679C832.953 568.161 838.811 561.449 843.152 559.681C848.473 560.494 849.365 570.34 854.958 573.352C858.313 573.851 861.664 569.78 864.97 565.762C867.062 563.22 869.136 560.7 871.183 559.372C879.06 563.739 878.945 566.605 884.743 571.91C883.684 568.269 881.306 565.084 880.079 560.423C879.795 558.871 879.683 556.51 878.729 555.688C868.064 555.17 854.856 555.326 842.721 555.469Z"/><path fill="#000102" d="M884.668 566.261C883.488 564.288 881.701 561.299 881.092 559.172L880.079 560.423C881.306 565.084 883.684 568.269 884.743 571.91L884.078 573.373C887.339 577.264 887.169 579.235 886.775 583.819C886.741 584.211 886.706 584.623 886.671 585.057C887.587 586.673 887.58 587.289 887.877 589.09C890.044 581.244 888.823 573.216 884.668 566.261Z"/><path fill="#F7F1E9" d="M642.867 217.297C641.383 214.333 639.228 205.765 637.718 203.869C636.507 207.936 635.096 212.994 633.308 216.688C620.861 242.413 572.534 242.06 559.984 216.548C558.719 213.974 557.615 210.877 556.869 208.155C553.867 215.724 551.378 221.486 544.58 226.626C529.984 237.66 508.578 237.754 491.979 231.568C484.123 228.64 479.676 223.681 475.304 216.658C469.114 230.973 463.816 235.475 448.5 238.759C448.5 253.945 448.448 269.226 448.396 284.537C448.289 315.756 448.182 347.099 448.516 378.014C453.177 376.295 457.913 374.658 462.109 371.957C465.435 363.559 468.262 362.593 476.407 359.044C476.389 349.205 476.309 339.141 476.228 328.992C476.034 304.586 475.836 279.684 476.484 256.22C498.405 255.516 522.175 255.694 545.415 255.868C556.18 255.948 566.832 256.028 577.133 256.019L628.453 255.979C630.846 255.977 633.293 255.964 635.77 255.95C644.191 255.903 652.944 255.854 660.993 256.272L661.016 604.994C663.278 604.991 665.586 605.002 667.91 605.013C673.034 605.036 678.236 605.061 683.193 604.941C678.489 601.824 676.32 600.349 673.362 595.21C668.829 585.191 667.578 573.648 667.459 562.736C665.162 560.996 663.476 559.453 662.919 556.535C663.829 553.103 666.845 552.533 669.979 551.326C670.74 548.855 671.403 546.347 671.871 543.802C674.417 529.963 681.9 515.915 694.737 509.163C703.147 504.805 712.93 503.916 721.989 506.687C742.036 512.977 749.375 532.282 752.186 551.299C759.706 553.45 761.717 557.215 755.251 562.737C755.208 563.934 755.173 565.154 755.138 566.388C754.788 578.775 754.393 592.711 744.805 601.54C743.435 602.825 741.95 603.98 740.367 604.991L762.873 604.989C761.742 602.251 761.601 600.833 760.821 598.19C759.986 595.362 760.394 591.08 760.803 586.796C761.3 581.582 761.798 576.364 760.054 573.76C760.311 571.939 761.093 571.297 761.804 570.712C762.816 569.881 763.687 569.166 762.708 565.345C763.983 561.375 768.96 561.583 773.658 561.779C777.423 561.937 781.008 562.087 782.362 560.071C782.655 557.313 781.848 555.992 780.43 553.67L780.31 553.473L784.102 549.397C784.035 549.041 783.967 548.705 783.901 548.383C783.559 546.714 783.293 545.411 783.798 543.621C786.879 540.099 807.269 540.593 811.217 542.856C812.159 544.902 812.236 546.142 812.301 547.179C812.4 548.754 812.469 549.858 815.499 552.604C815.342 553.048 815.182 553.472 815.026 553.883C814.144 556.214 813.426 558.111 814.529 560.546C816.233 562.145 817.359 562.223 819.683 562.139C822.675 562.028 825.669 561.991 828.663 562.026C827.29 553.402 827.884 552.984 836.704 553.4C835.449 551.42 831.504 545.666 830.865 543.654C827.361 532.616 824.76 519.677 826.333 508.085C827.093 502.478 831.895 502.116 836.414 501.34C836.711 478.926 836.642 456.225 836.574 433.631C836.546 424.318 836.518 415.023 836.516 405.774L836.513 239.579C818.364 238.252 807.61 234.612 800.369 216.68C794.554 226.198 788.386 231.152 777.471 233.472C751.648 238.961 729.347 234.632 718.964 208.708C715.343 218.927 710.539 226.524 700.302 231.327C682.422 239.717 652.614 236.763 642.867 217.297Z"/><path fill="#000102" d="M757.253 285.976C756.256 285.744 755.414 285.592 754.404 285.431C752.18 286.878 750.934 287.592 749.044 289.524C749.042 289.676 749.04 289.838 749.038 290.009C749.015 291.849 748.981 294.699 748.28 296.126C739.51 313.994 727.193 330.326 717.053 347.478C715.21 350.596 713.198 353.43 711.472 356.483C710.641 356.458 709.751 356.416 708.82 356.373C702.807 356.093 695.083 355.734 690.522 359.068C689.225 360.017 688.064 365.647 688.036 367.485C687.785 384.062 687.622 400.855 688.267 417.416C688.432 421.652 692.157 424.786 696.165 425.158C701.813 425.699 707.653 425.651 713.397 425.604C714.866 425.592 716.329 425.58 717.781 425.578L757.856 425.49L792.62 425.577C793.645 425.581 794.897 425.615 796.301 425.653C804.183 425.865 816.848 426.207 821.04 422.118C821.928 421.251 822.549 420.148 822.828 418.938C823.979 413.75 823.731 399.781 823.512 387.465C823.38 380.045 823.259 373.224 823.461 369.286C823.59 366.784 822.844 361.124 820.681 359.335C816.361 355.763 808.612 356.068 802.464 356.311C801.492 356.35 800.561 356.386 799.689 356.406L776.659 319.198C772.224 312.111 767.672 304.939 763.31 297.82C762.524 296.538 762.387 294.901 762.247 293.246C761.987 290.163 761.722 287.015 757.253 285.976Z"/><path fill="#D1946C" d="M690.947 363.988C690.373 365.741 690.179 367.632 689.942 369.455L713.106 369.5C707.458 371.723 699.087 371.663 692.434 371.615C691.621 371.609 690.833 371.603 690.08 371.602L690.028 398.199C690.027 399.059 690.01 400.043 689.99 401.112C689.874 407.49 689.704 416.877 692.825 420.886C697.57 423.619 710.204 423.306 718.516 423.1C720.278 423.056 721.846 423.017 723.103 423.013L763.659 423.002C767.287 423.003 770.917 423.003 774.547 423.003C787.252 423.004 799.965 423.004 812.664 423.026C814.982 423.031 818.346 421.285 819.925 419.543C820.085 418.824 820.203 418.646 820.184 418.485C820.168 418.342 820.044 418.212 819.745 417.73C809.747 416.974 799.307 416.983 789.197 416.393L789.277 415.978C790.25 415.608 793.036 415.572 795.54 415.539C796.891 415.521 798.159 415.504 799.017 415.437L821.001 415.518L821.14 387.921C821.153 386.901 821.19 385.703 821.231 384.385C821.471 376.696 821.839 364.921 818.148 360.449C815.738 359.608 813.341 359.206 810.802 359.057C797.281 358.264 699.018 357.639 694.388 359.71C692.566 360.525 691.547 362.158 690.947 363.988Z"/><path fill="#221B18" d="M785.993 414.971C785.002 414.97 784.029 414.969 783.085 414.962L781.74 416.111C783.236 416.08 784.61 416.172 785.914 416.259C787.049 416.335 788.131 416.408 789.197 416.393L789.277 415.978C790.25 415.608 793.036 415.572 795.54 415.539C796.891 415.521 798.159 415.504 799.017 415.437C794.972 414.981 790.317 414.976 785.993 414.971Z"/><path fill="#744E39" d="M779.331 415.551C780.578 415.947 780.463 415.973 781.74 416.111L783.085 414.962C782.693 414.975 782.363 414.975 782.072 414.975C781.045 414.974 780.491 414.974 779.331 415.551Z"/><path fill="#000102" d="M723.467 378.169C722.152 377.763 720.106 377.49 718.716 377.493C713.948 379.577 710.499 381.788 708.47 386.998C707.042 390.602 707.16 394.635 708.798 398.149C711.482 403.769 716.53 405.481 722.342 405.739C726.803 403.886 729.699 402.16 731.738 397.348C733.36 393.465 733.304 389.086 731.586 385.246C730.018 381.832 727.062 379.255 723.467 378.169Z"/><path fill="#D1946C" d="M721.794 403.079C732.622 396.468 731.341 381.253 718.879 380.431C708.114 387.396 708.556 401.891 721.794 403.079Z"/><path fill="#000102" d="M738.783 378.04L738.31 378.067C736.945 380.147 737.248 401.978 737.775 404.915L738.525 405.528C740.309 405.057 739.572 405.514 740.783 404.062C740.864 403.063 740.838 401.86 740.811 400.65C740.767 398.681 740.723 396.695 741.145 395.548L742.006 395.039C746.486 394.585 749.91 394.36 753.152 390.811C756.299 387.365 754.839 382.738 751.323 380.294C747.37 377.546 743.297 377.78 738.783 378.04Z"/><path fill="#D1946C" d="M749.188 390.868C753.977 382.716 748.936 380.739 741.344 380.541C738.831 388.126 739.815 393.854 749.188 390.868Z"/><path fill="#000102" d="M798.876 378.111L797.559 377.311C796.101 381.327 796.279 389.44 796.413 395.535C796.447 397.071 796.478 398.478 796.479 399.66C793.423 394.759 785.633 380.913 781.591 378.429L780.332 378.361C778.726 382.102 778.482 401.804 780.335 405.034C780.932 405.185 781.125 405.253 781.323 405.274C781.523 405.294 781.727 405.267 782.354 405.227C782.646 397.654 782.526 390.071 781.994 382.511C784.682 387.124 793.016 403.217 797.001 404.661C798.162 404.269 798.444 404.299 799.042 402.836C800.53 399.198 800.165 381.08 798.876 378.111Z"/><path fill="#000102" d="M760.152 377.964C759.706 377.984 759.321 378.001 759.012 378.011L759.11 405.507C759.908 405.513 760.66 405.523 761.378 405.533C766.516 405.602 769.882 405.647 775.394 404.082L776.167 403.869L776.628 403.734C770.949 402.511 768.397 402.414 762.567 402.498L762.513 394.875L762.818 393.371C765.35 391.953 769.846 393.175 773.529 390.929C771.685 389.607 765.958 389.712 763.12 389.764C762.903 389.768 762.704 389.771 762.524 389.774L762.512 381.074C762.779 381.083 763.054 381.093 763.335 381.103C766.637 381.223 770.876 381.377 773.718 379.935C772.628 377.409 764.078 377.789 760.152 377.964Z"/><path fill="#F7F1E9" d="M758.738 299.198C755.696 299.999 753.938 300.462 750.746 298.281L727.516 335.831C723.452 342.363 718.485 349.867 714.703 356.465L761.75 356.479L796.565 356.493L773.609 319.069C769.831 313.039 764.519 304.235 760.238 298.814C759.701 298.944 759.204 299.075 758.738 299.198Z"/><path fill="#D1946C" d="M758.461 289.489C757.201 288.448 755.478 288.167 753.953 288.755C751.65 289.643 750.485 292.212 751.332 294.529C752.18 296.846 754.729 298.057 757.06 297.249C758.605 296.714 759.74 295.388 760.031 293.779C760.321 292.17 759.721 290.53 758.461 289.489Z"/><path fill="#907A6D" d="M544.183 258.324C526.565 258.246 508.833 258.168 491.353 258.478L491.793 259.905C507.439 264.897 525.612 269.494 541.509 273.855C541.328 283.296 541.385 293.113 541.441 302.817C541.468 307.442 541.494 312.042 541.495 316.563C541.985 316.118 542.545 315.597 543.164 315.021C548.415 310.133 557.842 301.358 563.522 303.001C571.484 308.913 560.579 321.237 553.913 328.771C552.31 330.584 550.951 332.119 550.16 333.221L549.737 333.817C559.729 333.348 565.465 332.537 575.289 330.381C585.907 328.05 597.756 323.275 608.417 322.643C610.749 322.505 612.837 324.871 614.539 326.799C614.81 327.107 615.072 327.404 615.324 327.678L615.571 327.74C624.565 330.014 626.158 330.416 622.719 339.876C626.613 347.236 623.265 349.483 619.458 352.037C617.611 353.277 615.655 354.589 614.367 356.594C609.91 363.53 610.311 364.94 602.79 370.026C585.038 382.029 562.597 388.019 541.414 389.601L541.384 499.182C541.393 502.945 541.406 506.71 541.418 510.476C541.455 522.036 541.492 533.606 541.448 545.155C541.434 548.692 542.381 550.317 543.393 552.054C544.513 553.977 545.713 556.036 545.777 560.98C545.868 568.047 544.735 574.215 543.602 580.373C542.569 585.994 541.537 591.608 541.44 597.89C545.978 594.792 555.473 587.804 560.581 587.79L561.21 588.417C562.62 603.518 550.981 625.809 543.864 638.663C543.98 638.623 544.102 638.58 544.231 638.536C549.295 636.775 563.897 631.699 567.852 635.18C569.289 640.788 558.261 650.243 549.887 657.422C545.327 661.332 541.554 664.566 541.01 666.137C541.877 670.174 545.656 669.836 549.147 672.898C550.83 674.399 551.818 676.531 551.875 678.786C552.034 683.591 549.69 687.59 546.434 690.861C543.968 705.462 542.014 720.145 540.576 734.883C565.798 735.458 593.166 735.208 619.242 734.971C625.443 734.914 631.57 734.858 637.579 734.814L637.617 258.385C621.547 258.144 605.23 258.225 588.954 258.307C578.788 258.357 568.639 258.408 558.575 258.38C553.791 258.367 548.992 258.345 544.183 258.324Z"/><path fill="#117E65" d="M303.526 285.726C296.074 271.729 272.304 231.273 259.969 224.682C259.955 231.803 262.498 241.291 264.945 250.423C266.234 255.232 267.496 259.942 268.345 264.157C274.595 295.7 280.4 327.329 285.758 359.036C295.675 421.126 302.857 483.622 307.281 546.343C309.054 569.286 311.848 597.392 312.608 620.186C332.579 617.814 354.113 614.093 372.16 604.891C366.582 548.407 360.109 492.014 352.744 435.734L344.691 375.789C342.878 362.569 340.577 348.134 339.749 334.888C344.268 346.915 346.721 371.603 348.625 385.427C353.238 418.516 357.583 451.641 361.66 484.8C378.924 497.986 396.958 502.22 417.338 493.512C445.375 480.206 469.611 460.056 487.812 434.92C470.27 419.457 465.032 398.144 461.897 375.802C450.477 380.207 439.549 384.543 429.221 391.279C422.391 395.735 416.038 401.121 409.32 405.638C403.92 396.424 398.734 383.381 393.998 373.365C388.041 360.767 380.379 347.737 374.488 335.554C351.447 287.904 331.182 260.656 279.395 241.759C286.299 250.686 302.384 276.361 306.577 286.696C300.854 290.592 294.585 293.356 289.319 296.969C294.348 299.639 301.117 302.97 305.408 306.487C305.576 311.865 303.414 325.041 301.754 335.154C301.137 338.914 300.59 342.251 300.257 344.606C298.98 353.833 297.793 363.071 296.696 372.32C295.709 380.315 295.205 387.175 292.819 394.911C291.934 386.754 293.087 378.054 294.188 369.752C294.342 368.587 294.495 367.43 294.642 366.283C296.08 354.824 297.676 343.386 299.428 331.971C300.59 324.593 302.401 314.924 303.215 307.637C292.261 302.236 286.903 299.601 286.895 296.95C286.887 294.229 292.519 291.491 303.526 285.726Z"/><path fill="#000102" d="M408.385 410.542L407.877 410.256C404.55 416.982 396.406 439.15 401.699 445.706C403.281 440.029 403.536 432.214 404.619 426.143C404.819 425.022 405.456 423.031 406.16 420.829C407.488 416.674 409.056 411.769 408.385 410.542Z"/><path fill="#000102" d="M404.835 404.731L404.372 403.98C399.893 407.336 384.705 424.452 387.75 429.63C390.686 426.697 394.708 419.423 397.256 415.683C399.419 412.508 403.009 407.849 404.835 404.731Z"/><path fill="#F7F1E9" d="M198.341 260.602C195.149 259.009 189.545 255.321 186.585 254.171C193.792 284.234 204.072 315.902 209.337 346.159C217.913 395.442 220.469 447.792 222.529 497.75C223.839 529.53 225.513 562.188 225.536 593.908C250.298 594.119 274.032 593.254 298.431 588.666C301.366 588.114 304.648 587.564 307.599 587.162L307.114 582.589C300.806 473.132 286.387 364.293 263.975 256.969C253.456 266.499 244 270.54 229.444 269.889C218.769 269.412 207.886 265.365 198.341 260.602Z"/><path fill="#000102" d="M285.385 473.243L284.892 472.438C273.01 488.441 264.822 505.427 250.386 519.517C248.113 521.736 236.395 534.306 236.634 536.603L237.292 537.377C252.83 523.784 268.008 503.117 279.033 485.669C281.057 482.466 284.567 476.8 285.385 473.243Z"/><path fill="#FFB889" d="M262.735 103.686C247.38 98.091 241.322 91.237 230.459 79.974C222.606 99.872 223.349 103.172 203.145 115.142C202.531 120.842 201.236 135.609 197.188 139.148C193.71 139.704 191.19 135.185 189.127 131.485C188.473 130.312 187.864 129.221 187.286 128.4C175.639 111.873 159.818 125.097 161.604 141.478C163.238 155.414 172.687 165.185 187.523 162.789C188.643 162.607 189.76 162.407 190.874 162.191C188.685 183.219 186.926 212.527 182.59 232.424C195.079 244.777 214.722 255.663 232.632 255.535C248.241 255.424 256.653 248.491 257.036 232.657C252.692 232.009 248.059 231.459 243.871 230.217C227.225 224.149 215.081 211.273 207.71 195.356C207.181 194.206 206.674 193.046 206.191 191.876C206.552 192.178 206.912 192.479 207.271 192.779C221.787 204.919 234.818 215.817 255.41 214.472C272.729 213.341 288.244 197.951 292.608 181.625C298.456 159.744 300.187 132.719 300.611 109.932C286.428 106.403 278.15 100.088 267.625 90.287C268.046 91.0452 268.8 92.2568 269.68 93.6714C272.216 97.7477 275.801 103.509 275.488 104.959C271.734 106.684 266.492 105.054 262.735 103.686Z"/><path fill="#000102" d="M258.537 175.107C250.54 174.424 242.103 171.69 234.247 171.313C236.676 187.903 259.297 193.223 271.054 184.304C272.877 182.309 275.173 179.927 275.552 177.192C274.629 175.492 266.982 175.332 262.038 175.228C260.531 175.196 259.275 175.17 258.537 175.107Z"/><path fill="#F7F1E9" d="M254.411 177.081C249.314 176.367 241.98 174.68 237.154 174.366C244.685 185.25 257.266 190.032 269.128 182.597L272.632 178.085C265.639 178.121 261.448 178.068 254.411 177.081Z"/><path fill="#000102" d="M240.807 143.04C245.858 137.349 247.52 128.66 237.759 127.888C232.555 133.907 231.224 141.433 240.807 143.04Z"/><path fill="#000102" d="M283.04 144.363C287.826 138.083 289.206 130.173 279.185 129.301C275.812 134.717 273.159 145.096 283.04 144.363Z"/><path fill="#000102" d="M269.346 148.304C268.522 145.025 265.517 132.093 263.338 130.682C263.022 135.145 264.348 139.618 265.652 144.011C267.278 149.494 268.869 154.854 267.185 159.922C266.909 160.753 260.826 161.51 259.02 162.847L259.093 163.582C259.953 163.942 260.115 164.057 261.018 164.259C272.904 162.368 272.293 159.954 269.65 149.506C269.551 149.117 269.45 148.716 269.346 148.304Z"/><path fill="#000102" d="M183.942 144.058C186.936 137.38 175.456 130.729 170.337 130.107C170.461 132.756 177.604 135.951 180.185 138.239C170.823 151.258 181.684 154.693 184.083 151.689C183.459 150.576 183.158 150.737 181.758 150.05C178.674 148.118 177.343 144.66 180.397 142.223C181.915 142.366 182.319 143.023 182.63 143.529C182.905 143.977 183.107 144.306 183.942 144.058Z"/><path fill="#000102" d="M239.175 114.53C238.818 114.556 238.495 114.58 238.22 114.595C234.09 115.424 228.484 116.639 225.828 120.195L226.132 120.839C228.832 121.182 230.983 120.329 233.416 119.364C233.858 119.188 234.31 119.009 234.776 118.833C238.626 118.349 245.85 118.677 248.518 116.766C247.635 113.907 242.17 114.309 239.175 114.53Z"/><path fill="#000102" d="M292.816 121.899C293.346 116.989 281.6 116.539 278.149 116.598C276.505 117.093 275.16 117.241 274.161 118.549C275.142 120.226 286.646 120.2 290.395 121.668C291.304 121.989 291.508 122.151 291.725 122.17C291.915 122.187 292.116 122.093 292.816 121.899Z"/><path fill="#D1946C" d="M652.602 258.463C648.396 258.441 644.163 258.419 640.021 258.474L640.022 734.481L653.802 734.475C654.383 731.031 655.077 727.344 655.439 723.895C659.461 700.718 659.298 682.833 659.094 660.465C659.072 657.954 659.048 655.386 659.03 652.748C659.021 651.472 659.039 649.626 659.058 647.5C659.12 640.922 659.206 631.669 658.623 628.372C656.036 626.964 653.494 627.892 652.096 622.739C650.974 618.601 651.545 611.78 652.176 607.522C653.632 605.227 655.82 605.017 658.484 604.369C658.968 592.708 658.885 580.72 658.804 568.872C658.778 565.036 658.752 561.216 658.745 557.426L658.701 485.408L658.699 258.485C656.682 258.483 654.645 258.473 652.602 258.463Z"/><path fill="#000102" d="M653.639 467.981C653.135 463.993 650.309 463.803 647.032 463.908C644 468.298 644.681 485.772 645.048 495.215C645.111 496.823 645.164 498.198 645.189 499.236C645.277 502.976 648.866 503.873 652.042 503.294C655.964 496.932 654.62 475.755 653.639 467.981Z"/><path fill="#907A6D" d="M648.86 466.362C648.554 466.336 648.156 466.302 647.601 466.226C647.59 466.993 647.56 468.213 647.522 469.747C647.302 478.639 646.821 498.059 648.396 500.552C649.437 501.131 649.872 501.061 650.833 500.907C651.018 500.877 651.224 500.844 651.457 500.812C651.477 500.304 651.502 499.721 651.529 499.074C651.865 491.021 652.615 473.089 651.045 467.404C649.881 466.45 649.82 466.445 648.86 466.362Z"/><path fill="#D1946C" d="M538.459 390.241L531.495 390.511C527.166 393.536 523.171 396.793 519.049 400.084C519.159 400.441 519.269 400.799 519.38 401.156C521.311 407.386 523.269 413.701 519.591 419.745C514.257 428.512 501.206 439.914 490.347 436.469C486.432 441.659 482.898 446.427 478.581 451.294C479.047 499.469 479.094 547.648 478.725 595.824L481.485 600.276C482.39 582.956 482.604 570.771 487.968 553.753C489.323 549.862 491.404 543.28 493.826 540.22C497.042 539.574 499.166 543.849 500.626 546.787C500.85 547.24 501.059 547.66 501.254 548.026C508.432 561.516 511.806 575.526 514.204 590.474C521.07 574.669 525.764 566.198 538.978 554.561L538.968 449.714C538.969 445.038 539.018 439.962 539.069 434.704C539.215 419.681 539.376 403.169 538.459 390.241Z"/><path fill="#F9E1BB" d="M748.53 72.3374C738.556 72.2263 728.471 72.114 718.704 72.243C716.93 72.2469 715.11 72.2428 713.267 72.2386C707.592 72.2257 701.698 72.2123 696.255 72.432C697.766 83.418 701.492 95.719 703.865 106.681C708.806 129.514 715.126 152.801 720.029 175.554L777.665 175.583C779.179 175.59 780.716 175.603 782.266 175.616C787.795 175.663 793.488 175.711 798.85 175.495C795.737 165.666 791.858 155.808 788.113 146.177C778.681 121.915 771.241 96.447 761.197 72.46C757.017 72.4319 752.784 72.3848 748.53 72.3374Z"/><path fill="#F9E1BB" d="M579.914 72.323L514.363 72.393C506.434 94.709 498.315 116.957 490.007 139.134C485.565 151.194 481.321 163.596 476.714 175.539C483.439 175.549 490.236 175.586 497.059 175.622C512.094 175.703 527.255 175.784 542.046 175.588L555.746 175.501L571.437 108.383C574.177 96.619 576.835 83.913 579.914 72.323Z"/><path fill="#F7F1E9" d="M797.017 627.216C761.69 627.021 725.653 626.821 691.28 627.392C689.731 640.29 686.979 658.961 686.345 671.442C709.148 662.134 748.188 663.754 772.472 669.52C778.425 670.934 779.061 676.784 774.657 681.586C773.353 701.117 768.582 710.487 749.128 716.931L786.74 717.021C781.475 710.999 781.964 704.185 782.475 697.051C782.706 693.833 782.942 690.55 782.656 687.245C782.451 684.872 781.879 684.524 781.399 684.232C780.966 683.968 780.609 683.751 780.666 682.128C781.802 679.95 783.091 679.041 784.914 677.4C783.923 669.486 788.994 668.764 795.731 668.803C798.931 668.846 802.13 668.911 805.329 668.998C805.892 668.993 806.543 668.972 807.251 668.95C811.298 668.822 817.218 668.635 819.256 670.889C820.549 672.318 820.366 673.706 820.139 675.427C820.099 675.73 820.058 676.044 820.023 676.37C820.528 677.907 821.544 678.701 822.491 679.44C823.717 680.397 824.826 681.264 824.561 683.533C823.913 684.338 823.349 685.007 822.659 685.776C822.246 689.981 822.578 693.545 822.89 696.885C823.5 703.416 824.029 709.091 818.748 717.028C819.318 717.037 820.042 717.058 820.871 717.082C825.464 717.216 833.257 717.444 835.723 716.186C835.956 714.092 833.966 710.144 832.096 706.433C830.806 703.873 829.573 701.426 829.165 699.777C826.685 689.761 830.974 682.576 836.496 674.896L836.497 627.394C823.522 627.363 810.32 627.29 797.017 627.216Z"/><path fill="#F26E45" d="M693.208 72.377C678.372 72.221 663.536 72.175 648.699 72.242L639.123 72.392C638.576 84.4162 638.658 96.4256 638.74 108.454C638.758 111.123 638.776 113.794 638.787 116.466L638.947 175.551L708.329 175.645L717.41 175.47L702.037 109.105C699.637 98.685 696.332 82.051 693.208 72.377Z"/><path fill="#F26E45" d="M636.488 72.436C618.865 72.263 601.241 72.199 583.617 72.245L582.364 72.688C581.596 74.472 576.705 96.48 575.933 99.75C569.756 124.932 563.917 150.196 558.417 175.536L611.25 175.571L636.499 175.545L636.488 72.436Z"/><path fill="#FFB889" d="M115.502 642.031L114.231 642.014C99.732 646.396 90.913 647.427 76.072 649.179C77.937 657.217 81.776 672.286 81.951 680.105C82.0962 686.593 81.8709 693.538 81.6394 700.677C80.9509 721.9 80.2068 744.838 88.976 762.593C90.691 766.065 94.686 769.757 97.639 772.145C97.5132 771.792 97.3684 771.39 97.2076 770.942C94.43 763.21 86.8529 742.117 88.993 736.442L89.758 736.259C93.969 740.659 95.43 781.234 112.651 784.335L113.688 783.94C113.839 782.868 111.959 778.154 109.554 772.126C104.573 759.638 97.3413 741.511 101.259 738.432C103.994 740.884 104.639 750.046 105.664 753.724C108.754 764.807 113.133 778.464 120.413 787.567C120.699 787.79 120.964 788.002 121.214 788.201C123.124 789.726 124.143 790.54 126.917 790.362C131.394 787.756 127.595 780.542 124.948 775.515C124.347 774.374 123.805 773.345 123.433 772.509C119.594 764.052 116.645 755.219 114.635 746.153C114.547 745.766 114.443 745.347 114.334 744.905C113.612 741.997 112.652 738.124 114.584 736.304C117.965 738.597 122.801 781.773 136.35 785.677C142.095 784.405 137.303 770.808 134.465 762.755C133.686 760.546 133.055 758.754 132.828 757.748C132.645 756.935 132.432 756.018 132.199 755.017C129.948 745.337 125.874 727.812 129.655 720.771L130.602 720.223C132.568 720.915 134.698 725.551 137.141 730.869C141.128 739.544 145.948 750.035 152.248 748.174C154.922 744.702 152.046 737.096 149.842 731.266C149.117 729.349 148.464 727.624 148.106 726.301C145.191 715.546 144.069 703.999 137.666 694.592C131.528 685.578 125.291 680.946 120.893 670.641C118.445 664.906 116.971 644.632 115.502 642.031Z"/><path fill="#F26E45" d="M805.675 72.2059C796.584 72.1729 787.444 72.1396 778.432 72.244L764.016 72.441C776.104 106.976 788.636 141.354 801.607 175.567L856.625 175.576L869.375 175.658C855.742 147.197 840.085 119.36 826.343 90.918C823.31 84.64 820.059 78.389 816.781 72.237C813.095 72.2329 809.389 72.2195 805.675 72.2059Z"/><path fill="#F26E45" d="M511.866 72.41C501.622 72.251 491.378 72.195 481.133 72.241L459.116 72.468C447.632 94.488 436.349 116.613 425.268 138.84C419.152 150.888 412.343 163.4 406.606 175.514L437.692 175.571C449.868 175.652 462.044 175.64 474.22 175.536C487.004 141.247 499.553 106.871 511.866 72.41Z"/><path fill="#F26E45" d="M543.736 690.759C511.657 695.335 481.308 696.355 449.25 690.288L455.625 729.041C456.953 737.018 459.73 753.764 462.497 761.001C479.758 768.372 516.818 768.748 533.792 760.689L534.682 754.863C537.547 733.958 541.339 711.509 543.736 690.759Z"/><path fill="#FFB889" d="M562.315 305.854C561.199 305.18 561.426 305.142 560.235 304.903C554.427 309.13 547.771 315.292 542.774 318.96C523.275 333.275 519.58 332.957 510.483 355.414C505.384 358.971 500.52 362.462 494.995 365.367C498.511 381.063 502.046 389.391 510.716 402.731C515.894 398.639 524.561 391.205 530.264 388.726C533.497 387.32 542.784 387.038 546.908 386.435C566.748 383.535 587.215 378.531 603.393 366.067C606 364.059 610.369 360.471 610.848 357.112C610.971 356.254 610.664 355.489 610.35 354.707C610.311 354.612 610.273 354.516 610.235 354.42C607.121 353.742 602.006 356.748 598.552 358.778C598.066 359.064 597.612 359.331 597.202 359.565C589.294 364.079 583.146 366.334 574.195 368.072C572.955 357.322 570.419 352.684 567.224 342.598C568.704 342.7 571.586 342.837 572.886 342.499C578.82 340.956 609.707 332.096 611.382 326.76C608.472 323.865 593.715 328.168 584.496 330.857C581.878 331.62 579.707 332.254 578.38 332.555C567.833 334.951 558.915 336.01 548.159 336.384C547.394 341.938 545.964 354.116 539.768 356.398L539.005 356.014C538.96 354.846 539.966 353.247 541.04 351.54C541.77 350.381 542.53 349.172 543.015 348.014C544.825 343.687 544.911 338.011 546.528 334.235C547.392 332.217 549.872 329.293 552.657 326.007C558.402 319.231 565.449 310.918 562.315 305.854Z"/><path fill="#000102" d="M542.173 362.072C541.207 362.088 540.242 362.127 539.279 362.188C536.122 362.556 530.81 362.756 529.349 365.976L529.77 366.555C531.701 366.676 533.321 366.076 534.89 365.495C535.969 365.095 537.024 364.704 538.139 364.563C543.579 363.871 550.997 364.876 556.298 365.999C556.751 366.124 557.185 366.25 557.607 366.373C559.779 367.004 561.626 367.541 564.023 367.343L564.555 366.916C560.844 363.316 547.184 361.996 542.173 362.072Z"/><path fill="#D1946C" d="M502.064 265.254C494.401 263.044 486.337 260.474 478.594 258.796C478.483 291.899 478.555 325.002 478.812 358.104C479.331 357.95 479.833 357.799 480.319 357.653C486.683 355.737 490.4 354.618 496.95 358.187C497.705 358.599 498.455 359.018 499.202 359.443C510.732 353.911 509.479 347.468 515.69 338.257C524.328 326.383 528.962 326.743 538.997 318.467L538.954 275.888L502.064 265.254Z"/><path fill="#D1946C" d="M492.684 56.9477C482.359 56.8349 471.485 56.7162 462.054 57.26C461.125 57.402 460.266 57.298 460.026 57.872C459.155 59.9531 459.323 64.026 459.455 67.2269C459.499 68.2758 459.538 69.2311 459.536 69.992L814.625 70.008L815.948 69.842C816.912 68.3636 816.714 62.9621 816.584 59.4125C816.548 58.4242 816.517 57.5795 816.518 57.003L579.046 57.052L504.192 57.037C500.511 57.0331 496.638 56.9908 492.684 56.9477Z"/><path fill="#D1946C" d="M716.882 607.369C695.985 607.27 674.927 607.17 654.484 607.541C654.472 608.442 654.459 609.344 654.446 610.245C654.374 615.163 654.301 620.088 654.466 624.999L907.462 624.952C907.54 619.142 907.55 613.331 907.491 607.521L747.744 607.459C737.559 607.468 727.24 607.419 716.882 607.369Z"/><path fill="#F26E45" d="M447.305 691.613C427.082 693.373 407.438 691.892 387.266 689.898C390.488 710.319 394.024 730.689 397.875 751.001C417.365 754.836 435.15 756.904 454.541 751.008C454.764 750.848 454.97 750.718 455.155 750.601C455.763 750.218 456.138 749.981 456.093 749.319C454.9 731.926 449.551 708.359 447.305 691.613Z"/><path fill="#D1946C" d="M706 564.932C693.098 564.806 682.096 563.627 669.463 562.898C670.997 586.016 672.715 606.543 700.504 604.985C702.677 604.863 705.037 604.93 707.407 604.997C709.737 605.062 712.077 605.128 714.259 605.016C716.718 604.89 719.177 604.915 721.605 604.94C731.015 605.036 739.951 605.127 746.548 596.377C751.591 587.077 753.541 573.018 752.655 562.683C736.568 564.008 722.221 565.091 706 564.932Z"/><path fill="#000102" d="M704.193 571.552C703.799 571.555 703.433 571.559 703.104 571.561C707.356 575.436 710.475 574.957 715.729 573.171L715.633 572.235C713.059 571.465 707.579 571.518 704.193 571.552Z"/><path fill="#000102" d="M716.17 582.614C714.761 581.663 707.374 582.199 704.038 581.626C706.258 586.336 711.91 584.668 715.89 583.491L716.17 582.614Z"/><path fill="#000102" d="M688.867 570.485C688.246 570.47 687.694 570.457 687.246 570.436C691.037 574.309 694.153 574.201 699.291 572.699C698.043 570.698 692.37 570.566 688.867 570.485Z"/><path fill="#000102" d="M715.628 591.736C713.466 591.006 708.601 591.589 704.608 590.628C706.803 595.26 711.132 594.041 715.218 592.89C715.396 592.84 715.573 592.79 715.75 592.741L715.628 591.736Z"/><path fill="#000102" d="M700.041 582.024C697.674 581.117 692.541 581.682 688.173 580.498C691.551 584.773 695.351 584.368 700.221 582.944L700.041 582.024Z"/><path fill="#000102" d="M700.738 591.32C699.008 590.693 692.173 590.528 689.163 590.028C693.168 594.026 695.503 593.946 700.809 592.292L700.738 591.32Z"/><path fill="#000102" d="M708.631 600.865C706.359 599.076 700.708 599.876 696.23 598.878C699.739 603.301 703.646 602.523 708.631 600.865Z"/><path fill="#000102" d="M683.816 571.006C682.069 569.112 676.458 568.356 673.294 567.549C675.583 572.458 679.095 572.079 683.816 571.006Z"/><path fill="#000102" d="M725.263 590.658C724.857 590.709 724.448 590.761 724.038 590.799C723.512 590.865 723.097 590.891 722.752 590.914C721.738 590.979 721.328 591.005 720.456 591.871C721.903 593.283 723.81 593.299 725.737 593.316C725.84 593.317 725.943 593.318 726.046 593.319C727.728 592.866 728.735 592.765 730.036 591.607L729.877 590.948C728.454 590.254 726.881 590.453 725.263 590.658Z"/><path fill="#000102" d="M685.526 581.68C684.673 579.333 677.335 578.99 674.62 578.552C677.868 582.63 680.678 582.67 685.526 581.68Z"/><path fill="#000102" d="M747.008 569.123C747.049 568.954 746.983 568.758 746.877 568.082C743.416 569.415 739.953 569.241 737.253 570.432C737.108 571.074 737.035 571.21 737.03 571.35C737.025 571.466 737.068 571.584 737.156 571.998C737.583 571.989 738.003 571.986 738.416 571.982C741.315 571.956 743.888 571.933 746.376 570.207C746.782 569.466 746.962 569.311 747.008 569.123Z"/><path fill="#000102" d="M731.515 581.263L731.043 580.694C728.33 581.151 723.249 581.566 721.263 582.446C721.253 583.071 721.196 583.23 721.235 583.361C721.27 583.478 721.383 583.572 721.675 583.956C722.028 583.945 722.382 583.936 722.737 583.927C725.688 583.855 728.669 583.782 731.186 582.205L731.515 581.263Z"/><path fill="#000102" d="M731.495 571.067L731.037 570.767C728.765 571.007 722.83 571.265 721.342 571.856C721.203 572.416 721.119 572.57 721.139 572.708C721.16 572.856 721.298 572.987 721.614 573.572C722.245 573.575 722.838 573.589 723.401 573.603C726.43 573.676 728.604 573.729 731.312 571.802L731.495 571.067Z"/><path fill="#000102" d="M724.407 599.78L724.019 599.315C723.586 599.329 723.094 599.336 722.562 599.345C719.73 599.39 715.792 599.452 713.954 600.499C713.925 601.062 713.886 601.203 713.908 601.334C713.929 601.459 714.007 601.575 714.205 602.041C714.355 602.039 714.506 602.038 714.66 602.037C717.652 602.01 721.313 601.978 723.89 600.537L724.407 599.78Z"/><path fill="#000102" d="M692.769 599.28C690.452 598.343 686.161 597.735 683.43 597.059C685.103 601.674 688.728 601.2 692.8 600.277L692.769 599.28Z"/><path fill="#000102" d="M686.206 590.327C682.831 589.084 680.856 589.573 677.179 588.082C678.413 592.719 682.584 592.198 686.328 591.359L686.206 590.327Z"/><path fill="#000102" d="M745.467 579.058L744.854 579.101C742.859 579.555 737.833 580.148 736.742 580.643L736.627 581.502C737.021 581.766 737.748 582.304 738.147 582.453C740.634 582.123 744.235 581.716 745.871 579.636L745.467 579.058Z"/><path fill="#000102" d="M737.228 597.908C737.072 597.91 736.917 598.027 736.283 598.231C733.338 598.456 732.023 598.357 729.33 599.618L729.076 600.312C730.225 600.901 730.232 600.901 731.347 600.86C731.433 600.857 731.525 600.853 731.625 600.85C734.562 600.58 735.293 600.64 737.729 599.06L738.097 598.239C737.528 598.008 737.377 597.906 737.228 597.908Z"/><path fill="#000102" d="M744.248 589.238L743.453 589.18C741.504 589.517 736.459 589.921 735.409 590.49C735.725 591.683 735.447 591.16 736.435 591.968L736.696 591.983C739.942 592.167 741.413 592.25 744.048 590.147L744.248 589.238Z"/><path fill="#F7F1E9" d="M476.297 458.215C476.311 456.501 476.183 455.982 475.277 454.852C466.248 463.609 458.687 470.759 448.505 478.258L448.516 558.873C451.61 556.618 455.529 553.054 459.13 553.039C461.815 554.932 460.439 560.237 459.215 564.955C458.302 568.475 457.473 571.668 458.48 572.873C466.034 579.372 470.262 583.694 476.166 591.795L476.206 500.793C476.206 498.625 476.206 496.454 476.205 494.281C476.203 482.274 476.2 470.201 476.297 458.215Z"/><path fill="#F9E1BB" d="M799.521 191.88L720.391 191.9C720.404 197.38 720.419 202.213 721.593 207.613C727.885 236.555 771.588 238.86 791.552 224.203C799.761 215.587 799.987 209.642 799.713 198.379L799.521 191.88Z"/><path fill="#F9E1BB" d="M555.492 191.987L476.134 191.903C476.116 192.699 476.093 193.515 476.069 194.345C475.795 203.925 475.463 215.519 482.425 222.447C490.188 230.172 503.551 233.217 514.154 233.073C525.762 232.916 536.384 230.1 545.391 222.73C554.464 212.493 555.62 205.622 555.492 191.987Z"/><path fill="#F26E45" d="M870.951 191.894L801.954 191.966C801.933 192.864 801.906 193.79 801.879 194.738C801.564 205.602 801.166 219.349 809.094 227.208C821.864 239.869 849.915 240.005 863.378 228.658C871.718 219.499 871.403 208.489 871.068 196.811C871.022 195.184 870.975 193.544 870.951 191.894Z"/><path fill="#F26E45" d="M473.655 192.02L405.023 192.008C405.015 193.451 404.98 194.97 404.944 196.54C404.686 207.892 404.367 221.932 413.413 229.264C426.749 240.072 452.062 239.055 465.318 228.726C474.238 219.142 474.015 209.265 473.747 197.428C473.708 195.671 473.667 193.87 473.655 192.02Z"/><path fill="#F26E45" d="M718.014 191.975L639.422 191.979C639.809 202.735 641.944 215.795 650.436 223.256C666.042 236.966 692.57 236.078 708.193 223.071C717.663 212.381 717.452 205.911 718.014 191.975Z"/><path fill="#F26E45" d="M636.645 192.024L557.979 191.98C559.217 221.476 570.159 233.698 601.507 232.968C610.295 232.764 620.04 228.491 626.41 222.383C634.615 211.257 635.085 205.802 636.645 192.024Z"/><path fill="#117E65" d="M126.174 633.976C128.167 611.588 128.489 599.857 100.805 603.708C89.557 604.614 62.5229 607.235 53.4284 615.978C49.0361 620.2 56.8067 641.216 61.2443 644.71C64.0072 647.474 73.5768 646.489 78.2243 646.01C78.7608 645.955 79.2317 645.906 79.619 645.871C93.778 644.443 114.037 641.148 126.174 633.976Z"/><path fill="#117E65" d="M487.285 359.076C487.129 359.091 486.979 359.106 486.838 359.119C480.713 360.218 469.987 363.599 466.378 368.853C463.037 373.718 466.019 385.56 467.539 391.596C467.62 391.919 467.697 392.225 467.769 392.513C470.693 404.238 475.309 416.166 482.592 425.88C490.78 436.988 497.588 437.287 507.61 428.399C518.179 419.412 521.058 415.557 516.676 401.568L511.991 404.955C513.665 407.13 515.191 408.958 516.505 411.378C503.346 402.299 493.335 378.636 492.215 363.303C494.234 362.038 494.211 362.466 495.208 360.653C494.016 358.424 489.754 358.837 487.285 359.076Z"/><path fill="#72934B" d="M498.225 663.358L498.962 659.869C498.976 660.238 498.98 660.674 498.984 661.149C499.002 663.161 499.026 665.859 499.88 666.956L500.013 668.363L501.39 670.124C502.625 665.489 503.819 660.844 504.97 656.188C515.324 614.944 517.876 581.034 494.925 542.703C486.987 561.244 481.79 586.483 485.527 606.845C485.915 608.959 488.835 616.009 489.738 618.563C491.523 623.609 492.58 627.642 493.722 632.866C495.033 638.897 496.013 644.996 496.657 651.134C497.05 654.568 497.474 660.147 498.225 663.358Z"/><path fill="#000102" d="M499.066 578.744C498.703 574.397 498.32 569.76 496.717 565.689C496.269 572.941 497.047 581.449 497.808 589.77C498.215 594.215 498.617 598.606 498.824 602.724C499.715 621.761 499.761 640.828 498.962 659.869C498.976 660.238 498.98 660.674 498.984 661.149C499.002 663.161 499.026 665.859 499.88 666.956C503.201 638.208 501.473 607.549 499.066 578.744Z"/><path fill="#D1946C" d="M772.642 681.731C746.438 687.502 715.322 688.603 689.302 681.763C690.499 691.351 692.315 702.876 700.783 709.031C711.486 716.81 731.012 717.749 743.623 715.9C752.312 714.627 759.318 711.195 765.334 704.882C770.762 696.336 771.426 691.805 772.642 681.731Z"/><path fill="#000102" d="M703.032 690.361C699.603 688.27 696.871 686.226 692.924 685.497C693.664 688.332 700.228 691.559 703.031 692.84C705.289 692.13 707.703 691.439 709.879 690.541C713.073 692.382 715.063 693.658 718.566 694.822C721.876 693.63 723 693.123 726.064 691.4C728.874 692.759 731.845 694.358 734.839 695.16C738.201 694.055 739.664 693.195 742.584 691.137L749.25 694.344C752.619 692.676 754.009 691.826 757.113 689.687C763.299 692.25 764.492 692.205 769.172 687.15L769.371 686.168C767.858 686.139 767.103 686.778 766.306 687.454C764.88 688.662 763.316 689.986 757.03 687.82L749.669 692.092L742.397 688.961C740.077 690.378 736.834 692.476 734.512 693.671C731.83 692.109 729.194 690.479 726.35 689.243C723.803 690.501 721.328 691.831 718.602 692.632C715.355 691.299 713.103 690.05 710.027 688.37C707.386 689.268 705.819 689.802 703.032 690.361Z"/><path fill="#000102" d="M766.799 694.812L766.064 694.004C761.786 696.1 754.976 696.692 753.37 698.036L753.498 698.77L754.025 699.123C758.151 698.489 762.759 698.023 766.287 695.745L766.799 694.812Z"/><path fill="#000102" d="M738.126 707.777C735.657 706.958 729.734 706.759 726.87 706.577C730.153 710.336 733.745 709.722 738.289 708.634L738.126 707.777Z"/><path fill="#000102" d="M722.699 708.267C720.558 706.381 714.515 705.941 711.454 705.521C714.79 709.289 717.951 709.69 722.699 708.267Z"/><path fill="#000102" d="M709.738 697.55C708.795 697.489 707.849 697.474 706.905 697.504C708.866 699.617 710.466 700.363 713.487 700.438C714.919 700.473 716.351 700.357 717.758 700.091C715.892 698.012 712.599 697.737 709.738 697.55Z"/><path fill="#000102" d="M747.919 698.786L747.64 698.731C747.237 698.739 746.768 698.739 746.256 698.739C743.613 698.74 739.839 698.742 738.291 699.818C738.688 700.862 738.391 700.469 739.061 701.079C741.738 701.005 746.105 701.015 748.224 699.394L747.919 698.786Z"/><path fill="#000102" d="M732.548 700.734C730.665 698.819 724.349 698.833 721.67 699.167C725.285 702.001 728.244 701.701 732.548 700.734Z"/><path fill="#000102" d="M704.149 698.027C702.373 695.924 696.74 694.747 694.057 694.464C696.983 697.645 699.85 698.603 704.149 698.027Z"/><path fill="#000102" d="M709.172 706.336C707.114 704.92 702.17 703.233 699.688 702.563C701.586 706.838 704.921 706.886 709.172 706.336Z"/><path fill="#000102" d="M761.297 703.67C761.023 702.63 761.168 702.882 760.933 702.586C758.808 703.236 755.487 704.054 753.765 705.256L753.659 706.067L754.146 706.66C756.678 706.108 759.736 705.762 761.297 703.67Z"/><path fill="#000102" d="M750.956 706.921C750.497 706.269 750.755 706.418 750.37 706.245C749.994 706.254 749.586 706.257 749.158 706.261C747.15 706.279 744.712 706.3 743.133 706.863L742.745 707.663L743.218 708.542C743.42 708.546 743.625 708.552 743.833 708.557C746.3 708.624 749.109 708.699 750.956 706.921Z"/><path fill="#F7F1E9" d="M744.351 552.442C740.276 532.517 734.301 513.123 709.81 513.213C687.082 515.946 682.501 533.13 678.339 552.4C690.099 553.359 701.892 553.865 713.691 553.916C724.192 553.569 733.967 552.93 744.351 552.442Z"/><path fill="#D1946C" d="M683.661 627.458L672.851 627.467L656.572 733.497C654.144 749.356 649.634 773.682 648.331 789.079L659.004 789.425C664.688 755.619 669.159 721.942 674.396 688.116L679.866 653.939C681.241 645.616 683.035 635.812 683.661 627.458Z"/><path fill="#D1946C" d="M889.356 627.45L878.27 627.423L893.959 728.486C896.975 748.525 899.489 769.561 903.248 789.353L913.745 789.441C912.118 773.145 908.939 755.352 906.387 739.015L895.554 668.748C893.505 655.682 890.511 640.424 889.356 627.45Z"/><path fill="#72934B" d="M454.303 572.715C453.831 572.372 453.12 572.051 452.597 571.808C452.231 586.606 455.207 618.589 464.239 630.554C474.387 643.996 479.533 648.449 487.032 665.619C485.235 651.519 478.292 631.658 472.992 618.403C470.318 611.717 466.717 604.979 464.103 598.025C468.642 603.033 469.912 605.582 472.663 611.871C479.61 629.375 485.671 646.321 489.197 664.865C489.867 668.39 490.404 671.616 492.499 674.556C493.355 674.886 493.561 675.053 493.772 675.059C493.969 675.065 494.17 674.93 494.91 674.657C497.792 670.213 493.368 642.734 491.881 635.761C486.796 611.926 474.445 587.336 454.303 572.715Z"/><path fill="#117E65" d="M222.935 633.411C195.923 635.791 156.38 636.882 129.416 632.105C127.333 637.841 123.56 638.468 118.376 640.707L119.724 647.747C146.096 652.351 169.713 654.027 196.528 651.791C199.414 651.551 208.691 650.878 211.204 650.312L222.629 648.874L222.935 633.411Z"/><path fill="#D1946C" d="M890.15 719.525L672.123 719.514L671.168 727.146L890.437 727.028C890.982 724.78 890.576 722.218 890.207 719.883L890.15 719.525Z"/><path fill="#72934B" d="M558.58 591.061L557.91 590.93C527.374 607.321 516.997 627.747 506.669 660.107C505.41 664.053 503.732 669.328 503.853 673.387L504.403 674.286C506.921 672.184 512.18 658.796 514.353 654.932C519.526 645.732 530.135 625.008 537.236 617.856L537.811 618.708C535.936 623.15 531.896 628.657 529.216 632.871C520.328 646.844 513.456 661.216 506.8 676.367C531.339 651.326 554.026 629.015 559 591.958L558.58 591.061Z"/><path fill="#F26E45" d="M548.452 674.311C530.212 677.659 463.458 677.468 445.561 674.361C445.53 674.684 445.491 675.05 445.448 675.447C445.11 678.608 444.556 683.787 446.171 685.504C450.688 690.309 477.008 691.305 483.076 691.612C500.049 692.472 530.461 692.1 546.433 687.559C549.323 683.547 549.028 680.437 548.605 675.981C548.554 675.445 548.501 674.89 548.452 674.311Z"/><path fill="#D1946C" d="M749.633 667.833C742.983 667.384 736.319 667.179 729.655 667.22C721.768 667.49 689.425 667.752 686.89 675.801C688.187 679.4 692.265 680.261 695.718 680.895C707.952 683.141 720.636 684.122 733.048 683.989C742.509 683.704 768.342 683.42 774.479 677.254C777.103 669.774 756.605 668.326 750.459 667.892C750.144 667.87 749.867 667.851 749.633 667.833Z"/><path fill="#000102" d="M767.936 674.513C761.615 669.917 734.046 669.588 725.548 669.73C718.513 670.108 700.424 670.246 695.002 674.483L694.826 675.437C698.189 678.901 720.21 679.326 725.805 679.408C729.869 679.462 733.933 679.479 737.997 679.459C744.287 679.257 763.727 678.777 768.016 675.344L767.936 674.513Z"/><path fill="#AF775A" d="M766.188 675.132C750.807 672.562 738.052 671.338 722.382 672.285C714.767 672.616 705.001 672.866 697.791 675.018C711.856 676.825 724.725 677.729 738.931 677.214C748.376 676.768 756.794 675.989 766.188 675.132Z"/><path fill="#72934B" d="M446.109 620.908C442.13 618.765 437.887 617.154 433.489 616.118C439.605 636.238 448.24 652.703 465.247 665.695C469.067 668.613 474.003 673.156 478.604 674.208L479.615 673.818C479.975 671.472 477.061 667.562 475.327 665.235C475.136 664.978 474.959 664.741 474.802 664.527C471.087 659.462 467.125 654.583 462.931 649.908C458.648 645.13 452.703 639.636 449.73 634.139C451.688 635.514 453.403 636.575 455.047 638.317C464.333 647.668 472.933 657.587 480.027 668.671C481.806 671.451 482.362 673.068 485.352 674.573L486.43 674.508C487.928 671.716 485.358 666.749 483.533 663.223C483.133 662.448 482.768 661.743 482.49 661.146C475.073 645.201 461.709 629.285 446.109 620.908Z"/><path fill="#F26E45" d="M790.584 685.545C788.916 685.238 787.273 684.935 785.665 685.037C783.859 690.346 783.68 706.312 785.925 711.351C788.927 718.088 802.692 716.988 810.924 716.33C812.219 716.227 813.377 716.134 814.335 716.085C815.744 715.094 817.403 714.007 818.64 712.855C821.417 708.743 822.317 689.462 818.242 685.89C815.784 685.184 815.188 685.567 813.521 686.639C813.212 686.837 812.867 687.059 812.467 687.302C807.517 685.882 803.691 685.959 799.206 686.048C797.875 686.075 796.486 686.103 794.992 686.093C793.509 686.083 792.037 685.812 790.584 685.545Z"/><path fill="#000102" d="M816.725 691.041C807.205 690.878 797.684 690.84 788.162 690.926C788.147 691.325 788.123 691.834 788.094 692.424C787.879 696.904 787.438 706.056 789.322 707.426C792.71 709.89 807.545 708.983 814.301 708.57C815.205 708.515 815.964 708.468 816.532 708.44C816.998 702.615 817.195 696.878 816.725 691.041Z"/><path fill="#F7F1E9" d="M814.869 692.964L790.064 692.973C790.034 697.467 790.053 701.961 790.121 706.454C798.713 706.728 806.208 706.946 814.8 706.527C814.96 701.827 814.944 697.651 814.869 692.964Z"/><path fill="#117E65" d="M371.767 608.723L371.075 608.414C354.762 615.505 330.676 622.332 312.913 622.559C313.082 625.951 313.312 637.331 315.115 639.581C332.711 638.965 358.379 633.799 372.986 624.024C372.987 623.507 372.995 622.889 373.004 622.199C373.059 618.003 373.15 611.179 371.767 608.723Z"/><path fill="#72934B" d="M514.505 614.54C514.506 615.198 514.507 615.83 514.506 616.429C519.505 602.86 525.143 586.486 534.384 575.437C532.054 581.296 528.341 588.857 525.626 594.712C518.859 609.303 515.227 620.279 511.892 635.966L512.715 636.023C518.303 624.247 526.362 614.207 533.318 603.335C541.963 589.821 543.221 570.236 542.934 554.645C540.298 556.484 537.823 558.545 535.538 560.806C526.667 569.683 517.718 584.523 515.376 597.051C514.488 601.799 514.498 609.069 514.505 614.54Z"/><path fill="#F9E1BB" d="M555.485 178.025C535.598 177.83 515.711 177.737 495.823 177.745L476.173 177.984L476.027 189.471L535.875 189.527L555.486 189.513L555.485 178.025Z"/><path fill="#F9E1BB" d="M799.497 177.981L720.302 177.964C720.298 178.591 720.292 179.221 720.285 179.853C720.255 183.058 720.223 186.314 720.398 189.479L799.503 189.524L799.497 177.981Z"/><path fill="#F26E45" d="M636.486 178.021L558.036 178.021L557.868 189.464L636.498 189.482L636.486 178.021Z"/><path fill="#F26E45" d="M717.947 177.978L638.956 178.017C638.952 178.789 638.946 179.568 638.939 180.35C638.915 183.389 638.89 186.483 639.005 189.468L717.982 189.51L717.947 177.978Z"/><path fill="#F7F1E9" d="M688.882 729.451C684.063 729.477 680.703 729.496 679.294 729.499C679.247 730.082 679.185 730.541 679.132 730.929C678.977 732.077 678.906 732.607 679.541 733.927C684.382 736.143 814.259 735.038 835.293 734.859L836.45 734.849C836.451 734.229 836.478 733.748 836.5 733.344C836.566 732.152 836.594 731.646 835.815 730.302C832.227 728.663 723.316 729.262 688.882 729.451Z"/><path fill="#F7F1E9" d="M192.707 244.41C189.724 242.464 184.793 237.538 182.029 236.26C182.836 241.681 183.632 245.439 185.513 250.643C205.306 264.858 241.967 276.954 261.642 255.068C262.787 253.795 262.662 251.938 262.418 250.38L259.901 240.538C256.606 247.699 252.888 253.468 244.883 256.184C227.079 262.224 207.583 254.112 192.707 244.41Z"/><path fill="#F26E45" d="M870.491 178.006L801.968 177.964L801.991 189.484L870.752 189.568L870.491 178.006Z"/><path fill="#F26E45" d="M473.976 178.022L405.447 178.017L405.264 189.471L450.26 189.476C452.49 189.476 454.903 189.5 457.38 189.526C462.978 189.582 468.903 189.642 473.788 189.431L473.976 178.022Z"/><path fill="#D1946C" d="M779.436 576.972C774.857 577.237 770.263 576.839 765.798 575.79C761.972 580.085 761.261 599.167 764.995 602.992C768.025 606.096 783.84 604.792 788.388 604.09C791.993 602.158 791.747 597.593 791.541 593.787C791.532 593.617 791.523 593.449 791.514 593.283C791.359 590.306 791.422 587.827 791.473 585.773C791.668 578.044 791.71 576.359 779.436 576.972Z"/><path fill="#000102" d="M781.782 582.596C776.385 582.677 770.756 582.761 765.85 582.602C765.552 588.14 765.467 592.351 765.716 597.935C766.73 597.946 767.744 597.959 768.759 597.972C775.452 598.055 782.161 598.139 788.84 597.841C789.042 592.733 789.073 587.621 788.933 582.512C786.658 582.524 784.244 582.56 781.782 582.596Z"/><path fill="#F7F1E9" d="M786.581 584.669L780.232 584.773L767.966 584.838L767.934 595.735L773.028 595.892L786.536 595.874L786.581 584.669Z"/><path fill="#F26E45" d="M809.76 576.941C807.731 576.686 805.741 576.436 803.574 576.575C800.256 580.217 800.213 600.463 803.842 603.262C807.358 605.974 822.888 605.683 827.056 603.211C830.636 598.997 830.301 593.612 829.968 588.274C829.853 586.423 829.738 584.578 829.787 582.789C829.986 575.477 824.06 576.253 818.683 576.956C816.914 577.188 815.203 577.412 813.791 577.337C812.393 577.272 811.069 577.106 809.76 576.941Z"/><path fill="#000102" d="M827.334 582.908C819.57 582.629 811.802 582.492 804.033 582.496L803.973 598.02C811.811 598.088 819.649 598.046 827.485 597.894L827.334 582.908Z"/><path fill="#F7F1E9" d="M825.39 584.844L806.417 584.864L806.394 595.622C812.714 595.878 819.039 595.961 825.362 595.869L825.39 584.844Z"/><path fill="#D1946C" d="M856.917 655.568C850.893 655.171 847.614 654.954 841.547 657.003C841.65 657.187 841.751 657.367 841.85 657.543C843.808 661.029 845.015 663.177 843.777 667.612C842.382 672.605 836.873 678.837 833.524 683.049C848.696 687.113 855.746 687.185 871.014 682.894C870.438 682.129 869.679 681.196 868.829 680.152C865.114 675.583 859.668 668.886 860.194 664.858C860.414 663.177 862.077 659.543 862.221 657.881L861.376 656.564C860.167 655.715 859.383 655.845 857.778 655.625C857.485 655.606 857.198 655.587 856.917 655.568Z"/><path fill="#000102" d="M861.376 656.564C860.167 655.715 859.383 655.845 857.778 655.625L857.226 656.367C855.411 656.525 853.598 656.713 851.789 656.931C848.494 657.142 845.801 657.289 842.539 657.832C850.123 659.855 854.384 660.402 862.221 657.881L861.376 656.564Z"/><path fill="#AF775A" d="M861.376 656.564C860.167 655.715 859.383 655.845 857.778 655.625L857.226 656.367C855.411 656.525 853.598 656.713 851.789 656.931C852.256 656.941 852.754 656.957 853.271 656.974C855.936 657.059 859.12 657.16 861.376 656.564Z"/><path fill="#D1946C" d="M681.321 555.064C676.492 554.754 671.402 554.428 667.003 554.518C666.807 555.036 666.643 555.41 666.512 555.708C666.121 556.6 666.025 556.818 666.273 558.202C674.568 565.297 742.496 562.291 755.03 559.813C755.805 558.798 756.092 558.612 756.21 558.351C756.311 558.127 756.289 557.846 756.343 556.938C754.817 554.78 752.313 554.372 749.761 554.453C745.183 554.599 740.653 554.959 736.125 555.318C730.232 555.786 724.341 556.254 718.354 556.25C707.863 556.24 697.375 555.957 686.899 555.399C685.121 555.308 683.242 555.188 681.321 555.064Z"/><path fill="#72934B" d="M563.047 636.586C562.753 636.565 562.455 636.61 561.817 636.703C543.085 638.805 539.205 643.933 527.32 658.301C526.649 659.113 525.356 660.434 523.828 661.995C519.594 666.322 513.552 672.497 513.91 674.802L514.711 674.759C522.572 664.925 528.581 657.435 539.791 651.074L540.745 650.885C540.795 652.009 537.682 654.613 533.827 657.838C528.152 662.584 520.869 668.676 519.698 673.375L520.054 674.077C526.418 675.243 562.394 645.763 564.566 637.943L564.26 636.868C563.632 636.695 563.342 636.607 563.047 636.586Z"/><path fill="#D1946C" d="M871.524 685.12C856.989 689.009 847.171 689.737 832.522 684.986C831.778 688.101 831.547 689.997 831.173 693.161C834.046 691.661 836.082 690.068 839.175 688.634L838.632 690.004C836.693 692.117 832.128 695.24 831.71 697.189C833.554 700.618 837.621 700.245 841.162 700.768C852.781 702.484 862.414 701.223 873.509 697.526C873.646 692.446 873.066 690.441 871.772 685.979C871.692 685.702 871.61 685.417 871.524 685.12Z"/><path fill="#000102" d="M844.981 695.347C842.69 694.197 842.051 689.952 839.175 688.634L838.632 690.004C843.112 698.077 843.714 697.712 846.376 696.096C847.533 695.393 849.079 694.455 851.502 693.87C853.09 693.487 854.263 694.447 855.418 695.393C856.324 696.134 857.219 696.867 858.294 696.934C860.9 695.571 862.299 693.332 864.156 690.994C865.943 692.664 868.117 695.142 870.474 695.361C872.024 693.961 872.013 690.953 870.754 689.366C869.614 689.899 869.972 690.735 869.034 692.587C867.419 691.966 866.005 690.278 864.732 689.01C860.473 691.501 859.963 691.719 857.681 696.137C857.386 695.765 857.088 695.395 856.786 695.028C851.79 688.973 849.792 691.046 847.695 693.22C846.869 694.077 846.027 694.95 844.981 695.347Z"/><path fill="#72934B" d="M435.603 553.345C436.792 547.099 437.347 527.703 433.231 523.32C424.029 534.225 418.453 546.538 419.668 560.975C420.137 565.948 421.133 570.858 422.642 575.62C423.734 567.207 425.046 554.693 427.326 546.953L428.219 547.626C428.498 549.834 427.559 556.911 426.662 563.665C425.999 568.659 425.359 573.478 425.253 576.019C429.714 568.971 434.015 561.682 435.603 553.345Z"/><path fill="#72934B" d="M405.177 550.131C401.494 545.425 397.254 541.184 392.55 537.499C392.644 553.625 394.911 565.529 406.852 577.303C409.386 579.8 412.943 582.884 416.072 584.562L416.118 584.833L416.403 585.026L417.832 582.887L417.068 582.707L416.782 581.614C418.051 571.603 411.172 557.85 405.177 550.131Z"/><path fill="#000102" d="M416.782 581.614C412.814 572.941 408.549 563.445 402.744 555.884C406.397 567.878 412.559 574.918 416.072 584.562L416.118 584.833L416.403 585.026L417.832 582.887L417.068 582.707L416.782 581.614Z"/><path fill="#F26E45" d="M846.986 549.465C847.648 540.276 848.644 526.472 843.47 520.036C837.647 522.484 835.287 523.066 828.796 522.988C830.343 534.923 830.376 539.392 837.43 549.446C840.27 553.663 841.207 553.634 845.44 553.501C845.836 553.489 846.261 553.476 846.72 553.465C846.782 552.282 846.88 550.932 846.986 549.465Z"/><path fill="#D1946C" d="M872.817 700.052C856.418 704.571 848.426 705.518 831.948 699.988C834.123 707.124 836.753 711.613 842.284 716.832C848.934 716.958 855.584 717.006 862.235 716.976C864.662 714.408 866.783 712.262 868.872 709.402C870.681 705.839 871.468 703.838 872.817 700.052Z"/><path fill="#72934B" d="M457.714 555.992L457.214 555.914C440.7 567.493 433.234 576.968 428.894 597.12C433.71 590.144 441.179 576.966 447.671 572.41C446.62 574.462 445.525 576.805 444.216 578.671C438.218 586.657 433.932 592.753 429.257 601.797C439.587 595.952 443.059 592.961 450.047 583.389C450.03 582.784 450.001 582.102 449.969 581.37C449.797 577.382 449.56 571.902 450.983 569.16C452.531 568.212 453.116 568.635 454.313 569.501C454.521 569.652 454.749 569.816 455.003 569.989C456.834 569.059 458.619 557.797 457.714 555.992Z"/><path fill="#D1946C" d="M800.165 556.75C795.934 557.13 791.764 557.505 787.512 555.287C785.992 556.798 784.407 558.076 783.573 559.997L783.768 560.988C785.286 561.873 786.499 561.978 787.56 562.069C789.057 562.199 790.25 562.302 791.565 564.537C791.566 564.775 791.542 566.179 791.524 567.249C791.512 567.944 791.503 568.497 791.504 568.501C792.19 570.308 793.059 571.148 793.704 571.771C794.771 572.803 795.222 573.24 793.205 576.49C793.237 579.146 793.371 581.665 793.501 584.113C793.873 591.099 794.214 597.505 792.068 604.871L801.307 604.97C800.158 602.48 799.717 601.862 799.477 599.125C799.446 594.571 799.54 590.01 799.633 585.457C799.692 582.599 799.751 579.743 799.779 576.894C799.782 576.526 798.818 574.975 798.542 574.531L798.507 574.475C798.796 571.81 800.408 571.489 801.255 570.003C801.646 569.316 801.461 568.473 801.264 567.572C800.957 566.171 800.62 564.629 802.367 563.313C805.439 560.997 811.252 562.883 812.102 559.663C811.685 558.678 811.227 557.329 810.06 557.03C806.683 556.165 803.406 556.459 800.165 556.75Z"/><path fill="#D1946C" d="M875.638 627.916C874.349 627.38 874.231 627.341 872.86 627.083L879.399 683.348C880.556 693.288 881.804 707.511 883.886 717.025L889.707 717.095L881.383 663.036C880.663 658.216 876.976 630.737 875.638 627.916Z"/><path fill="#FFB889" d="M621.662 332.879C620.137 331.059 619.138 330.835 616.747 330.605C609.353 332.112 601.658 335.642 594.525 338.356C586.757 341.247 578.853 343.761 570.842 345.889C571.838 348.792 572.41 352.043 574.992 353.381L576.109 353.132C588.303 349.305 600.232 344.837 612.288 340.599C615.031 339.634 619.919 338.722 621.219 335.811C621.322 335.579 621.413 335.386 621.491 335.22C621.925 334.297 621.971 334.199 621.662 332.879Z"/><path fill="#D1946C" d="M748.301 541.841C741.753 520.347 730.994 506.91 707.305 507.6C695.097 510.304 689 513.99 681.903 525.002C678.492 530.294 672.673 542.8 672.795 549.544C672.816 550.702 673.642 551.416 674.397 552.045L675.394 551.986C676.729 550.454 677.927 542.648 678.617 539.993C682.423 525.335 692.88 512.042 708.993 510.963C711.242 510.823 713.498 510.862 715.741 511.08C731.211 514.355 738.201 522.927 743.192 537.486C744.5 541.3 745.607 548.809 747.907 551.676L748.66 551.696C750.09 548.948 749.167 544.682 748.301 541.841Z"/><path fill="#72934B" d="M416.353 612.285C409.346 596.065 400.731 583.255 382.75 578.036C388.289 597.136 396.424 607.033 415.205 614.292C409.688 607.523 403.844 601.028 397.693 594.829L398.717 594.24C403.28 596.196 412.594 607.886 416.353 612.285Z"/><path fill="#D1946C" d="M688.307 627.842C687.52 627.527 687.119 627.361 686.302 627.118C682.895 646.423 680.368 666.602 677.187 686.002C677.127 686.369 677.051 686.826 676.963 687.36C675.846 694.119 672.704 713.128 673.122 716.365C674.343 717.355 674.773 717.32 676.301 717.706C677.533 716.928 677.985 716.769 678.288 714.993C679.991 705.014 689.157 630.902 688.307 627.842Z"/><path fill="#FFB889" d="M616.304 341.497C616.198 341.501 616.09 341.506 615.98 341.511C602.036 346.837 589.094 352.952 574.43 355.867C575.081 358.947 575.697 362.034 576.28 365.128L581.905 363.599C584.635 362.629 587.644 361.554 590.228 360.281C597.286 356.804 600.693 353.419 608.582 351.69L613.049 353.385C613.298 353.207 613.575 353.012 613.874 352.802C617.132 350.515 622.916 346.454 621.319 342.613C619.569 341.352 618.353 341.406 616.304 341.497Z"/><path fill="#F7F1E9" d="M689.279 694.274C688.288 690.209 688.137 681.958 685.248 679.354C683.412 691.199 682.165 705.019 680.838 717.065L706.625 717.002C707.012 716.988 707.329 716.996 707.599 717.003C708.384 717.024 708.771 717.034 709.332 716.442C707.052 714.933 705.042 714.316 702.653 712.973C695.057 708.705 691.281 702.492 689.279 694.274Z"/><path fill="#D1946C" d="M891.615 729.518L885.407 729.539C886.161 743.643 888.825 757.884 890.099 771.977L897.918 772.368C895.92 758.07 893.819 743.786 891.615 729.518Z"/><path fill="#D1946C" d="M671.524 729.463C671.254 729.474 670.962 729.485 670.639 729.495C668.328 743.459 665.714 758.036 664.226 772.074L670.88 772.028C672.401 767.351 677.178 732.208 676.031 729.828C674.071 729.366 673.25 729.397 671.524 729.463Z"/><path fill="#F7F1E9" d="M670.678 627.463L661.136 627.46C660.945 644.458 660.9 661.457 661.001 678.455L662.294 679.316C665.568 662.341 667.027 645.277 670.678 627.463Z"/><path fill="#F7F1E9" d="M292.926 679.224C292.724 678.492 292.826 678.396 292.386 677.944C279.554 690.015 272.955 695.793 258.751 706.345C257.827 711.055 250.819 751.386 252.517 753.711C252.652 753.896 252.829 754.047 252.984 754.216C255.291 748.447 259.779 715.907 260.645 707.891C267.012 703.15 290.726 685.848 292.926 679.224Z"/><path fill="#117E65" d="M797.259 671.163C796.311 671.189 795.45 671.213 794.709 671.226C792.334 671.345 789.614 671.255 787.5 672.164C786.941 672.798 786.743 672.926 786.656 673.106C786.574 673.277 786.59 673.497 786.491 674.242C788.853 677.89 803.41 677.283 809.707 677.02C810.39 676.992 810.976 676.968 811.439 676.953C814.646 676.498 817.062 676.283 819.557 673.994L819.419 673.266C815.123 670.667 803.987 670.976 797.259 671.163Z"/><path fill="#F7F1E9" d="M817.818 678.8L809.277 679.284C801.554 679.526 793.826 679.549 786.101 679.356L782.042 683.184C782.485 683.122 782.893 683.06 783.275 683.003C785.531 682.661 786.892 682.456 789.449 683.086L793.917 684.182C795.223 684.511 796.129 684.181 797.307 683.753C797.451 683.701 797.599 683.647 797.752 683.593C799.221 683.655 799.437 683.751 800.672 683.891C802.817 684.135 804.074 683.965 805.109 683.826C806.789 683.599 807.884 683.451 811.234 685.281C815.646 682.447 816.458 682.575 820.207 683.167C821.092 683.307 822.142 683.472 823.441 683.631C821.618 682.027 819.723 680.288 817.818 678.8Z"/><path fill="#F26E45" d="M842.434 514.085C839.942 507.783 839.343 505.135 832.171 503.951C829.365 506.481 828.308 508.101 828.102 512.034C828.033 513.494 828.007 514.956 828.022 516.417L828.521 516.449C831.755 516.658 834.323 516.823 837.617 516.263L842.434 514.085Z"/><path fill="#72934B" d="M451.236 598.921L450.568 598.482C446.276 601.44 437.441 607.762 436.4 612.959C437.084 614.691 437.344 614.378 439.298 615.107C443.733 611.648 448.151 608.042 452.896 605.036C452.506 602.7 452.414 600.959 451.236 598.921Z"/><path fill="#117E65" d="M799.762 543.313L786.192 543.658C786.079 544.138 785.973 544.493 785.888 544.779C785.634 545.632 785.56 545.88 786.003 547.003C789.436 548.495 801.449 548.299 807.487 548.2C808.223 548.188 808.871 548.178 809.403 548.172C809.781 547.227 809.949 546.998 809.977 546.753C810.003 546.515 809.899 546.263 809.727 545.329C807.473 543.15 803.648 543.231 800.478 543.299C800.235 543.304 799.996 543.309 799.762 543.313Z"/><path fill="#117E65" d="M769.026 564.09C768.19 564.132 767.451 564.169 766.842 564.192C766.057 564.979 765.774 565.101 765.666 565.313C765.576 565.489 765.607 565.728 765.568 566.47C767.631 569.084 780.086 568.698 786.103 568.511C787.048 568.482 787.835 568.457 788.397 568.45C789.016 567.746 789.245 567.608 789.329 567.408C789.408 567.221 789.359 566.981 789.382 566.175C786.543 563.211 775.176 563.782 769.026 564.09Z"/><path fill="#117E65" d="M806.842 564.033C805.82 564.083 804.982 564.125 804.413 564.138C803.922 565.051 803.708 565.247 803.666 565.474C803.628 565.677 803.725 565.906 803.884 566.689C807.031 569.182 817.64 568.662 823.74 568.363C824.655 568.318 825.468 568.278 826.14 568.254C826.74 567.741 826.95 567.64 827.045 567.474C827.141 567.305 827.119 567.07 827.261 566.275C825.89 563.091 813.004 563.728 806.842 564.033Z"/><path fill="#F7F1E9" d="M806.746 570.469C805.594 570.515 804.653 570.553 804.022 570.56C802.73 572.016 802.458 571.794 802.415 573.296C804.572 575.108 811.774 574.745 817.208 574.472C819.249 574.369 821.041 574.279 822.222 574.321C822.732 574.339 823.246 574.208 823.835 574.057C824.748 573.824 825.84 573.545 827.374 573.709L828.72 573.955L829.315 573.462C828.179 569.614 813.655 570.193 806.746 570.469Z"/><path fill="#F7F1E9" d="M772.712 570.479C770.302 570.502 767.892 570.525 765.487 570.514L763.836 572.592L764.049 573.302C768.547 574.529 783.071 575.267 787.626 573.727C788.088 573.75 788.452 573.788 788.761 573.82C789.677 573.915 790.1 573.96 791.127 573.406C789.761 570.899 786.912 570.579 784.315 570.509C780.454 570.404 776.582 570.442 772.712 570.479Z"/><path fill="#F7F1E9" d="M804.903 550.314C798.642 550.497 792.398 550.522 786.135 550.525C785.831 550.861 785.569 551.115 785.349 551.33C784.707 551.955 784.415 552.238 784.441 553.202C788.466 554.663 805.139 554.718 809.703 553.248C809.826 553.232 809.948 553.216 810.071 553.199L811.119 553.534L811.761 552.945C810.524 550.269 807.504 550.237 804.903 550.314Z"/><path fill="#72934B" d="M454.74 613.193C454.263 611.17 453.878 608.256 452.396 606.897C449.811 608.81 444.127 612.174 443.166 615.472C442.844 616.578 444.527 617.419 445.56 617.936C445.671 617.991 445.774 618.042 445.866 618.09C449.808 617.716 451.71 615.683 454.74 613.193Z"/><path fill="#AF775A" d="M471.247 673.336C468.496 671.407 467.227 670.517 463.236 671.203C458.744 671.62 454.048 671.984 449.589 672.565C453.565 672.922 458.184 673.451 462.124 673.604C462.72 673.639 463.319 673.676 463.92 673.714C466.688 673.885 469.494 674.06 472.24 674.027C471.886 673.784 471.557 673.553 471.247 673.336Z"/><path fill="#AF775A" d="M842.381 516.527L841.815 516.545C838.805 517.46 829.84 518.258 828.834 519.982C829.294 520.54 829.418 520.814 829.99 521.197C833.501 521.072 841.014 520.516 843.121 517.404L843.041 517.005L843.197 517.117L843.372 516.888L842.977 516.681L843.041 517.005L842.381 516.527Z"/><path fill="#F7F1E9" d="M842.143 665.225C841.57 662.811 840.933 659.546 839.095 657.856C839.08 658.28 839.051 658.859 839.017 659.542C838.831 663.271 838.489 670.093 839.501 671.647L840.39 670.717C841.009 668.903 841.673 667.08 842.143 665.225Z"/><path fill="#AF775A" d="M541.137 672.418C538.574 671.554 534.927 671.295 532.16 670.97C530.879 671.819 529.427 672.734 528.218 673.65C531.445 673.536 535.765 673.501 538.879 673.137L540.919 672.845L541.137 672.418Z"/><path fill="#72934B" d="M443.195 645.827C442.933 644.305 442.872 644.687 441.442 643.399C439.925 644.371 437.637 645.516 436.926 647.037C437.287 647.517 437.377 647.685 437.516 647.763C437.681 647.854 437.916 647.818 438.748 648.018C440.402 647.478 442.197 647.151 443.195 645.827Z"/><path fill="#72934B" d="M440.338 641.23C440.36 640 440.298 639.368 438.961 638.753C437.648 640.537 435.902 642.543 435.326 644.596L436.242 644.734C437.947 643.584 439.257 642.931 440.338 641.23Z"/><path fill="#F7F1E9" fill-opacity="0.0078431377" d="M449.156 595.949C450.727 594.196 451.532 591.248 449.847 589.394C449.817 589.461 449.784 589.534 449.75 589.612C449.036 591.2 447.369 594.916 449.156 595.949Z"/><path fill="#809F48" d="M501.39 670.124L500.013 668.363C500.008 668.626 499.996 668.913 499.984 669.215C499.929 670.629 499.86 672.365 500.32 673.399C501.101 671.89 501.062 671.738 501.39 670.124Z"/><path fill="#F7F1E9" fill-opacity="0.019607844" d="M427.557 626.119L425.495 624.76C425.75 626.191 425.731 627.779 426.56 628.577C427.147 627.451 427.222 627.334 427.557 626.119Z"/><path fill="#F9E1BB" d="M662.294 679.316L661.001 678.455C661.003 678.847 660.994 679.189 660.985 679.501C660.955 680.595 660.936 681.313 661.465 682.49C662.129 680.961 662.091 680.986 662.294 679.316Z"/><path fill="#3D3F3F" fill-opacity="0.98823529" d="M512.715 636.023L511.892 635.966C511.776 636.383 511.658 636.728 511.554 637.031C511.246 637.937 511.063 638.472 511.42 639.443C512.34 638.256 512.385 637.478 512.715 636.023Z"/><path fill="#7F7168" d="M489.233 259.107L491.793 259.905L491.353 258.478L489.09 258.64L489.233 259.107Z"/><path fill="#3D3F3F" fill-opacity="0.011764706" d="M40.7743 385.698C40.3976 384.311 40.5422 382.055 39.4909 381.369C40.0665 383.422 39.7674 384.087 39.586 384.49C39.3731 384.963 39.3224 385.075 41.0389 386.65L40.7743 385.698Z"/><path fill="#221B18" fill-opacity="0.027450981" d="M44.1454 361.675C44.1135 361.597 44.027 361.541 43.7993 361.33L42.3425 362.978C42.5353 363.933 42.3441 363.619 42.6472 364.036L44.1857 362.495C44.1357 361.918 44.1873 361.777 44.1454 361.675Z"/><path fill="#221B18" fill-opacity="0.011764706" d="M669.907 779.789C669.449 778.082 669.906 778.791 668.336 777.698L669.361 779.91L669.907 779.789Z"/><path fill="#F7F1E9" fill-opacity="0.0078431377" d="M255.543 800L246.055 800L247.229 792.586C248.613 783.419 251.278 769.905 251.807 761.105C253.304 773.992 254.5 786.977 255.543 800Z"/><path fill="#D1946C" d="M867.967 496.967C865.231 501.774 864.937 507.295 866.3 512.632C868.009 518.108 867.233 522.373 866.279 527.613C866.111 528.536 865.937 529.489 865.771 530.484L866.769 533.535L866.316 535.485C865.634 534.442 864.778 532.636 864.929 531.361C864.957 529.168 864.871 526.84 864.786 524.522C864.727 522.889 864.667 521.261 864.647 519.69C863.735 517.706 861.571 514.672 859.133 516.538C855.186 519.557 855.163 524.59 855.026 528.96L856.877 530.142C857.557 538.236 859.546 545.413 860.732 553.274C861.088 553.288 861.496 553.306 861.942 553.327C865.581 553.493 871.808 553.777 874.135 552.394L874.836 553.035C875.587 550.375 876.983 547.26 878.461 543.964C883.031 533.769 888.381 521.834 877.831 516.224L877.195 515.594C877.568 514.706 877.937 513.867 878.292 513.06C880.315 508.462 881.889 504.883 881.127 498.996C880.043 490.63 871.829 490.186 867.967 496.967Z"/><path fill="#000102" d="M867.967 496.967C865.231 501.774 864.937 507.295 866.3 512.632C868.009 518.108 867.233 522.373 866.279 527.613C866.111 528.536 865.937 529.489 865.771 530.484L866.769 533.535L870.303 517.677C868.113 511.642 866.22 506.255 869.123 500.037C870.546 496.992 872.849 494.664 876.384 495.539C881.274 499.034 877.956 508.081 874.567 517.322C871.559 525.525 868.495 533.88 871.065 538.642L871.852 539.116C876.605 537.338 876.79 523.275 880.318 520.615C883.491 523.858 879.168 536.82 876.255 545.555C875.278 548.486 874.459 550.941 874.135 552.394L874.836 553.035C875.587 550.375 876.983 547.26 878.461 543.964C883.031 533.769 888.381 521.834 877.831 516.224L877.195 515.594C877.568 514.706 877.937 513.867 878.292 513.06C880.315 508.462 881.889 504.883 881.127 498.996C880.043 490.63 871.829 490.186 867.967 496.967Z"/><path fill="#F7F1E9" d="M877.831 516.224L877.195 515.594C874.293 521.165 872.768 530.477 872.326 536.764C875.236 529.066 875.641 522.341 877.831 516.224Z"/><path fill="#000102" d="M859.133 516.538C855.186 519.557 855.163 524.59 855.026 528.96L856.877 530.142C856.876 529.745 856.863 529.294 856.85 528.806C856.748 525.161 856.589 519.472 860.77 519.177C862.313 520.713 862.298 524.618 862.282 528.527C862.267 532.514 862.251 536.504 863.889 537.986C865.602 537.853 865.871 537.237 866.316 535.485C865.634 534.442 864.778 532.636 864.929 531.361C864.957 529.168 864.871 526.84 864.786 524.522C864.727 522.889 864.667 521.261 864.647 519.69C863.735 517.706 861.571 514.672 859.133 516.538Z"/><path fill="#72934B" d="M390.588 628.774C391.038 629.449 391.421 630.022 391.713 630.467C390.211 631.361 388.134 631.036 386.366 630.759C386.246 630.741 386.127 630.722 386.01 630.704L384.681 631.216C384.239 633.448 385.623 635.714 386.858 637.563C392.746 646.377 412.511 649.132 421.739 646.234C422.13 644.69 422.499 644.546 423.627 643.405C419.445 635.569 416.081 627.803 409.253 620.875C402.534 614.059 390.811 606.542 380.891 605.072C379.904 604.926 379.284 605.695 378.726 606.387C378.699 606.421 378.671 606.455 378.644 606.489C378.167 610.153 386.786 623.075 390.588 628.774Z"/><path fill="#000102" d="M390.588 628.774C391.038 629.449 391.421 630.022 391.713 630.467C391.769 625.137 383.413 612.319 380.223 607.426L380.17 607.345C396.056 612.634 408.752 619.174 416.564 634.938C417.333 636.484 418.017 638.072 418.612 639.692C410.821 630.815 402.476 621.689 391.555 616.662C400.779 625.405 413.148 634.402 420.044 644.774C405.483 646.395 393.823 644.162 386.01 630.704L384.681 631.216C384.239 633.448 385.623 635.714 386.858 637.563C392.746 646.377 412.511 649.132 421.739 646.234C422.13 644.69 422.499 644.546 423.627 643.405C419.445 635.569 416.081 627.803 409.253 620.875C402.534 614.059 390.811 606.542 380.891 605.072C379.904 604.926 379.284 605.695 378.726 606.387C378.699 606.421 378.671 606.455 378.644 606.489C378.167 610.153 386.786 623.075 390.588 628.774Z"/><path fill="#F7F1E9" fill-opacity="0.011764706" d="M866.279 527.613C867.233 522.373 868.009 518.108 866.3 512.632L865.614 513.276L865.425 513.271C864.486 513.247 863.87 513.231 862.897 513.391L862.845 513.898L864.865 514.632C865.644 516.443 865.438 517.108 864.924 518.775C864.839 519.049 864.746 519.351 864.647 519.69C864.667 521.261 864.727 522.889 864.786 524.522C864.871 526.84 864.957 529.168 864.929 531.361L865.771 530.484C865.937 529.489 866.111 528.536 866.279 527.613Z"/><path fill="#F9E1BB" fill-opacity="0.015686275" d="M417.604 564.998L416.294 565.245C417.457 569.786 418.219 572.58 418.733 577.23C418.903 575.466 418.859 575.58 419.728 574.038L417.604 564.998Z"/><path fill="#000102" fill-opacity="0.53725493" d="M865.771 530.484L864.929 531.361C864.778 532.636 865.634 534.442 866.316 535.485L866.769 533.535L865.771 530.484Z"/><path fill="#000102" fill-opacity="0.011764706" d="M317.599 98.6025C317.733 98.832 317.924 99.1595 318.165 99.907L319.269 99.862L319.37 97.984C318.97 97.598 318.703 97.337 318.272 96.981L317.406 97.149C317.327 98.1348 317.399 98.2587 317.599 98.6025Z"/></svg>