<?xml version="1.0" encoding="utf-8" ?><svg xmlns="http://www.w3.org/2000/svg" xmlns:xlink="http://www.w3.org/1999/xlink" width="768" height="1344" viewBox="0 0 768 1344"><path fill="#13100E" d="M469.847 410.03L547.733 409.774C561.367 409.808 575.705 410.575 589.32 410.01C601.916 423.705 613.518 438.605 625.513 452.839C627.112 454.736 625.78 457.763 625.149 459.678C621.641 470.32 625.987 487.681 624.154 498.051C624.603 500.447 624.267 501.277 625.799 502.415L627.544 502.623C628.5 503.742 628.646 504.379 630.106 504.741C631.915 507.252 638.116 517.876 639.406 518.342L639.496 519.656C639.634 520.534 639.817 521.383 639.996 522.253L638.983 522.951C637.71 522.525 635.879 524.566 634.71 525.426C633.135 525.325 632.933 525.75 631.423 525.157L630.123 525.418C626.195 523.973 627.393 527.121 627.335 530.432L629.803 530.395C632.776 530.452 635.75 530.468 638.723 530.441C641.278 530.323 641.624 530.799 643.663 529.615C646.211 531.592 643.754 549.274 645.401 551.191C649.473 555.933 648.003 526.587 648.156 524.294C648.752 524.216 649.349 524.148 649.947 524.089C650.899 531.744 650.495 547.011 650.394 555.11C639.294 555.103 620.63 555.686 609.953 554.938C604.334 555.249 598.209 555.071 592.539 555.013C588.209 555.194 583.662 555.084 579.312 555.052L556.312 555.161C531.63 555.332 506.947 555.336 482.265 555.175C471.096 555.181 457.93 555.837 447.084 555.528C441.623 558.107 444.14 558.642 446.733 564.569C451.351 567.435 463.428 575.976 467.619 577.773L468.106 578.407C469.319 579.737 474.817 583.988 476.585 585.394C490.567 596.48 521.34 622.699 529.906 637.147C532.079 640.772 533.455 644.819 533.943 649.017C536.266 668.13 522.448 683.69 503.474 685.725C495.589 686.571 485.659 683.249 477.756 681.933C488.817 709.411 495.281 714.395 514.742 735.794C505.891 741.033 496.443 746.85 487.484 751.777C484.071 753.789 480.83 755.708 477.316 757.553C489.172 789.92 504.712 821.468 513.43 854.898C515.599 863.217 514.197 875.733 512.921 884.114C507.684 918.509 503.736 953.348 497.879 987.627C496.966 994.4 495.88 1003.46 494.252 1009.95C491.018 1009.91 477.153 1009.25 475.507 1010.74L475.47 1011.33L473.691 1010.38L473.633 1018.6C462.254 1022.27 453.775 1038.31 439.541 1028.21C433.8 1024.13 436.07 1023 428 1021.76L428.087 1010.36L426.59 1010.5C424.916 1008.93 414.367 1009.38 411.618 1009.38C412.688 1002.27 413.957 995.181 415.423 988.134L415.503 987.005C417.323 979.792 418.823 971.192 420.038 963.796C424.667 935.628 431.771 907.201 435.51 878.948L435.379 877.693L421.934 840.416C418.679 831.398 414.182 819.838 412.495 810.652C412.46 806.021 411.692 800.821 411.365 796.018C411.431 795.102 411.543 795.007 411.135 794.24C411.001 792.64 410.878 791.039 410.766 789.437C410.865 787.599 410.828 787.253 410.568 785.438C410.123 781.596 408.834 777.002 411.426 774.242L411.409 773.256L409.972 774.143C407.447 775.728 409.398 786.088 409.673 789.21C409.427 791.561 409.669 793.213 409.988 795.516C410.298 797.203 410.375 798.405 410.504 800.102C410.105 802.559 410.413 803.692 410.811 806.106C410.938 809.653 411.078 812.538 411.082 816.111C405.861 873.843 396.749 929.922 390.369 987.061L390.035 988.143C389.174 995.174 388.335 1002.73 387.028 1009.66L373.455 1009.88C373.4 1012.27 373.421 1016.35 373.119 1018.57C373.041 1015.01 372.122 1013.56 371.693 1010.05C371.464 1012.4 371.506 1016.28 371.453 1018.76C364.522 1020.89 360.708 1025.65 354.554 1029.34C341.694 1037.05 336.265 1023.74 327.659 1021.43L327.091 1021.29C325.719 1019.49 326.256 1013 326.293 1010.25L324.929 1010.05C319.212 1009.31 311.662 1009.51 305.749 1009.5C306.794 1003.42 307.578 994.332 308.309 988.06L308.263 987.054C310.145 977.804 311.845 958.66 312.987 948.812L322.052 871.793L322.03 871.254C322.881 864.085 325.338 789.038 324.513 785.548L322.836 785C316.71 784.404 308.348 782.505 301.433 781.693C300.105 789.167 300.323 791.282 293.437 795.435C293.375 804.442 299.118 856.275 282.231 847.434C278.895 843.817 278.946 836.122 278.125 830.725C274.594 835.271 268.959 842.093 266.319 846.917C268.931 852.346 273.511 859.101 269.713 865.457C266.591 870.682 258.939 864.765 255.654 862.368C247.423 868.331 246.716 864.761 241.486 859.257C241.479 859.25 235.157 859.179 234.698 858.11C232.39 852.738 226.53 853.649 224.65 847.965C220.372 834.655 228.512 822.544 234.026 811.05C236.898 804.922 239.715 798.769 242.477 792.591C233.022 788.298 232.697 786.17 234.044 775.929C236.653 756.086 239.521 736.263 242.43 716.461C246.085 691.582 248.067 666.545 254.941 642.252C255.653 639.275 256.414 635.918 256.585 632.897C257.565 615.643 251.028 587.968 253.516 571.748C254.16 567.565 255.82 563.603 258.352 560.211C266.327 549.65 278.132 548.869 290.156 547.164C307.522 544.7 324.768 541.516 342.162 539.19C342.033 534.649 341.879 530.109 341.7 525.57L341.439 524.415L340.494 524.056C339.697 524.486 338.894 524.906 338.085 525.315C333.559 527.602 328.407 528.346 323.472 526.774C316.766 524.638 315.212 517.321 312.452 511.788C310.564 508.001 308.281 504.228 306.493 500.369C298.214 484.069 303.224 461.589 320.913 453.651C331.879 432.082 359.761 429.868 378.255 443.034C380.314 444.5 382.325 445.981 384.34 447.508C381.152 451.927 379.31 452.454 382.03 457.299C397.606 476.828 413.94 504.514 389.039 524.509C388.807 524.695 388.571 524.875 388.33 525.05C386.071 526.697 385.113 526.781 384.786 529.767C384.569 531.758 384.081 533.047 385.218 534.827C388.822 537.454 394.45 534.293 400.078 537.372L401.101 537.664C401.913 538.771 401.831 538.841 403.078 539.359C413.11 545.482 409.324 548.22 424.487 553.135C425.908 526.838 424.271 494.059 424.605 467.138L424.173 456.898C419.388 460.025 410.809 468.367 407.927 457.669C408.773 452.969 456.536 414.947 463.452 409.788L469.847 410.03ZM364.519 733.548C381.709 730.385 398.879 727.117 416.029 723.742C422.666 722.451 436.191 720.243 442.064 718.326C442.29 716.318 442.138 715.68 441.821 713.67C439.221 705.531 426.339 644.272 423.767 642.315C422.223 641.139 418.519 641.187 416.393 639.766C413.139 632.924 406.193 612.822 406.644 605.017C406.831 601.785 409.36 596.015 408.85 594.317C404.328 579.271 398.766 560.215 391.809 546.35C391.342 545.42 388.62 545.457 387.969 545.447C384.956 545.405 386.26 550.902 382.627 554.549C378.139 559.054 372.136 561.534 365.766 561.505C351.964 561.444 348.656 553.907 340.639 546.025C341.998 554.5 346.419 565.434 348.562 574.295C353.389 594.763 356.824 615.535 358.842 636.468C361.573 666.02 363.188 703.712 364.519 733.548ZM548.612 535.653C550.078 535.615 551.545 535.566 553.011 535.505L553.507 535.538C556.225 535.702 556.955 535.459 559.815 535.981L559.739 537.323L560.053 538.274C559.031 545.009 560.635 542.023 553.997 541.106C551.492 541.559 550.713 541.606 548.193 541.677C545.635 541.55 544.857 543.113 542.943 541.974C540.775 540.684 540.488 542.509 540.038 544.464C540.18 547.396 539.66 548.045 541.679 549.892C545.375 546.399 543.306 547.567 547.915 548.972C550.235 548.895 552.007 549.132 554.156 549.071C557.835 546.095 557.452 548.468 559.551 545.982C559.54 545.953 559.985 552.449 560.125 553.379C553.792 553.342 546.198 553.115 539.936 553.572C544.393 554.373 554.248 553.583 556.716 554.508L556.312 555.161L579.312 555.052C583.662 555.084 588.209 555.194 592.539 555.013C598.209 555.071 604.334 555.249 609.953 554.938C620.63 555.686 639.294 555.103 650.394 555.11C650.495 547.011 650.899 531.744 649.947 524.089C649.349 524.148 648.752 524.216 648.156 524.294C648.003 526.587 649.473 555.933 645.401 551.191C643.754 549.274 646.211 531.592 643.663 529.615C641.624 530.799 641.278 530.323 638.723 530.441C635.75 530.468 632.776 530.452 629.803 530.395L627.335 530.432C627.393 527.121 626.195 523.973 630.123 525.418L631.423 525.157C632.933 525.75 633.135 525.325 634.71 525.426C635.879 524.566 637.71 522.525 638.983 522.951L639.996 522.253C639.817 521.383 639.634 520.534 639.496 519.656L639.406 518.342C638.116 517.876 631.915 507.252 630.106 504.741C628.646 504.379 628.5 503.742 627.544 502.623L625.799 502.415C624.267 501.277 624.603 500.447 624.154 498.051C625.987 487.681 621.641 470.32 625.149 459.678C625.78 457.763 627.112 454.736 625.513 452.839C613.518 438.605 601.916 423.705 589.32 410.01C575.705 410.575 561.367 409.808 547.733 409.774L469.847 410.03L463.452 409.788C456.536 414.947 408.773 452.969 407.927 457.669C410.809 468.367 419.388 460.025 424.173 456.898L424.605 467.138L426.218 467.32L426.163 524.027C426.163 530.381 425.815 547.006 426.551 552.642C428.719 525.883 423.883 496.711 428.397 470.237C428.629 468.879 427.549 468.179 426.707 467.235C430.17 463.433 438.978 455.981 443.189 452.359C453.402 443.574 463.935 434.224 474.409 425.806C481.846 435.317 497.521 451.136 506.378 460.508L508.15 459.196C507.622 469.826 507.943 482.353 507.952 493.208L508.052 553.543C515.747 553.556 524.317 553.752 531.941 553.415C532.373 545.522 532.352 537.471 532.423 529.557C530.572 529.585 526.561 528.909 524.548 528.625C528.031 524.009 529.416 521.622 532.181 516.51L539.088 516.282L542.272 516.296C543.665 516.35 545.059 516.37 546.453 516.355L546.141 517.292C547.223 517.523 548.302 517.773 549.376 518.042L550.19 516.46C550.907 516.438 551.441 516.453 552.155 516.474L552.42 517.348C552.313 520.217 552.348 522.51 552.04 525.397C551.664 527.863 552.01 528.071 552.754 530.466C549.096 530.533 545.54 530.457 541.942 530.501C539.528 529.986 537.632 529.667 535.133 529.532L533.982 529.581C533.334 531.707 533.469 532.342 533.38 534.502C534.037 534.915 535.093 535.906 535.873 535.86C536.035 535.712 536.327 534.397 536.429 534.109C537.578 535.754 535.584 543.152 537.379 545.164C537.539 542.729 535.869 528.604 540.809 531.648C535.005 537.374 544.729 535.547 548.612 535.653ZM534.644 547.046C534.13 548.601 533.662 550.054 535.881 550.065C536.007 548.182 536.943 545.955 534.644 547.046Z"/><path fill="#F5F4ED" fill-opacity="0.015686275" d="M340.639 546.025C348.656 553.907 351.964 561.444 365.766 561.505C372.136 561.534 378.139 559.054 382.627 554.549C386.26 550.902 384.956 545.405 387.969 545.447C388.62 545.457 391.342 545.42 391.809 546.35C398.766 560.215 404.328 579.271 408.85 594.317C409.36 596.015 406.831 601.785 406.644 605.017C406.193 612.822 413.139 632.924 416.393 639.766C418.519 641.187 422.223 641.139 423.767 642.315C426.339 644.272 439.221 705.531 441.821 713.67C442.138 715.68 442.29 716.318 442.064 718.326C436.191 720.243 422.666 722.451 416.029 723.742C398.879 727.117 381.709 730.385 364.519 733.548C363.188 703.712 361.573 666.02 358.842 636.468C356.824 615.535 353.389 594.763 348.562 574.295C346.419 565.434 341.998 554.5 340.639 546.025ZM404.226 597.388C404.234 594.991 404.464 591.404 402.498 589.811C402.408 592.393 401.987 595.7 404.226 597.388Z"/><path fill="#F7F5F1" fill-opacity="0.29803923" d="M402.498 589.811C404.464 591.404 404.234 594.991 404.226 597.388C401.987 595.7 402.408 592.393 402.498 589.811Z"/><path fill="#F5F4ED" fill-opacity="0.98823529" d="M560.449 529.794C560.448 532.725 560.708 533.133 559.815 535.981C556.955 535.459 556.225 535.702 553.507 535.538L553.011 535.505C550.797 532.024 550.873 532.541 548.612 535.653C544.729 535.547 535.005 537.374 540.809 531.648C544.031 530.353 553.411 532.041 555.833 530.7C557.375 530.414 558.913 530.112 560.449 529.794Z"/><path fill="#F5F4ED" fill-opacity="0.76078433" d="M426.707 467.235C427.549 468.179 428.629 468.879 428.397 470.237C423.883 496.711 428.719 525.883 426.551 552.642C425.815 547.006 426.163 530.381 426.163 524.027L426.218 467.32L426.707 467.235Z"/><path fill="#F5F4ED" fill-opacity="0.66274512" d="M548.193 541.677C550.713 541.606 551.492 541.559 553.997 541.106C555.746 544.457 554.968 545.415 554.156 549.071C552.007 549.132 550.235 548.895 547.915 548.972C547.644 544.877 546.145 545.056 548.193 541.677Z"/><path fill="#D4D0D1" fill-opacity="0.97647059" d="M535.133 529.532C537.632 529.667 539.528 529.986 541.942 530.501C545.54 530.457 549.096 530.533 552.754 530.466C554.202 530.423 554.446 530.437 555.833 530.7C553.411 532.041 544.031 530.353 540.809 531.648C535.869 528.604 537.539 542.729 537.379 545.164C535.584 543.152 537.578 535.754 536.429 534.109C536.327 534.397 536.035 535.712 535.873 535.86C535.093 535.906 534.037 534.915 533.38 534.502C533.469 532.342 533.334 531.707 533.982 529.581L535.133 529.532Z"/><path fill="#F5F4ED" fill-opacity="0.89411765" d="M540.038 544.464C540.488 542.509 540.775 540.684 542.943 541.974C544.857 543.113 545.635 541.55 548.193 541.677C546.145 545.056 547.644 544.877 547.915 548.972C543.306 547.567 545.375 546.399 541.679 549.892C542.545 546.836 543.868 545.073 540.038 544.464Z"/><path fill="#F5F4ED" fill-opacity="0.88235295" d="M560.053 538.274C560.578 540.544 560.574 550.964 560.125 553.379C559.985 552.449 559.54 545.953 559.551 545.982C557.452 548.468 557.835 546.095 554.156 549.071C554.968 545.415 555.746 544.457 553.997 541.106C560.635 542.023 559.031 545.009 560.053 538.274Z"/><path fill="#F5F4ED" fill-opacity="0.69803923" d="M540.038 544.464C543.868 545.073 542.545 546.836 541.679 549.892C539.66 548.045 540.18 547.396 540.038 544.464Z"/><path fill="#F5F4ED" fill-opacity="0.92156863" d="M548.612 535.653C550.873 532.541 550.797 532.024 553.011 535.505C551.545 535.566 550.078 535.615 548.612 535.653Z"/><path fill="#1B1910" d="M357.493 638.607L358.842 636.468C361.573 666.02 363.188 703.712 364.519 733.548C381.709 730.385 398.879 727.117 416.029 723.742C422.666 722.451 436.191 720.243 442.064 718.326C442.29 716.318 442.138 715.68 441.821 713.67L442.194 709.07C446.191 728.17 451.382 749.134 456.247 768.022C461.945 765.123 481.944 754.242 487.082 750.801L487.484 751.777C484.071 753.789 480.83 755.708 477.316 757.553C489.172 789.92 504.712 821.468 513.43 854.898C515.599 863.217 514.197 875.733 512.921 884.114C507.684 918.509 503.736 953.348 497.879 987.627C496.966 994.4 495.88 1003.46 494.252 1009.95C491.018 1009.91 477.153 1009.25 475.507 1010.74L475.47 1011.33L473.691 1010.38L473.633 1018.6C462.254 1022.27 453.775 1038.31 439.541 1028.21C433.8 1024.13 436.07 1023 428 1021.76L428.087 1010.36L426.59 1010.5C424.916 1008.93 414.367 1009.38 411.618 1009.38C412.688 1002.27 413.957 995.181 415.423 988.134L415.503 987.005C417.323 979.792 418.823 971.192 420.038 963.796C424.667 935.628 431.771 907.201 435.51 878.948L435.379 877.693L421.934 840.416C418.679 831.398 414.182 819.838 412.495 810.652C412.46 806.021 411.692 800.821 411.365 796.018C411.431 795.102 411.543 795.007 411.135 794.24C411.001 792.64 410.878 791.039 410.766 789.437C410.865 787.599 410.828 787.253 410.568 785.438C410.123 781.596 408.834 777.002 411.426 774.242L411.409 773.256L409.972 774.143C407.447 775.728 409.398 786.088 409.673 789.21C409.427 791.561 409.669 793.213 409.988 795.516C410.298 797.203 410.375 798.405 410.504 800.102C410.105 802.559 410.413 803.692 410.811 806.106C410.938 809.653 411.078 812.538 411.082 816.111C405.861 873.843 396.749 929.922 390.369 987.061L390.035 988.143C389.174 995.174 388.335 1002.73 387.028 1009.66L373.455 1009.88C373.4 1012.27 373.421 1016.35 373.119 1018.57C373.041 1015.01 372.122 1013.56 371.693 1010.05C371.464 1012.4 371.506 1016.28 371.453 1018.76C364.522 1020.89 360.708 1025.65 354.554 1029.34C341.694 1037.05 336.265 1023.74 327.659 1021.43L327.091 1021.29C325.719 1019.49 326.256 1013 326.293 1010.25L324.929 1010.05C319.212 1009.31 311.662 1009.51 305.749 1009.5C306.794 1003.42 307.578 994.332 308.309 988.06L308.263 987.054C310.145 977.804 311.845 958.66 312.987 948.812L322.052 871.793L322.03 871.254C322.881 864.085 325.338 789.038 324.513 785.548L322.836 785L322.33 783.743C334.062 784.96 352.882 788.901 364.94 791.073C364.653 772.97 363.152 754.839 362.808 736.623C362.361 732.527 362.301 727.924 362.348 723.795C361.948 719.12 361.754 714.833 361.584 710.147C361.189 707.692 360.912 706.198 361.175 703.704C360.77 696.398 360.507 688.979 360.182 681.66C359.589 680.419 359.708 680.215 359.868 678.793L359.611 672.834C359.104 670.367 358.838 669.474 359.2 666.935L358.969 660.352C358.337 657.393 358.211 656.885 358.504 653.875C358.381 649.079 357.845 643.456 357.493 638.607Z"/><path fill="#1B1910" d="M415.503 987.005C424.12 986.989 495.497 986.336 497.879 987.627C496.966 994.4 495.88 1003.46 494.252 1009.95C491.018 1009.91 477.153 1009.25 475.507 1010.74L475.47 1011.33L473.691 1010.38L473.633 1018.6C462.254 1022.27 453.775 1038.31 439.541 1028.21C433.8 1024.13 436.07 1023 428 1021.76L428.087 1010.36L426.59 1010.5C424.916 1008.93 414.367 1009.38 411.618 1009.38C412.688 1002.27 413.957 995.181 415.423 988.134L415.503 987.005Z"/><path fill="#EB9271" d="M428.087 1010.36C431.87 1009.71 471.333 1009.55 473.691 1010.38L473.633 1018.6C462.254 1022.27 453.775 1038.31 439.541 1028.21C433.8 1024.13 436.07 1023 428 1021.76L428.087 1010.36Z"/><path fill="#D4D0D1" d="M415.503 987.005C424.12 986.989 495.497 986.336 497.879 987.627C492.358 989.428 425.263 988.219 415.423 988.134L415.503 987.005Z"/><path fill="#1B1910" d="M308.309 988.06C315.142 988.387 322.228 988.433 329.076 988.338C349.325 988.056 369.808 988.672 390.035 988.143C389.174 995.174 388.335 1002.73 387.028 1009.66L373.455 1009.88C373.4 1012.27 373.421 1016.35 373.119 1018.57C373.041 1015.01 372.122 1013.56 371.693 1010.05C371.464 1012.4 371.506 1016.28 371.453 1018.76C364.522 1020.89 360.708 1025.65 354.554 1029.34C341.694 1037.05 336.265 1023.74 327.659 1021.43L327.091 1021.29C325.719 1019.49 326.256 1013 326.293 1010.25L324.929 1010.05C319.212 1009.31 311.662 1009.51 305.749 1009.5C306.794 1003.42 307.578 994.332 308.309 988.06Z"/><path fill="#EB9271" d="M326.293 1010.25C329.855 1009.52 366.198 1009.67 371.693 1010.05C371.464 1012.4 371.506 1016.28 371.453 1018.76C364.522 1020.89 360.708 1025.65 354.554 1029.34C341.694 1037.05 336.265 1023.74 327.659 1021.43L327.091 1021.29C325.719 1019.49 326.256 1013 326.293 1010.25Z"/><path fill="#D4D0D1" d="M308.263 987.054C334.603 986.966 364.333 986.261 390.369 987.061L390.035 988.143C369.808 988.672 349.325 988.056 329.076 988.338C322.228 988.433 315.142 988.387 308.309 988.06L308.263 987.054Z"/><path fill="#969593" d="M411.409 773.256C414.719 770.746 429.199 762.238 433.792 760.098C433.965 760.018 434.029 760.16 434.128 760.308C434.112 761.484 413.627 773.499 411.426 774.242L411.409 773.256Z"/><path fill="#969593" d="M322.03 871.254C324.27 872.227 339.668 882.183 339.066 883.953C337.774 884.758 323.907 873.431 322.052 871.793L322.03 871.254Z"/><path fill="#969593" d="M435.379 877.693C438.331 875.973 447.766 868.913 450.91 867.847C450.958 867.916 451.007 867.985 451.055 868.054C450.254 870.135 437.923 877.239 435.51 878.948L435.379 877.693Z"/><path fill="#0D251E" d="M362.348 723.795C363.59 728.477 363.74 731.992 362.808 736.623C362.361 732.527 362.301 727.924 362.348 723.795Z"/><path fill="#0C524A" d="M359.2 666.935C360.092 668.357 359.646 670.927 359.611 672.834C359.104 670.367 358.838 669.474 359.2 666.935Z"/><path fill="#0C524A" d="M358.504 653.875C359.318 656.171 359.046 657.919 358.969 660.352C358.337 657.393 358.211 656.885 358.504 653.875Z"/><path fill="#0C524A" d="M361.175 703.704C362.008 705.295 361.661 708.257 361.584 710.147C361.189 707.692 360.912 706.198 361.175 703.704Z"/><path fill="#0C524A" d="M359.868 678.793C360.675 679.886 360.407 680.335 360.182 681.66C359.589 680.419 359.708 680.215 359.868 678.793Z"/><path fill="#F5F4ED" d="M469.847 410.03L547.733 409.774C561.367 409.808 575.705 410.575 589.32 410.01C601.916 423.705 613.518 438.605 625.513 452.839C627.112 454.736 625.78 457.763 625.149 459.678C621.641 470.32 625.987 487.681 624.154 498.051C624.603 500.447 624.267 501.277 625.799 502.415L627.544 502.623C628.5 503.742 628.646 504.379 630.106 504.741C631.915 507.252 638.116 517.876 639.406 518.342L639.496 519.656C639.634 520.534 639.817 521.383 639.996 522.253L638.983 522.951C637.71 522.525 635.879 524.566 634.71 525.426C633.135 525.325 632.933 525.75 631.423 525.157L630.123 525.418C626.195 523.973 627.393 527.121 627.335 530.432L629.803 530.395C632.776 530.452 635.75 530.468 638.723 530.441C641.278 530.323 641.624 530.799 643.663 529.615C646.211 531.592 643.754 549.274 645.401 551.191C649.473 555.933 648.003 526.587 648.156 524.294C648.752 524.216 649.349 524.148 649.947 524.089C650.899 531.744 650.495 547.011 650.394 555.11C639.294 555.103 620.63 555.686 609.953 554.938C604.334 555.249 598.209 555.071 592.539 555.013C588.209 555.194 583.662 555.084 579.312 555.052L556.312 555.161L556.716 554.508C554.248 553.583 544.393 554.373 539.936 553.572C546.198 553.115 553.792 553.342 560.125 553.379C560.574 550.964 560.578 540.544 560.053 538.274L559.739 537.323L559.815 535.981C560.708 533.133 560.448 532.725 560.449 529.794C558.913 530.112 557.375 530.414 555.833 530.7C554.446 530.437 554.202 530.423 552.754 530.466C552.01 528.071 551.664 527.863 552.04 525.397C552.348 522.51 552.313 520.217 552.42 517.348L552.155 516.474C551.441 516.453 550.907 516.438 550.19 516.46L549.376 518.042C548.302 517.773 547.223 517.523 546.141 517.292L546.453 516.355C545.059 516.37 543.665 516.35 542.272 516.296L539.088 516.282L532.181 516.51C529.416 521.622 528.031 524.009 524.548 528.625C526.561 528.909 530.572 529.585 532.423 529.557C532.352 537.471 532.373 545.522 531.941 553.415C524.317 553.752 515.747 553.556 508.052 553.543L507.952 493.208C507.943 482.353 507.622 469.826 508.15 459.196L509.939 459.583L511.048 458.4L512.152 457.588L512.146 456.709C509.494 456.729 502.616 448.539 502.263 447.225L501.188 446.211C497.294 442.182 493.629 438.14 489.795 434.161L488.8 433.224C486.566 429.874 482.735 427.805 481.183 423.857L480.6 422.453C478.188 421.739 471.463 414.277 469.82 412.104L469.847 410.03ZM613.825 506.076C611.347 506.45 610.778 504.788 609.736 502.882L609.711 489.696C615.189 491.623 612.286 475.787 609.172 485.56C606.689 478.768 603.229 477.036 596.395 475.564C576.681 479.816 582.477 495.828 582.275 512.053L597.706 511.84C595.109 515.771 589.066 521.797 594.048 525.465L596.456 524.707L597.907 525.436C598.268 525.929 598.575 526.478 599.028 526.79C599.911 525.161 604.65 523.083 605.203 524.782C602.045 525.727 600.285 525.602 599.694 529.281C600.107 533.496 599.701 537.06 600.441 541.202C600.878 543.651 599.963 546.91 599.894 549.705C601.9 550.775 603.502 550.808 605.663 551.48C604.653 554.1 602.429 553.257 599.611 553.765L599.932 554.416C597.101 554.505 595.34 554.625 592.539 555.013C598.209 555.071 604.334 555.249 609.953 554.938C620.63 555.686 639.294 555.103 650.394 555.11C650.495 547.011 650.899 531.744 649.947 524.089C649.349 524.148 648.752 524.216 648.156 524.294C648.003 526.587 649.473 555.933 645.401 551.191C643.754 549.274 646.211 531.592 643.663 529.615C641.624 530.799 641.278 530.323 638.723 530.441C635.75 530.468 632.776 530.452 629.803 530.395L627.335 530.432C627.393 527.121 626.195 523.973 630.123 525.418L631.423 525.157C632.933 525.75 633.135 525.325 634.71 525.426C635.879 524.566 637.71 522.525 638.983 522.951L639.996 522.253C639.817 521.383 639.634 520.534 639.496 519.656L639.406 518.342C638.116 517.876 631.915 507.252 630.106 504.741C628.646 504.379 628.5 503.742 627.544 502.623L625.799 502.415C624.267 501.277 624.603 500.447 624.154 498.051C625.987 487.681 621.641 470.32 625.149 459.678C625.78 457.763 627.112 454.736 625.513 452.839C613.518 438.605 601.916 423.705 589.32 410.01C575.705 410.575 561.367 409.808 547.733 409.774L469.847 410.03L469.82 412.104C471.463 414.277 478.188 421.739 480.6 422.453L481.183 423.857C482.735 427.805 486.566 429.874 488.8 433.224L489.795 434.161C493.629 438.14 497.294 442.182 501.188 446.211L502.263 447.225C502.616 448.539 509.494 456.729 512.146 456.709L512.152 457.588L511.048 458.4L509.939 459.583C514.23 466.24 520.148 462.676 525.121 459.164C530.302 464.475 534.395 465.17 539.886 459.42C540.39 458.887 540.876 458.337 541.343 457.771C544.269 460.524 546.828 463.225 551.001 463.345C555.119 462.063 555.204 459.507 558.617 459.204C562.798 461.74 563.328 463.939 568.307 463.208C571.608 462.723 575.976 457.626 578.065 460C583.03 465.642 587.092 464.26 593.512 458.432C596.57 461.025 599.361 463.734 603.548 463.591C607.592 462.13 607.184 460.173 610.895 459.79C616.894 462.83 616.237 463.7 622.984 462.811C622.799 473.126 622.099 492.499 623.084 502.459L620.159 502.528C619.297 502.972 619.118 502.898 619.059 503.884C615.563 506.037 615.592 503.864 613.825 506.076ZM571.542 538.519C571.78 541.003 571.723 545.602 571.598 548.132L576.242 550.274C575.291 544.944 576.102 540.576 575.537 535.407L576.104 533.626L573.965 532.788C573.151 533.035 572.333 533.267 571.51 533.483C571.61 535.443 571.633 536.56 571.542 538.519ZM580.221 530.458C579.062 533.866 578.146 535.314 581.938 536.607C582.915 533.429 583.29 532.04 580.221 530.458Z"/><path fill="#F5F4ED" fill-opacity="0.39215687" d="M599.694 529.281C601.078 531.939 602.084 534.675 605.359 531.432C605.492 534.504 605.585 540.958 605.318 543.924C601.183 549.455 604.19 545.593 601.406 546.269C600.786 546.851 600.211 548.846 599.894 549.705C599.963 546.91 600.878 543.651 600.441 541.202C599.701 537.06 600.107 533.496 599.694 529.281Z"/><path fill="#F5F4ED" fill-opacity="0.98039216" d="M571.51 533.483C572.333 533.267 573.151 533.035 573.965 532.788C572.398 534.914 572.991 535.892 575.537 535.407C576.102 540.576 575.291 544.944 576.242 550.274L571.598 548.132C571.723 545.602 571.78 541.003 571.542 538.519C571.633 536.56 571.61 535.443 571.51 533.483Z"/><path fill="#F5F4ED" fill-opacity="0.16470589" d="M599.694 529.281C600.285 525.602 602.045 525.727 605.203 524.782C605.224 526.999 605.276 529.216 605.359 531.432C602.084 534.675 601.078 531.939 599.694 529.281Z"/><path fill="#F7F5F1" fill-opacity="0.90980393" d="M609.172 485.56C612.286 475.787 615.189 491.623 609.711 489.696C609.514 488.32 609.335 486.941 609.172 485.56Z"/><path fill="#F5F4ED" fill-opacity="0.2" d="M605.318 543.924C605.328 546.932 605.35 548.498 605.663 551.48C603.502 550.808 601.9 550.775 599.894 549.705C600.211 548.846 600.786 546.851 601.406 546.269C604.19 545.593 601.183 549.455 605.318 543.924Z"/><path fill="#F5F4ED" fill-opacity="0.94117647" d="M573.965 532.788L576.104 533.626L575.537 535.407C572.991 535.892 572.398 534.914 573.965 532.788Z"/><path fill="#13100E" d="M469.847 410.03L547.733 409.774C561.367 409.808 575.705 410.575 589.32 410.01C601.916 423.705 613.518 438.605 625.513 452.839C627.112 454.736 625.78 457.763 625.149 459.678C621.641 470.32 625.987 487.681 624.154 498.051L623.084 502.459C622.099 492.499 622.799 473.126 622.984 462.811C616.237 463.7 616.894 462.83 610.895 459.79C607.184 460.173 607.592 462.13 603.548 463.591C599.361 463.734 596.57 461.025 593.512 458.432C587.092 464.26 583.03 465.642 578.065 460C575.976 457.626 571.608 462.723 568.307 463.208C563.328 463.939 562.798 461.74 558.617 459.204C555.204 459.507 555.119 462.063 551.001 463.345C546.828 463.225 544.269 460.524 541.343 457.771C540.876 458.337 540.39 458.887 539.886 459.42C534.395 465.17 530.302 464.475 525.121 459.164C520.148 462.676 514.23 466.24 509.939 459.583L511.048 458.4L512.152 457.588L512.146 456.709C509.494 456.729 502.616 448.539 502.263 447.225L501.188 446.211C497.294 442.182 493.629 438.14 489.795 434.161L488.8 433.224C486.566 429.874 482.735 427.805 481.183 423.857L480.6 422.453C478.188 421.739 471.463 414.277 469.82 412.104L469.847 410.03ZM589.126 419.132C588.98 416.001 586.227 416.148 583.703 416.125C583.754 419.206 586.404 418.636 589.126 419.132ZM502.354 419.078C502.53 418.772 502.706 418.465 502.881 418.159C502.711 417.885 502.58 417.914 502.077 417.756C501.53 418.71 501.436 418.558 502.354 419.078Z"/><path fill="#F5F4ED" d="M489.795 434.161C495.205 433.336 496.229 432.959 501.481 431.049C504.824 434.852 507.721 437.896 511.007 441.842C506.126 444.628 506.472 444.19 501.188 446.211C497.294 442.182 493.629 438.14 489.795 434.161Z"/><path fill="#F5F4ED" d="M511.808 442.887C516.565 447.601 518.106 448.836 522.321 454.484C518.759 455.069 515.46 455.419 512.146 456.709C509.494 456.729 502.616 448.539 502.263 447.225L503.899 446.875C507.446 446.127 508.94 444.808 511.808 442.887Z"/><path fill="#F5F4ED" d="M469.82 412.104C474.891 411.451 478.834 411.725 483.886 411.724C493.27 421.761 491.831 419.861 480.6 422.453C478.188 421.739 471.463 414.277 469.82 412.104Z"/><path fill="#F5F4ED" d="M481.183 423.857C482.603 423.728 484.017 423.533 485.418 423.271C487.65 422.86 489.662 421.718 491.724 420.814C494.681 423.787 497.601 426.798 500.482 429.845C494.647 431.825 494.649 431.847 488.8 433.224C486.566 429.874 482.735 427.805 481.183 423.857Z"/><path fill="#F7F5F1" d="M512.152 457.588C517.53 457.181 520.567 455.174 524.469 457.789C519.441 460.583 515.37 464.406 511.048 458.4L512.152 457.588Z"/><path fill="#F5F4ED" d="M586.396 431.082C590.212 431.397 595.111 439.083 598.335 442.75C594.768 443.735 591.179 444.638 587.57 445.458C584.369 445.488 578.077 437.169 576.431 434.523C580.708 433.402 582.374 432.934 586.396 431.082Z"/><path fill="#F7F5F1" d="M534.576 430.464C536.214 430.79 544.437 440.468 546.411 442.507C541.416 444.468 540.833 444.636 535.518 445.437C532.801 444.895 527.049 437.179 524.204 434.281C528.11 433.021 530.811 432.212 534.576 430.464Z"/><path fill="#F5F4ED" d="M517.548 430.485C519.483 431.028 527.322 440.504 529.106 442.542C524.539 444.023 523.526 444.287 518.679 445.181C514.769 444.592 510 437.635 506.782 434.209C511.399 433.017 513.213 432.61 517.548 430.485Z"/><path fill="#F7F5F1" d="M552.426 431.257C554.33 431.278 561.464 440.267 563.418 442.29C557.902 444.629 557.895 444.605 552.205 445.479C550.475 444.666 542.922 435.694 541.056 433.707C545.939 432.859 547.546 432.588 552.426 431.257Z"/><path fill="#F7F5F1" d="M603.998 431.166C605.641 431.354 613.369 441.051 615.198 443.165L604.695 445.885C601.559 444.701 596.093 437.459 593.659 434.537C597.648 433.34 599.923 432.862 603.998 431.166Z"/><path fill="#F7F5F1" d="M568.862 431.134C571.606 430.429 578.452 440.379 580.111 442.793C576.488 443.963 574.316 444.573 570.594 445.389C567.215 444.595 561.487 437.223 558.741 434.242C563.117 433.278 564.744 432.905 568.862 431.134Z"/><path fill="#F7F5F1" d="M573.37 411.929C578.524 411.882 583.779 412.003 588.953 412.014C590.23 413.403 597.109 419.771 594.519 420.838C581.701 425.6 582.615 421.291 573.37 411.929ZM589.126 419.132C588.98 416.001 586.227 416.148 583.703 416.125C583.754 419.206 586.404 418.636 589.126 419.132Z"/><path fill="#F7F5F1" fill-opacity="0.015686275" d="M583.703 416.125C586.227 416.148 588.98 416.001 589.126 419.132C586.404 418.636 583.754 419.206 583.703 416.125Z"/><path fill="#F5F4ED" d="M518.055 446.613C521.067 446.347 524.078 446.268 527.005 445.406C528.746 444.893 529.01 442.955 530.763 444.488C534.467 447.727 536.965 451.328 539.805 455.281C534.604 455.415 530.722 455.908 525.746 456.16L525.408 456.08C523.343 452.266 520.922 449.765 518.055 446.613Z"/><path fill="#F5F4ED" d="M564.471 443.643C566.645 445.048 571.727 451.809 573.467 454.072C567.716 454.836 566.961 455.122 561.465 456.736C559.528 456.863 554.927 449.525 553.039 447.318C558.383 446.131 559.496 445.853 564.471 443.643Z"/><path fill="#F5F4ED" d="M597.711 444.302C601.135 444.005 605.591 451.051 607.458 453.728C603.852 454.537 600.447 455.519 596.899 456.536C593.893 456.357 589.729 450.267 587.076 447.341C591.184 446.361 593.722 445.609 597.711 444.302Z"/><path fill="#F5F4ED" d="M555.99 411.83L570.785 411.936C572.556 413.617 578.074 417.964 576.644 420.098C572.806 421.518 570.222 422.143 566.208 423.077C563.009 419.942 558.85 415.272 555.99 411.83Z"/><path fill="#F5F4ED" d="M546.84 443.657C549.536 445.158 554.34 451.458 556.517 454.13C551.67 455.013 549.226 455.361 544.324 455.791C542.025 456.244 537.396 449.226 535.668 447.211C541.269 446.234 541.955 446.288 546.84 443.657Z"/><path fill="#F5F4ED" d="M487.448 411.793C492.09 411.706 496.734 411.695 501.376 411.76C503.06 413.566 509.599 418.941 505.901 420.087C502.662 421.398 500.307 422.105 497.012 423.17C494.907 421.193 487.675 414.386 487.448 411.793ZM502.354 419.078C502.53 418.772 502.706 418.465 502.881 418.159C502.711 417.885 502.58 417.914 502.077 417.756C501.53 418.71 501.436 418.558 502.354 419.078Z"/><path fill="#F7F5F1" fill-opacity="0.94901961" d="M502.077 417.756C502.58 417.914 502.711 417.885 502.881 418.159C502.706 418.465 502.53 418.772 502.354 419.078C501.436 418.558 501.53 418.71 502.077 417.756Z"/><path fill="#F5F4ED" d="M580.994 443.711C583.563 445.124 588.313 451.271 590.302 453.723C586.115 454.743 584.005 455.193 579.681 455.863C579.325 455.954 577.744 456.396 577.576 456.264C575.805 454.871 571.398 448.752 569.921 447.019C575.188 445.98 576.026 446.17 580.994 443.711Z"/><path fill="#F5F4ED" d="M538.744 411.745C543.611 411.676 548.478 411.664 553.345 411.709C554.54 413.028 560.591 418.668 558.388 420.084L557.812 420.496C553.372 421.657 552.487 421.681 548.152 422.308C545.382 419.633 540.37 415.073 538.744 411.745Z"/><path fill="#F5F4ED" d="M523.702 411.824C527.68 411.68 531.661 411.601 535.642 411.59C536.609 412.648 542.131 418.824 542.265 419.59C541.736 420.618 540.28 420.823 539.306 421.247L538.867 421.442C536.402 421.926 533.68 422.331 531.182 422.711C530.103 421.591 521.937 413.305 522.271 412.375C522.746 412.028 523.133 411.981 523.702 411.824Z"/><path fill="#F7F5F1" d="M503.591 411.696L519.07 411.761C520.689 413.962 525.617 418.37 523.608 420.353C520.044 421.577 517.746 422.179 514.115 423.096C511.605 420.388 505.426 413.974 503.591 411.696Z"/><path fill="#F7F5F1" d="M614.792 445.026C617.6 444.208 622.055 450.919 623.884 453.104C620.357 454.462 617.251 455.74 613.592 456.736C610.542 456.536 606.583 450.09 604.514 447.481C608.668 446.658 610.735 446.147 614.792 445.026Z"/><path fill="#F7F5F1" d="M578.732 420.674C581.148 422.747 584.904 427.278 587.17 429.809C583.334 430.852 579.534 432.037 575.706 433.024C573.516 432.121 569.208 426.487 567.303 424.364C572.627 423.274 573.878 423.021 578.732 420.674Z"/><path fill="#F7F5F1" d="M560.74 420.795C562.46 421.584 567.624 427.798 569.129 429.611C565.076 431.01 562.17 431.8 558.032 432.843C556.442 431.819 551.005 425.78 549.282 424.001C554.963 422.931 555.323 423.268 560.74 420.795Z"/><path fill="#F5F4ED" d="M525.838 420.612C527.502 421.146 532.631 427.284 534.333 429.074L523.351 432.981L514.835 424.22C521.018 422.858 519.476 424.268 525.838 420.612Z"/><path fill="#F7F5F1" d="M543.048 421.332C545.363 421.026 550.424 427.789 552.184 429.815C548.044 430.947 545.33 431.512 541.05 432.13C538.969 432.658 534.152 426.09 532.378 424.246C537.164 423.353 538.621 423.409 543.048 421.332Z"/><path fill="#F5F4ED" d="M509.312 420.704C510.688 421.84 515.363 427.493 516.886 429.218C511.787 431.156 510.844 431.375 505.653 432.592C503.076 429.849 500.516 427.091 497.972 424.318C502.83 423.102 504.766 422.299 509.312 420.704Z"/><path fill="#F5F4ED" d="M596.208 421.911C598.475 422.465 602.395 427.916 604.079 429.919C599.309 431.637 598.663 432.046 593.559 432.983C591.226 432.014 587.745 427.423 586.028 425.381C589.974 424.278 592.421 423.277 596.208 421.911Z"/><path fill="#F7F5F1" d="M605.934 455.449C607.277 455.446 608.166 455.495 609.137 456.508C608.859 460.385 603.643 461.42 600.694 462.015C599.803 461.363 596.8 459.769 597.085 458.496C597.322 458.26 604.802 455.879 605.934 455.449Z"/><path fill="#F5F4ED" d="M587.206 456.285C594.976 454.604 590.599 460.244 584.385 461.873C573.028 458.155 582.682 457.056 587.206 456.285Z"/><path fill="#F5F4ED" d="M552.548 456.365C559.798 455.149 556.68 460.444 550.022 461.682C539.73 456.377 546.638 456.991 552.548 456.365Z"/><path fill="#F5F4ED" d="M569.404 456.186C577.465 455.429 573.457 459.958 567.26 461.671C557.424 458.282 563.398 457.639 569.404 456.186Z"/><path fill="#F5F4ED" d="M622.699 455.401C624.964 455.093 627.227 461.318 616.404 461.632C610.782 457.215 616.287 458.109 621.194 456.026C621.692 455.81 622.194 455.602 622.699 455.401Z"/><path fill="#F7F5F1" d="M532.691 457.004C538.995 455.842 542.098 456.819 535.021 461.266C533.132 461.356 526.689 461.371 527.258 457.788C527.659 457.311 531.655 457.125 532.691 457.004Z"/><path fill="#1B1910" d="M596.395 475.564C603.229 477.036 606.689 478.768 609.172 485.56C609.335 486.941 609.514 488.32 609.711 489.696L609.736 502.882C610.778 504.788 611.347 506.45 613.825 506.076C613.821 510.504 616.969 514.001 619.605 517.978C622.488 518.001 625.371 517.948 628.251 517.819C625.942 513.746 622.402 506.902 619.059 503.884C619.118 502.898 619.297 502.972 620.159 502.528L623.084 502.459L624.154 498.051C624.603 500.447 624.267 501.277 625.799 502.415L627.544 502.623C628.5 503.742 628.646 504.379 630.106 504.741C631.915 507.252 638.116 517.876 639.406 518.342L639.496 519.656C639.634 520.534 639.817 521.383 639.996 522.253L638.983 522.951C637.71 522.525 635.879 524.566 634.71 525.426C633.135 525.325 632.933 525.75 631.423 525.157L630.123 525.418C626.195 523.973 627.393 527.121 627.335 530.432L629.803 530.395C632.776 530.452 635.75 530.468 638.723 530.441C641.278 530.323 641.624 530.799 643.663 529.615C646.211 531.592 643.754 549.274 645.401 551.191C649.473 555.933 648.003 526.587 648.156 524.294C648.752 524.216 649.349 524.148 649.947 524.089C650.899 531.744 650.495 547.011 650.394 555.11C639.294 555.103 620.63 555.686 609.953 554.938C604.334 555.249 598.209 555.071 592.539 555.013C595.34 554.625 597.101 554.505 599.932 554.416L599.611 553.765C602.429 553.257 604.653 554.1 605.663 551.48C605.35 548.498 605.328 546.932 605.318 543.924C605.585 540.958 605.492 534.504 605.359 531.432C605.276 529.216 605.224 526.999 605.203 524.782C604.65 523.083 599.911 525.161 599.028 526.79C598.575 526.478 598.268 525.929 597.907 525.436L596.456 524.707L594.048 525.465C589.066 521.797 595.109 515.771 597.706 511.84L582.275 512.053C582.477 495.828 576.681 479.816 596.395 475.564ZM614.536 552.071C623.031 549.086 629.079 549.282 637.547 551.681C643.701 555.923 642.413 549.793 642.614 545.298C642.801 541.123 642.593 536.726 642.397 532.557C633.644 532.312 622.999 531.637 614.351 532.318C614.617 538.639 614.346 545.549 614.536 552.071ZM619.418 523.161C622.618 524.049 624.036 523.903 627.088 522.908C628.211 517.38 626.217 519.363 620.918 518.859C618.718 518.65 619.098 521.672 619.418 523.161ZM613.755 530.358L618.973 530.023C616.625 526.15 618.052 526.885 613.709 525.557C613.714 527.158 613.73 528.758 613.755 530.358Z"/><path fill="#F7F5F1" fill-opacity="0.0078431377" d="M614.351 532.318C622.999 531.637 633.644 532.312 642.397 532.557C642.593 536.726 642.801 541.123 642.614 545.298C642.413 549.793 643.701 555.923 637.547 551.681C629.079 549.282 623.031 549.086 614.536 552.071C614.346 545.549 614.617 538.639 614.351 532.318Z"/><path fill="#F7F5F1" fill-opacity="0.70980394" d="M619.418 523.161C619.098 521.672 618.718 518.65 620.918 518.859C626.217 519.363 628.211 517.38 627.088 522.908C624.036 523.903 622.618 524.049 619.418 523.161Z"/><path fill="#F5F4ED" fill-opacity="0.2" d="M613.709 525.557C618.052 526.885 616.625 526.15 618.973 530.023L613.755 530.358C613.73 528.758 613.714 527.158 613.709 525.557Z"/><path fill="#312E2B" d="M648.156 524.294C648.752 524.216 649.349 524.148 649.947 524.089C650.899 531.744 650.495 547.011 650.394 555.11C639.294 555.103 620.63 555.686 609.953 554.938C611.389 554.109 612.87 554.941 615.234 553.678L614.536 552.071C623.031 549.086 629.079 549.282 637.547 551.681C643.701 555.923 642.413 549.793 642.614 545.298C642.801 541.123 642.593 536.726 642.397 532.557C633.644 532.312 622.999 531.637 614.351 532.318L613.755 530.358L618.973 530.023C620.94 530.432 624.935 530.271 627.335 530.432L629.803 530.395C632.776 530.452 635.75 530.468 638.723 530.441C641.278 530.323 641.624 530.799 643.663 529.615C646.211 531.592 643.754 549.274 645.401 551.191C649.473 555.933 648.003 526.587 648.156 524.294Z"/><path fill="#F7F5F1" d="M614.536 552.071C623.031 549.086 629.079 549.282 637.547 551.681C633.951 554.953 622.039 552.262 615.234 553.678L614.536 552.071Z"/><path fill="#F5F4ED" d="M627.088 522.908L627.946 523.775C629.758 524.036 629.857 524.216 631.423 525.157L630.123 525.418C626.195 523.973 627.393 527.121 627.335 530.432C624.935 530.271 620.94 530.432 618.973 530.023C616.625 526.15 618.052 526.885 613.709 525.557C615.988 524.382 616.048 524.163 618.777 523.671L619.418 523.161C622.618 524.049 624.036 523.903 627.088 522.908Z"/><path fill="#312E2B" d="M627.088 522.908L627.946 523.775C624.429 526.235 622.488 525.649 618.777 523.671L619.418 523.161C622.618 524.049 624.036 523.903 627.088 522.908Z"/><path fill="#413E3C" d="M606.692 520.552C606.903 520.544 607.114 520.537 607.325 520.529C607.378 520.785 607.254 520.957 607.152 521.249C606.573 521.065 606.721 521.166 606.544 520.993C606.549 520.759 606.519 520.901 606.692 520.552Z"/><path fill="#1B1910" d="M563.137 519.215L564.152 517.503L564.955 517.352L565.445 519.23L565.858 517.876C568.026 517.963 568.238 517.865 570.241 518.561C570.202 522.143 570.901 524.563 571.089 528.063L569.657 528.155L570.837 529.178C570.854 531.957 570.742 535.906 571.542 538.519C571.78 541.003 571.723 545.602 571.598 548.132C571.67 550.398 571.739 552.008 571.987 554.255C575.271 554.085 576.074 554.296 579.312 555.052L556.312 555.161L556.716 554.508C554.248 553.583 544.393 554.373 539.936 553.572C546.198 553.115 553.792 553.342 560.125 553.379C560.574 550.964 560.578 540.544 560.053 538.274L559.739 537.323L559.815 535.981C560.708 533.133 560.448 532.725 560.449 529.794C558.913 530.112 557.375 530.414 555.833 530.7C554.446 530.437 554.202 530.423 552.754 530.466C552.01 528.071 551.664 527.863 552.04 525.397C552.348 522.51 552.313 520.217 552.42 517.348C553.9 517.569 554.504 517.481 556.005 517.43C557.893 517.283 557.895 516.968 559.27 517.714C561.52 517.883 561.832 517.378 563.137 519.215Z"/><path fill="#F5F4ED" d="M552.42 517.348C553.9 517.569 554.504 517.481 556.005 517.43C555.928 521.329 556.04 525.024 556.109 528.906C557.994 529.707 558.244 529.253 560.449 529.794C558.913 530.112 557.375 530.414 555.833 530.7C554.446 530.437 554.202 530.423 552.754 530.466C552.01 528.071 551.664 527.863 552.04 525.397C552.348 522.51 552.313 520.217 552.42 517.348Z"/><path fill="#181614" d="M552.04 525.397L552.177 525.803C552.999 528.702 553.204 528.166 556.109 528.906C557.994 529.707 558.244 529.253 560.449 529.794C558.913 530.112 557.375 530.414 555.833 530.7C554.446 530.437 554.202 530.423 552.754 530.466C552.01 528.071 551.664 527.863 552.04 525.397Z"/><path fill="#F7F5F1" d="M565.858 517.876C568.026 517.963 568.238 517.865 570.241 518.561C570.202 522.143 570.901 524.563 571.089 528.063L569.657 528.155C566.832 527.305 566.589 521.01 565.858 517.876Z"/><path fill="#F5F4ED" d="M559.27 517.714C561.52 517.883 561.832 517.378 563.137 519.215C563.119 520.653 563.504 527.22 563.423 527.311C559.05 532.208 559.686 519.915 559.27 517.714Z"/><path fill="#312E2B" d="M552.155 516.474C560.237 516.268 568.322 516.243 576.405 516.398C578.244 518.999 582.142 523.898 582.721 526.739C582.138 529.918 580.316 529.261 577.246 529.403C577.165 537.383 577.267 545.363 577.553 553.338L594.249 553.24C594.343 547.316 594.83 530.773 594.048 525.465L596.456 524.707L597.907 525.436C598.268 525.929 598.575 526.478 599.028 526.79C599.911 525.161 604.65 523.083 605.203 524.782C602.045 525.727 600.285 525.602 599.694 529.281C600.107 533.496 599.701 537.06 600.441 541.202C600.878 543.651 599.963 546.91 599.894 549.705C601.9 550.775 603.502 550.808 605.663 551.48C604.653 554.1 602.429 553.257 599.611 553.765L599.932 554.416C597.101 554.505 595.34 554.625 592.539 555.013C588.209 555.194 583.662 555.084 579.312 555.052C576.074 554.296 575.271 554.085 571.987 554.255C571.739 552.008 571.67 550.398 571.598 548.132L576.242 550.274C575.291 544.944 576.102 540.576 575.537 535.407L576.104 533.626L573.965 532.788C573.151 533.035 572.333 533.267 571.51 533.483C571.61 535.443 571.633 536.56 571.542 538.519C570.742 535.906 570.854 531.957 570.837 529.178L569.657 528.155L571.089 528.063C570.901 524.563 570.202 522.143 570.241 518.561C568.238 517.865 568.026 517.963 565.858 517.876L565.445 519.23L564.955 517.352L564.152 517.503L563.137 519.215C561.832 517.378 561.52 517.883 559.27 517.714C557.895 516.968 557.893 517.283 556.005 517.43C554.504 517.481 553.9 517.569 552.42 517.348L552.155 516.474Z"/><path fill="#F7F5F1" d="M596.456 524.707L597.907 525.436C597.751 534.253 597.906 543.125 597.959 551.941C597.967 553.368 595.913 553.288 595.982 552.455C596.601 544.982 594.562 531.453 596.456 524.707Z"/><path fill="#1B1910" d="M570.241 518.561C570.702 518.376 570.561 518.475 570.749 518.294C570.747 517.926 570.664 517.618 570.577 517.243C571.122 516.713 571.882 516.636 572.479 517.137C572.622 517.607 572.584 518.042 572.563 518.525C572.848 518.391 572.648 518.519 573.237 517.923C573.745 521.073 574.442 524.474 575.047 527.629C574.364 529.514 572.441 528.942 571.089 528.063C570.901 524.563 570.202 522.143 570.241 518.561Z"/><path fill="#F5F4ED" d="M599.028 526.79C599.911 525.161 604.65 523.083 605.203 524.782C602.045 525.727 600.285 525.602 599.694 529.281C600.107 533.496 599.701 537.06 600.441 541.202C600.878 543.651 599.963 546.91 599.894 549.705C601.9 550.775 603.502 550.808 605.663 551.48C604.653 554.1 602.429 553.257 599.611 553.765C598.987 545.839 600.224 533.961 599.028 526.79Z"/><path fill="#F5F4ED" d="M573.237 517.923C576.928 518.274 576.531 521.139 577.935 524.236C579.149 526.912 577.011 526.973 575.047 527.629C574.442 524.474 573.745 521.073 573.237 517.923Z"/><path fill="#F5F4ED" d="M571.598 548.132L576.242 550.274C575.628 553.753 575.232 553.089 571.987 554.255C571.739 552.008 571.67 550.398 571.598 548.132Z"/><path fill="#F7F5F1" d="M571.51 533.483C571.905 527.542 575.231 527.132 576.104 533.626L573.965 532.788C573.151 533.035 572.333 533.267 571.51 533.483Z"/><path fill="#312E2B" d="M609.736 502.882C613.57 502.397 616.294 502.493 620.159 502.528C619.297 502.972 619.118 502.898 619.059 503.884C615.563 506.037 615.592 503.864 613.825 506.076C611.347 506.45 610.778 504.788 609.736 502.882Z"/><path fill="#181614" d="M546.453 516.355C547.687 516.35 548.954 516.414 550.19 516.46L549.376 518.042C548.302 517.773 547.223 517.523 546.141 517.292L546.453 516.355Z"/><path fill="#1B1910" d="M541.219 475.847C561.952 476.654 557.301 495.999 557.312 511.364L546.954 511.367L529.306 511.306C529.271 497.409 524.823 480.117 541.219 475.847Z"/><path fill="#F5F4ED" fill-opacity="0.9254902" d="M580.221 530.458C583.29 532.04 582.915 533.429 581.938 536.607C578.146 535.314 579.062 533.866 580.221 530.458Z"/><path fill="#F5F4ED" d="M463.452 409.788L469.847 410.03L469.82 412.104C471.463 414.277 478.188 421.739 480.6 422.453L481.183 423.857C482.735 427.805 486.566 429.874 488.8 433.224L489.795 434.161C493.629 438.14 497.294 442.182 501.188 446.211L502.263 447.225C502.616 448.539 509.494 456.729 512.146 456.709L512.152 457.588L511.048 458.4L509.939 459.583L508.15 459.196L506.378 460.508C506.22 491.531 506.232 522.554 506.414 553.577C497.578 553.624 428.946 554.428 426.551 552.642C428.719 525.883 423.883 496.711 428.397 470.237C428.629 468.879 427.549 468.179 426.707 467.235L426.218 467.32L424.605 467.138L424.173 456.898C419.388 460.025 410.809 468.367 407.927 457.669C408.773 452.969 456.536 414.947 463.452 409.788ZM424.605 467.138L426.218 467.32L426.707 467.235C430.17 463.433 438.978 455.981 443.189 452.359C453.402 443.574 463.935 434.224 474.409 425.806C481.846 435.317 497.521 451.136 506.378 460.508L508.15 459.196L509.939 459.583L511.048 458.4L512.152 457.588L512.146 456.709C509.494 456.729 502.616 448.539 502.263 447.225L501.188 446.211C497.294 442.182 493.629 438.14 489.795 434.161L488.8 433.224C486.566 429.874 482.735 427.805 481.183 423.857L480.6 422.453C478.188 421.739 471.463 414.277 469.82 412.104L469.847 410.03L463.452 409.788C456.536 414.947 408.773 452.969 407.927 457.669C410.809 468.367 419.388 460.025 424.173 456.898L424.605 467.138Z"/><path fill="#1B1910" d="M463.452 409.788L469.847 410.03L469.82 412.104C471.463 414.277 478.188 421.739 480.6 422.453L481.183 423.857C482.735 427.805 486.566 429.874 488.8 433.224L489.795 434.161C493.629 438.14 497.294 442.182 501.188 446.211L502.263 447.225C502.616 448.539 509.494 456.729 512.146 456.709L512.152 457.588L511.048 458.4L509.939 459.583L508.15 459.196L506.378 460.508C497.521 451.136 481.846 435.317 474.409 425.806C463.935 434.224 453.402 443.574 443.189 452.359C438.978 455.981 430.17 463.433 426.707 467.235L426.218 467.32L424.605 467.138L424.173 456.898C419.388 460.025 410.809 468.367 407.927 457.669C408.773 452.969 456.536 414.947 463.452 409.788ZM454.81 430.687C454.334 429.973 453.866 429.284 453.413 428.554C453.475 428.508 434.468 442.028 441.396 440.416C442.95 440.055 452.209 432.378 454.81 430.687ZM455.327 429.129C456.84 428.292 468.532 420.364 468.604 419.571C469.102 414.134 457.252 425.419 455.662 426.639L455.327 429.129Z"/><path fill="#F7F5F1" fill-opacity="0.98823529" d="M453.413 428.554C453.866 429.284 454.334 429.973 454.81 430.687C452.209 432.378 442.95 440.055 441.396 440.416C434.468 442.028 453.475 428.508 453.413 428.554Z"/><path fill="#F7F5F1" fill-opacity="0.98431373" d="M455.662 426.639C457.252 425.419 469.102 414.134 468.604 419.571C468.532 420.364 456.84 428.292 455.327 429.129L455.662 426.639Z"/><path fill="#F5F4ED" d="M438.339 440.857C440.913 443.474 428.722 450.641 426.398 452.068C426.195 451.801 425.601 451.097 425.709 450.98C427.418 449.12 436.733 442.127 438.339 440.857Z"/><path fill="#B1AFA8" d="M424.604 452.878C426.201 454.778 416.673 459.957 415.19 460.936C414.82 460.605 414.692 460.561 414.62 460.337C414.924 459.224 423.128 453.842 424.604 452.878Z"/><path fill="#413E3C" d="M453.413 428.554C454.15 427.862 454.884 427.275 455.662 426.639L455.327 429.129C455.176 429.861 455.097 429.97 454.81 430.687C454.334 429.973 453.866 429.284 453.413 428.554Z"/><path fill="#1B1910" d="M460.239 470.595C461.119 470.519 462.002 470.481 462.885 470.481C480.865 470.336 477.979 489.533 477.911 501.876C477.863 510.459 477.748 519.045 477.733 527.627L468.185 527.619L449.353 527.502C449.235 516.46 447.094 487.55 450.902 478.685C452.821 474.216 455.841 472.321 460.239 470.595Z"/><path fill="#0D9074" d="M321.912 555.765L339.394 550.113C350.255 583.809 353.487 603.566 357.493 638.607C357.845 643.456 358.381 649.079 358.504 653.875C358.211 656.885 358.337 657.393 358.969 660.352L359.2 666.935C358.838 669.474 359.104 670.367 359.611 672.834L359.868 678.793C359.708 680.215 359.589 680.419 360.182 681.66C360.507 688.979 360.77 696.398 361.175 703.704C360.912 706.198 361.189 707.692 361.584 710.147C361.754 714.833 361.948 719.12 362.348 723.795C362.301 727.924 362.361 732.527 362.808 736.623C363.152 754.839 364.653 772.97 364.94 791.073C352.882 788.901 334.062 784.96 322.33 783.743C315.464 782.394 308.243 781.229 301.326 780.006C302.512 774.028 303.463 764.901 304.333 758.682L310.529 713.875C311.649 705.709 312.758 696.478 314.547 688.454C316.384 680.901 322.385 674.38 325.639 667.455C341.652 633.367 342.81 587.899 321.912 555.765Z"/><path fill="#EB9271" d="M320.913 453.651C331.879 432.082 359.761 429.868 378.255 443.034C380.314 444.5 382.325 445.981 384.34 447.508C381.152 451.927 379.31 452.454 382.03 457.299C397.606 476.828 413.94 504.514 389.039 524.509C388.807 524.695 388.571 524.875 388.33 525.05C386.071 526.697 385.113 526.781 384.786 529.767C384.569 531.758 384.081 533.047 385.218 534.827C388.822 537.454 394.45 534.293 400.078 537.372C398.75 537.557 394.173 537.919 393.408 538.324C390.003 538.624 388.18 538.133 385.359 539.948L384.468 540.684C385.407 552.374 378.948 559.256 367.232 560.043C361.037 560.493 354.921 558.435 350.258 554.332C341.863 546.905 343.655 535.873 342.945 524.51L341.7 525.57L341.439 524.415L340.494 524.056C339.697 524.486 338.894 524.906 338.085 525.315C333.559 527.602 328.407 528.346 323.472 526.774C316.766 524.638 315.212 517.321 312.452 511.788C310.564 508.001 308.281 504.228 306.493 500.369C298.214 484.069 303.224 461.589 320.913 453.651Z"/><path fill="#1B1910" d="M320.913 453.651C331.879 432.082 359.761 429.868 378.255 443.034C380.314 444.5 382.325 445.981 384.34 447.508C381.152 451.927 379.31 452.454 382.03 457.299L381.174 459.015L379.514 456.377C376.426 455.845 374.2 457.711 372.479 460.234C371.149 461.517 370.042 461.901 368.402 462.832C366.701 462.375 360.672 464.944 358.097 465.329C351.66 466.29 345.026 466.087 338.595 465.524C342.438 477.517 342.611 488.876 335.402 499.808C326.608 497.432 322.856 496.627 316.121 503.583C314.293 509.076 313.711 512.635 316.488 518.159C318.191 521.62 321.273 524.203 324.979 525.276C330.483 526.927 333.896 525.657 338.724 522.948C339.801 522.34 340.867 521.715 341.924 521.073C343.092 522.856 342.749 522.092 342.945 524.51L341.7 525.57L341.439 524.415L340.494 524.056C339.697 524.486 338.894 524.906 338.085 525.315C333.559 527.602 328.407 528.346 323.472 526.774C316.766 524.638 315.212 517.321 312.452 511.788C310.564 508.001 308.281 504.228 306.493 500.369C298.214 484.069 303.224 461.589 320.913 453.651Z"/><path fill="#1B1910" d="M387.356 523.694L388.33 525.05C386.071 526.697 385.113 526.781 384.786 529.767C384.569 531.758 384.081 533.047 385.218 534.827C388.822 537.454 394.45 534.293 400.078 537.372C398.75 537.557 394.173 537.919 393.408 538.324C390.003 538.624 388.18 538.133 385.359 539.948L384.468 540.684C383.125 539.915 378.556 540.449 376.346 540.308C367.874 539.766 364.156 536.69 358.781 530.78C372.034 531.022 375.909 530.126 387.356 523.694Z"/><path fill="#13100E" d="M382.03 457.299C397.606 476.828 413.94 504.514 389.039 524.509C388.807 524.695 388.571 524.875 388.33 525.05L387.356 523.694C413.274 502.541 395.178 479.633 381.174 459.015L382.03 457.299Z"/><path fill="#13100E" d="M372.479 460.234L376.434 459.95C378.53 459.82 380.276 459.972 380.405 462.442C379.141 464.141 377.463 463.433 375.462 463.385C373.373 463.335 366.758 467.049 368.402 462.832C370.042 461.901 371.149 461.517 372.479 460.234Z"/><path fill="#181614" d="M368.688 472.453C370.597 473.366 381.782 482.588 384.186 484.549C382.713 486.911 381.127 489.2 379.433 491.409C376.314 490.453 380.919 486.454 382.215 484.915C376.836 481.303 371.691 478.508 368.688 472.453Z"/><path fill="#13100E" d="M354.3 469.737C356.676 470.301 357.202 471.35 354.458 472.352C351.563 473.408 350.696 476.585 349.36 479.059C343.14 476.577 351.104 471.091 354.3 469.737Z"/><path fill="#13100E" d="M376.82 468.224C381.866 469.043 383.457 470.298 382.757 475.562C377.855 475.391 376.467 473.056 376.82 468.224Z"/><path fill="#13100E" d="M356.334 478.989C360.297 480.483 362.12 483.172 362.046 487.283C357.489 486.775 355.122 483.42 356.334 478.989Z"/><path fill="#13100E" d="M323.958 504.05C328.424 503.992 332.804 504.116 335.935 508.048C336.313 508.521 336.403 509.646 335.729 509.988C335.278 509.944 335.151 509.64 334.903 509.272C327.025 503.605 323.498 507.276 321.976 506.376C321.85 506.302 321.779 506.162 321.793 506.016C321.854 505.38 323.11 504.691 323.542 504.379L323.958 504.05Z"/><path fill="#181614" d="M365.634 497.335C368.605 497.776 369.786 498.965 372.632 499.877C376.081 500.983 378.305 498.395 380.439 501.242C375 502.425 369.304 501.955 365.634 497.335Z"/><path fill="#0D9074" d="M442.194 709.07C436.902 686.556 430.923 664.152 426.043 641.574C425.872 640.781 428.687 638.178 429.302 637.602C439.84 648.881 444.84 649.18 459.263 654.578C457.518 659.07 455.056 664.881 453.572 669.34C454.643 671.463 456.064 674.499 457.236 676.469C462.549 678.813 469.407 679.763 475.332 681.347C483.939 696.527 484.561 704.544 496.709 717.859C497.13 718.18 497.046 718.151 497.343 718.602C501.38 722.982 509.216 730.994 512.569 735.446C506.063 739.572 493.729 747.528 487.082 750.801C481.944 754.242 461.945 765.123 456.247 768.022C451.382 749.134 446.191 728.17 442.194 709.07Z"/><path fill="#0D7363" d="M496.709 717.859C497.13 718.18 497.046 718.151 497.343 718.602C496.875 718.271 496.953 718.37 496.709 717.859Z"/><path fill="#F7F5F1" d="M538.88 537.411C545.833 537.42 552.786 537.391 559.739 537.323L560.053 538.274C559.031 545.009 560.635 542.023 553.997 541.106C551.492 541.559 550.713 541.606 548.193 541.677C545.635 541.55 544.857 543.113 542.943 541.974C540.775 540.684 540.488 542.509 540.038 544.464C540.18 547.396 539.66 548.045 541.679 549.892C545.375 546.399 543.306 547.567 547.915 548.972C550.235 548.895 552.007 549.132 554.156 549.071C557.835 546.095 557.452 548.468 559.551 545.982C559.54 545.953 559.985 552.449 560.125 553.379C553.792 553.342 546.198 553.115 539.936 553.572C538.231 552.053 538.892 540.408 538.88 537.411Z"/><path fill="#13100E" d="M542.272 516.296C543.665 516.35 545.059 516.37 546.453 516.355L546.141 517.292C547.223 517.523 548.302 517.773 549.376 518.042L550.19 516.46C550.907 516.438 551.441 516.453 552.155 516.474L552.42 517.348C552.313 520.217 552.348 522.51 552.04 525.397C551.664 527.863 552.01 528.071 552.754 530.466C549.096 530.533 545.54 530.457 541.942 530.501L541.312 527.891C541.565 524.196 541.892 521.569 542.883 517.983C542.681 517.402 542.497 516.868 542.272 516.296Z"/><path fill="#F5F4ED" d="M546.141 517.292C547.223 517.523 548.302 517.773 549.376 518.042C549.242 520.77 549.202 523.584 549.301 526.373C549.705 528.535 545.598 528.836 545.258 527.572C544.782 525.807 545.753 518.898 546.141 517.292Z"/><path fill="#EB9271" d="M385.359 539.948C388.18 538.133 390.003 538.624 393.408 538.324C398.736 539.494 402.615 540.859 406.943 544.275C407.573 544.806 409.233 546.009 409.069 546.878C408.384 547.217 404.809 545.907 403.698 545.657C397.804 544.033 393.068 543.461 386.981 543.311C386.459 543.298 385.602 540.584 385.359 539.948Z"/><path fill="#F7F5F1" d="M429.215 555.155C434.584 555.22 442.027 554.967 447.084 555.528C441.623 558.107 444.14 558.642 446.733 564.569C441.774 562.188 434.019 557.915 429.215 555.155Z"/><path fill="#F5F4ED" d="M533.38 534.502C534.037 534.915 535.093 535.906 535.873 535.86C536.035 535.712 536.327 534.397 536.429 534.109C537.578 535.754 535.584 543.152 537.379 545.164C537.433 547.387 537.772 550.814 537.167 552.945C536.996 553.547 533.921 553.566 533.851 552.993C533.128 547.038 533.841 540.591 533.38 534.502ZM535.881 550.065C536.007 548.182 536.943 545.955 534.644 547.046C534.13 548.601 533.662 550.054 535.881 550.065Z"/><path fill="#F5F4ED" fill-opacity="0.45490196" d="M534.644 547.046C536.943 545.955 536.007 548.182 535.881 550.065C533.662 550.054 534.13 548.601 534.644 547.046Z"/><path fill="#F5F4ED" d="M539.088 516.282L542.272 516.296C542.497 516.868 542.681 517.402 542.883 517.983C541.892 521.569 541.565 524.196 541.312 527.891C539.364 527.878 538.896 527.911 537.218 527.044C538.048 523.795 538.778 520.521 539.403 517.227L539.088 516.282Z"/><path fill="#413E3C" d="M539.088 516.282L542.272 516.296C542.497 516.868 542.681 517.402 542.883 517.983C541.717 517.759 540.557 517.507 539.403 517.227L539.088 516.282Z"/><path fill="#181614" d="M535.133 529.532C536.725 528.768 537.08 528.894 537.218 527.044C538.896 527.911 539.364 527.878 541.312 527.891L541.942 530.501C539.528 529.986 537.632 529.667 535.133 529.532Z"/><path fill="#0D9074" d="M245.92 700.486C253.87 648.837 257.126 605.135 300.282 569.185C303.422 575.618 306.918 582.626 308.778 589.544C320.01 631.317 315.467 674.374 308.604 716.353C305.481 735.45 303.787 754.851 300.541 773.923C281.359 770.761 256.622 769.526 236.898 767.567C239.173 748.955 242.471 729.513 244.456 711.146C244.405 710.513 244.391 710.595 244.655 710.015L245.676 702.079C245.579 701.211 245.461 701.154 245.92 700.486Z"/><path fill="#0C524A" d="M245.92 700.486C245.979 701.346 246.042 701.344 245.676 702.079C245.579 701.211 245.461 701.154 245.92 700.486Z"/><path fill="#0C524A" d="M244.655 710.015C244.644 710.596 244.709 710.694 244.456 711.146C244.405 710.513 244.391 710.595 244.655 710.015Z"/><path fill="#0D9074" d="M457.169 605.512C455.052 585.848 448.444 575.515 435.667 560.778C448.593 567.088 460.795 574.784 472.057 583.73C472.519 583.957 472.45 583.935 472.819 584.326C478.34 588.573 484.458 593.076 489.482 597.826C490.102 598.177 489.989 598.133 490.505 598.719C502.791 609.865 530.764 632.693 532.564 648.705C533.306 650.991 533.241 655.643 532.6 657.916C530.622 669.333 524.745 676.696 514.14 681.61C499.779 688.264 484.213 681.241 469.777 678.399C464.7 677.4 458.276 675.578 456.038 670.494C455.454 664.392 471.957 627.493 475.348 620.055C480.538 622.138 507.796 633.207 511.911 633.715C508.24 629.561 482.69 621.264 475.291 618.2C474.325 618.969 474.255 619.044 473.088 619.618C469.964 617.713 460.292 608.364 457.169 605.512Z"/><path fill="#0D7363" d="M532.564 648.705C533.306 650.991 533.241 655.643 532.6 657.916C532.536 657.18 532.472 649.433 532.564 648.705Z"/><path fill="#0D7363" d="M489.482 597.826C490.102 598.177 489.989 598.133 490.505 598.719C489.875 598.555 489.775 598.41 489.482 597.826Z"/><path fill="#0D7363" d="M472.057 583.73C472.519 583.957 472.45 583.935 472.819 584.326C472.477 584.169 472.188 584.099 472.057 583.73Z"/><path fill="#EB9271" d="M244.596 792.147C252.535 793.779 282.975 795.502 291.547 795.687C291.559 809.4 291.549 823.109 291.63 836.824C291.65 840.305 291.885 845.319 287.816 846.752C285.881 847.434 285.436 847.161 283.673 846.485C280.37 843.042 279.951 832.826 279.319 827.704C275.424 830.976 267.756 841.456 264.341 845.857C266.405 851.865 274.383 861.269 265.628 865.545C258.354 869.099 252.601 850.399 250.612 845.495C253.905 840.049 257.066 834.767 260.793 829.597C261.975 827.956 262.21 827.535 261.876 825.988C259.762 826.774 250.749 842.278 248.812 845.418C249.87 848.552 250.934 850.921 252.295 853.944C254.431 857.941 255.966 860.882 250.856 863.575C242.419 864.887 241.295 848.526 239.982 842.295C242.311 837.324 247.325 829.087 250.183 823.797L249.663 823.637C246.263 826.279 240.344 838.123 238.439 842.306C239.692 847.708 241.529 852.683 239.933 857.917L238.342 858.75C232.732 854.832 232.698 842.768 232.274 836.469C235.351 830.916 237.19 827.331 239.643 821.497L239.351 821.178C235.851 825.686 233.422 830.561 230.357 835.487C230.813 839.338 233.077 849.439 229.829 851.687C218.377 849.117 231.014 818.12 235.25 811.868C238.468 807.119 241.63 797.755 244.596 792.147Z"/><path fill="#EB9271" d="M424.211 593.4C435.368 592.47 441.955 594.247 450.677 601.743C458.143 608.158 465.252 614.884 472.799 621.22L459.534 653.184C450.594 649.765 439.499 646.445 432.874 639.494C430.454 636.954 429.359 633.143 426.74 631.35C425.214 632.846 427.069 635.639 425.087 638.897C419.015 643.382 414.878 636.313 415.5 631.331C415.906 628.072 425.44 622.593 428.415 620.506C430.482 621.927 432.929 623.841 435.485 623.821C434.646 622.007 434.656 622.441 432.737 621.114C431.581 620.365 430.705 619.964 429.462 619.365C422.859 619.899 417.767 628.668 413.455 627.781C409.393 620.209 421.751 613.891 427.085 610.818C428.796 611.745 433.818 614.834 435.602 614.028C433.655 611.689 430.038 609.867 427.331 608.28C424.711 610.009 412.293 619.882 411.275 620.118C403.324 612.291 421.256 604.039 426.651 601.088C428.924 601.932 433.572 604.006 435.764 603.32C433.826 601.472 429.495 600.246 426.817 599.288C420.783 602.101 415.318 607.01 409.564 609.324C408.958 609.568 408.402 608.714 407.804 608.098C405.958 600.082 418.058 595.717 424.211 593.4Z"/><path fill="#EB9271" d="M341.771 540.185L342.791 547.342C311.653 556.752 292.212 567.552 273.849 595.968C272.965 584.448 271.395 575.17 279.584 565.362C286.961 556.528 301.369 554.184 312.502 553.512C313.246 553.47 313.991 553.448 314.736 553.443L315.64 552.88C313.246 548.064 289.776 555.816 285.859 558.305C269.361 568.787 270.287 580.358 272.284 598.066C267.886 605.704 262.517 615.734 260.164 624.313L257.934 625.033C257.128 614.378 256.194 603.645 255.558 592.983C254.87 581.458 252.198 569.518 260.371 560.014C263.466 556.47 267.412 553.772 271.838 552.174C276.075 550.599 280.601 549.908 285.055 549.271C301.635 546.903 318.203 544.44 334.723 541.681C337.099 541.284 339.446 540.822 341.771 540.185Z"/><path fill="#EB9271" d="M320.165 556.552C344.369 590.086 338.992 644.838 317.833 678.604L315.4 677.978C319.313 654.673 316.607 612.597 310.588 590.488C308.582 583.12 304.857 574.826 301.491 567.986C306.85 564.646 314.773 559.365 320.165 556.552Z"/><path fill="#0D9074" d="M236.766 769C257.402 771.029 279.792 773.783 300.312 775.259C299.644 781.808 299.954 786.839 296.331 792.106C295.152 792.815 292.469 793.942 291.145 793.856C280.248 793.153 243.743 793.151 236.659 787.474C233.574 782.465 235.743 774.725 236.766 769Z"/><path fill="#EB9271" d="M394.284 545.607C424.799 549.808 452.602 570.879 454.987 603.241C453.758 602.129 452.514 601.032 451.255 599.953C442.358 592.352 436.113 590.414 424.697 591.3C420.142 580.791 415.279 571.298 408.796 561.798C406.008 557.711 395.027 547.958 394.284 545.607Z"/><path fill="#0D9074" d="M397.049 551.849C403.952 557.062 423.325 584.812 422.136 592.088L420.207 593.168C417.59 594.586 414.938 596.136 412.341 597.607C408.526 585.599 399.309 563.211 397.049 551.849Z"/><path fill="#F5F4ED" d="M534.069 517.456C537.469 519.156 534.049 526.594 531.816 528.683C528.307 526.389 530.479 527.031 531.329 522.982C531.777 520.846 532.786 519.179 534.069 517.456Z"/><path fill="#E28852" d="M315.4 677.978L317.833 678.604C317.359 679.42 316.272 681.447 315.473 681.883C314.83 681.591 315.334 678.631 315.4 677.978Z"/><path fill="#E28852" d="M257.934 625.033L260.164 624.313C259.807 625.19 259.076 627.798 258.347 628.214C257.68 627.9 257.907 625.64 257.934 625.033Z"/><path fill="#13100E" fill-opacity="0.94117647" d="M324.929 1010.05L326.293 1010.25C326.256 1013 325.719 1019.49 327.091 1021.29L327.659 1021.43C336.265 1023.74 341.694 1037.05 354.554 1029.34C360.708 1025.65 364.522 1020.89 371.453 1018.76C371.506 1016.28 371.464 1012.4 371.693 1010.05C372.122 1013.56 373.041 1015.01 373.119 1018.57C386.433 1019.59 387.735 1030.22 399.887 1034.87C404.562 1036.66 411.515 1036.95 416.737 1037.48C417.699 1029.09 417.374 1025.08 426.477 1022.1L426.59 1010.5L428.087 1010.36L428 1021.76C436.07 1023 433.8 1024.13 439.541 1028.21C453.775 1038.31 462.254 1022.27 473.633 1018.6L473.691 1010.38L475.47 1011.33L475.452 1013.08C475.412 1021.7 478.206 1016.54 484.194 1020.93C489.923 1025.13 492.3 1030.32 498.988 1033.48C510.262 1038.94 525.928 1035.44 534.799 1046.27C538.487 1050.77 546.317 1063.16 546.217 1069.24C546.129 1074.64 539.022 1077.12 534.376 1077.03C521.795 1076.78 509.193 1076.82 496.583 1076.85L403.851 1076.95L343.228 1076.95C333.963 1076.94 323.895 1077.09 314.626 1076.55C312.725 1076.27 309.72 1075.03 308.832 1073.25C305.659 1066.86 308.366 1062.02 313.397 1058.5C314.204 1051.55 314.181 1044.48 314.763 1037.51C315.452 1029.26 316.225 1024.93 324.498 1022.23C324.841 1018.46 324.834 1013.89 324.929 1010.05ZM316.707 1058.67C332.036 1059.82 350.186 1058.8 365.702 1059.18C369.564 1059.27 388.4 1059.34 391.573 1058.67C406.279 1058.47 423.24 1059.15 437.488 1058.23C424.357 1028.46 405.762 1045.57 392.688 1032.98C365.07 1006.39 373.302 1028.88 345.747 1033.04C335.973 1032.87 329.644 1017.24 319.494 1026.66C316.702 1029.25 314.398 1056.7 316.707 1058.67ZM524.61 1060.35L512.345 1060.38C506.935 1059.4 474.022 1059.54 468.326 1060.37C464.215 1060.37 446.162 1060.12 443.331 1060.85C442.082 1063.89 446.81 1066.07 440.467 1075.37C461.086 1075.51 481.706 1075.53 502.325 1075.42C513.944 1075.45 525.355 1075.68 537.142 1075.25C545.163 1074.95 547.398 1065.6 541.895 1061.11C540.433 1059.92 529.011 1060.33 526.302 1060.35C525.426 1059.93 525.494 1059.87 524.61 1060.35ZM439.616 1058.51C451.932 1058.65 464.25 1058.71 476.567 1058.68C497.73 1058.74 518.892 1058.69 540.055 1058.53C531.548 1035.8 515.665 1042.48 498.358 1035.18C487.718 1030.68 487.378 1019.53 472.908 1020.49L472.607 1020.61C463.627 1024.2 454.486 1037.81 443.408 1031.66C431.495 1025.05 420.052 1014.51 418.473 1037.6C428.597 1041.94 434.696 1046.06 439.025 1056.95C439.231 1057.47 439.428 1057.99 439.616 1058.51ZM335.064 1060.36C330.096 1060.37 314.506 1059.33 311.465 1062.53C309.879 1064.23 309.116 1066.54 309.374 1068.85C309.901 1073.22 314.25 1075.36 318.251 1075.42C326.378 1075.53 334.509 1075.44 342.638 1075.41L388.247 1075.36C403.577 1075.38 420.508 1075.78 435.852 1074.97C442.766 1074.61 444.894 1064.09 438.518 1060.84C437.791 1060.4 433.766 1060.42 432.706 1060.41C424.808 1059.14 393.344 1060 383.974 1059.77C377.137 1059.6 340.279 1059.39 335.064 1060.36Z"/><path fill="#181614" fill-opacity="0.74901962" d="M335.064 1060.36C340.279 1059.39 377.137 1059.6 383.974 1059.77C393.344 1060 424.808 1059.14 432.706 1060.41L335.064 1060.36Z"/><path fill="#181614" fill-opacity="0.69411767" d="M316.707 1058.67C325.078 1058.34 334.242 1058.29 342.633 1058.49C358.757 1058.86 375.521 1057.93 391.573 1058.67C388.4 1059.34 369.564 1059.27 365.702 1059.18C350.186 1058.8 332.036 1059.82 316.707 1058.67Z"/><path fill="#181614" fill-opacity="0.66274512" d="M468.326 1060.37C474.022 1059.54 506.935 1059.4 512.345 1060.38C501.224 1061.1 479.897 1060.57 468.326 1060.37Z"/><path fill="#181614" fill-opacity="0.6901961" d="M524.61 1060.35C525.494 1059.87 525.426 1059.93 526.302 1060.35C525.576 1060.42 525.338 1060.39 524.61 1060.35Z"/><path fill="#F5F4ED" fill-opacity="0.27450982" d="M206.718 498.865C210.578 498.581 218.985 497.824 215.767 504.053C211.281 504.273 202.559 505.912 206.718 498.865Z"/><path fill="#181614" fill-opacity="0.95686275" d="M202.949 480.017C202.775 476.175 202.184 471.548 205.348 469.13C219.731 458.145 216.95 485.802 217.187 490.229C226.206 490.268 237.643 489.996 246.466 490.456C245.994 499.987 246.091 509.357 246.117 518.894C238.098 518.345 225.025 518.309 216.856 518.727L217.194 551.601C217.225 557.431 217.723 563.83 216.802 569.592C216.512 571.406 216.099 572.996 214.71 574.306C213.225 575.707 211.095 576.359 209.072 576.147C207.085 575.939 205.147 574.965 203.989 573.309C201.539 569.805 202.916 526.921 202.627 518.519L181.844 518.799L181.502 528.124C174.728 523.423 167.821 518.484 160.828 514.151L161.125 511.983C165.866 515.09 173.792 521.97 179.3 519.552L180.564 517.171C182.065 516.526 184.518 515.67 186.097 515.327L187.763 514.967C189.9 514.808 189.951 514.686 191.864 515.342C196.629 516.977 205.72 515.149 210.399 515.679C219.859 516.752 226.529 517.235 235.986 517.207C239.014 517.715 241.741 518.126 244.792 517.494L244.968 513.606C246.275 509.464 246.271 502.459 244.96 498.331L244.763 492.14C238.586 492.168 181.592 492.944 179.907 491.594C179.837 489.836 180.114 487.097 179.172 486.122C174.102 487.924 159.275 497.519 155.694 502.509C155.327 503.021 154.531 506.093 154.328 506.935C154.924 507.751 155.119 508.141 155.936 508.738L155.455 510.214C153.601 509.261 148.844 505.965 146.874 504.681C151.738 501.367 177.095 483.597 180.688 482.702C181.863 484.934 181.59 487.52 181.594 490.095C185.91 490.196 198.957 490.706 202.586 489.883L203.006 488.608C203.692 484.679 203.707 483.931 202.949 480.017ZM215.672 490.22C216.707 486.844 216.071 481.136 215.363 477.652C215.203 472.203 213.625 465.078 205.379 470.862C203.974 471.847 204.293 487.091 204.506 490.093C208.456 490.047 211.714 490.066 215.672 490.22ZM215.242 519.009L204.576 518.836C204.367 526.049 203.142 567.579 205.271 572.246C207.861 574.961 210.755 574.804 214.06 573.475C215.904 568.231 215.143 527.273 215.242 519.009Z"/><path fill="#5B585A" fill-opacity="0.6901961" d="M215.363 477.652C216.071 481.136 216.707 486.844 215.672 490.22C215.107 487.121 215.272 480.993 215.363 477.652Z"/><path fill="#13100E" fill-opacity="0.96862745" d="M108.113 569.399C120.246 564.244 128.28 564.225 141.18 564.472C142.249 570.492 143.314 576.379 144.12 582.447C150.366 586.094 157.487 590.106 163.331 594.237L161.879 595.585C147.862 585.008 128.273 576.418 111.07 572.259C113.476 580.816 119.991 593.942 125.373 601.039C129.482 599.836 140.768 595.8 144.059 597.192C143.789 599.601 140.665 601.974 138.788 603.561C137.835 601.466 139.882 601.442 140.016 599.488C140.113 598.075 136.194 599.534 135.764 599.668C132.087 600.708 128.453 602.046 124.846 603.316C117.489 594.966 111.248 580.082 108.113 569.399ZM129.63 576.215C133.8 578.085 137.931 579.35 142.059 581.078C141.219 576.094 140.233 571.32 139.375 566.363C136.659 566.168 134.359 565.931 131.609 565.978C127.757 566.232 119.113 566.286 116.327 568.935C113.286 571.827 119.675 572.811 121.754 572.464C125.681 571.807 127.294 573.71 129.63 576.215Z"/><path fill="#13100E" fill-opacity="0.96862745" d="M155.523 583.745C154.959 578.586 154.096 572.084 153.941 567.011C177.739 573.456 200.136 584.179 183.364 612.282C190.428 620.517 196.094 629.627 199.146 640.083L198.832 640.385C192.051 630.814 191.533 625.272 182.09 613.87C180.666 615.201 178.826 617.015 177.36 618.206C176.642 618.287 176.648 618.351 176.421 619.016C165.083 627.139 151.833 625.19 140.224 619.038L139.999 617.015C155.271 625.487 168.532 625.539 181.082 612.528C175.603 606.798 169.715 601.471 163.466 596.591L164.103 594.742C170.494 599.321 176.465 605.322 182.059 610.86C188.1 600.942 190.151 592.306 182.632 582.814C182.338 582.133 182.202 581.98 181.514 581.724L180.374 580.594C180.219 580.324 180.064 580.053 179.909 579.783C179.687 579.728 179.821 579.735 179.491 579.797C173.619 575.663 169.1 573.458 162.113 571.4C162.711 577.12 163.504 583.401 163.927 589.087C161.185 587.319 158.318 585.399 155.523 583.745ZM156.998 582.453C159.02 583.712 160.198 584.383 162.168 585.792C161.254 582.368 160.694 577.54 160.33 574.021C159.867 569.541 160.105 570.9 155.762 569.542C156.215 573.916 156.496 577.996 156.998 582.453Z"/><path fill="#1B1910" d="M638.508 503.627C641.862 502.813 643.3 503.127 646.663 502.929C650.018 507.055 653.398 511.166 656.506 515.479C661.592 522.535 657.756 525.903 649.947 524.089C649.349 524.148 648.752 524.216 648.156 524.294C647.972 523.663 647.806 523.076 647.595 522.453C647.66 520.68 647.742 520.527 647.059 518.975C647.017 518.379 646.974 518.318 647.085 517.77C644.099 513.175 640.769 508.661 638.017 504.385L638.508 503.627Z"/><defs><linearGradient id="gradient_0" gradientUnits="userSpaceOnUse" x1="475.35794" y1="570.72919" x2="471.3121" y2="576.88977"><stop offset="0" stop-color="#FFFFFE" stop-opacity="0.16470589"/><stop offset="1" stop-color="white" stop-opacity="0.22352941"/></linearGradient></defs><path fill="url(#gradient_0)" d="M468.428 573.977C460.522 567.808 464.7 561.137 471.353 565.389C471.775 565.658 473.023 569.849 473.442 570.932C476.758 571.682 486.031 572.457 485.031 577.852C484.313 581.725 480.973 582.039 477.628 582.275C474.706 580.729 470.545 576.679 468.428 573.977Z"/><path fill="#F5F4ED" fill-opacity="0.23921569" d="M171.311 500.055C174.542 498.15 173.378 498.201 176.393 499.259C176.372 499.294 177.22 493.673 179.55 495.928C179.655 496.559 179.004 496.641 179.207 497.437C181.637 499.257 182.856 495.549 183.48 499.042C184.239 499.396 187.501 499.667 187.386 501.432C187.321 502.434 183.221 503.382 182.483 504.149C180.968 505.627 181.204 506.909 179.287 507.923C176.774 505.793 176.286 510.269 176.398 511.954C175.256 512.363 174.72 513.151 173.554 512.775C173.289 512.298 171.159 507.022 171.169 506.928C171.579 502.781 166.294 501.711 171.311 500.055C169.999 502.715 170.935 502.732 172.892 504.857C173.519 501.655 174.604 500.519 171.311 500.055Z"/><path fill="#F7F5F1" fill-opacity="0.050980393" d="M467.619 577.773C466.973 575.51 466.511 576.293 465.772 574.876L465.866 574.776C465.901 573.681 459.826 566.078 460.55 565.104C463.552 561.066 472.922 561.966 475.412 566.993C477.595 571.402 492.341 570.076 487.827 580.825C486.627 583.683 479.909 583.828 477.26 583.561C477.337 583.159 477.389 582.568 477.628 582.275C480.973 582.039 484.313 581.725 485.031 577.852C486.031 572.457 476.758 571.682 473.442 570.932C473.023 569.849 471.775 565.658 471.353 565.389C464.7 561.137 460.522 567.808 468.428 573.977C468.516 576.11 468.571 576.32 468.106 578.407L467.619 577.773Z"/><path fill="#F5F4ED" fill-opacity="0.45490196" d="M631.423 525.157C632.933 525.75 633.135 525.325 634.71 525.426L635.162 525.696C638.194 527.475 637.289 527.012 638.723 530.441C635.75 530.468 632.776 530.452 629.803 530.395C629.607 528.269 629.855 527.51 630.123 525.418L631.423 525.157Z"/><path fill="#F7F5F1" fill-opacity="0.98431373" d="M634.71 525.426C635.879 524.566 637.71 522.525 638.983 522.951L641.428 525.427C642.157 526.832 642.903 528.227 643.663 529.615C641.624 530.799 641.278 530.323 638.723 530.441C637.289 527.012 638.194 527.475 635.162 525.696L634.71 525.426Z"/><path fill="#F7F5F1" fill-opacity="0.16078432" d="M468.428 573.977C470.545 576.679 474.706 580.729 477.628 582.275C477.389 582.568 477.337 583.159 477.26 583.561L476.585 585.394C474.817 583.988 469.319 579.737 468.106 578.407C468.571 576.32 468.516 576.11 468.428 573.977Z"/><path fill="#F7F5F1" fill-opacity="0.062745102" d="M401.101 537.664C401.71 536.277 402.58 531.334 404.77 531.953C405.089 532.903 404.436 533.725 404.461 534.67C406.024 535.627 406.799 534.472 410.367 537.85C409.226 540.521 407.441 536.017 403.078 539.359C401.831 538.841 401.913 538.771 401.101 537.664Z"/><path fill="#13100E" fill-opacity="0.95686275" d="M129.92 609.801C132.021 607.634 133.981 605.837 136.104 603.745L136.537 605.892C135.086 607.186 133.622 608.715 132.288 610.138C134.696 612.556 136.332 614.25 139.16 616.246L138.467 618.084C134.816 615.071 133.105 613.353 129.92 609.801Z"/><path fill="#F7F5F1" fill-opacity="0.039215688" d="M647.059 518.975C647.742 520.527 647.66 520.68 647.595 522.453C643.797 523.369 643.453 524.403 640.331 522.458L639.996 522.253C639.817 521.383 639.634 520.534 639.496 519.656C642.662 519.071 643.848 519.08 647.059 518.975Z"/><path fill="#D4D0D1" fill-opacity="0.06666667" d="M410.766 789.437C410.878 791.039 411.001 792.64 411.135 794.24C411.043 795.182 410.986 795.166 411.365 796.018C411.692 800.821 412.46 806.021 412.495 810.652C411.685 812.369 411.651 814.039 411.082 816.111C411.078 812.538 410.938 809.653 410.811 806.106C410.872 804.177 411.194 801.826 410.504 800.102C410.375 798.405 410.298 797.203 409.988 795.516C410.205 793.28 410.373 791.644 410.766 789.437Z"/><path fill="#312E2B" fill-opacity="0.8509804" d="M135.764 599.668C136.194 599.534 140.113 598.075 140.016 599.488C139.882 601.442 137.835 601.466 138.788 603.561C137.978 604.638 137.524 604.986 136.537 605.892L136.104 603.745C136.546 601.809 135.089 603.505 135.764 599.668Z"/><path fill="#B1AFA8" fill-opacity="0.17254902" d="M411.409 773.256L411.426 774.242C408.834 777.002 410.123 781.596 410.568 785.438L409.673 789.21C409.398 786.088 407.447 775.728 409.972 774.143L411.409 773.256Z"/><path fill="#181614" fill-opacity="0.98039216" d="M639.996 522.253L640.331 522.458C643.453 524.403 643.797 523.369 647.595 522.453C647.806 523.076 647.972 523.663 648.156 524.294C645.616 525.055 644.012 525.11 641.428 525.427L638.983 522.951L639.996 522.253Z"/><path fill="#F5F4ED" fill-opacity="0.74509805" d="M176.398 511.954C176.286 510.269 176.774 505.793 179.287 507.923C179.118 510.17 179.186 511.116 179.326 513.357C178.82 514.099 178.828 514.008 177.971 514.477C177.45 513.622 176.951 512.789 176.398 511.954Z"/><path fill="#F7F5F1" fill-opacity="0.062745102" d="M179.326 513.357C181.548 515.92 183.996 514.783 187.763 514.967L186.097 515.327C184.518 515.67 182.065 516.526 180.564 517.171C178.874 516.095 178.274 516.351 177.971 514.477C178.828 514.008 178.82 514.099 179.326 513.357Z"/><path fill="#312E2B" fill-opacity="0.97647059" d="M627.544 502.623C629.422 502.602 630.863 502.596 632.742 502.747C635.107 503.279 636.112 503.423 638.508 503.627L638.017 504.385C634.931 503.987 633.129 504.336 630.106 504.741C628.646 504.379 628.5 503.742 627.544 502.623Z"/><path fill="#F5F4ED" fill-opacity="0.33725491" d="M627.335 530.432C627.393 527.121 626.195 523.973 630.123 525.418C629.855 527.51 629.607 528.269 629.803 530.395L627.335 530.432Z"/><path fill="#13100E" fill-opacity="0.7019608" d="M244.96 498.331C246.271 502.459 246.275 509.464 244.968 513.606C244.783 508.516 244.78 503.421 244.96 498.331Z"/><path fill="#312E2B" fill-opacity="0.87450981" d="M647.085 517.77C646.974 518.318 647.017 518.379 647.059 518.975C643.848 519.08 642.662 519.071 639.496 519.656L639.406 518.342C642.668 517.679 643.797 517.737 647.085 517.77Z"/><path fill="#F5F4ED" fill-opacity="0.44313726" d="M171.311 500.055C174.604 500.519 173.519 501.655 172.892 504.857C170.935 502.732 169.999 502.715 171.311 500.055Z"/><path fill="#413E3C" fill-opacity="0.81176472" d="M155.936 508.738C157.659 509.541 158.132 509.741 159.616 510.976L158.913 513.009C157.539 511.735 156.961 511.282 155.455 510.214L155.936 508.738Z"/><path fill="#969593" fill-opacity="0.41176471" d="M410.568 785.438C410.828 787.253 410.865 787.599 410.766 789.437C410.373 791.644 410.205 793.28 409.988 795.516C409.669 793.213 409.427 791.561 409.673 789.21L410.568 785.438Z"/><path fill="#413E3C" fill-opacity="0.83137256" d="M632.742 502.747C636.054 502.682 643.542 502.505 646.663 502.929C643.3 503.127 641.862 502.813 638.508 503.627C636.112 503.423 635.107 503.279 632.742 502.747Z"/><path fill="#312E2B" fill-opacity="0.56470591" d="M235.986 517.207C239.426 517.081 241.391 517.009 244.792 517.494C241.741 518.126 239.014 517.715 235.986 517.207Z"/><path fill="#312E2B" fill-opacity="0.627451" d="M202.949 480.017C203.707 483.931 203.692 484.679 203.006 488.608C202.838 485.404 202.837 483.222 202.949 480.017Z"/><path fill="#312E2B" fill-opacity="0.83529413" d="M163.331 594.237C163.588 594.405 163.845 594.574 164.103 594.742L163.466 596.591C162.932 596.263 162.403 595.928 161.879 595.585L163.331 594.237Z"/><path fill="#B1AFA8" fill-opacity="0.41176471" d="M410.504 800.102C411.194 801.826 410.872 804.177 410.811 806.106C410.413 803.692 410.105 802.559 410.504 800.102Z"/><path fill="#413E3C" fill-opacity="0.82352942" d="M160.22 511.403L161.125 511.983L160.828 514.151C160.552 513.899 160.236 513.551 159.971 513.275L160.22 511.403Z"/><path fill="#312E2B" fill-opacity="0.81568629" d="M139.16 616.246C139.404 616.465 139.785 616.785 139.999 617.015L140.224 619.038C139.612 618.717 139.069 618.427 138.467 618.084L139.16 616.246Z"/><path fill="#312E2B" fill-opacity="0.95686275" d="M159.616 510.976L160.22 511.403L159.971 513.275L158.913 513.009L159.616 510.976Z"/><path fill="#969593" fill-opacity="0.50588238" d="M411.135 794.24C411.543 795.007 411.431 795.102 411.365 796.018C410.986 795.166 411.043 795.182 411.135 794.24Z"/><path fill="#413E3C" fill-opacity="0.78039217" d="M176.421 619.016C176.648 618.351 176.642 618.287 177.36 618.206C176.935 618.769 177.059 618.637 176.421 619.016Z"/><path fill="#5B585A" fill-opacity="0.67450982" d="M181.514 581.724C182.202 581.98 182.338 582.133 182.632 582.814C181.935 582.393 181.96 582.405 181.514 581.724Z"/><path fill="#413E3C" fill-opacity="0.78823531" d="M179.491 579.797C179.821 579.735 179.687 579.728 179.909 579.783C180.064 580.053 180.219 580.324 180.374 580.594C180.03 580.303 179.803 580.126 179.491 579.797Z"/></svg>