<?xml version="1.0" encoding="utf-8" ?><svg xmlns="http://www.w3.org/2000/svg" xmlns:xlink="http://www.w3.org/1999/xlink" width="768" height="1344" viewBox="0 0 768 1344"><path fill="#050505" d="M288.598 626.381C287.274 609.372 280.922 605.006 298.474 598.392C299.554 596.383 300.614 592.312 302.914 591.28C308.924 588.581 315.866 588.896 322.384 588.057C340.048 585.784 354.255 585.92 346.677 608.612C355.22 618.286 354.137 634.511 351.576 646.128C348.222 654.649 344.54 660.007 335.865 663.734C334.723 664.221 333.57 664.684 332.408 665.122C332.433 666.739 332.528 668.69 332.345 670.266C341.359 672.305 348.584 676.868 353.53 684.801C363.264 700.416 375.364 750.228 383.046 758.087C384.452 746.107 389.719 735.784 399.334 728.128C399.74 727.805 400.158 727.497 400.587 727.205L402.015 727.71C406.723 729.549 416.37 735.58 421.333 738.427C418.538 738.98 416.382 739.166 414.122 740.889C417.986 741.28 449.92 733.403 455.878 732.001C459.104 728.101 461.71 724.365 466.307 721.973C475.234 717.328 485.023 719.651 488.366 729.794C488.811 731.408 488.076 731.839 489.88 731.826C490.187 735.204 488.643 750.036 486.138 753.113C484.469 755.164 482.125 756.052 479.615 756.639C470.535 767.645 469.603 756.649 460.82 760.245C451.789 762.677 439.154 766.657 430.438 769.952L427.043 779.61C426.15 776.846 427.563 773.862 428.47 770.71C418.767 773.91 412.656 776.557 402.169 775.701C400.979 791.761 409.685 789.53 410.08 793.749L409.677 794.106C405.215 792.424 411.186 799.117 412.228 800.681C411.962 800.584 411.697 800.487 411.431 800.39C412.56 800.954 417.851 802.301 419.494 802.8L420.179 802.68L420.932 803.459C427.254 807.133 443.37 821.235 446.005 828.918C446.605 830.665 445.441 833.193 444.261 834.506C439.173 840.166 444.03 843.747 435.552 846.56C434.395 847.536 434.303 847.492 433.892 848.872C433.26 849.277 432.783 849.593 432.04 849.793C428.442 850.761 422.275 856.92 418.266 853.864C405.678 844.272 395.79 830.93 382.908 821.554C382.025 820.911 381.44 822.847 379.21 823.351C371.812 815.566 359.538 797.059 352.154 787.572C351.428 796.595 349.142 809.758 349.287 818.2C348.5 820.332 347.665 822.637 347.148 824.892C346.538 827.549 346.372 844.214 345.038 845.33C342.395 841.031 341.906 838.928 339.779 834.975C338.69 832.592 331.988 816.379 331.343 815.956C330.205 816.16 331.134 819.061 331.42 819.666C333.897 824.9 336.317 830.163 338.68 835.452C339.86 838.336 342.377 843.683 343.842 846.552C356.25 873.104 371.777 909.853 379.048 937.914C380.389 942.171 382.035 946.854 383.207 951.053C384.021 953.832 385.033 957.361 386.088 960.023C386.833 962.555 387.702 965.131 388.393 967.629C389.064 969.277 389.519 970.886 390.125 972.562C390.763 975.069 391.545 977.537 392.465 979.955C393.179 981.691 394.494 987.027 394.998 989.023C396.55 989.623 396.339 989.476 397.894 989.032C399.192 990.365 401.333 993.797 402.593 995.56C398.288 997.788 389.737 1001.98 385.183 999.807L384.231 1000.69C372.355 1007.4 371.643 1015.7 362.01 1025.36C360.253 1021.35 359.578 1018.78 358.265 1014.64L357.067 1015.44C351.45 1016.82 345.806 1017.39 343.409 1010.76C339.909 1001.08 337.301 991.017 334.427 981.118L316.004 916.796L315.437 915.196L314.116 911.567C313.568 911.446 313.445 911.578 312.952 911.902C311.094 922.18 288.189 943.571 279.979 951.583C266.814 964.433 252.478 978.768 238.738 991.187C237.936 991.912 235.602 991.306 234.545 990.982L233.556 990.594L226.585 998.033C219.79 995.542 219.667 996.195 212.995 995.588C205.335 994.892 199.095 984.032 194.752 978.12C198.873 974.359 202.718 970.533 207.5 967.623L206.083 965.983C205.9 964.358 201.934 957.329 200.876 953.081C206.457 947.73 251.436 903.898 253.822 903.172C254.564 901.545 255.701 900.681 257.005 899.432L257.405 898.018C257.576 872.625 258.895 845.075 259.601 819.466L250.481 818.503C241.218 818.313 230.127 816.784 220.391 816.336C224.673 806.747 230.604 795.288 235.256 785.577C223.085 782.411 208.504 782.943 202.032 769.743C199.091 763.792 198.536 756.145 201.198 749.894C208.289 733.242 216.479 716.774 224.054 700.309C225.957 696.173 229.011 691.611 231.952 688.222C236.524 682.953 242.784 680.139 248.915 677.145C247.221 675.111 243.761 670.923 243.508 668.503C240.385 638.62 281.445 660.384 296.277 657.759C297.478 657.546 298.94 656.308 299.129 655.48C301.269 646.102 294.883 649.403 289.342 646.566C281.242 641.173 283.017 632.818 288.598 626.381ZM338.538 678.02C328.966 692.852 307.617 679.687 302.6 681.985C302.09 683.228 301.852 684.321 302.262 685.631C305.607 696.306 308.075 706.889 308.69 718.177C313.424 721.421 316.011 723.333 317.064 729.446C318.255 736.358 317.541 747.862 313.435 753.831C311.309 756.92 308.359 757.167 304.98 757.762C302.43 765.95 302.288 774.699 300.324 782.54C300.08 784.03 299.9 785.437 299.594 786.926L298.499 785.7C296.385 795.868 293.914 809.549 292.392 819.918C280.321 819.215 265.56 818.739 253.739 817.385L250.481 818.503L259.601 819.466C258.895 845.075 257.576 872.625 257.405 898.018L257.005 899.432C255.701 900.681 254.564 901.545 253.822 903.172C251.436 903.898 206.457 947.73 200.876 953.081C201.934 957.329 205.9 964.358 206.083 965.983L207.5 967.623C202.718 970.533 198.873 974.359 194.752 978.12C199.095 984.032 205.335 994.892 212.995 995.588C219.667 996.195 219.79 995.542 226.585 998.033L233.556 990.594L234.545 990.982C235.602 991.306 237.936 991.912 238.738 991.187C252.478 978.768 266.814 964.433 279.979 951.583C288.189 943.571 311.094 922.18 312.952 911.902C313.445 911.578 313.568 911.446 314.116 911.567L315.437 915.196L316.004 916.796L334.427 981.118C337.301 991.017 339.909 1001.08 343.409 1010.76C345.806 1017.39 351.45 1016.82 357.067 1015.44L358.265 1014.64C359.578 1018.78 360.253 1021.35 362.01 1025.36C371.643 1015.7 372.355 1007.4 384.231 1000.69L385.183 999.807C389.737 1001.98 398.288 997.788 402.593 995.56C401.333 993.797 399.192 990.365 397.894 989.032C396.339 989.476 396.55 989.623 394.998 989.023C394.494 987.027 393.179 981.691 392.465 979.955C391.545 977.537 390.763 975.069 390.125 972.562C389.519 970.886 389.064 969.277 388.393 967.629C387.702 965.131 386.833 962.555 386.088 960.023C385.033 957.361 384.021 953.832 383.207 951.053C382.035 946.854 380.389 942.171 379.048 937.914C371.777 909.853 356.25 873.104 343.842 846.552C342.377 843.683 339.86 838.336 338.68 835.452C336.317 830.163 333.897 824.9 331.42 819.666C331.134 819.061 330.205 816.16 331.343 815.956C331.988 816.379 338.69 832.592 339.779 834.975C341.906 838.928 342.395 841.031 345.038 845.33C346.372 844.214 346.538 827.549 347.148 824.892C347.665 822.637 348.5 820.332 349.287 818.2L348.348 818.559L347.442 819.893C344.701 820.626 339.755 820.335 336.753 820.292C337.061 813.075 337.689 805.266 338.149 798.016C337.913 792.777 338.105 788.441 337.93 783.475L337.442 783.291C336.702 773.975 337.585 756.452 337.567 746.706C337.526 723.99 338.627 700.687 338.538 678.02ZM312.117 681.739C316.776 683.326 317.744 682.894 322.276 683.294C325.411 681.01 327.651 680.058 323.059 678.456C319.292 678.473 317.316 678.078 313.643 677.215C313.106 678.713 312.597 680.222 312.117 681.739ZM321.686 628.638C323.347 624.666 325.543 622.431 319.504 621.117C319.402 622.19 319.548 630.843 321.686 628.638ZM396.387 777.96C400.652 784.15 399.539 782.269 401.14 776.219C400.458 774.462 394.25 772.44 392.147 771.489C393.604 773.622 394.98 775.796 396.387 777.96Z"/><path fill="#2D3637" d="M337.442 783.291L337.93 783.475C338.105 788.441 337.913 792.777 338.149 798.016C337.689 805.266 337.061 813.075 336.753 820.292C339.755 820.335 344.701 820.626 347.442 819.893L348.348 818.559L349.287 818.2C348.5 820.332 347.665 822.637 347.148 824.892C346.538 827.549 346.372 844.214 345.038 845.33C342.395 841.031 341.906 838.928 339.779 834.975C338.69 832.592 331.988 816.379 331.343 815.956C330.205 816.16 331.134 819.061 331.42 819.666C333.897 824.9 336.317 830.163 338.68 835.452C339.86 838.336 342.377 843.683 343.842 846.552C356.25 873.104 371.777 909.853 379.048 937.914C380.389 942.171 382.035 946.854 383.207 951.053C384.021 953.832 385.033 957.361 386.088 960.023C386.833 962.555 387.702 965.131 388.393 967.629C389.064 969.277 389.519 970.886 390.125 972.562C390.763 975.069 391.545 977.537 392.465 979.955C393.179 981.691 394.494 987.027 394.998 989.023C396.55 989.623 396.339 989.476 397.894 989.032C399.192 990.365 401.333 993.797 402.593 995.56C398.288 997.788 389.737 1001.98 385.183 999.807L384.231 1000.69C372.355 1007.4 371.643 1015.7 362.01 1025.36C360.253 1021.35 359.578 1018.78 358.265 1014.64L357.067 1015.44C351.45 1016.82 345.806 1017.39 343.409 1010.76C339.909 1001.08 337.301 991.017 334.427 981.118L316.004 916.796L315.437 915.196L314.116 911.567C313.568 911.446 313.445 911.578 312.952 911.902C311.094 922.18 288.189 943.571 279.979 951.583C266.814 964.433 252.478 978.768 238.738 991.187C237.936 991.912 235.602 991.306 234.545 990.982L233.556 990.594L226.585 998.033C219.79 995.542 219.667 996.195 212.995 995.588C205.335 994.892 199.095 984.032 194.752 978.12C198.873 974.359 202.718 970.533 207.5 967.623L206.083 965.983C205.9 964.358 201.934 957.329 200.876 953.081C206.457 947.73 251.436 903.898 253.822 903.172C254.564 901.545 255.701 900.681 257.005 899.432L257.405 898.018C257.576 872.625 258.895 845.075 259.601 819.466L250.481 818.503L253.739 817.385C265.56 818.739 280.321 819.215 292.392 819.918C293.914 809.549 296.385 795.868 298.499 785.7L299.594 786.926L298.914 793.388C311.068 793.261 324.654 793.913 336.962 794.141C337.298 790.857 337.326 786.657 337.442 783.291ZM266.944 901.88C275.872 906.02 273.079 902.625 266.818 900.211L266.944 901.88ZM393.099 998.092C395.981 995.881 397.391 994.348 396.144 990.692C393.798 993.05 392.211 994.674 393.099 998.092ZM283.035 868.155C283.954 869.74 288.746 877.099 289.785 878.398C292.016 881.992 302.063 897.577 306.102 901.395C306.192 901.48 306.265 901.368 306.375 901.25C306.188 899.9 292.519 880.472 290.911 877.977C289.102 875.077 286.375 870.876 284.448 868.062C278.013 858.243 269.038 844.84 265.134 833.789C264.38 831.655 263.752 822.851 263.549 820.167L262.555 820.171C262.345 820.464 261.959 820.987 261.935 821.354C260.891 837.193 275.409 856.13 283.035 868.155Z"/><path fill="#E4E4E5" fill-opacity="0.6156863" d="M266.818 900.211C273.079 902.625 275.872 906.02 266.944 901.88L266.818 900.211Z"/><path fill="#DE9D87" d="M207.5 967.623C209.925 971.646 220.3 981.101 224.418 983.861C226.875 985.508 231.624 988.622 233.556 990.594L226.585 998.033C219.79 995.542 219.667 996.195 212.995 995.588C205.335 994.892 199.095 984.032 194.752 978.12C198.873 974.359 202.718 970.533 207.5 967.623Z"/><path fill="#DE9D87" d="M354.047 1001.96C358.436 998.405 372.013 987.559 378.776 988.324C380.382 988.505 383.084 997.954 384.034 1000.23L384.231 1000.69C372.355 1007.4 371.643 1015.7 362.01 1025.36C360.253 1021.35 359.578 1018.78 358.265 1014.64C357.045 1010.02 355.641 1006.4 354.047 1001.96Z"/><path fill="#FEFEFE" d="M394.998 989.023C396.55 989.623 396.339 989.476 397.894 989.032C399.192 990.365 401.333 993.797 402.593 995.56C398.288 997.788 389.737 1001.98 385.183 999.807C387.894 996.769 388.796 997.016 391.6 994.398C392.968 993.12 393.696 990.836 394.718 989.409L394.998 989.023ZM393.099 998.092C395.981 995.881 397.391 994.348 396.144 990.692C393.798 993.05 392.211 994.674 393.099 998.092Z"/><path fill="#FEFEFE" fill-opacity="0.019607844" d="M396.144 990.692C397.391 994.348 395.981 995.881 393.099 998.092C392.211 994.674 393.798 993.05 396.144 990.692Z"/><path fill="#E4E4E5" d="M313.182 910.81C314.826 908.87 324.595 898.827 326.949 899.761L327.104 900.129C326.694 900.612 315.092 910.864 314.116 911.567C313.568 911.446 313.445 911.578 312.952 911.902C311.254 910.928 306.035 903.456 306.57 902.282C308.148 901.553 312.321 909.439 313.182 910.81Z"/><path fill="#E4E4E5" d="M315.437 915.196C317.258 913.673 328.727 904.73 330.574 906.51C330.605 906.295 317.944 915.051 316.004 916.796L315.437 915.196Z"/><path fill="#E4E4E5" d="M253.822 903.172C258.198 902.896 265.518 906.912 268.618 909.58C266.318 910.102 255.965 904.58 253.822 903.172Z"/><path fill="#E4E4E5" d="M257.405 898.018C260.812 898.605 263.505 898.996 266.818 900.211L266.944 901.88C263.232 900.615 260.878 900.101 257.005 899.432L257.405 898.018Z"/><path fill="#E4E4E5" fill-opacity="0.062745102" d="M283.035 868.155C275.409 856.13 260.891 837.193 261.935 821.354C261.959 820.987 262.345 820.464 262.555 820.171L263.549 820.167C263.752 822.851 264.38 831.655 265.134 833.789C269.038 844.84 278.013 858.243 284.448 868.062L283.035 868.155Z"/><path fill="#E4E4E5" fill-opacity="0.086274512" d="M290.911 877.977C292.519 880.472 306.188 899.9 306.375 901.25C306.265 901.368 306.192 901.48 306.102 901.395C302.063 897.577 292.016 881.992 289.785 878.398L290.911 877.977Z"/><path fill="#E4E4E5" fill-opacity="0.28235295" d="M283.035 868.155L284.448 868.062C286.375 870.876 289.102 875.077 290.911 877.977L289.785 878.398C288.746 877.099 283.954 869.74 283.035 868.155Z"/><path fill="#DE9D87" d="M455.878 732.001C459.104 728.101 461.71 724.365 466.307 721.973C475.234 717.328 485.023 719.651 488.366 729.794C488.811 731.408 488.076 731.839 489.88 731.826C490.187 735.204 488.643 750.036 486.138 753.113C484.469 755.164 482.125 756.052 479.615 756.639L478.745 755.829C475.348 755.496 473.993 755.264 470.703 754.392C467.723 755.86 464.466 757.608 461.317 758.561C444.09 762.949 424.595 772.096 407.066 774.11C401.404 774.339 394.107 772.311 390.19 768.211C376.532 753.918 391.465 738.175 402.015 727.71C406.723 729.549 416.37 735.58 421.333 738.427C418.538 738.98 416.382 739.166 414.122 740.889C417.986 741.28 449.92 733.403 455.878 732.001Z"/><path fill="#150E0D" d="M478.745 755.829C497.016 749.192 473.876 747.549 469.311 747.089C468.779 747.036 469.121 745.09 471.035 745.467C472.793 745.814 475.694 745.889 477.535 746.135C478.807 745.949 485.573 748.5 486.093 747.595C490.714 739.552 476.571 737.838 471.554 738.12C470.353 738.187 470.082 737.638 470.126 736.958C471.353 735.294 482.831 737.354 484.513 738.905C487.363 741.535 488.003 738.177 487.589 735.386C486.546 728.367 472.62 730.392 470.88 729.225C471.15 726.577 477.806 728.548 478.942 728.335C483.331 727.516 486.602 733.796 488.366 729.794C488.811 731.408 488.076 731.839 489.88 731.826C490.187 735.204 488.643 750.036 486.138 753.113C484.469 755.164 482.125 756.052 479.615 756.639L478.745 755.829Z"/><path fill="#088D73" d="M291.438 758.405C292.482 758.936 294.732 760.416 295.265 760.617C298.088 761.682 301.198 760.677 302.389 763.822L301.785 766.772C301.818 767.442 301.795 767.407 301.523 768.029L301.15 770.582C300.727 771.381 300.821 771.49 300.813 772.434L300.46 775.216C300.166 775.699 300.239 775.791 300.228 776.387C299.874 777.998 299.503 779.955 299.052 781.509L300.324 782.54C300.08 784.03 299.9 785.437 299.594 786.926L298.499 785.7C296.385 795.868 293.914 809.549 292.392 819.918C280.321 819.215 265.56 818.739 253.739 817.385L250.481 818.503L248.782 816.922L244.586 816.867C243.633 816.303 243.549 816.449 242.394 816.581L237.369 816.236C236.153 815.563 235.941 815.705 234.552 815.895L228.18 815.566C226.812 814.793 225.373 815.091 223.74 815.104L223.398 814.667C223.261 812.605 242.841 774.89 245.036 770.715C253.182 769.64 260.105 768.03 267.999 765.872C263.388 771.966 250.503 788.367 247.14 794.331C251.881 792.296 266.732 771.069 269.536 765.815C272.712 765.217 287.243 759.832 291.438 758.405Z"/><path fill="#0A4A43" d="M299.052 781.509L300.324 782.54C300.08 784.03 299.9 785.437 299.594 786.926L298.499 785.7C298.584 783.891 298.665 783.317 299.052 781.509Z"/><path fill="#0A4A43" d="M248.782 816.922C250.671 817.018 251.873 817.095 253.739 817.385L250.481 818.503L248.782 816.922Z"/><path fill="#0A4A43" d="M301.785 766.772C301.818 767.442 301.795 767.407 301.523 768.029C301.546 767.414 301.457 767.232 301.785 766.772Z"/><path fill="#DE9D87" d="M308.909 605.122C309.516 606.134 310.824 608.414 311.819 608.894C320.262 612.967 338.742 604.67 346.004 609.31L346.677 608.612C355.22 618.286 354.137 634.511 351.576 646.128L350.563 645.124C347.378 652.613 343.71 658.338 336.277 661.944C326.687 666.597 316.583 658.808 313.345 659.35C314.212 665.484 326.379 669.354 331.552 671.16L332.305 671.911L332.257 673.209C330.293 675.292 326.592 676.152 323.824 676.267C313.352 676.703 307.518 673.443 300.168 666.961C300.695 660.198 300.717 653.204 300.835 646.406C296.603 647.175 294.042 647.059 289.928 646.002C280.537 634.935 287.43 621.245 301.051 628.638C303.035 621.488 306.585 612.689 308.909 605.122ZM321.686 628.638C323.347 624.666 325.543 622.431 319.504 621.117C319.402 622.19 319.548 630.843 321.686 628.638Z"/><path fill="#150E0D" d="M346.677 608.612C355.22 618.286 354.137 634.511 351.576 646.128L350.563 645.124C352.982 636.923 352.254 625.011 349.407 616.972C348.467 614.319 347.113 612.279 346.194 609.828L346.004 609.31L346.677 608.612Z"/><path fill="#050505" d="M323.12 640.169C326.83 640.032 336.781 639.309 339.559 640.784C342.053 642.108 336.813 650.102 335.424 651.559C321.4 657.016 318.059 641.064 323.12 640.169Z"/><path fill="#DE9D87" d="M323.969 645.588C326.8 645.683 333.377 646.739 333.1 650.495C328.188 651.436 324.295 651.317 323.969 645.588Z"/><path fill="#150E0D" d="M292.166 631.218C306.748 632.141 297.842 644.155 291.118 639.393C291.478 636.852 300.848 640.195 297.514 634.119C296.596 632.447 293.085 633.458 291.894 633.406C291.502 632.905 291.725 632.433 291.929 631.885L292.166 631.218Z"/><path fill="#050505" d="M331.206 625.846C336.032 628.736 337.959 633.542 333.837 637.949C333.347 637.739 330.204 636.339 331.968 635.473C335.331 633.821 332.12 628.539 331.206 625.846Z"/><path fill="#050505" d="M339.236 620.246C343.774 622.41 342.982 624.833 341.014 628.815C336.524 627.719 338.283 623.417 339.236 620.246Z"/><path fill="#050505" fill-opacity="0.98039216" d="M319.504 621.117C325.543 622.431 323.347 624.666 321.686 628.638C319.548 630.843 319.402 622.19 319.504 621.117Z"/><path fill="#150E0D" d="M337.042 610.818C339.109 611.057 341.263 611.416 342.537 613.335C342.722 613.613 343.618 615.318 342.666 615.294C341.87 615.274 340.372 613.303 339.743 612.648C335.39 612.782 336.144 614.167 333.676 614.525C330.291 615.016 337.13 610.765 337.042 610.818Z"/><path fill="#150E0D" d="M317.829 612.138C319.292 612.33 323.012 612.809 322.97 614.84C322.28 615.592 319.331 614.371 318.257 614.126C311.863 619.904 313.896 615.506 317.829 612.138Z"/><path fill="#088D73" d="M341.087 675.404C352.942 681.996 356.689 691.261 357.328 704.341C353.431 700.838 350.036 698.298 345.832 695.157C348.652 691.071 350.607 688.371 352.766 683.887C348.828 687.51 345.904 690.586 343.135 695.306C347.642 699.188 352.448 703.465 357.675 706.329C358.196 727.378 356.28 744.178 353.565 764.959C352.423 773.695 351.853 782.748 350.592 791.42C350.116 793.544 349.935 793.984 350.036 796.188L349.756 798.826C349.105 800.439 349.181 800.898 349.377 802.604L349.027 805.442C348.612 806.17 348.723 806.269 348.777 807.156L348.58 809.783C348.109 811.946 347.739 812.692 348.103 814.892L348.348 818.559L347.442 819.893C344.701 820.626 339.755 820.335 336.753 820.292C337.061 813.075 337.689 805.266 338.149 798.016C337.913 792.777 338.105 788.441 337.93 783.475C337.818 779.415 338.053 773.765 338.639 769.763C337.868 748.895 339.253 721.779 339.472 700.482C340.043 695.894 340.17 692.933 339.945 688.334C339.976 682.91 340.17 680.75 341.087 675.404Z"/><path fill="#0C685D" d="M338.639 769.763C339.11 774.831 338.783 792.83 338.149 798.016C337.913 792.777 338.105 788.441 337.93 783.475C337.818 779.415 338.053 773.765 338.639 769.763Z"/><path fill="#0A4A43" d="M339.945 688.334C340.17 692.933 340.043 695.894 339.472 700.482C339.107 695.44 338.904 693.376 339.945 688.334Z"/><path fill="#0C685D" d="M348.58 809.783C348.748 811.834 349.295 813.34 348.103 814.892C347.739 812.692 348.109 811.946 348.58 809.783Z"/><path fill="#0A4A43" d="M349.756 798.826C350.201 800.605 350.205 800.891 349.377 802.604C349.181 800.898 349.105 800.439 349.756 798.826Z"/><path fill="#0C685D" d="M350.592 791.42C350.72 793.647 351.152 794.384 350.036 796.188C349.935 793.984 350.116 793.544 350.592 791.42Z"/><path fill="#0C685D" d="M234.552 815.895C235.941 815.705 236.153 815.563 237.369 816.236C236.067 816.492 235.622 816.707 234.552 815.895Z"/><path fill="#0A4A43" d="M223.74 815.104C225.373 815.091 226.812 814.793 228.18 815.566C226.056 816.144 225.901 815.829 223.74 815.104Z"/><path fill="#0A4A43" d="M242.394 816.581C243.549 816.449 243.633 816.303 244.586 816.867C243.493 817.11 243.326 817.273 242.394 816.581Z"/><path fill="#0C685D" d="M349.027 805.442C349.235 806.321 349.287 806.416 348.777 807.156C348.723 806.269 348.612 806.17 349.027 805.442Z"/><path fill="#0C685D" d="M301.15 770.582C301.361 771.546 301.392 771.635 300.813 772.434C300.821 771.49 300.727 771.381 301.15 770.582Z"/><path fill="#0A4A43" d="M300.46 775.216C300.524 775.875 300.539 775.807 300.228 776.387C300.239 775.791 300.166 775.699 300.46 775.216Z"/><path fill="#088D73" d="M269.498 675.913C272.64 678.406 276.911 688.771 278.295 692.802C280.872 700.306 288.844 729.982 277.597 732.059C276.607 728.667 277.404 729.145 275.123 727.14C272.756 726.488 270.437 727.53 267.956 728.261C269.287 724.338 270.468 720.825 271.557 716.812L270.78 716.046L270.906 715.753L271.729 715.945L271.186 715.139L271.86 715.131L271.777 714.203L271.803 714.737L271.154 714.923L271.722 715.213L270.89 715.412L271.608 715.75L270.617 715.963L271.456 716.391L270.381 716.468C268.753 719.737 267.199 725.156 266.037 728.768C260.925 729.614 241.177 731.874 238.444 734.376C244.447 735.029 267.547 730.101 274.831 728.41C274.867 734.003 275.295 739.65 275.653 745.237C275.741 751.006 275.99 756.771 276.402 762.525C262.316 766.341 212.12 780.904 217.749 748.626C219.42 739.047 232.89 722.802 238.738 713.831C247.906 699.764 255.329 685.532 269.498 675.913Z"/><path fill="#088D73" d="M359.227 702.736C363.026 706.987 373.736 744.564 377.315 751.819C384.705 766.799 400.011 783.447 408.174 797.274L408.55 797.919C402.818 800.66 395.905 807.27 390.93 811.654C387.006 814.844 383.168 818.14 379.421 821.537C370.088 810.347 361.668 796.468 352.605 786.164C356.164 760.333 360.796 728.183 359.227 702.736Z"/><path fill="#DE9D87" d="M405.747 801.045C408.936 801.653 418.047 803.208 420.082 805.012C423.763 808.276 431.11 824.395 428.089 828.662C420.695 831.754 418.133 818.608 414.107 813.791L413.195 813.804L413.003 815.046C414.413 817.937 419.204 827.504 421.672 829.186C425.386 831.717 420.802 830.544 423.151 833.352C425.832 836.557 432.315 841.442 433.313 845.538C432.69 847.625 430.777 848.777 428.683 848.993C426.038 847.856 423.337 844.706 421.235 842.568C419.363 840.638 416.363 837.345 414.307 835.833L413.265 836.225C413.655 838.929 425.632 846.413 425.783 852.057C424.197 853.987 420.626 854.051 418.96 852.576C407.009 841.996 395.919 830.4 383.884 819.892C391.296 813.755 398.585 807.472 405.747 801.045Z"/><path fill="#DE9D87" d="M277.015 734.758C286.496 729.578 291.585 720.744 300.165 719.532C304.373 718.936 308.642 720.067 312.001 722.669C314.096 724.287 316.967 727.317 314.954 729.875C310.073 730.428 303.139 725.514 299.558 727.992C299.608 728.407 299.657 728.822 299.707 729.237C304.43 729.44 309.118 728.826 313.089 732.055C315.269 733.828 316.667 737.523 314.624 739.776C310.162 736.997 303.637 734.844 298.439 736.639L298.373 737.376C305.206 737.851 311.917 736.662 315.629 744.11C316.237 745.329 316.013 744.999 315.55 746.335C312.377 748.349 301.995 745.697 297.913 744.877L297.31 745.546C299.386 748.387 314.169 746.942 313.251 752.721C310.596 755.251 308.083 755.769 304.625 756.679C299.699 753.771 296.267 755.303 291.305 757.265C286.988 758.421 281.986 759.441 277.578 760.435C277.646 752.091 277.215 743.163 277.015 734.758Z"/><path fill="#ED824C" d="M217.405 718.555C222.138 719.139 227.254 720.032 231.999 720.771C226.086 729.934 216.353 740.405 215.807 751.585C214.976 768.62 229.302 770.675 242.799 771.011L238.757 779.206L238.446 779.884C238.16 780.496 236.47 783.901 235.789 783.822C183.638 777.768 201.694 751.069 217.405 718.555Z"/><path fill="#ED824C" d="M253.565 653.7C258.673 653.52 293.567 659.175 298.008 660.589C298.851 662.382 298.653 662.801 298.457 664.868L297.642 665.507C292.384 664.4 286.375 666.853 281.105 668.403C273.808 670.767 270.206 673.478 263.792 677.643C259.656 677.105 255.512 676.631 251.361 676.221C242.165 668.187 241.622 659.391 253.565 653.7Z"/><path fill="#ED824C" d="M283.243 669.327L284.418 669.671C291.699 678.917 297.448 705.229 297.427 717.561C291.106 720.572 289.913 721.381 285.402 726.892L284.706 726.779C283.808 705.949 283.854 693.506 271.371 674.756C275.634 672.049 278.589 670.935 283.243 669.327Z"/><path fill="#ED824C" d="M247.48 679.811C248.294 679.921 247.908 679.839 248.677 680.494C244.001 691.9 235.92 706.961 230.556 718.943L220.814 717.498C219.237 717.175 219.88 717.531 218.763 716.506C218.845 715.071 219.217 713.86 219.814 712.565C226.97 697.047 231.387 686.675 247.48 679.811Z"/><path fill="#088D73" d="M290.569 667.171C299.443 669.176 308.046 710.011 306.638 717.763C304.895 718.808 303.859 718.284 301.454 718.105L300.187 718.022C296.031 713.953 300.434 698.572 299.683 697.272C295.576 690.169 290.203 677.442 287.341 669.67C288.005 668.044 288.664 668.155 290.569 667.171Z"/><path fill="#ED824C" d="M251.342 678.647C255.235 678.639 258.264 678.707 262.168 678.963C251.344 689.745 245.01 701.417 236.432 714.056L234.648 713.587C240.61 702.154 245.928 690.289 251.342 678.647Z"/><path fill="#DE9D87" d="M425.432 809.598C428.957 811.811 441.781 824.02 444.324 828.216C445.429 830.041 444.176 832.207 443.491 834.075C439.445 836.738 434.488 829.529 431.497 826.418C429.889 818.625 427.621 816.649 425.432 809.598Z"/><path fill="#DE9D87" d="M430.68 828.792C432.317 829.25 437.567 835.441 439.44 837.098C442.447 839.759 437.875 843.574 435.825 844.933C434.708 843.527 424.351 832.236 424.746 831.527C426.258 830.757 426.272 832.304 429.041 830.1L430.68 828.792Z"/><path fill="#FEFEFE" d="M312.117 681.739C304.606 678.632 300.506 676.319 296.691 669.055C294.918 665.678 299.353 668.574 300.061 669.263C304.256 673.34 308.3 675.192 313.643 677.215C313.106 678.713 312.597 680.222 312.117 681.739Z"/><path fill="#FEFEFE" d="M323.059 678.456C324.853 677.803 327.298 678.038 329.704 676.977C331.17 676.331 332.997 674.596 333.696 674.623C334.822 675.311 337.896 676.375 336.614 677.854C333.972 680.876 330.253 682.746 326.25 683.065C324.506 683.214 324.142 683.327 322.276 683.294C325.411 681.01 327.651 680.058 323.059 678.456Z"/><path fill="#FEFEFE" fill-opacity="0.98823529" d="M392.147 771.489C394.25 772.44 400.458 774.462 401.14 776.219C398.711 776.83 398.389 776.546 396.387 777.96C394.98 775.796 393.604 773.622 392.147 771.489Z"/><path fill="#FEFEFE" fill-opacity="0.30980393" d="M396.387 777.96C398.389 776.546 398.711 776.83 401.14 776.219C399.539 782.269 400.652 784.15 396.387 777.96Z"/><path fill="#B76F38" d="M234.648 713.587L236.432 714.056C233.438 719.581 231.795 720.12 234.648 713.587Z"/><path fill="#575B5D" d="M296.298 693.533C298.1 695.149 298.517 696.359 298.423 698.696C296.763 699.079 296.678 695.14 296.298 693.533Z"/><path fill="#2D3637" d="M402.169 775.701C412.656 776.557 418.767 773.91 428.47 770.71C427.563 773.862 426.15 776.846 427.043 779.61C425.79 784.043 422.83 792.071 422.124 795.794C433.177 795.008 516.379 798.724 518.562 797.203L519.665 797.273C516.93 813.02 514.081 832.244 509.615 847.541L508.969 847.573C506.255 842.457 499.232 822.29 495.297 817.067C495.202 817.108 495.108 817.148 495.013 817.189C494.678 819.298 506.081 844.642 507.849 848.651C522.406 882.889 536.199 914.862 545.333 951.057C547.894 961.205 552.66 971.772 554.284 982.095C552.961 985.142 552.284 986.817 550.451 989.555C546.507 992.314 545.117 991.503 543.602 996.434L542.719 997.253C540.38 1000.09 536.509 1001.63 533.84 1004.89C529.28 1010.45 526.238 1017.11 520.707 1021.76C519.197 1017.53 516.939 1011.68 515.819 1007.49L514.02 1008.5C509.459 1009.27 503.45 1009.28 501.642 1003.99C497.585 992.121 494.598 979.742 491.465 967.591L476.925 912.733L475.884 914.087C474.121 911.792 462.058 893.926 462.879 892.543C461.209 888.111 456.189 881.253 453.604 876.884C452.661 875.202 451.953 873.949 450.886 872.348C449.984 870.498 448.921 868.732 447.709 867.069C446.077 864.429 444.37 861.842 442.705 859.223C441.875 857.958 441.164 856.795 440.287 855.539L439.586 857.179C438.147 854.903 436.576 851.969 434.939 850.044L433.892 848.872C434.303 847.492 434.395 847.536 435.552 846.56C444.03 843.747 439.173 840.166 444.261 834.506C445.441 833.193 446.605 830.665 446.005 828.918C443.37 821.235 427.254 807.133 420.932 803.459C422.302 802.136 423.143 800.202 422.861 798.312C421.721 797.69 420.468 801.925 420.179 802.68L419.494 802.8C419.814 800.62 420.149 798.433 420.613 796.28C416.66 795.888 413.292 795.772 409.677 794.106L410.08 793.749C409.685 789.53 400.979 791.761 402.169 775.701Z"/><path fill="#DE9D87" d="M512.746 995.614C521.257 989.263 527.783 984.921 537.705 981.259C539.101 987.476 540.459 991.323 542.719 997.253C540.38 1000.09 536.509 1001.63 533.84 1004.89C529.28 1010.45 526.238 1017.11 520.707 1021.76C519.197 1017.53 516.939 1011.68 515.819 1007.49L512.746 995.614Z"/><path fill="#E4E4E5" d="M462.879 892.543C464.27 892.985 474.909 909.965 476.713 912.402C478.627 910.212 485.629 901.986 488.388 902.487C488.852 903.52 478.194 912.309 476.925 912.733L475.884 914.087C474.121 911.792 462.058 893.926 462.879 892.543Z"/><path fill="#E4E4E5" d="M433.892 848.872C434.303 847.492 434.395 847.536 435.552 846.56C437.196 849.361 438.46 852.415 440.287 855.539L439.586 857.179C438.147 854.903 436.576 851.969 434.939 850.044L433.892 848.872Z"/><path fill="#E4E4E5" d="M493.573 907.649C493.776 908.033 493.892 908.149 494.003 908.584C494.363 907.391 481.156 916.839 480.435 917.385C477.999 914.795 491.338 908.476 493.573 907.649Z"/><path fill="#2D3637" d="M434.939 850.044C436.576 851.969 438.147 854.903 439.586 857.179C440.339 858.544 440.722 859.155 441.644 860.426C443.121 863.117 445.018 865.912 446.694 868.521C447.737 870.2 448.918 872.179 450.026 873.781C450.984 875.279 451.893 876.631 452.906 878.092C455.116 881.792 459.834 890.096 462.879 892.543C462.058 893.926 474.121 911.792 475.884 914.087C470.298 927.429 422.895 973.792 411.921 986.11C411.856 986.183 412.353 987.651 412.46 987.9C412.851 988.816 413.634 989.86 414.001 990.764C411.338 991.812 405.835 994.323 403.325 993.758L401.839 992.233C406.55 991.555 406.985 993.062 406.453 987.882C402.105 985.678 402.627 988.866 401.839 992.233C399.848 989.698 401.311 988.094 402.433 985.428L402.114 984.865L399.835 986.538C399.329 979.826 398.847 982.619 393.67 978.025C393.437 976.34 392.219 973.828 391.68 971.895C390.857 969.754 390.213 967.66 389.488 965.488C388.956 963.121 388.047 961.217 387.301 958.953C386.422 956.003 385.414 953.095 384.403 950.189C383.604 947.642 381.228 940.209 380.788 937.915C388.354 933.044 411.749 907.633 418.463 904.286L419.12 903.092L422.116 899.785C426.944 899.879 430.665 900.28 435.075 902.096C435.246 902.166 435.909 901.447 435.503 901.081C432.312 898.203 426.721 898.443 422.713 898.222C423.596 896.032 425.85 886.393 426.605 883.433C429.465 872.324 432.243 861.194 434.939 850.044Z"/><path fill="#E4E4E5" d="M419.12 903.092C421.695 903.763 430.683 906.165 431.87 908.598C431.942 908.749 431.921 908.928 431.816 909.058C431.716 909.184 431.424 909.259 431.333 909.218C427.496 907.494 422.096 905.68 418.463 904.286L419.12 903.092Z"/><path fill="#DE9D87" d="M498.018 593.729C501.741 590.269 504.484 586.831 510.67 586.742C518.427 586.631 518.814 596.788 521.317 599.477C527.094 605.687 526.953 606.547 519.128 614.695C530.973 636.073 528.523 657.261 506.85 670.479L505.69 670.494C505.689 671.64 505.93 671.751 506.497 672.849L504.906 673.571L504.211 674.644L502.029 675.239L501.441 676.539C492.985 682.967 479.217 675.052 472.103 669.612L472.788 662.188L471.459 662.461C468.354 664.284 457.753 663.548 454.151 662.852C452.012 662.878 451.634 662.883 449.697 662.076C453.743 660.388 453.028 660.892 456.36 657.986C450.959 653.402 445.979 648.098 445.885 640.665C445.655 622.419 459.924 607.549 475.233 600.889C477.776 592.139 482.239 587.981 491.66 591.312C493.793 592.081 495.913 592.887 498.018 593.729Z"/><path fill="#050505" d="M498.018 593.729C501.741 590.269 504.484 586.831 510.67 586.742C518.427 586.631 518.814 596.788 521.317 599.477C527.094 605.687 526.953 606.547 519.128 614.695C530.973 636.073 528.523 657.261 506.85 670.479L505.69 670.494C505.689 671.64 505.93 671.751 506.497 672.849L504.906 673.571L504.211 674.644L502.029 675.239C497.01 675.741 486.302 671.36 485.016 666.078C486.125 665.336 493.976 669.352 497.459 669.448C514.091 669.904 523.553 656.349 524.381 640.911C525.164 626.308 520.279 618.106 511.082 607.729C510.122 608.353 509.139 608.941 508.134 609.49C498.872 614.623 490.317 610.909 480.603 608.151C477.282 615.937 475.784 628.033 472.302 633.863C463.712 631.655 456.507 633.3 456.977 644.228C457.304 651.842 470.328 650.49 472.745 652.167C473.486 655.068 472.989 659.105 472.788 662.188L471.459 662.461C468.354 664.284 457.753 663.548 454.151 662.852C452.012 662.878 451.634 662.883 449.697 662.076C453.743 660.388 453.028 660.892 456.36 657.986C450.959 653.402 445.979 648.098 445.885 640.665C445.655 622.419 459.924 607.549 475.233 600.889C477.776 592.139 482.239 587.981 491.66 591.312C493.793 592.081 495.913 592.887 498.018 593.729Z"/><path fill="#FEFEFE" d="M456.36 657.986C459.99 660.134 461.277 660.667 465.293 661.911C467.323 661.894 469.442 662.202 471.459 662.461C468.354 664.284 457.753 663.548 454.151 662.852C452.012 662.878 451.634 662.883 449.697 662.076C453.743 660.388 453.028 660.892 456.36 657.986Z"/><path fill="#E4E4E5" d="M465.293 661.911C467.323 661.894 469.442 662.202 471.459 662.461C468.354 664.284 457.753 663.548 454.151 662.852C458.511 662.456 462.515 663.468 465.293 661.911Z"/><path fill="#050505" d="M492.805 645.311C496.241 645.15 507.566 644.689 510.921 645.221C513.452 645.623 509.167 653.773 508.062 655.561C496.806 660.843 488.484 650.239 492.805 645.311Z"/><path fill="#DE9D87" d="M497.426 651.013C499.498 651.32 506.021 651.863 504.02 655.305L503.711 655.866C501.654 655.562 493.244 654.6 497.426 651.013Z"/><path fill="#150E0D" d="M463.323 637.452C471.075 636.129 477.409 643.437 465 647.069C464.429 646.484 463.134 645.616 463.409 644.854C463.982 644.357 468.698 645.059 469.656 642.914C471.124 639.624 465.361 638.526 463.323 637.452Z"/><path fill="#050505" d="M512.044 624.423C515.81 627.537 514.356 630.64 511.576 633.664C507.968 629.912 508.356 627.917 512.044 624.423Z"/><path fill="#050505" d="M491.638 626.175C497.063 627.476 496.068 630.088 494.014 634.147C488.806 633.055 490.122 630.088 491.638 626.175Z"/><path fill="#050505" d="M503.451 631.651C507.496 632.935 508.864 638.294 506.166 642.185C503.338 642.273 503.993 641.893 505.213 639.357C506.238 637.226 504.242 633.768 503.451 631.651Z"/><path fill="#150E0D" d="M510.995 616.146C516.507 617.777 517.634 621.586 511.667 618.02C504.798 620.606 504.914 619.038 510.995 616.146Z"/><path fill="#150E0D" d="M490.57 617.386C491.534 617.796 494.58 618.865 494.418 620.296C493.29 621.191 491.758 618.797 489.881 620.131C483.694 625.097 485.895 620.538 489.016 618.427L490.57 617.386Z"/><path fill="#050505" fill-opacity="0.96470588" d="M449.697 662.076C451.634 662.883 452.012 662.878 454.151 662.852C457.753 663.548 468.354 664.284 471.459 662.461L472.788 662.188L472.103 669.612C479.217 675.052 492.985 682.967 501.441 676.539L502.029 675.239L504.211 674.644L504.347 675.288C505.41 680.129 508.504 686.89 510.307 692.049C514.282 703.421 517.686 729.303 516.122 740.905L515.433 740.937C515.297 738.812 515.157 737.971 514.748 735.952C514.288 714.617 512.173 697.876 502.9 678.486C485.733 684.992 472.68 669.572 467.933 672.816C466.995 677.316 474.38 687.8 475.812 694.339C477.557 702.316 479.072 709.983 479.23 718.265L479.24 719.01C486.251 722.2 489.429 723.727 489.88 731.826C488.076 731.839 488.811 731.408 488.366 729.794C485.023 719.651 475.234 717.328 466.307 721.973C461.71 724.365 459.104 728.101 455.878 732.001C449.92 733.403 417.986 741.28 414.122 740.889C416.382 739.166 418.538 738.98 421.333 738.427C416.37 735.58 406.723 729.549 402.015 727.71L400.587 727.205L400.678 726.84L398.839 725.724C398.591 721.769 407.39 716.542 408.65 713.439C413.657 700.539 415.22 686.958 420.53 674.067C427.23 657.805 441.404 665.509 449.697 662.076ZM441.342 681.522C441.574 676.599 450.937 674.559 452.419 671.019C451.318 668.863 442.044 670.286 439.195 672.155C437.296 673.686 435.677 673.693 433.645 675.458C433.396 669.848 432.655 671.8 429.073 675.718C427.046 677.936 425.654 683.598 425.018 686.649C423.814 689.472 421.965 696.986 420.891 700.478C423.815 697.58 426.836 693.913 430.529 692.413C422.05 702.258 407.792 715.584 400.514 724.559C407.517 728.708 416.721 734.189 424.03 737.634C428.598 736.642 433.28 735.724 437.737 734.336C439.298 726.031 440.524 715.068 442.431 707.314L442.995 707.014C443.515 710.589 439.992 728.787 439.207 734.173C444.671 733.25 449.92 731.777 455.278 730.368C458.349 726.812 464.98 721.149 464.745 716.445L465.221 716.611C465.451 717.967 465.521 717.956 466.212 719.079C469.733 719.278 472.757 718.478 477.621 718.695C477.067 706.002 474.036 681.757 461.978 673.088C459.498 671.304 452.443 673.864 449.336 674.805C458.121 683.828 462.507 698.907 465.006 710.852C464.748 712.446 464.515 714.044 464.308 715.645C461.424 700.474 458.206 688.261 448.531 675.861C446.258 677.217 443.433 679.761 441.342 681.522Z"/><path fill="#ED824C" d="M435.325 664.298C437.432 664.195 439.541 664.15 441.65 664.162C447.159 664.228 467.634 663.941 470.563 666.939L470.425 667.917C465.383 670.68 440.788 665.317 433.493 669.865C426.708 674.095 425.806 677.489 423.521 684.62C420.02 697.289 419.78 701.781 410.985 711.878C414.484 699.99 417.434 684.909 422.429 673.751C424.738 668.592 429.941 665.778 435.325 664.298Z"/><defs><linearGradient id="gradient_0" gradientUnits="userSpaceOnUse" x1="431.9985" y1="679.19281" x2="438.01459" y2="685.3313"><stop offset="0" stop-color="#383838" stop-opacity="0.95686275"/><stop offset="1" stop-color="#2E2E2F"/></linearGradient></defs><path fill="url(#gradient_0)" d="M439.195 672.155C442.044 670.286 451.318 668.863 452.419 671.019C450.937 674.559 441.574 676.599 441.342 681.522C439.86 683.15 431.895 691.688 430.529 692.413C426.836 693.913 423.815 697.58 420.891 700.478C421.965 696.986 423.814 689.472 425.018 686.649C427.621 684.118 428.697 680.762 430.684 679.74C433.401 685.219 436.977 677.111 440.736 675.781C443.093 674.947 439.542 672.46 439.195 672.155Z"/><path fill="#2D3637" fill-opacity="0.8392157" d="M439.195 672.155C439.542 672.46 443.093 674.947 440.736 675.781C436.977 677.111 433.401 685.219 430.684 679.74C431.679 678.318 432.666 676.891 433.645 675.458C435.677 673.693 437.296 673.686 439.195 672.155Z"/><path fill="#2D3637" fill-opacity="0.98823529" d="M425.018 686.649C425.654 683.598 427.046 677.936 429.073 675.718C432.655 671.8 433.396 669.848 433.645 675.458C432.666 676.891 431.679 678.318 430.684 679.74C428.697 680.762 427.621 684.118 425.018 686.649Z"/><path fill="#150E0D" fill-opacity="0.64313728" d="M465.006 710.852C465.399 713.462 465.396 713.981 465.221 716.611L464.745 716.445C464.55 716.158 464.37 715.966 464.308 715.645C464.515 714.044 464.748 712.446 465.006 710.852Z"/><path fill="#050505" fill-opacity="0.96862745" d="M399.835 986.538L402.114 984.865L402.433 985.428C401.311 988.094 399.848 989.698 401.839 992.233L403.325 993.758C405.835 994.323 411.338 991.812 414.001 990.764C423.499 990.077 433.454 990.464 440.622 997.279C452.992 1009.04 437.211 1017.07 431.171 1022.68C429.584 1034.89 415.602 1057.74 402.743 1045.67C393.957 1052.54 374.399 1072.62 365.331 1059.04C362.072 1054.16 356.375 1033.55 355.859 1027.49L356.407 1026.51L358.595 1026.04C360.543 1022.75 358.333 1018.89 357.067 1015.44L358.265 1014.64C359.578 1018.78 360.253 1021.35 362.01 1025.36C371.643 1015.7 372.355 1007.4 384.231 1000.69L385.183 999.807C389.737 1001.98 398.288 997.788 402.593 995.56C401.333 993.797 399.192 990.365 397.894 989.032C398.686 987.748 398.764 987.601 399.835 986.538ZM357.561 1028.33C359.324 1036.03 361.326 1043.66 363.565 1051.23C382.537 1035.49 405.336 1017.61 424.793 1002.44C426.9 996.671 426.961 997.878 430.636 993.221C397.677 986.119 392.364 1012.28 388.739 1013.1C389.144 1010.82 389.185 1010.42 390.351 1008.44C391.171 1007.42 394.559 1002.69 393.769 1001.56C390.527 999.977 387.454 1006.29 386.325 1008.2C385.262 1009.93 383.46 1013.09 382.342 1014.63L381.309 1014.31C382.13 1011.62 384.304 1006.63 382.068 1004.51C374.65 1007.18 371.178 1023.57 357.561 1028.33ZM383.734 1037.35C382.203 1038.68 380.504 1039.92 378.887 1041.15C375.511 1043.37 371.787 1046.63 368.506 1049.15C367.237 1050.26 366.331 1051.02 364.97 1052.02C365.894 1053.26 366.618 1054.03 367.654 1055.15C369.634 1055.57 371.23 1054.67 372.847 1054.96C374.467 1055.25 376.332 1060.64 378.756 1058.38C381.571 1055.76 381.899 1053.86 386.493 1056C387.632 1055.29 388.341 1054.55 389.341 1053.66C394.796 1049.42 424.602 1026.73 427.378 1023.07C428.302 1019.36 428.114 1019.44 431.054 1016.58C433.299 1015.66 433.857 1012.76 435.569 1011.32C436.621 1010.44 438.15 1010.35 439.538 1009.35C440.816 1006.45 442.708 1002.4 437.835 1002.77C434.615 1006.86 434.249 1004.46 429.254 1001.74C428.376 1002.25 428.224 1002.37 427.504 1003.09C411.237 1014.43 398.802 1026.22 383.734 1037.35Z"/><path fill="#FEFEFE" fill-opacity="0.20392157" d="M377.067 1020.68C377.622 1021.26 377.428 1021.34 377.108 1022.06C376.576 1021.91 376.398 1021.96 376.233 1021.67C376.47 1021.3 376.752 1021.01 377.067 1020.68Z"/><path fill="#FEFEFE" fill-opacity="0.60392159" d="M378.887 1041.15C381.218 1046.65 381.956 1043.67 384.207 1047.07C384.323 1049.51 377.228 1054.69 384.676 1051.93C386.935 1052.47 387.229 1052.54 389.341 1053.66C388.341 1054.55 387.632 1055.29 386.493 1056C381.899 1053.86 381.571 1055.76 378.756 1058.38C376.332 1060.64 374.467 1055.25 372.847 1054.96C371.23 1054.67 369.634 1055.57 367.654 1055.15C369.931 1053.75 368.822 1051.75 368.506 1049.15C371.787 1046.63 375.511 1043.37 378.887 1041.15Z"/><path fill="#FEFEFE" d="M429.254 1001.74C434.289 999.306 439.496 995.499 442.287 1002.57C443.304 1005.18 443.235 1008.08 442.096 1010.64C440.607 1013.9 430.72 1020.95 427.378 1023.07C428.302 1019.36 428.114 1019.44 431.054 1016.58C433.299 1015.66 433.857 1012.76 435.569 1011.32C436.621 1010.44 438.15 1010.35 439.538 1009.35C440.816 1006.45 442.708 1002.4 437.835 1002.77C434.615 1006.86 434.249 1004.46 429.254 1001.74Z"/><path fill="#FEFEFE" d="M428.492 1025.06C430.598 1027.45 423.799 1038.25 421.718 1040.3C416.418 1045.51 417.192 1045.61 413.455 1040.11C413.041 1039.47 411.849 1038.19 412.813 1037.51C414.201 1036.53 422.033 1029.92 422.98 1029.9C423.533 1030.38 423.267 1031.29 424.004 1031.66C426.614 1031.23 424.227 1028.99 424.398 1028.73C425.066 1027.7 427.392 1026.01 428.492 1025.06Z"/><path fill="#FEFEFE" d="M364.97 1052.02C365.894 1053.26 366.618 1054.03 367.654 1055.15C369.634 1055.57 371.23 1054.67 372.847 1054.96C374.467 1055.25 376.332 1060.64 378.756 1058.38C381.571 1055.76 381.899 1053.86 386.493 1056C380.03 1061.1 372.077 1067.82 365.116 1055.88C364.346 1054.56 364.146 1053.36 364.97 1052.02Z"/><path fill="#FEFEFE" fill-opacity="0.68627453" d="M427.504 1003.09C428.224 1002.37 428.376 1002.25 429.254 1001.74C434.249 1004.46 434.615 1006.86 437.835 1002.77C437.269 1006.22 436.873 1006.96 439.538 1009.35C438.15 1010.35 436.621 1010.44 435.569 1011.32C433.857 1012.76 433.299 1015.66 431.054 1016.58C430.758 1013.98 428.771 1012.43 428.785 1011.94C428.926 1006.89 430.044 1007.61 427.504 1003.09Z"/><path fill="#FEFEFE" fill-opacity="0.082352944" d="M383.734 1037.35C385.766 1038.08 387.481 1039.77 387.124 1039.74C392.412 1040.29 387.3 1047.58 384.676 1051.93C377.228 1054.69 384.323 1049.51 384.207 1047.07C381.956 1043.67 381.218 1046.65 378.887 1041.15C380.504 1039.92 382.203 1038.68 383.734 1037.35Z"/><path fill="#FEFEFE" d="M411.581 1040.79C414.435 1041.36 417.643 1047 407.724 1047.33C405.229 1045.45 402.167 1044.68 408.588 1041.12C409.571 1040.58 408.5 1043.24 411.581 1040.79Z"/><path fill="#FEFEFE" d="M430.636 993.221C432.85 994.317 434.839 995.285 437.037 996.452C430.45 999.011 430.841 998.933 424.793 1002.44C426.9 996.671 426.961 997.878 430.636 993.221Z"/><path fill="#FEFEFE" fill-opacity="0.24705882" d="M386.325 1008.2C387.454 1006.29 390.527 999.977 393.769 1001.56C394.559 1002.69 391.171 1007.42 390.351 1008.44L386.325 1008.2Z"/><path fill="#FEFEFE" fill-opacity="0.070588239" d="M437.835 1002.77C442.708 1002.4 440.816 1006.45 439.538 1009.35C436.873 1006.96 437.269 1006.22 437.835 1002.77Z"/><path fill="#FEFEFE" fill-opacity="0.16078432" d="M364.97 1052.02C366.331 1051.02 367.237 1050.26 368.506 1049.15C368.822 1051.75 369.931 1053.75 367.654 1055.15C366.618 1054.03 365.894 1053.26 364.97 1052.02Z"/><path fill="#FEFEFE" fill-opacity="0.12941177" d="M381.309 1014.31L382.342 1014.63C380.421 1019.28 377.903 1018.41 381.309 1014.31Z"/><path fill="#DE9D87" d="M542.193 733.759L547.071 730.73C555.385 746.287 562.894 762.922 570.917 778.731C565.624 777.46 563.189 776.761 557.719 776.679L557.821 777.079C568.365 780.613 587.697 782.554 596.361 786.148C598.868 791.752 604.304 801.838 603.836 807.501C598.429 817.255 590.444 797.415 587.668 794.831L587.154 794.931C589.336 802.481 595.639 815.586 605.211 809.654C609.345 812.957 621.944 821.83 611.036 825.319C606.976 823.66 600.701 813.986 596.932 811.846L596.474 812.761C599.092 818.538 608.378 822.662 608.313 828.426C605.941 831.335 602.394 830.914 599.87 828.43C594.95 823.588 591.16 818.6 585.231 814.851C588.733 820.169 596.6 827.689 601.345 832.358L602.509 832.595C600.422 835.615 595.502 837.685 592.73 835.166C575.739 819.726 558.256 804.33 541.602 788.536C537.744 784.878 526.002 767.88 523.524 766.456L522.463 767.076C521.961 767.239 521.225 767.504 520.737 767.562C517.906 765.941 517.331 765.609 515.035 763.323C515.586 756.304 515.071 748.151 515.433 740.937L516.122 740.905C518.89 741.217 523.986 742.078 526.449 740.799L527.948 739.638L528.672 739.907C531.966 738.422 537.923 734.564 541.217 732.538L542.193 733.759Z"/><path fill="#050505" d="M541.217 732.538L542.193 733.759C537.836 736.406 531.685 740.386 527.289 742.624C527.174 748.817 526.894 760.214 526.222 765.47C528.821 770.695 539.786 784.866 543.445 788.314C554.447 798.682 561.379 804.909 572.746 814.917C578.059 819.596 589.225 831.372 595.803 834.835C596.982 835.455 600.11 833.44 601.345 832.358L602.509 832.595C600.422 835.615 595.502 837.685 592.73 835.166C575.739 819.726 558.256 804.33 541.602 788.536C537.744 784.878 526.002 767.88 523.524 766.456L522.463 767.076C521.961 767.239 521.225 767.504 520.737 767.562C517.906 765.941 517.331 765.609 515.035 763.323C515.586 756.304 515.071 748.151 515.433 740.937L516.122 740.905C518.89 741.217 523.986 742.078 526.449 740.799L527.948 739.638L528.672 739.907C531.966 738.422 537.923 734.564 541.217 732.538Z"/><path fill="#050505" d="M126.005 648.857C127.658 643.006 129.485 644.676 133.347 640.231C133.512 638.556 133.507 638.394 134.138 636.854C137.665 635.937 146.355 634.076 149.817 634.376C150.339 635.815 150.915 637.234 151.542 638.631C157.976 639.071 172.018 634.394 179.073 633.493C187.201 632.454 195.115 632.004 203.17 630.558L203.664 631.629C206.944 631.126 212.065 629.515 214.253 632.207C220.987 640.493 217.089 640.654 211.494 642.014L212.623 643.441L205.922 645.063C213.687 660.552 213.48 671.002 199.366 682.948L200.936 684.555C193.547 685.653 186.159 687.015 178.785 688.013L178.382 686.68C177.338 685.718 174.775 684.87 173.42 684.044C160.137 675.956 155.535 667.106 160.215 651.989L159.603 650.426C155.056 651.118 131.209 656.076 128.891 654.928C127.69 653.008 127.622 651.404 127.312 649.191L126.005 648.857ZM192.634 677.128C191.516 676.76 190.457 676.37 189.39 675.868C188.9 676.027 188.137 676.814 188.117 676.813C185.196 676.729 178.667 674.901 176.42 676.328C168.362 672.203 163.781 661.79 167.769 653.159C170.205 647.887 179.002 645.814 178.964 641.696C178.561 641.198 178.358 640.648 177.833 640.655C168.569 640.782 162.238 651.565 161.728 658.932C161.357 665.045 163.435 671.054 167.504 675.632C171.722 680.384 177.669 683.248 184.015 683.584C190.286 683.97 195.711 681.967 200.367 677.783C204.84 673.764 207.47 668.089 207.646 662.079C208.019 651.036 196.194 634.919 185.137 639.914L183.648 642.544C185.408 643.697 187.578 643.45 189.683 643.835C205.906 646.802 207.894 672.31 192.634 677.128ZM187.823 661.57C188.592 652.406 180.379 652.161 179.126 660.423C179.299 660.713 179.531 660.749 179.875 660.946C180.082 662.887 181.643 664.405 183.59 664.558C185.536 664.711 187.316 663.455 187.823 661.57Z"/><path fill="#ED824C" d="M127.312 649.191C128.265 646.965 129.037 644.978 131.514 644.278C142.882 641.065 160.953 638.549 172.676 637.471C169.016 640.198 160.522 649.901 159.603 650.426C155.056 651.118 131.209 656.076 128.891 654.928C127.69 653.008 127.622 651.404 127.312 649.191Z"/><path fill="#ED824C" d="M203.664 631.629C206.944 631.126 212.065 629.515 214.253 632.207C220.987 640.493 217.089 640.654 211.494 642.014C208.953 642.414 206.443 642.95 203.922 643.268C195.241 636.849 197.242 638.112 187.603 634.772L203.664 631.629Z"/><path fill="#050505" fill-opacity="0.92156863" d="M176.42 676.328C178.667 674.901 185.196 676.729 188.117 676.813C188.137 676.814 188.9 676.027 189.39 675.868C190.457 676.37 191.516 676.76 192.634 677.128C186.145 679.536 182.648 679.531 176.42 676.328Z"/><path fill="#050505" fill-opacity="0.95294118" d="M179.875 660.946C179.531 660.749 179.299 660.713 179.126 660.423C180.379 652.161 188.592 652.406 187.823 661.57C188.246 659.998 187.687 658.326 186.404 657.323C185.122 656.321 183.364 656.183 181.94 656.972C180.516 657.762 179.703 659.327 179.875 660.946Z"/><path fill="#050505" fill-opacity="0.95294118" d="M206.083 965.983L207.5 967.623C202.718 970.533 198.873 974.359 194.752 978.12C199.095 984.032 205.335 994.892 212.995 995.588C219.667 996.195 219.79 995.542 226.585 998.033L233.556 990.594L234.545 990.982C233.774 993.336 229.528 997.446 227.676 999.405C236.324 1012 252.335 1030.05 248.118 1045.6C241.364 1070.5 230.851 1058 219.363 1049.03L220.598 1047.91L230.898 1056.41C234.019 1058.53 238.798 1060.39 242.033 1055.23C242.156 1055.03 238.477 1051.3 237.596 1051.92C235.828 1049.59 224.983 1040.74 222.067 1038.31C221.815 1037.73 221.784 1037.64 221.165 1037.47C215.506 1032.8 209.895 1028.06 204.334 1023.27C204.105 1022.64 204.088 1022.56 203.419 1022.39C195.813 1015.88 188.598 1009.75 180.717 1003.58C178.862 1001.85 178.071 1001.12 176.01 999.49C175.226 998.515 174.886 998.352 173.81 997.692C171.288 995.55 171.773 995.286 168.985 994.93C165.39 997.117 165.93 1001.58 168.552 1003.79C184.561 1017.28 202.562 1034.65 219.4 1046.65L218.391 1048.14L213.514 1044.23C213.258 1043.62 213.23 1043.55 212.579 1043.39C202.228 1035.17 190.694 1025.34 180.709 1016.68C180.455 1016.07 180.428 1015.99 179.771 1015.83C175.567 1012.52 171.554 1008.94 167.523 1005.42C167.121 1004.55 167.09 1004.63 166.173 1004.16C160.867 995.354 173.029 989.069 179.028 984.454C182.997 981.4 188.543 977.043 192.709 974.741L193.706 975.957C195.298 975.95 204.083 967.724 206.083 965.983ZM243.523 1053.62C247.596 1045.69 249.732 1036.58 245.113 1028.21C241.247 1021.2 234.93 1019.9 227.752 1017.99L227.954 1017.22L230.706 1017.12L231.138 1016.2C233.024 1017.07 236.298 1019.01 237.953 1018.66C237.505 1016.88 236.292 1015.88 235.019 1014.48C231.822 1013.97 225.901 1013.41 223.488 1011.69L225.886 1011.2C227.608 1011.58 232.175 1011.93 234.139 1012.12L231.842 1008.05C230.708 1007.86 229.577 1007.64 228.449 1007.4C226.86 1007.06 224.925 1006.62 224.01 1005.19C225.99 1004.65 228.399 1005.79 230.505 1006.49C229.805 1005.45 229.09 1004.42 228.36 1003.4C223.632 996.766 220.295 998.262 213.036 996.981C203.348 995.272 197.174 984.669 191.823 977.004C186.19 981.216 175.369 988.293 172.067 993.872L212.198 1027.73C221.221 1035.44 234.046 1046.84 243.523 1053.62Z"/><path fill="#FEFEFE" fill-opacity="0.29019609" d="M223.488 1011.69C223.518 1010.33 222.937 1007.86 224.693 1007.66C226.178 1008.37 225.96 1009.76 225.886 1011.2L223.488 1011.69Z"/><path fill="#050505" fill-opacity="0.94901961" d="M386.605 405.164L387.487 404.715C381.055 402.348 376.467 400.379 372.153 394.72C368.071 389.468 366.249 382.808 367.09 376.211C368.04 369.415 371.728 363.302 377.298 359.291C382.983 355.158 390.759 353.623 397.633 354.777C404.391 355.85 410.411 359.653 414.28 365.295C418.117 370.967 419.565 377.921 418.31 384.652C416.61 393.352 411.448 397.925 404.539 402.458C402.39 403.333 400.168 404.031 397.819 404.983C399.901 405.213 401.979 405.475 404.053 405.768C405.359 405.951 405.583 405.719 406.451 404.871L406.697 405.986C429.656 413.113 445.977 421.582 457.832 444.166C462.684 453.322 465.511 463.414 466.122 473.757C465.994 476.334 465.957 478.381 466.022 480.95L465.594 480.815C465.411 476.875 465.628 475.577 464.781 471.703C464.682 468.909 463.837 464.945 463.114 462.178C453.986 427.268 423.539 405.274 387.916 406.541C387.379 406.385 386.271 406.214 385.923 405.985L385.923 405.866C386.092 405.587 386.348 405.401 386.605 405.164ZM395.522 403.484C404.162 402.478 411.588 396.891 414.947 388.869C418.306 380.846 417.075 371.636 411.727 364.777C406.379 357.918 397.746 354.476 389.145 355.773C376.154 357.733 367.133 369.744 368.873 382.763C370.613 395.782 382.472 405.003 395.522 403.484Z"/><path fill="#088D73" fill-opacity="0.96470588" d="M389.145 355.773C397.746 354.476 406.379 357.918 411.727 364.777C417.075 371.636 418.306 380.846 414.947 388.869C411.588 396.891 404.162 402.478 395.522 403.484C382.472 405.003 370.613 395.782 368.873 382.763C367.133 369.744 376.154 357.733 389.145 355.773Z"/><path fill="#ED824C" d="M397.38 572.625C400.088 572.673 402.339 572.605 404.792 573.766C405.816 574.25 411.304 578.305 411.43 578.226C414.008 576.612 418.877 572.437 422.053 572.482C426.125 572.54 431.001 574.882 433.813 578.081C436.599 581.251 436.62 583.615 436.534 587.723C436.387 594.738 428.371 599.972 422.974 604.606C419.401 607.273 414.471 611.678 410.789 614.664C399.569 603.715 368.747 585.104 397.38 572.625Z"/><path fill="#050505" fill-opacity="0.98431373" d="M504.906 673.571L506.497 672.849C505.93 671.751 505.689 671.64 505.69 670.494L506.85 670.479C510.263 673.55 515.419 676.018 518.32 679.137C529.74 691.413 544.346 712.102 551.183 727.462C550.536 728.954 550.211 729.057 548.87 730.091C549.967 733.109 551.546 735.929 553.03 738.77C559.996 752.103 565.989 765.955 572.985 779.269C588.799 782.233 596.671 782.331 607.936 795.48C612.547 800.861 627.978 810.222 617.129 817.389C616.07 818.086 617.925 823.783 612.788 825.691C609.418 826.943 609.572 831.511 602.509 832.595L601.345 832.358C596.6 827.689 588.733 820.169 585.231 814.851C591.16 818.6 594.95 823.588 599.87 828.43C602.394 830.914 605.941 831.335 608.313 828.426C608.378 822.662 599.092 818.538 596.474 812.761L596.932 811.846C600.701 813.986 606.976 823.66 611.036 825.319C621.944 821.83 609.345 812.957 605.211 809.654C595.639 815.586 589.336 802.481 587.154 794.931L587.668 794.831C590.444 797.415 598.429 817.255 603.836 807.501C604.304 801.838 598.868 791.752 596.361 786.148C587.697 782.554 568.365 780.613 557.821 777.079L557.719 776.679C563.189 776.761 565.624 777.46 570.917 778.731C562.894 762.922 555.385 746.287 547.071 730.73L542.193 733.759L541.217 732.538L549.466 727.041C546.354 721.858 530.195 693.369 526.113 692.68C525.585 694.885 526.256 697.133 526.77 699.328C529.233 709.858 529.287 719.946 528.31 730.703C527.684 733.774 527.346 736.509 527.948 739.638L526.449 740.799C527.179 722.783 530.449 677.521 504.906 673.571Z"/><path fill="#DE9D87" d="M601.252 792.132C606.524 795.909 613.383 802.581 617.843 807.482C619.632 809.448 618.871 812.882 618.532 815.414C609.076 817.692 603.739 798.925 601.252 792.132Z"/><path fill="#FEFEFE" fill-opacity="0.1882353" d="M204.591 1028.51C206.163 1027.94 205.879 1028.79 205.433 1029.9C205.189 1030.09 204.873 1030.53 204.498 1030.4C204.249 1030.07 204.369 1029.62 204.451 1029.25L204.591 1028.51Z"/><path fill="#050505" fill-opacity="0.94901961" d="M584.92 987.412C593.297 989.791 607.238 996.327 602.46 1006.89C598.571 1015.49 582.955 1024.98 575.524 1031.15L574.333 1030.15L577.256 1027.68C578.59 1026.45 578.882 1026.51 579.416 1024.83C582.786 1024.35 598.213 1011.5 600.838 1008.12C601.018 1006.41 600.982 1005.02 601.251 1003.31C603.434 998.169 596.747 994.056 590.131 997.668C588.35 999.021 586.501 1000.01 584.594 1001.16C577.361 1006.18 526.618 1045.51 523.209 1050.28C522.943 1052.35 524.036 1054.8 525.148 1056.51C531.996 1063.35 536.529 1060.58 542.946 1055.43C543.453 1055.07 543.813 1054.79 544.291 1054.39C548.713 1050.77 553.159 1047.18 557.628 1043.62L558.332 1045.08L556.117 1046.59C555.929 1046.64 555.451 1046.66 555.307 1046.91C555.227 1047.05 555.211 1047.26 555.185 1047.39C534.315 1065.97 523.86 1070.97 518.689 1038.89C517.922 1034.13 515.731 1028.89 515.047 1023.77L516.03 1023.35L516.429 1024.74C517.509 1026.48 521.638 1044.5 522.473 1048.02L561.036 1017.26C568.963 1010.92 579.154 1002.42 587.528 996.982C590.263 995.898 592.765 994.86 595.553 993.782C591.611 991.777 590.539 991.104 586.252 989.688C576.285 987.452 568.972 989.446 559.943 994.563C553.917 997.978 550.379 1004.82 547.262 1010.78C546.491 1008.49 547.412 1007.95 547.233 1006.02C547.525 1005.49 547.466 1005.48 547.874 1005.11L547.99 1005.17C548.78 1004.77 553.031 998.091 553.871 996.836C549.415 999.917 547.584 1000.79 544.391 1005.35C542.337 1008.55 540.628 1011.2 538.85 1014.6L538.9 1014.04C539.34 1009.67 542.441 1004.27 541.07 1001.15C530.434 1008.4 528.717 1018.8 520.136 1023.6L519.016 1022C517.805 1018.02 515.547 1012.52 514.02 1008.5L515.819 1007.49C516.939 1011.68 519.197 1017.53 520.707 1021.76C526.238 1017.11 529.28 1010.45 533.84 1004.89C536.509 1001.63 540.38 1000.09 542.719 997.253L543.602 996.434C546.624 1000.31 546.2 999.114 550.868 996.623C554.082 994.908 557.69 995.654 556.636 991.489C556.714 991.541 556.792 991.593 556.869 991.644C557.002 991.72 558.615 992.534 558.613 992.535C563.925 991.274 568.573 988.782 574.1 987.498C578 987.801 581.016 987.89 584.92 987.412Z"/><path fill="#050505" d="M589.055 874.243C596.69 856.67 603.667 855.042 621.846 858.456C619.804 859.276 617.78 860.075 615.714 860.916C613.733 861.57 611.511 863.575 609.571 863.934C608.367 863.403 607.694 860.539 606.12 862.41C605.68 862.933 607.246 864.616 606.7 865.18C601.934 870.104 601.664 865.393 600.973 865.104C599.698 865.521 600.745 868.394 600.144 868.95C597.886 871.04 594.18 873.276 591.624 875.1C599.21 873.508 606.341 870.748 613.354 875.531C619.979 880.049 623.147 885.913 626.352 892.856C624.17 891.685 615.356 887.381 614.259 885.339C613.758 884.406 614.547 882.486 613.97 882.065C612.922 882.115 608.27 885.506 605.406 881.541C604.657 880.503 606.045 878.685 605.755 877.584C605.263 877.387 601.94 879.745 601.356 880.165C596.745 879.15 594.951 879.239 590.569 877.218C592.695 874.597 590.628 876.162 589.055 874.243Z"/><path fill="#050505" d="M548.97 872.099C555.76 867.279 561.171 863.14 570.092 864.329C575.55 865.056 583.844 871.5 587.027 875.606L586.787 876.021L586.506 876.734C583.435 876.892 580.475 877.491 576.583 877.633L576.271 875.198C571.217 873.58 572.538 869.853 571.285 870.351C570.363 872.087 571.707 875.716 563.342 873.047C562.84 872.887 565.123 870.273 564.435 869.251C563.734 869.262 561.512 872.278 560.734 873.064C556.644 872.679 553.09 872.344 548.97 872.099Z"/><path fill="#E4E4E5" d="M576.271 875.198C578.668 875.42 584.971 875.723 586.787 876.021L586.506 876.734C583.435 876.892 580.475 877.491 576.583 877.633L576.271 875.198Z"/><path fill="#050505" d="M576.583 877.633C580.475 877.491 583.435 876.892 586.506 876.734L587.283 877.79C584.765 880.538 581.953 883.698 578.907 885.855C578.339 886.257 576.756 884.412 575.805 884.668C575.341 885.792 576.91 886.718 576.055 888.773C573.901 893.952 569.434 889.131 568.79 889.522C569.118 890.734 569.894 891.979 569.877 893.16C569.843 895.641 562.37 902.029 560.278 904.144C562.071 890.455 563.29 883.742 576.583 877.633Z"/><path fill="#050505" fill-opacity="0.92941177" d="M126.005 648.857L127.312 649.191C127.622 651.404 127.69 653.008 128.891 654.928C131.209 656.076 155.056 651.118 159.603 650.426L160.215 651.989C150.003 653.987 139.402 655.155 129.081 657.02C137.086 703.676 130.793 694.873 178.382 686.68L178.785 688.013C168.666 690.754 156.624 692.488 146.222 693.835C142.792 694.279 137.547 694.554 134.737 692.098C131.545 689.308 126.261 654.108 126.005 648.857Z"/><path fill="#FEFEFE" fill-opacity="0.074509807" d="M590.131 997.668C590.308 999.661 591.778 1001.07 591.763 1001.52C591.596 1006.46 589.386 1005.37 594.35 1009.17C589.733 1013.58 580.648 1019.62 579.416 1024.83C578.882 1026.51 578.59 1026.45 577.256 1027.68C573.874 1025.13 577.298 1022.33 578.388 1020.14C578.216 1019.88 578.333 1020 578.007 1019.81L578.234 1019.94L577.781 1019.65L577.864 1019.53C579.163 1018.92 579.523 1019.78 580.584 1018.14C580.528 1014.83 578.632 1013.94 581.165 1010.61C582.582 1007.66 581.069 1008.6 584.204 1008.21C590.172 1007.47 586.646 1003.21 584.594 1001.16C586.501 1000.01 588.35 999.021 590.131 997.668Z"/><path fill="#050505" fill-opacity="0.96470588" d="M589.055 874.243C590.628 876.162 592.695 874.597 590.569 877.218C590.076 881.527 593.17 891.049 593.764 895.908C595.687 911.625 596.066 938.04 589.365 952.382C589.173 950.976 589.735 948.591 590.198 947.221C594.234 935.276 594.702 886.86 587.283 877.79L586.506 876.734L586.787 876.021L587.027 875.606C588.062 875.391 588.282 874.993 589.055 874.243Z"/><path fill="#050505" fill-opacity="0.94509804" d="M511.261 510.653C528.894 522.62 540.479 539.799 544.035 560.74C544.756 564.982 545.727 569.73 545.267 574.019L544.637 574.919L543.836 574.434C543.179 547.666 531.948 527.184 510.041 511.78L511.261 510.653Z"/><path fill="#050505" fill-opacity="0.90980393" d="M203.17 630.558C213.394 628.245 218.413 630.021 219.524 641.119C220.555 651.412 227.837 671.291 222.316 680.113L220.325 679.922C220.885 679.326 222.019 678.037 222.29 677.393C224.605 671.9 219.592 649.044 217.885 643.714C215.88 642.806 215.064 643.26 212.623 643.441L211.494 642.014C217.089 640.654 220.987 640.493 214.253 632.207C212.065 629.515 206.944 631.126 203.664 631.629L203.17 630.558Z"/><path fill="#FEFEFE" d="M596.364 1007.63C597.921 1007.86 599.271 1007.99 600.838 1008.12C598.213 1011.5 582.786 1024.35 579.416 1024.83C580.648 1019.62 589.733 1013.58 594.35 1009.17C595.129 1008.77 595.685 1008.18 596.364 1007.63Z"/><path fill="#FEFEFE" fill-opacity="0.96470588" d="M590.131 997.668C596.747 994.056 603.434 998.169 601.251 1003.31C596.222 997.454 596.425 1003.69 596.364 1007.63C595.685 1008.18 595.129 1008.77 594.35 1009.17C589.386 1005.37 591.596 1006.46 591.763 1001.52C591.778 1001.07 590.308 999.661 590.131 997.668Z"/><path fill="#050505" fill-opacity="0.95294118" d="M254.82 529.071C248.436 537.699 243.657 549.013 241.401 559.597C240.494 563.847 240.878 570.422 239.56 574.827L239.034 574.062C238.106 555.942 243.808 542.136 254.101 527.645L254.82 529.071Z"/><path fill="#FEFEFE" d="M528.376 1053.88C530.348 1053.84 541.293 1054.47 542.946 1055.43C536.529 1060.58 531.996 1063.35 525.148 1056.51L528.376 1053.88Z"/><path fill="#FEFEFE" fill-opacity="0.25098041" d="M528.376 1053.88C529.28 1051.5 530.405 1053.94 532.343 1053.08C535.276 1051.77 531.169 1042.12 538.558 1046.25C539.609 1046.83 538.9 1050.81 542.532 1051.37C543.57 1051.53 544.037 1053.57 544.291 1054.39C543.813 1054.79 543.453 1055.07 542.946 1055.43C541.293 1054.47 530.348 1053.84 528.376 1053.88Z"/><path fill="#050505" fill-opacity="0.90980393" d="M465.323 498.419L466.658 497.962C479.654 498.167 487.783 499.112 499.852 504.551C501.889 505.469 507.874 508.502 509.506 509.113L508.664 511.041C500.224 504.655 485.949 500.844 475.528 499.574C472.854 499.248 467.258 499.862 465.323 498.419Z"/><path fill="#FEFEFE" fill-opacity="0.23921569" d="M550.451 989.555C552.071 994.239 552.928 992.19 556.636 991.489C557.69 995.654 554.082 994.908 550.868 996.623C546.2 999.114 546.624 1000.31 543.602 996.434C545.117 991.503 546.507 992.314 550.451 989.555Z"/><path fill="#FEFEFE" fill-opacity="0.90980393" d="M412.228 800.681C411.186 799.117 405.215 792.424 409.677 794.106C413.292 795.772 416.66 795.888 420.613 796.28C420.149 798.433 419.814 800.62 419.494 802.8C417.851 802.301 412.56 800.954 411.431 800.39C411.697 800.487 411.962 800.584 412.228 800.681Z"/><path fill="#050505" fill-opacity="0.86274511" d="M318.162 468.985C319.423 456.432 325.387 440.866 334.34 431.883L334.894 433.219C327.066 442.362 320.097 457.718 318.849 469.742L318.162 468.985Z"/><path fill="#E4E4E5" fill-opacity="0.070588239" d="M507.849 848.651C506.081 844.642 494.678 819.298 495.013 817.189C495.108 817.148 495.202 817.108 495.297 817.067C499.232 822.29 506.255 842.457 508.969 847.573L507.849 848.651Z"/><path fill="#FEFEFE" d="M237.596 1051.92C238.477 1051.3 242.156 1055.03 242.033 1055.23C238.798 1060.39 234.019 1058.53 230.898 1056.41C233.204 1054.74 235.647 1053.43 237.596 1051.92Z"/><path fill="#050505" fill-opacity="0.83137256" d="M357.448 413.423C367.754 409.564 374.947 405.812 386.605 405.164C386.348 405.401 386.092 405.587 385.923 405.866L385.923 405.985C386.271 406.214 387.379 406.385 387.916 406.541C377.047 407.795 368.381 409.18 358.47 414.308L357.448 413.423Z"/><path fill="#050505" fill-opacity="0.94509804" d="M520.737 767.562C521.225 767.504 521.961 767.239 522.463 767.076C522.257 768.081 522.057 768.797 521.775 769.787C520.759 773.7 520.934 774.458 521.263 778.435C521.198 780.628 520.039 795.636 519.665 797.273L518.562 797.203C518.553 793.514 518.911 790.79 519.314 787.145C520.19 783.226 520.059 782.191 519.809 778.206C519.918 775.065 520.243 770.656 520.737 767.562Z"/><path fill="#FEFEFE" fill-opacity="0.047058824" d="M176.01 999.49C178.071 1001.12 178.862 1001.85 180.717 1003.58C181.091 1004.3 182.557 1006.59 182.547 1006.56C183.117 1008.33 176.241 1010.69 177.931 1004.7L178.16 1004.8L178.207 1004.76C177.668 1003.66 174.498 1003.87 173.26 1003.77C173.498 1003.7 173.718 1003.58 173.905 1003.42C177.303 1002.92 176.339 1002.94 176.01 999.49Z"/><path fill="#FEFEFE" d="M586.252 989.688C590.539 991.104 591.611 991.777 595.553 993.782C592.765 994.86 590.263 995.898 587.528 996.982C587.045 994.487 586.707 992.164 586.252 989.688Z"/><path fill="#050505" fill-opacity="0.92156863" d="M574.333 1030.15L575.524 1031.15C570.736 1035.09 564.622 1039.66 560.16 1043.66L558.26 1042.93C562.963 1039.6 569.781 1033.86 574.333 1030.15Z"/><path fill="#E4E4E5" fill-opacity="0.05882353" d="M338.68 835.452C336.317 830.163 333.897 824.9 331.42 819.666C331.134 819.061 330.205 816.16 331.343 815.956C331.988 816.379 338.69 832.592 339.779 834.975L338.68 835.452Z"/><path fill="#050505" fill-opacity="0.90980393" d="M220.325 679.922L219.847 681.374C216.475 682.221 205.073 683.937 200.936 684.555L199.366 682.948C203.843 682.603 216.504 681.08 220.325 679.922Z"/><path fill="#050505" fill-opacity="0.74509805" d="M294.332 500.381L294.902 501.483C287.968 503.518 284.097 505.414 277.67 508.656L276.13 508.097C283.293 504.51 286.403 502.74 294.332 500.381Z"/><path fill="#E4E4E5" fill-opacity="0.98823529" d="M422.713 898.222C426.721 898.443 432.312 898.203 435.503 901.081C435.909 901.447 435.246 902.166 435.075 902.096C430.665 900.28 426.944 899.879 422.116 899.785L422.713 898.222Z"/><path fill="#FEFEFE" d="M553.871 996.836C553.031 998.091 548.78 1004.77 547.99 1005.17L547.874 1005.11C547.466 1005.48 547.525 1005.49 547.233 1006.02L544.391 1005.35C547.584 1000.79 549.415 999.917 553.871 996.836Z"/><path fill="#E4E4E5" fill-opacity="0.11372549" d="M453.604 876.884C456.189 881.253 461.209 888.111 462.879 892.543C459.834 890.096 455.116 881.792 452.906 878.092L453.604 876.884Z"/><path fill="#150E0D" fill-opacity="0.40000001" d="M317.743 477.841L318.324 478.022C318.484 480.985 318.542 495.432 317.826 497.617L316.878 497.317C316.98 492.551 317.419 488.942 317.293 484.124C317.888 482.883 317.604 482.54 317.207 481.18L317.066 480.249L317.743 477.841Z"/><path fill="#E4E4E5" fill-opacity="0.062745102" d="M379.048 937.914C379.628 937.835 380.199 937.891 380.788 937.915C381.228 940.209 383.604 947.642 384.403 950.189L383.207 951.053C382.035 946.854 380.389 942.171 379.048 937.914Z"/><path fill="#252226" fill-opacity="0.65882355" d="M514.748 735.952C515.157 737.971 515.297 738.812 515.433 740.937C515.071 748.151 515.586 756.304 515.035 763.323C514.244 758.991 514.571 741.086 514.748 735.952Z"/><path fill="#050505" fill-opacity="0.76078433" d="M254.101 527.645C256.34 524.714 259.291 521.413 262.121 519.066L262.69 519.953C260.062 522.878 257.451 526.266 254.82 529.071L254.101 527.645Z"/><path fill="#FEFEFE" fill-opacity="0.05882353" d="M401.839 992.233C402.627 988.866 402.105 985.678 406.453 987.882C406.985 993.062 406.55 991.555 401.839 992.233Z"/><path fill="#E4E4E5" fill-opacity="0.23529412" d="M339.779 834.975C341.906 838.928 342.395 841.031 345.038 845.33L343.842 846.552C342.377 843.683 339.86 838.336 338.68 835.452L339.779 834.975Z"/><path fill="#FEFEFE" fill-opacity="0.17254902" d="M173.81 997.692C174.886 998.352 175.226 998.515 176.01 999.49C176.339 1002.94 177.303 1002.92 173.905 1003.42C174.38 1003.01 174.586 1002.36 174.442 1001.75C174.298 1001.14 173.827 1000.66 173.217 1000.5C172.607 1000.34 171.96 1000.53 171.534 1000.99C172.561 999.301 172.454 999.174 173.81 997.692Z"/><path fill="#150E0D" fill-opacity="0.7647059" d="M465.594 480.815L466.022 480.95C466.19 485.503 465.731 488.7 466.572 493.201C466.606 494.795 466.606 496.366 466.658 497.962L465.323 498.419C465.234 494.022 465.506 488.859 465.183 484.627L465.594 480.815Z"/><path fill="#E4E4E5" fill-opacity="0.40784314" d="M384.403 950.189C385.414 953.095 386.422 956.003 387.301 958.953L386.088 960.023C385.033 957.361 384.021 953.832 383.207 951.053L384.403 950.189Z"/><path fill="#E4E4E5" fill-opacity="0.98431373" d="M442.705 859.223C444.37 861.842 446.077 864.429 447.709 867.069L446.694 868.521C445.018 865.912 443.121 863.117 441.644 860.426L442.705 859.223Z"/><path fill="#E4E4E5" fill-opacity="0.98823529" d="M404.539 402.458C405.182 403.258 405.819 404.063 406.451 404.871C405.583 405.719 405.359 405.951 404.053 405.768C401.979 405.475 399.901 405.213 397.819 404.983C400.168 404.031 402.39 403.333 404.539 402.458Z"/><path fill="#FEFEFE" fill-opacity="0.61176473" d="M391.68 971.895C392.219 973.828 393.437 976.34 393.67 978.025L392.465 979.955C391.545 977.537 390.763 975.069 390.125 972.562L391.68 971.895Z"/><path fill="#050505" fill-opacity="0.78039217" d="M352.265 416.346L352.765 417.549C350.018 419.236 347.12 421.151 344.832 423.43L342.763 423.08C346.099 420.755 348.74 418.656 352.265 416.346Z"/><path fill="#050505" fill-opacity="0.78039217" d="M335.048 430.837C337.907 427.757 339.135 426.128 342.615 423.644L342.919 424.768C340.767 426.803 338.275 429.293 336.333 431.529L335.048 430.837Z"/><path fill="#050505" fill-opacity="0.84313726" d="M310.343 497.627C312.519 497.478 314.698 497.375 316.878 497.317L317.826 497.617C315.369 499.039 310.701 498.738 307.279 499.107C306.289 498.81 305.303 498.468 304.323 498.139L308.589 497.842C309.497 497.909 309.559 498.007 310.343 497.627Z"/><path fill="#E4E4E5" fill-opacity="0.74509805" d="M387.301 958.953C388.047 961.217 388.956 963.121 389.488 965.488L388.393 967.629C387.702 965.131 386.833 962.555 386.088 960.023L387.301 958.953Z"/><path fill="#2D3637" fill-opacity="0.34117648" d="M466.122 473.757C467.006 478.845 466.764 487.838 466.572 493.201C465.731 488.7 466.19 485.503 466.022 480.95C465.957 478.381 465.994 476.334 466.122 473.757Z"/><path fill="#050505" fill-opacity="0.72156864" d="M274.166 509.409L274.505 510.633C272.167 512.231 270.141 513.74 267.876 515.39L266.806 514.809C269.242 512.83 271.488 511.067 274.166 509.409Z"/><path fill="#E4E4E5" fill-opacity="0.40392157" d="M447.709 867.069C448.921 868.732 449.984 870.498 450.886 872.348L450.026 873.781C448.918 872.179 447.737 870.2 446.694 868.521L447.709 867.069Z"/><path fill="#E4E4E5" fill-opacity="0.98823529" d="M388.393 967.629L389.488 965.488C390.213 967.66 390.857 969.754 391.68 971.895L390.125 972.562C389.519 970.886 389.064 969.277 388.393 967.629Z"/><path fill="#FEFEFE" fill-opacity="0.85490197" d="M171.534 1000.99C171.96 1000.53 172.607 1000.34 173.217 1000.5C173.827 1000.66 174.298 1001.14 174.442 1001.75C174.586 1002.36 174.38 1003.01 173.905 1003.42C173.718 1003.58 173.498 1003.7 173.26 1003.77C172.528 1003.99 171.744 1003.68 171.342 1003.04C170.94 1002.39 171.019 1001.55 171.534 1000.99Z"/><path fill="#050505" fill-opacity="0.82352942" d="M294.667 500.053C297.702 499.647 300.546 498.889 303.722 498.449L304.08 499.531C301.493 499.816 299.185 500.121 296.743 501.007L294.667 500.053Z"/><path fill="#050505" fill-opacity="0.6156863" d="M266.806 514.809L267.876 515.39C266.249 517.023 264.517 518.547 262.69 519.953L262.121 519.066C263.698 517.445 264.92 516.083 266.806 514.809Z"/><path fill="#150E0D" fill-opacity="0.6901961" d="M352.265 416.346C353.935 415.273 355.665 414.297 357.448 413.423L358.47 414.308C356.285 415.449 354.862 416.287 352.765 417.549L352.265 416.346Z"/><path fill="#FEFEFE" fill-opacity="0.98823529" d="M420.179 802.68C420.468 801.925 421.721 797.69 422.861 798.312C423.143 800.202 422.302 802.136 420.932 803.459L420.179 802.68Z"/><path fill="#E4E4E5" fill-opacity="0.65490198" d="M440.287 855.539C441.164 856.795 441.875 857.958 442.705 859.223L441.644 860.426C440.722 859.155 440.339 858.544 439.586 857.179L440.287 855.539Z"/><path fill="#E4E4E5" fill-opacity="0.27450982" d="M450.026 873.781L450.886 872.348C451.953 873.949 452.661 875.202 453.604 876.884L452.906 878.092C451.893 876.631 450.984 875.279 450.026 873.781Z"/><path fill="#150E0D" fill-opacity="0.58431375" d="M317.555 473.666C317.76 471.553 317.662 471.099 318.162 468.985L318.849 469.742C318.435 473.288 318.46 474.51 318.324 478.022L317.743 477.841C317.691 476.449 317.629 475.057 317.555 473.666Z"/><path fill="#252226" fill-opacity="0.42352942" d="M464.781 471.703C465.628 475.577 465.411 476.875 465.594 480.815L465.183 484.627C464.892 480.503 464.688 475.82 464.781 471.703Z"/><path fill="#2D3637" fill-opacity="0.63529414" d="M574.1 987.498C577.67 986.794 581.339 986.765 584.92 987.412C581.016 987.89 578 987.801 574.1 987.498Z"/><path fill="#252226" fill-opacity="0.64313728" d="M527.948 739.638C527.346 736.509 527.684 733.774 528.31 730.703C528.404 733.6 528.184 737.271 528.672 739.907L527.948 739.638Z"/><path fill="#050505" fill-opacity="0.70980394" d="M519.016 1022L520.136 1023.6C518.886 1023.9 517.664 1024.35 516.429 1024.74L516.03 1023.35C517.031 1022.87 517.983 1022.41 519.016 1022Z"/><path fill="#252226" fill-opacity="0.51372552" d="M276.13 508.097L277.67 508.656C276.586 509.347 275.621 509.985 274.505 510.633L274.166 509.409C274.907 508.733 275.268 508.585 276.13 508.097Z"/><path fill="#252226" fill-opacity="0.75294119" d="M521.775 769.787C521.834 773.343 521.932 774.912 521.263 778.435C520.934 774.458 520.759 773.7 521.775 769.787Z"/><path fill="#252226" fill-opacity="0.63137257" d="M519.809 778.206C520.059 782.191 520.19 783.226 519.314 787.145C519.211 783.341 519.074 781.962 519.809 778.206Z"/><path fill="#050505" fill-opacity="0.64313728" d="M303.722 498.449C304.183 498.171 303.987 498.262 304.323 498.139C305.303 498.468 306.289 498.81 307.279 499.107C306.055 499.394 305.313 499.431 304.08 499.531L303.722 498.449Z"/><path fill="#252226" fill-opacity="0.85882354" d="M509.506 509.113L511.261 510.653L510.041 511.78L508.664 511.041L509.506 509.113Z"/><path fill="#2D3637" fill-opacity="0.80784315" d="M219.4 1046.65L220.598 1047.91L219.363 1049.03C219.039 1048.75 218.708 1048.43 218.391 1048.14L219.4 1046.65Z"/><path fill="#150E0D" fill-opacity="0.78823531" d="M558.26 1042.93L560.16 1043.66C559.546 1044.13 558.937 1044.6 558.332 1045.08L557.628 1043.62C557.839 1043.39 558.049 1043.16 558.26 1042.93Z"/><path fill="#2D3637" fill-opacity="0.25882354" d="M317.555 473.666C317.629 475.057 317.691 476.449 317.743 477.841L317.066 480.249C317.024 477.256 316.939 476.66 317.555 473.666Z"/><path fill="#150E0D" fill-opacity="0.67058825" d="M335.048 430.837L336.333 431.529C335.857 432.114 335.391 432.651 334.894 433.219L334.34 431.883L335.048 430.837Z"/><path fill="#252226" fill-opacity="0.24705882" d="M317.207 481.18C317.604 482.54 317.888 482.883 317.293 484.124C317.084 482.718 317.085 482.572 317.207 481.18Z"/><path fill="#150E0D" fill-opacity="0.60392159" d="M342.615 423.644L342.763 423.08L344.832 423.43C344.191 423.901 343.576 424.321 342.919 424.768L342.615 423.644Z"/><path fill="#150E0D" fill-opacity="0.54509807" d="M294.332 500.381L294.667 500.053L296.743 501.007L294.902 501.483L294.332 500.381Z"/><path fill="#150E0D" fill-opacity="0.43921569" d="M308.589 497.842C309.409 497.496 309.413 497.558 310.343 497.627C309.559 498.007 309.497 497.909 308.589 497.842Z"/><path fill="#2D3637" fill-opacity="0.78039217" d="M179.771 1015.83C180.428 1015.99 180.455 1016.07 180.709 1016.68C180.099 1016.35 180.105 1016.4 179.771 1015.83Z"/><path fill="#150E0D" fill-opacity="0.82745099" d="M555.185 1047.39C555.211 1047.26 555.227 1047.05 555.307 1046.91C555.451 1046.66 555.929 1046.64 556.117 1046.59C555.663 1047.18 555.817 1047.07 555.185 1047.39Z"/><path fill="#2D3637" fill-opacity="0.58039218" d="M220.325 679.922L222.316 680.113C221.496 680.539 220.673 680.959 219.847 681.374L220.325 679.922Z"/><path fill="#2D3637" fill-opacity="0.80784315" d="M203.419 1022.39C204.088 1022.56 204.105 1022.64 204.334 1023.27C203.692 1022.86 203.819 1023 203.419 1022.39Z"/><path fill="#575B5D" fill-opacity="0.71372551" d="M166.173 1004.16C167.09 1004.63 167.121 1004.55 167.523 1005.42C166.719 1004.94 166.749 1004.92 166.173 1004.16Z"/><path fill="#575B5D" fill-opacity="0.72156864" d="M212.579 1043.39C213.23 1043.55 213.258 1043.62 213.514 1044.23C212.873 1043.83 212.983 1043.96 212.579 1043.39Z"/><path fill="#575B5D" fill-opacity="0.67450982" d="M221.165 1037.47C221.784 1037.64 221.815 1037.73 222.067 1038.31C221.447 1037.92 221.582 1038.06 221.165 1037.47Z"/></svg>